<svg width="613" height="613" viewBox="0 0 613 613" fill="none" xmlns="http://www.w3.org/2000/svg">
<path d="M407.253 112.89H487.862C487.862 112.89 480.739 99.9191 459.983 101.856C440.171 103.658 439.141 95.4687 429.088 94.5001C419.035 93.5316 410.612 101.133 407.253 112.89Z" fill="#E0E0E0"/>
<path d="M196.552 325.993C196.552 325.993 188.473 330.358 200.23 347.228C211.988 364.098 219.638 372.189 219.638 372.189C219.638 372.189 221.869 376.174 218.412 377.314C214.955 378.454 206.973 378.295 205.993 382.843C204.975 387.575 208.837 391.425 215.972 394.184C223.108 396.942 238.531 403.722 239.916 404.335C241.301 404.948 242.822 406.726 240.59 407.878C238.359 409.03 221.06 413.285 223.561 421.364C226.062 429.443 247.247 434.016 249.552 434.556C251.857 435.095 252.507 435.953 252.495 437.179C252.482 438.405 246.536 439.288 241.657 440.698C236.777 442.108 231.383 444.609 233.222 449.157C235.061 453.706 248.375 461.957 277.775 460.792L291.359 459.37L297.146 446.926C307.898 419.55 304.502 404.261 300.824 401.025C297.146 397.788 293.002 402.079 290.072 406.223C287.142 410.367 284.346 415.688 283.182 415.295C282.017 414.903 281.428 414.008 281.674 411.617C281.919 409.227 284.579 387.759 277.763 382.733C270.946 377.706 261.236 392.639 259.373 394.368C257.509 396.096 256.369 394.061 256.246 392.565C256.124 391.07 254.836 374.286 254.53 366.611C254.223 358.936 251.906 354.057 247.113 353.468C242.319 352.88 240.026 360.481 237.807 363.374C235.588 366.268 232.56 362.847 232.56 362.847C232.56 362.847 227.423 352.966 215.396 336.316C203.369 319.667 196.393 326.116 196.393 326.116" fill="#EBEBEB"/>
<path d="M292.499 462.472C283.684 450.212 268.396 428.144 255.167 409.276C241.939 390.407 229.961 373.342 221.207 361.033C216.83 354.903 213.3 349.925 210.835 346.48L208.015 342.508L207.292 341.478C207.133 341.245 207.059 341.11 207.059 341.11C207.059 341.11 207.157 341.22 207.329 341.453L208.089 342.459L210.97 346.382C213.422 349.778 217.1 354.731 221.452 360.861C230.267 373.121 242.294 390.162 255.511 409.03C268.727 427.899 283.991 449.991 292.744 462.288" fill="#E0E0E0"/>
<path d="M217.149 383.53C217.48 383.543 217.808 383.588 218.13 383.664C218.755 383.775 219.65 383.959 220.766 384.204C222.985 384.682 226.025 385.43 229.348 386.313L237.93 388.605L240.529 389.292C240.854 389.347 241.171 389.442 241.473 389.574C241.143 389.57 240.814 389.528 240.492 389.451C239.867 389.341 238.972 389.157 237.856 388.9C235.649 388.397 232.609 387.674 229.274 386.73L220.692 384.498L218.093 383.824C217.767 383.769 217.449 383.67 217.149 383.53V383.53Z" fill="#E0E0E0"/>
<path d="M242.282 388.642C242.16 388.642 243.422 382.267 245.09 374.469C246.757 366.672 248.216 360.358 248.326 360.383C248.437 360.407 247.186 366.746 245.507 374.555C243.827 382.365 242.392 388.642 242.282 388.642Z" fill="#E0E0E0"/>
<path d="M261.285 418.471C261.391 418.152 261.535 417.847 261.714 417.563L263.014 415.111C264.105 413.076 265.613 410.207 267.145 407.069C268.678 403.93 270.002 400.939 270.921 398.867L272.025 396.354C272.131 396.031 272.284 395.725 272.479 395.446C272.41 395.778 272.312 396.102 272.184 396.415C271.964 397.028 271.633 397.898 271.203 398.977C270.345 401.135 269.083 404.077 267.525 407.265C265.968 410.453 264.424 413.248 263.271 415.259C262.683 416.252 262.192 417.061 261.849 417.6C261.689 417.908 261.5 418.199 261.285 418.471Z" fill="#E0E0E0"/>
<path d="M237.55 418.912C237.849 418.829 238.159 418.792 238.469 418.802L241.007 418.655C243.14 418.544 246.095 418.434 249.356 418.323C252.617 418.213 255.572 418.152 257.718 418.127H260.255C260.565 418.1 260.877 418.1 261.187 418.127C260.884 418.21 260.57 418.252 260.255 418.25L257.73 418.397C255.584 418.495 252.63 418.618 249.368 418.716C246.107 418.814 243.153 418.887 241.007 418.912H238.482C238.172 418.948 237.859 418.948 237.55 418.912V418.912Z" fill="#E0E0E0"/>
<path d="M250.974 447.49C251.377 447.4 251.788 447.355 252.2 447.355L255.449 447.159C258.183 447.012 261.972 446.828 266.152 446.656C270.333 446.485 274.121 446.362 276.855 446.289L280.104 446.215C280.512 446.182 280.922 446.182 281.33 446.215C280.926 446.293 280.516 446.338 280.104 446.35L276.855 446.546C274.121 446.693 270.333 446.877 266.152 447.049C261.972 447.22 258.183 447.343 255.449 447.416L252.2 447.49C251.793 447.524 251.382 447.524 250.974 447.49V447.49Z" fill="#E0E0E0"/>
<path d="M280.521 446.019C280.66 445.617 280.832 445.227 281.036 444.854L282.581 441.728C283.88 439.092 285.646 435.451 287.485 431.368C289.324 427.286 290.918 423.559 292.046 420.837L293.382 417.625C293.529 417.228 293.705 416.843 293.909 416.472C293.824 416.893 293.697 417.303 293.529 417.698C293.259 418.483 292.855 419.598 292.303 420.959C291.249 423.706 289.704 427.469 287.853 431.552C286.001 435.635 284.175 439.276 282.814 441.875C282.127 443.175 281.588 444.229 281.146 444.94C280.965 445.315 280.756 445.675 280.521 446.019V446.019Z" fill="#E0E0E0"/>
<path d="M394.527 265.086C379.937 248.719 381.335 225.094 386.864 204.877C387.784 201.493 388.262 197.815 390.542 195.216C392.823 192.617 397.138 191.465 399.848 193.622C402.091 195.412 402.496 198.612 403.33 201.383C404.438 205.067 406.562 208.365 409.46 210.897C411.36 212.54 413.873 213.851 416.301 213.189C419.623 212.258 420.923 208.285 421.707 204.889C423.154 198.571 424.609 192.253 426.072 185.935C426.678 182.507 427.824 179.196 429.468 176.127C431.282 173.16 434.372 170.733 437.756 170.598C441.139 170.463 444.732 173.258 444.621 176.728C444.418 178.16 444.119 179.578 443.726 180.97C443.542 181.665 443.566 182.4 443.795 183.082C444.023 183.764 444.447 184.364 445.014 184.807C446.24 185.531 447.846 184.893 449.096 184.133C453.399 181.546 456.82 177.709 460.069 173.847C463.318 169.985 466.53 166.025 470.588 163.046C474.646 160.067 479.722 158.142 484.638 159.025C489.554 159.907 494.004 164.125 494.103 169.164C494.201 174.202 490.277 178.42 486.33 181.558C480.496 186.218 474.022 190.013 467.106 192.825C465.799 193.19 464.643 193.963 463.808 195.032C462.582 197.116 464.139 199.863 466.187 201.162C468.516 202.597 471.311 202.989 473.886 203.921C476.46 204.852 479.035 206.704 479.44 209.425C480.004 213.214 476.252 216.156 472.844 217.86C466.018 221.252 458.662 223.45 451.094 224.358C448.385 224.677 445.577 224.861 443.15 226.124C440.722 227.386 438.798 230.157 439.472 232.83C440.146 235.502 443.052 237.01 445.774 237.133C448.495 237.256 451.168 236.41 453.877 236.066C458.941 235.404 464.911 237.145 466.898 241.878C467.488 243.486 467.695 245.21 467.504 246.912C467.312 248.614 466.727 250.249 465.794 251.686C463.927 254.521 461.509 256.952 458.683 258.833C449.213 265.94 438.028 270.407 426.268 271.78C414.596 273.006 404.347 271.608 394.551 265.147" fill="#F5F5F5"/>
<path d="M397.494 267.047C400.142 259.152 397.371 263.112 402.827 253.561C408.842 243.252 415.445 233.297 422.602 223.745C424.482 221.195 426.342 218.682 428.181 216.205C430.02 213.753 431.859 211.301 433.771 208.984C437.492 204.603 441.45 200.428 445.627 196.479C449.587 192.678 453.485 189.221 457.163 186.009C460.841 182.797 464.323 179.879 467.609 177.365C472.782 173.356 478.262 169.761 484 166.613C486.023 165.498 487.678 164.689 488.72 164.161L489.946 163.561L490.376 163.377C490.249 163.472 490.114 163.554 489.971 163.622L488.745 164.284C487.666 164.86 486.085 165.706 484.086 166.846C478.417 170.075 472.999 173.727 467.878 177.77C464.617 180.308 461.16 183.238 457.506 186.45C453.853 189.662 449.979 193.144 446.031 196.945C441.885 200.892 437.952 205.059 434.249 209.425C432.337 211.706 430.571 214.146 428.695 216.622L423.117 224.162C415.984 233.682 409.386 243.591 403.354 253.843C397.886 263.369 400.632 259.348 397.935 267.195" fill="#E0E0E0"/>
<path d="M434.004 209.008C433.954 208.503 433.954 207.994 434.004 207.488C434.004 206.507 434.163 205.036 434.323 203.357C434.642 199.863 435.254 195.069 435.941 189.785C436.628 184.501 437.167 179.707 437.425 176.225C437.559 174.484 437.657 173.087 437.719 172.106C437.714 171.599 437.768 171.093 437.878 170.598C437.958 171.1 437.987 171.61 437.964 172.118C437.964 173.087 437.964 174.57 437.878 176.25C437.731 179.756 437.265 184.574 436.566 189.871C435.867 195.167 435.255 199.801 434.776 203.357C434.568 204.987 434.396 206.36 434.261 207.464C434.233 207.987 434.147 208.505 434.004 209.008V209.008Z" fill="#E0E0E0"/>
<path d="M479.366 211.179C478.768 211.175 478.173 211.109 477.588 210.982C476.448 210.811 474.793 210.566 472.746 210.32C468.663 209.805 462.938 209.303 456.71 209.009C450.481 208.714 444.732 208.714 440.6 208.825C438.54 208.825 436.922 208.947 435.696 208.996C435.096 209.047 434.493 209.047 433.894 208.996C434.481 208.851 435.08 208.761 435.684 208.727C436.836 208.604 438.503 208.457 440.588 208.359C444.719 208.126 450.396 208.065 456.746 208.359C462.126 208.592 467.49 209.095 472.819 209.867C474.854 210.173 476.497 210.492 477.637 210.725C478.227 210.82 478.806 210.972 479.366 211.179V211.179Z" fill="#E0E0E0"/>
<path d="M403.55 252.875C403.46 252.685 403.402 252.482 403.379 252.274C403.28 251.796 403.158 251.22 402.998 250.521C402.692 249.001 402.287 246.843 401.834 244.048C400.914 238.567 399.884 230.954 398.855 222.531C397.825 214.109 396.868 206.495 396.072 201.003C395.679 198.33 395.348 196.099 395.103 194.505C395.005 193.794 394.919 193.205 394.846 192.727C394.826 192.519 394.826 192.31 394.846 192.102C394.934 192.293 394.996 192.495 395.029 192.703L395.397 194.456C395.716 195.976 396.108 198.134 396.562 200.929C397.481 206.409 398.511 214.023 399.541 222.446C400.571 230.868 401.527 238.482 402.324 243.974C402.729 246.647 403.048 248.878 403.293 250.484C403.403 251.183 403.477 251.771 403.55 252.25C403.577 252.457 403.577 252.667 403.55 252.875Z" fill="#E0E0E0"/>
<path d="M465.794 247.934C465.592 247.999 465.381 248.032 465.169 248.032L463.355 248.204L456.685 248.743C451.058 249.197 443.285 249.969 434.703 250.729C426.121 251.489 418.324 252.188 412.635 252.532C409.815 252.703 407.535 252.814 405.953 252.863H404.139C403.927 252.894 403.713 252.894 403.501 252.863C403.705 252.804 403.915 252.771 404.126 252.765L405.941 252.593L412.61 252.053C418.238 251.6 426.011 250.827 434.593 250.067C443.175 249.307 450.96 248.608 456.661 248.277C459.493 248.106 461.773 247.983 463.355 247.934H465.169C465.377 247.909 465.587 247.909 465.794 247.934V247.934Z" fill="#E0E0E0"/>
<path d="M514.074 372.704C514.031 372.903 513.965 373.096 513.878 373.28L513.204 374.911C512.578 376.382 511.696 378.454 510.592 381.041L501.14 402.9L501.078 403.023H500.944L471.25 407.927L461.295 409.558L460.841 409.631L460.952 409.19C463.404 399.639 465.598 390.8 467.498 383.383L467.633 383.664L450.187 375.867L445.369 373.673L444.143 373.084C443.996 373.022 443.856 372.944 443.726 372.851L444.168 373.011L445.455 373.538L450.359 375.61L467.891 383.211L468.087 383.297V383.493C466.223 390.971 464.029 399.774 461.65 409.337L461.307 408.969L471.262 407.326L500.968 402.496L500.76 402.655L510.408 380.894C511.573 378.295 512.505 376.235 513.167 374.764L513.902 373.158C513.951 373.003 514.008 372.852 514.074 372.704V372.704Z" fill="#E0E0E0"/>
<path d="M464.777 406.113L463.955 408.246L465.255 410.134L462.974 410.024L461.589 411.838L460.988 409.631L458.831 408.871L460.743 407.621L460.804 405.34L462.582 406.775L464.777 406.113Z" fill="#E0E0E0"/>
<path d="M444.388 371.478L443.984 372.545L444.621 373.476L443.493 373.415L442.807 374.322L442.5 373.231L441.434 372.851L442.378 372.226L442.414 371.086L443.297 371.797L444.388 371.478Z" fill="#E0E0E0"/>
<path d="M501.973 401.589L501.569 402.655L502.206 403.587L501.078 403.538L500.392 404.445L500.085 403.342L499.019 402.974L499.963 402.349L499.987 401.209L500.882 401.92L501.973 401.589Z" fill="#E0E0E0"/>
<path d="M468.737 382.475L468.332 383.53L468.982 384.474L467.842 384.412L467.155 385.32L466.861 384.216L465.782 383.848L466.738 383.223L466.763 382.083L467.645 382.794L468.737 382.475Z" fill="#E0E0E0"/>
<path d="M515.46 371.637L515.055 372.704L515.705 373.636L514.565 373.587L513.878 374.494L513.584 373.391L512.505 373.011L513.461 372.398L513.486 371.257L514.368 371.968L515.46 371.637Z" fill="#E0E0E0"/>
<path d="M143.859 460.866H208.052C208.052 460.866 202.376 450.531 185.849 452.039C170.071 453.473 169.274 446.951 161.244 446.154C153.213 445.357 146.544 451.499 143.859 460.866Z" fill="#E0E0E0"/>
<path d="M156.609 208.163H220.79C220.79 208.163 215.114 197.84 198.587 199.335C182.821 200.782 182.012 194.26 173.994 193.463C165.976 192.666 159.282 198.808 156.609 208.163Z" fill="#F5F5F5"/>
<path d="M482.578 252.801H535.296C535.296 252.801 530.637 244.317 517.066 245.543C504.094 246.769 503.432 241.375 496.849 240.713C490.265 240.051 484.773 245.114 482.578 252.801Z" fill="#F5F5F5"/>
<path d="M377.277 356.876C379.901 337.125 366.01 320.82 348.65 311.024C331.29 301.228 311.147 297.918 291.972 292.499C273.888 287.362 255.903 279.859 242.515 266.667C229.127 253.476 221.085 233.651 225.89 215.482C227.116 210.921 229.262 206.336 233.185 203.7C237.108 201.064 243.079 201.138 246.009 204.84C252.237 212.736 240.1 226.908 247.701 233.455C249.442 234.975 251.845 235.527 253.647 236.961C258.441 240.799 256.896 248.241 257.57 254.346C258.907 266.422 270.235 274.808 281.355 279.7C296.251 286.246 312.385 289.324 328.176 293.186C343.967 297.048 359.917 301.964 373.072 311.576C386.227 321.187 397.665 336.096 397.592 352.389C397.592 356.938 396.991 362.528 394.134 366.059C391.278 369.59 387.649 370.338 383.53 368.401C379.41 366.464 376.541 363.497 377.301 356.901" fill="#558EB4"/>
<g opacity="0.8">
<path opacity="0.8" d="M377.277 356.876C379.901 337.125 366.01 320.82 348.65 311.024C331.29 301.228 311.147 297.918 291.972 292.499C273.888 287.362 255.903 279.859 242.515 266.667C229.127 253.476 221.085 233.651 225.89 215.482C227.116 210.921 229.262 206.336 233.185 203.7C237.108 201.064 243.079 201.138 246.009 204.84C252.237 212.736 240.1 226.908 247.701 233.455C249.442 234.975 251.845 235.527 253.647 236.961C258.441 240.799 256.896 248.241 257.57 254.346C258.907 266.422 270.235 274.808 281.355 279.7C296.251 286.246 312.385 289.324 328.176 293.186C343.967 297.048 359.917 301.964 373.072 311.576C386.227 321.187 397.665 336.096 397.592 352.389C397.592 356.938 396.991 362.528 394.134 366.059C391.278 369.59 387.649 370.338 383.53 368.401C379.41 366.464 376.541 363.497 377.301 356.901" fill="white"/>
</g>
<path d="M293.296 199.838C292.671 192.482 298.126 186.144 304.33 182.735C310.534 179.327 317.644 177.929 324.032 174.901C339.909 167.374 349.999 149.658 350.746 131.501C351.494 113.344 343.611 95.1744 331.302 81.8355C326.288 76.4166 320.133 70.7279 320.06 63.3352C319.986 55.6114 327.416 49.5304 334.943 49.6285C342.471 49.7266 349.312 54.7409 353.787 61.0303C358.262 67.3197 360.726 74.786 363.141 82.142C361.425 79.0525 364.943 75.2396 368.352 75.5706C371.76 75.9017 374.482 78.7337 376.529 81.5535C385.599 93.8684 389.95 109.029 388.789 124.28C387.561 139.246 380.783 153.212 369.786 163.438C357.686 174.472 341.686 179.634 326.165 184.538L293.786 194.75" fill="#558EB4"/>
<g opacity="0.8">
<path opacity="0.8" d="M293.296 199.838C292.671 192.482 298.126 186.144 304.33 182.735C310.534 179.327 317.644 177.929 324.032 174.901C339.909 167.374 349.999 149.658 350.746 131.501C351.494 113.344 343.611 95.1744 331.302 81.8355C326.288 76.4166 320.133 70.7279 320.06 63.3352C319.986 55.6114 327.416 49.5304 334.943 49.6285C342.471 49.7266 349.312 54.7409 353.787 61.0303C358.262 67.3197 360.726 74.786 363.141 82.142C361.425 79.0525 364.943 75.2396 368.352 75.5706C371.76 75.9017 374.482 78.7337 376.529 81.5535C385.599 93.8684 389.95 109.029 388.789 124.28C387.561 139.246 380.783 153.212 369.786 163.438C357.686 174.472 341.686 179.634 326.165 184.538L293.786 194.75" fill="white"/>
</g>
<path d="M284.285 45.9995C282.643 46.6769 281.326 47.9622 280.609 49.5871C279.892 51.2121 279.83 53.0512 280.436 54.7206C281.042 56.3901 282.27 57.761 283.863 58.5472C285.455 59.3334 287.29 59.4742 288.984 58.9403C290.678 58.4063 292.1 57.2388 292.954 55.6814C293.808 54.124 294.028 52.297 293.567 50.5816C293.106 48.8663 292.001 47.3951 290.482 46.4751C288.962 45.5551 287.146 45.2574 285.413 45.644" fill="#558EB4"/>
<g opacity="0.8">
<path opacity="0.8" d="M284.285 45.9995C282.643 46.6769 281.326 47.9622 280.609 49.5871C279.892 51.2121 279.83 53.0512 280.436 54.7206C281.042 56.3901 282.27 57.761 283.863 58.5472C285.455 59.3334 287.29 59.4742 288.984 58.9403C290.678 58.4063 292.1 57.2388 292.954 55.6814C293.808 54.124 294.028 52.297 293.567 50.5816C293.106 48.8663 292.001 47.3951 290.482 46.4751C288.962 45.5551 287.146 45.2574 285.413 45.644" fill="white"/>
</g>
<path d="M324.216 518.402C320.244 510.175 323.713 499.914 330.039 493.318C336.365 486.722 344.996 482.958 353.333 479.28C371.797 471.139 391.339 461.454 400.718 443.604C403.881 437.584 405.683 430.963 407.461 424.392C410.906 411.691 414.143 397.261 407.216 386.067C405.218 382.843 402.226 379.937 398.499 379.324C394.245 378.564 389.917 380.906 387.269 384.326C384.814 387.901 383.338 392.056 382.99 396.378C381.96 404.506 382.819 412.782 381.96 420.898C381.102 429.014 378.148 437.682 371.478 442.316C363.301 448.017 351.641 446.742 343.709 452.762C337.297 457.666 334.857 466.052 329.855 472.378C325.638 477.662 319.741 481.266 314.346 485.337C308.952 489.407 303.729 494.36 301.89 500.87C300.925 504.273 300.962 507.882 301.997 511.264C303.031 514.647 305.019 517.659 307.722 519.941C310.425 522.222 313.729 523.675 317.237 524.126C320.745 524.577 324.309 524.007 327.501 522.484" fill="#558EB4"/>
<g opacity="0.8">
<path opacity="0.8" d="M324.216 518.402C320.244 510.175 323.713 499.914 330.039 493.318C336.365 486.722 344.996 482.958 353.333 479.28C371.797 471.139 391.339 461.454 400.718 443.604C403.881 437.584 405.683 430.963 407.461 424.392C410.906 411.691 414.143 397.261 407.216 386.067C405.218 382.843 402.226 379.937 398.499 379.324C394.245 378.564 389.917 380.906 387.269 384.326C384.814 387.901 383.338 392.056 382.99 396.378C381.96 404.506 382.819 412.782 381.96 420.898C381.102 429.014 378.148 437.682 371.478 442.316C363.301 448.017 351.641 446.742 343.709 452.762C337.297 457.666 334.857 466.052 329.855 472.378C325.638 477.662 319.741 481.266 314.346 485.337C308.952 489.407 303.729 494.36 301.89 500.87C300.925 504.273 300.962 507.882 301.997 511.264C303.031 514.647 305.019 517.659 307.722 519.941C310.425 522.222 313.729 523.675 317.237 524.126C320.745 524.577 324.309 524.007 327.501 522.484" fill="white"/>
</g>
<path d="M201.469 102.812C198.204 100.389 195.565 97.2214 193.77 93.5732C191.975 89.9251 191.077 85.9015 191.149 81.8364C191.22 77.7713 192.261 73.782 194.184 70.1997C196.107 66.6174 198.856 63.5454 202.204 61.2387C205.98 58.6518 210.443 57.058 213.802 53.8827C216.781 51.1119 218.706 47.2746 222.053 44.9452C224.142 43.4639 226.649 42.6887 229.21 42.7327C231.77 42.7767 234.249 43.6376 236.286 45.1897C238.323 46.7418 239.81 48.9041 240.531 51.361C241.253 53.818 241.17 56.4412 240.296 58.848C238.763 63.1513 234.902 66.3021 233.283 70.5686C231.542 75.1783 232.67 80.3766 232.057 85.207C231.656 88.2144 230.583 91.0929 228.918 93.6292C227.253 96.1654 225.038 98.2944 222.438 99.8581C219.838 101.422 216.919 102.38 213.898 102.663C210.878 102.945 207.832 102.543 204.987 101.488" fill="#558EB4"/>
<g opacity="0.8">
<path opacity="0.8" d="M201.469 102.812C198.204 100.389 195.565 97.2214 193.77 93.5732C191.975 89.9251 191.077 85.9015 191.149 81.8364C191.22 77.7713 192.261 73.782 194.184 70.1997C196.107 66.6174 198.856 63.5454 202.204 61.2387C205.98 58.6518 210.443 57.058 213.802 53.8827C216.781 51.1119 218.706 47.2746 222.053 44.9452C224.142 43.4639 226.649 42.6887 229.21 42.7327C231.77 42.7767 234.249 43.6376 236.286 45.1897C238.323 46.7418 239.81 48.9041 240.531 51.361C241.253 53.818 241.17 56.4412 240.296 58.848C238.763 63.1513 234.902 66.3021 233.283 70.5686C231.542 75.1783 232.67 80.3766 232.057 85.207C231.656 88.2144 230.583 91.0929 228.918 93.6292C227.253 96.1654 225.038 98.2944 222.438 99.8581C219.838 101.422 216.919 102.38 213.898 102.663C210.878 102.945 207.832 102.543 204.987 101.488" fill="white"/>
</g>
<path d="M201.934 76.527H217.002V107.582C217.002 108.453 216.83 109.315 216.497 110.12C216.164 110.924 215.675 111.656 215.059 112.272C214.443 112.887 213.712 113.376 212.908 113.709C212.103 114.043 211.24 114.214 210.369 114.214H208.579C206.82 114.214 205.133 113.515 203.889 112.272C202.645 111.028 201.947 109.341 201.947 107.582V76.527H201.934Z" fill="#558EB4"/>
<path d="M201.934 76.527L209.462 62.71L217.002 76.527H201.934Z" fill="#FFBE9D"/>
<path d="M206.483 68.1779C206.483 68.1779 208.776 71.623 212.454 68.1779L209.474 62.71L206.483 68.1779Z" fill="#558EB4"/>
<path d="M217.21 106.074C214.669 106.381 212.106 106.483 209.548 106.38C206.994 106.483 204.435 106.381 201.898 106.074C204.435 105.766 206.994 105.664 209.548 105.767C212.106 105.664 214.669 105.766 217.21 106.074V106.074Z" fill="#263238"/>
<path d="M217.002 103.756C214.514 104.064 212.004 104.166 209.499 104.063C206.994 104.166 204.484 104.064 201.996 103.756C204.485 103.465 206.994 103.366 209.499 103.462C212.004 103.366 214.512 103.465 217.002 103.756V103.756Z" fill="#263238"/>
<path d="M206.36 76.7476C206.52 76.7476 206.667 82.755 206.667 90.1723C206.667 97.5896 206.52 103.658 206.36 103.658C206.201 103.658 206.054 97.6386 206.054 90.1723C206.054 82.7059 206.189 76.7476 206.36 76.7476Z" fill="#FAFAFA"/>
<path d="M212.453 76.7476C212.625 76.7476 212.76 82.755 212.76 90.1723C212.76 97.5896 212.625 103.658 212.453 103.658C212.282 103.658 212.147 97.6386 212.147 90.1723C212.147 82.7059 212.282 76.7476 212.453 76.7476Z" fill="#FAFAFA"/>
<path d="M332.847 501.091L401.294 504.021L402.949 508.005L358.078 580.83L277.088 578.464L332.847 501.091Z" fill="#263238"/>
<path d="M274.023 571.365L355.491 576.024L398.058 509.979L368.168 512.407L292.536 539.035L274.023 571.365Z" fill="#E0E0E0"/>
<path d="M262.572 566.473L337.358 567.699C334.257 558.124 341.576 544.65 351.641 540.114C358.311 537.111 370.853 533.212 377.326 529.889C389.586 523.576 400.743 511.634 399.774 501.373L369.026 500.355L329.794 498.835C326.508 508.569 319.496 514.932 308.829 518.77C299.291 522.202 288.429 522.19 279.111 526.126C264.129 532.403 256.933 552.742 262.511 566.51" fill="#EBEBEB"/>
<path d="M262.572 566.473C262.572 566.473 262.499 566.314 262.388 565.983L261.874 564.548C261.602 563.748 261.389 562.928 261.236 562.096C260.986 560.974 260.814 559.835 260.721 558.688C260.483 555.505 260.681 552.304 261.31 549.174C262.18 544.96 263.809 540.939 266.115 537.307C266.765 536.257 267.482 535.249 268.261 534.291C268.666 533.813 269.058 533.285 269.487 532.82L270.872 531.41C271.336 530.926 271.836 530.479 272.368 530.073C272.895 529.644 273.41 529.191 273.974 528.786C275.142 527.964 276.371 527.235 277.652 526.604C282.838 523.992 289.029 522.926 295.478 521.7C298.715 521.111 302.05 520.474 305.384 519.579C308.816 518.638 312.127 517.305 315.254 515.607C316.868 514.733 318.406 513.724 319.851 512.591C321.34 511.445 322.708 510.151 323.934 508.729C326.473 505.794 328.406 502.385 329.622 498.7L329.696 498.492H329.904L362.577 499.718C373.918 500.159 385.65 500.465 397.665 500.87L399.848 500.944H400.117V501.213C400.281 503.562 399.947 505.918 399.136 508.128C398.75 509.22 398.291 510.284 397.763 511.316C397.222 512.329 396.624 513.311 395.973 514.258C393.388 517.97 390.265 521.275 386.705 524.066C383.263 526.806 379.505 529.124 375.511 530.968C371.564 532.746 367.567 534.193 363.656 535.639C359.745 537.086 355.871 538.459 352.205 540.053C350.4 540.853 348.707 541.883 347.166 543.118C346.369 543.682 345.707 544.405 344.984 545.031C344.261 545.656 343.635 546.416 343.059 547.188C340.671 550.072 338.891 553.408 337.824 556.996C336.742 560.394 336.679 564.033 337.64 567.466L337.751 567.797H337.407L282.985 566.841L267.893 566.535L263.945 566.424H262.585C262.585 566.424 263.05 566.424 263.945 566.424H267.905L282.998 566.596L337.407 567.356L337.174 567.675C336.167 564.149 336.223 560.405 337.334 556.91C338.401 553.24 340.207 549.828 342.642 546.882C343.219 546.097 343.942 545.423 344.592 544.687C345.242 543.952 346.014 543.302 346.823 542.713C348.393 541.447 350.124 540.395 351.972 539.587C355.65 537.969 359.549 536.583 363.46 535.137C367.371 533.69 371.355 532.231 375.266 530.466C379.207 528.639 382.912 526.342 386.3 523.625C389.813 520.878 392.896 517.621 395.446 513.964C396.087 513.046 396.68 512.097 397.224 511.119C397.737 510.116 398.183 509.08 398.56 508.018C399.341 505.89 399.667 503.622 399.517 501.36L399.811 501.63L397.616 501.569C385.601 501.164 373.869 500.845 362.54 500.343L329.855 499.117L330.137 498.921C328.886 502.672 326.912 506.141 324.326 509.133C323.074 510.58 321.678 511.895 320.158 513.056C318.689 514.209 317.122 515.231 315.474 516.109C312.315 517.827 308.966 519.168 305.495 520.106C302.123 521.025 298.776 521.638 295.539 522.215C289.091 523.367 282.924 524.446 277.812 526.996C276.56 527.612 275.359 528.325 274.219 529.129C273.655 529.522 273.153 529.975 272.626 530.355C272.097 530.757 271.601 531.2 271.142 531.679L269.72 533.089C269.279 533.555 268.899 534.07 268.494 534.548C267.713 535.488 266.996 536.479 266.348 537.515C264.041 541.104 262.408 545.085 261.53 549.26C260.872 552.361 260.645 555.538 260.856 558.7C260.929 559.842 261.085 560.977 261.322 562.096C261.459 562.927 261.655 563.746 261.91 564.548C262.119 565.186 262.266 565.664 262.376 566.007C262.487 566.351 262.572 566.473 262.572 566.473Z" fill="#263238"/>
<path d="M350.869 500.049C350.869 500.049 350.967 499.57 351.041 498.712C351.131 497.505 350.929 496.294 350.452 495.181C349.784 493.522 348.527 492.168 346.921 491.381C345.937 490.922 344.871 490.667 343.786 490.629C342.701 490.592 341.62 490.773 340.606 491.161C339.592 491.55 338.668 492.139 337.886 492.893C337.105 493.647 336.484 494.55 336.059 495.549C335.308 497.176 335.056 498.99 335.335 500.76C335.513 501.951 335.93 503.093 336.561 504.119C337.027 504.855 337.371 505.198 337.334 505.235C336.954 504.973 336.629 504.64 336.378 504.254C335.618 503.245 335.102 502.074 334.87 500.833C334.505 498.974 334.724 497.047 335.495 495.316C335.943 494.242 336.605 493.271 337.44 492.46C338.275 491.65 339.267 491.018 340.354 490.603C341.441 490.188 342.601 489.998 343.764 490.046C344.927 490.093 346.067 490.376 347.117 490.878C348.824 491.744 350.139 493.225 350.795 495.022C351.254 496.19 351.397 497.459 351.212 498.7C351.163 499.038 351.081 499.371 350.967 499.693C350.942 499.951 350.893 500.049 350.869 500.049Z" fill="#263238"/>
<path d="M362.602 500.049C362.54 500.049 362.7 499.57 362.773 498.712C362.857 497.505 362.656 496.296 362.185 495.181C361.511 493.522 360.25 492.169 358.642 491.381C357.657 490.924 356.591 490.67 355.507 490.633C354.422 490.596 353.342 490.778 352.328 491.166C351.315 491.555 350.391 492.143 349.609 492.896C348.828 493.649 348.206 494.551 347.779 495.549C347.032 497.177 346.784 498.991 347.068 500.76C347.241 501.952 347.658 503.096 348.294 504.119C348.76 504.855 349.103 505.198 349.067 505.235C348.678 504.98 348.348 504.646 348.098 504.254C347.344 503.242 346.828 502.073 346.59 500.833C346.237 498.972 346.459 497.048 347.228 495.316C347.676 494.244 348.337 493.274 349.172 492.465C350.006 491.655 350.996 491.024 352.082 490.609C353.167 490.194 354.326 490.004 355.487 490.05C356.649 490.096 357.789 490.378 358.838 490.878C360.545 491.744 361.859 493.225 362.516 495.022C362.97 496.191 363.118 497.457 362.945 498.7C362.899 499.04 362.812 499.373 362.687 499.693C362.684 499.816 362.655 499.938 362.602 500.049V500.049Z" fill="#263238"/>
<path d="M371.478 500.662C371.478 500.662 371.551 500.171 371.576 499.313C371.595 498.103 371.326 496.905 370.791 495.819C370.024 494.204 368.688 492.93 367.04 492.239C366.034 491.841 364.958 491.647 363.877 491.668C362.795 491.689 361.728 491.925 360.738 492.362C358.746 493.275 357.198 494.942 356.435 496.996C355.779 498.665 355.629 500.49 356.006 502.243C356.264 503.428 356.765 504.547 357.477 505.529C357.98 506.228 358.347 506.559 358.311 506.595C357.911 506.364 357.564 506.051 357.293 505.676C356.478 504.709 355.895 503.568 355.589 502.341C355.129 500.505 355.24 498.571 355.908 496.8C356.294 495.702 356.9 494.695 357.688 493.839C358.476 492.982 359.43 492.296 360.492 491.82C361.554 491.344 362.702 491.089 363.865 491.07C365.029 491.052 366.184 491.27 367.26 491.712C369.014 492.477 370.412 493.879 371.171 495.635C371.704 496.783 371.924 498.052 371.809 499.313C371.783 499.655 371.717 499.992 371.613 500.318C371.576 500.551 371.478 500.662 371.478 500.662Z" fill="#263238"/>
<path d="M381.053 501.201C381.053 501.201 381.053 500.711 381.053 499.852C381.013 498.643 380.68 497.461 380.085 496.407C379.236 494.831 377.834 493.626 376.149 493.024C375.122 492.676 374.035 492.539 372.954 492.62C371.873 492.701 370.819 492.999 369.855 493.495C368.89 493.991 368.036 494.676 367.342 495.509C366.648 496.343 366.128 497.307 365.814 498.344C365.243 500.044 365.192 501.875 365.667 503.604C365.99 504.775 366.549 505.869 367.31 506.816C367.849 507.478 368.229 507.785 368.192 507.834C367.782 507.619 367.419 507.322 367.126 506.963C366.264 506.04 365.622 504.933 365.25 503.727C364.685 501.918 364.685 499.981 365.25 498.173C365.581 497.058 366.132 496.022 366.872 495.125C367.611 494.228 368.523 493.488 369.553 492.95C370.591 492.419 371.727 492.104 372.89 492.026C374.054 491.948 375.221 492.108 376.321 492.496C378.106 493.163 379.577 494.475 380.44 496.174C381.034 497.306 381.317 498.575 381.261 499.852C381.25 500.191 381.205 500.528 381.127 500.858C381.114 501.091 381.078 501.201 381.053 501.201Z" fill="#263238"/>
<path d="M390.616 500.98C390.616 500.98 390.616 500.49 390.616 499.632C390.541 498.422 390.175 497.249 389.549 496.211C388.657 494.663 387.225 493.498 385.528 492.938C384.491 492.617 383.399 492.509 382.319 492.619C381.239 492.729 380.192 493.056 379.241 493.581C378.29 494.105 377.454 494.815 376.784 495.669C376.114 496.524 375.623 497.505 375.34 498.553C374.899 499.989 374.826 501.513 375.128 502.985C375.43 504.457 376.097 505.829 377.069 506.976C377.632 507.625 378.025 507.92 377.988 507.956C377.568 507.766 377.196 507.486 376.897 507.135C376.014 506.232 375.344 505.143 374.935 503.947C374.324 502.153 374.277 500.215 374.8 498.394C375.102 497.27 375.624 496.219 376.338 495.301C377.052 494.383 377.942 493.617 378.957 493.048C379.978 492.49 381.103 492.146 382.263 492.036C383.422 491.926 384.591 492.054 385.7 492.411C387.508 493.031 389.018 494.309 389.929 495.991C390.556 497.114 390.873 498.383 390.849 499.669C390.848 500.011 390.811 500.352 390.738 500.686C390.677 500.858 390.64 500.98 390.616 500.98Z" fill="#263238"/>
<path d="M398.683 502.047C398.683 502.047 398.683 501.557 398.683 500.698C398.656 499.488 398.337 498.301 397.751 497.241C396.919 495.663 395.536 494.445 393.865 493.821C392.842 493.46 391.757 493.308 390.674 493.376C389.591 493.443 388.533 493.728 387.563 494.213C386.593 494.698 385.73 495.374 385.027 496.199C384.323 497.025 383.793 497.984 383.468 499.019C382.974 500.436 382.842 501.955 383.084 503.437C383.326 504.918 383.934 506.316 384.854 507.503C385.393 508.177 385.761 508.483 385.736 508.533C385.328 508.314 384.969 508.014 384.682 507.65C383.825 506.72 383.196 505.603 382.843 504.389C382.302 502.572 382.332 500.634 382.929 498.835C383.273 497.724 383.836 496.694 384.586 495.805C385.336 494.916 386.256 494.187 387.293 493.661C388.337 493.144 389.476 492.844 390.639 492.781C391.803 492.718 392.967 492.892 394.061 493.293C395.846 493.98 397.301 495.322 398.131 497.045C398.714 498.18 398.985 499.449 398.916 500.723C398.902 501.062 398.852 501.399 398.769 501.728C398.744 501.937 398.707 502.059 398.683 502.047Z" fill="#263238"/>
<path d="M434.004 250.901C430.617 250.799 427.228 250.955 423.865 251.367C413.661 252.68 404.289 257.679 397.515 265.422C390.74 273.165 387.031 283.118 387.085 293.406C387.049 300.175 387.927 306.918 389.696 313.451C395.593 334.367 397.408 352.794 396.734 361.78L416.472 372.385C416.472 372.385 425.606 359.255 434.433 353.591C443.26 347.927 472.635 332.749 484.27 317.24C491.761 307.211 493.207 286.59 475.332 268.617C464.338 257.63 449.542 251.288 434.004 250.901Z" fill="#558EB4"/>
<path d="M387.293 384.609L405.119 394.245L393.521 408.981L381.629 403.587L387.293 384.609Z" fill="#455A64"/>
<path d="M388.164 385.209C388.004 385.148 389.77 379.852 392.112 373.391C394.453 366.93 396.476 361.719 396.635 361.78C396.795 361.842 395.029 367.126 392.688 373.599C390.346 380.072 388.323 385.258 388.164 385.209Z" fill="#263238"/>
<path d="M404.004 393.546C403.857 393.46 406.652 388.458 410.232 382.377C413.812 376.296 416.84 371.478 416.999 371.478C417.159 371.478 414.351 376.566 410.759 382.647C407.167 388.728 404.139 393.607 404.004 393.546Z" fill="#263238"/>
<g opacity="0.4">
<path opacity="0.4" d="M439.889 251.465C439.092 251.465 429.284 262.989 424.944 270.762C410.342 296.913 409.68 322.352 405.634 352.021C405.058 356.263 402.949 365.397 402.986 365.189C405.144 366.881 412.402 370.252 412.402 370.252C412.402 370.252 419.255 361.989 421.977 357.833C432.864 341.196 444.695 328.213 454.025 310.644C463.354 293.075 472.329 277.542 463.698 259.569C463.698 259.569 448.716 250.962 439.889 251.465Z" fill="black"/>
</g>
<path d="M484.27 319.863C484.167 319.684 484.08 319.495 484.013 319.299C483.853 318.932 483.657 318.355 483.326 317.644C482.402 315.587 481.246 313.641 479.881 311.845C477.785 309.073 475.226 306.684 472.317 304.784C468.587 302.312 464.336 300.739 459.897 300.186H459.75L459.676 300.088C457.294 296.815 454.631 293.755 451.72 290.942C448.532 287.866 444.858 285.339 440.845 283.463C436.813 281.639 432.405 280.799 427.984 281.011C423.957 281.169 420.057 282.47 416.742 284.763L416.558 284.886L416.399 284.739C413.028 281.782 408.838 279.921 404.384 279.405C400.925 279.012 397.422 279.457 394.171 280.705C392.066 281.51 390.092 282.622 388.311 284.003C387.698 284.493 387.232 284.886 386.938 285.155C386.792 285.302 386.632 285.433 386.46 285.548C386.59 285.389 386.729 285.237 386.877 285.094C387.159 284.8 387.6 284.383 388.201 283.868C389.958 282.408 391.936 281.237 394.061 280.398C397.353 279.078 400.918 278.582 404.445 278.952C409.006 279.443 413.307 281.322 416.766 284.334H416.423C419.819 281.965 423.822 280.616 427.96 280.448C432.469 280.217 436.968 281.057 441.09 282.9C445.166 284.806 448.895 287.379 452.124 290.513C455.06 293.354 457.735 296.451 460.118 299.769L459.934 299.659C464.45 300.232 468.768 301.862 472.537 304.416C475.469 306.371 478.038 308.823 480.126 311.661C481.476 313.496 482.596 315.489 483.461 317.595C483.767 318.319 483.939 318.907 484.074 319.287C484.152 319.475 484.217 319.667 484.27 319.863V319.863Z" fill="#263238"/>
<path d="M447.564 345.916C447.26 344.398 446.683 342.948 445.859 341.637C444.895 340.137 443.599 338.879 442.071 337.959C440.118 336.75 437.824 336.208 435.536 336.414H435.291V336.169C434.812 333.234 433.591 330.47 431.744 328.14C429.896 325.81 427.484 323.991 424.735 322.855C422.299 321.902 419.682 321.504 417.073 321.69C414.676 321.864 412.342 322.537 410.22 323.664L410.036 323.762L409.889 323.603C408.053 321.679 405.653 320.391 403.035 319.925C401.003 319.53 398.908 319.597 396.905 320.121C395.128 320.616 393.464 321.449 392.001 322.573C392.001 322.573 392.075 322.463 392.259 322.303C392.443 322.144 392.712 321.886 393.092 321.604C394.211 320.812 395.454 320.211 396.77 319.827C398.822 319.235 400.983 319.126 403.084 319.508C405.822 319.96 408.34 321.289 410.256 323.296L409.925 323.235C412.105 322.077 414.501 321.384 416.963 321.2C419.661 321.011 422.368 321.429 424.883 322.426C427.908 323.648 430.529 325.695 432.447 328.335C434.172 330.654 435.301 333.361 435.733 336.218L435.451 335.998C437.844 335.81 440.233 336.409 442.255 337.702C443.81 338.667 445.119 339.981 446.08 341.539C446.695 342.536 447.134 343.631 447.38 344.776C447.442 345.075 447.487 345.378 447.514 345.683C447.537 345.759 447.554 345.837 447.564 345.916V345.916Z" fill="#263238"/>
<path d="M401.674 398.891C401.674 398.891 401.478 398.646 401.025 398.45C400.341 398.243 399.608 398.269 398.94 398.524C398.427 398.685 397.896 398.779 397.359 398.806C397.028 398.803 396.7 398.733 396.397 398.6C396.094 398.467 395.82 398.275 395.593 398.033C394.649 397.04 394.294 395.581 393.399 394.637C393.195 394.405 392.941 394.222 392.657 394.101C392.373 393.98 392.065 393.924 391.756 393.938C391.124 394.007 390.501 394.134 389.892 394.318C389.287 394.491 388.65 394.525 388.029 394.417C387.377 394.255 386.783 393.913 386.317 393.429C385.851 392.946 385.53 392.34 385.393 391.683C385.31 391.411 385.31 391.121 385.393 390.849C385.393 390.849 385.393 391.143 385.601 391.634C385.832 392.311 386.259 392.904 386.827 393.338C387.201 393.636 387.644 393.834 388.115 393.914C388.662 393.988 389.22 393.938 389.745 393.767C390.387 393.56 391.049 393.421 391.719 393.35C392.114 393.327 392.508 393.393 392.873 393.544C393.238 393.695 393.565 393.926 393.828 394.22C394.87 395.446 395.189 396.795 395.986 397.641C396.338 398.034 396.832 398.272 397.359 398.303C397.852 398.297 398.343 398.227 398.818 398.095C399.574 397.859 400.39 397.912 401.11 398.242C401.625 398.536 401.699 398.891 401.674 398.891Z" fill="#263238"/>
<path d="M403.722 395.998C400.735 394.756 397.832 393.323 395.029 391.707C392.126 390.27 389.313 388.657 386.607 386.877C389.594 388.126 392.501 389.559 395.311 391.168C398.21 392.606 401.018 394.22 403.722 395.998V395.998Z" fill="#263238"/>
<path d="M400.179 400.522C400.179 400.522 399.933 400.645 399.504 400.841C399.284 400.939 399.038 401.086 398.695 401.233C398.302 401.37 397.884 401.425 397.469 401.392C396.393 401.333 395.362 400.934 394.527 400.252C394.038 399.837 393.656 399.312 393.411 398.72C393.211 398.14 392.917 397.598 392.541 397.114C392.098 396.741 391.583 396.466 391.027 396.306C390.472 396.145 389.889 396.103 389.316 396.182C388.273 396.304 387.216 396.204 386.215 395.888C385.528 395.626 384.967 395.113 384.645 394.453C384.449 393.975 384.523 393.669 384.547 393.681C384.572 393.693 384.621 393.951 384.866 394.343C385.221 394.887 385.754 395.29 386.374 395.483C387.328 395.723 388.32 395.769 389.292 395.618C389.946 395.522 390.614 395.568 391.249 395.755C391.884 395.941 392.471 396.262 392.97 396.697C393.385 397.233 393.708 397.833 393.926 398.475C394.133 398.994 394.456 399.459 394.87 399.835C395.612 400.457 396.52 400.849 397.481 400.963C398.138 401.022 398.799 400.904 399.394 400.62C399.897 400.485 400.179 400.485 400.179 400.522Z" fill="#263238"/>
<path d="M265.576 286.026L296.41 281.453L281.698 260.611L273.803 261.077C271.193 261.227 268.678 262.1 266.536 263.598C264.395 265.097 262.713 267.161 261.677 269.561V269.561C260.558 272.163 260.246 275.042 260.782 277.824L265.576 286.026Z" fill="#558EB4"/>
<path opacity="0.4" d="M265.576 286.026L296.41 281.453L281.698 260.611L273.803 261.077C271.193 261.227 268.678 262.1 266.536 263.598C264.395 265.097 262.713 267.161 261.677 269.561V269.561C260.558 272.163 260.246 275.042 260.782 277.824L265.576 286.026Z" fill="black"/>
<path d="M398.009 320.182C398.327 321.065 398.671 322.107 399.026 323.358C399.32 324.435 399.431 325.554 399.357 326.668C399.309 328.05 399.074 329.419 398.658 330.738C398.156 331.964 399.333 333.092 400.326 332.503C401.319 331.915 402.778 328.727 402.778 324.633C402.778 320.538 406.873 325.442 408.43 327.207C409.987 328.973 415.062 334.208 415.982 334.159C417.33 334.085 417.502 332.626 415.908 330.897C414.314 329.169 409.889 323.664 410.857 322.879C411.826 322.095 419.623 331.204 419.623 331.204C419.623 331.204 420.972 333.423 422.075 332.565C424.159 331.008 415.148 321.948 414.265 321.114C413.665 320.525 414.682 319.643 415.307 320.305C415.933 320.967 422.884 329.561 425.017 327.992C426.648 326.766 417.661 320.476 417.22 317.902C416.779 315.327 423.546 323.382 425.054 322.181C425.63 321.727 425.986 321.31 421.376 317.277C419.169 315.29 410.759 309.406 410.759 309.406L385.454 236.961L365.912 248.155L398.009 320.182Z" fill="#FFBE9D"/>
<path d="M247.37 183.164L219.098 149.425C218.742 148.261 218.278 147.132 217.713 146.053C217.057 144.707 216.124 143.515 214.974 142.556C213.825 141.597 212.485 140.892 211.044 140.487C209.254 140.095 207.194 140.291 205.784 139.114C205.159 138.587 204.742 137.888 204.08 137.349C203.418 136.809 202.327 136.76 201.898 137.459C201.788 137.732 201.741 138.026 201.763 138.319C201.784 138.613 201.872 138.897 202.02 139.151C203.082 141.647 204.771 143.827 206.924 145.477C204.276 146.286 200.488 147.512 200.488 147.512C200.488 147.512 194.517 141.027 191.452 141.039C188.387 141.051 193.904 146.838 193.904 146.838C193.904 146.838 189 142.302 187.48 143.577C185.96 144.852 189.858 148.223 189.858 148.223C188.687 147.427 187.288 147.036 185.874 147.108C184.488 147.341 183.299 148.971 184.047 150.16C184.366 150.589 184.788 150.93 185.273 151.154L192.801 155.346C194.005 156.149 195.384 156.654 196.822 156.818C200.647 156.94 203.553 154.574 207.366 154.672C207.366 154.672 228.686 199.556 230.844 201.873C233.001 204.19 279.884 207.341 279.884 207.341L306.99 183.986L247.37 183.164Z" fill="#FFBE9D"/>
<path d="M332.307 427.666L361.18 440.232L345.732 476.24C342.373 474.56 343.476 452.946 343.476 452.946L324.645 445.651L332.307 427.666Z" fill="#558EB4"/>
<g opacity="0.6">
<path opacity="0.6" d="M346.676 441.164C346.93 440.861 347.286 440.662 347.678 440.605C348.069 440.549 348.468 440.638 348.797 440.857C349.106 441.102 349.309 441.455 349.366 441.845C349.423 442.234 349.329 442.631 349.103 442.954C348.836 443.272 348.459 443.48 348.047 443.537C347.635 443.593 347.216 443.495 346.872 443.26C346.572 442.974 346.395 442.583 346.379 442.168C346.363 441.754 346.509 441.35 346.786 441.041" fill="white"/>
</g>
<path opacity="0.6" d="M361.18 440.232L358.213 439.08L344.506 474.033C344.506 474.033 344.506 475.946 345.732 476.24L361.18 440.232Z" fill="white"/>
<path d="M343.022 453.473C343.206 453.534 343.66 452.688 344.604 452.075C345.548 451.462 346.468 451.303 346.468 451.119C346.468 450.935 345.34 450.751 344.224 451.524C343.108 452.296 342.851 453.436 343.022 453.473Z" fill="#263238"/>
<path d="M342.961 457.911C343.121 458.034 343.746 457.396 344.751 457.114C345.756 456.832 346.602 457.004 346.676 456.832C346.749 456.66 345.793 456.109 344.555 456.477C343.317 456.844 342.802 457.837 342.961 457.911Z" fill="#263238"/>
<path d="M346.566 462.006C346.676 461.859 345.891 461.233 344.739 461.27C343.587 461.307 342.851 461.969 342.961 462.104C343.072 462.239 343.807 461.957 344.763 461.945C345.72 461.932 346.468 462.202 346.566 462.006Z" fill="#263238"/>
<path d="M338.915 451.327C339.112 451.327 339.21 450.408 339.712 449.452C340.215 448.495 340.853 447.846 340.742 447.686C340.632 447.527 339.676 448.005 339.112 449.145C338.548 450.285 338.744 451.352 338.915 451.327Z" fill="#263238"/>
<path d="M335.017 448.63C335.09 448.63 335.495 448.017 335.777 446.828C335.945 446.13 336.024 445.413 336.01 444.695C336.004 444.284 335.971 443.875 335.912 443.469C335.885 443.219 335.819 442.975 335.716 442.745C335.641 442.577 335.513 442.438 335.351 442.352C335.188 442.265 335.002 442.235 334.821 442.267C334.66 442.299 334.509 442.369 334.381 442.471C334.253 442.574 334.151 442.706 334.085 442.856C333.986 443.086 333.92 443.33 333.889 443.579C333.692 444.725 333.789 445.902 334.171 447C334.575 448.164 335.115 448.728 335.176 448.679C335.237 448.63 334.894 447.98 334.612 446.865C334.46 446.21 334.39 445.538 334.404 444.866C334.413 444.455 334.454 444.045 334.526 443.64C334.588 443.223 334.723 442.892 334.943 442.868C335.164 442.843 335.041 442.868 335.127 442.991C335.192 443.165 335.238 443.346 335.262 443.53C335.332 443.936 335.377 444.345 335.397 444.756C335.434 445.431 335.405 446.109 335.311 446.779C335.171 447.389 335.073 448.007 335.017 448.63V448.63Z" fill="#263238"/>
<path d="M335.36 448.52C335.36 448.52 334.943 447.846 333.828 447.294C333.173 446.974 332.468 446.77 331.743 446.693C331.336 446.648 330.925 446.648 330.517 446.693C330.237 446.69 329.961 446.758 329.714 446.891C329.468 447.024 329.259 447.218 329.107 447.453C329.044 447.616 329.028 447.793 329.061 447.964C329.093 448.135 329.173 448.294 329.291 448.422C329.466 448.603 329.664 448.76 329.88 448.888C330.259 449.125 330.673 449.302 331.106 449.415C331.822 449.592 332.572 449.592 333.288 449.415C334.514 449.108 335.054 448.471 335.004 448.434C334.414 448.64 333.812 448.811 333.202 448.949C332.554 449.042 331.892 448.992 331.265 448.802C330.901 448.686 330.554 448.521 330.235 448.311C329.88 448.091 329.635 447.821 329.733 447.698C329.838 447.575 329.97 447.477 330.119 447.411C330.267 447.346 330.429 447.314 330.591 447.318C330.999 447.279 331.409 447.279 331.817 447.318C332.483 447.365 333.139 447.505 333.766 447.735C334.698 448.128 335.299 448.593 335.36 448.52Z" fill="#263238"/>
<path d="M310.068 477.122L322.009 502.145L325.748 524.728C325.811 525.112 325.953 525.479 326.165 525.806C326.376 526.133 326.653 526.412 326.977 526.628C327.302 526.843 327.667 526.989 328.05 527.056C328.434 527.124 328.827 527.112 329.205 527.021C329.646 526.919 330.056 526.712 330.4 526.417C330.744 526.122 331.011 525.749 331.179 525.329C333.374 519.898 341.355 499.852 340.374 498.075C339.246 496.015 329.524 470.845 329.524 470.845L310.068 477.122Z" fill="#558EB4"/>
<path opacity="0.6" d="M329.205 526.959L339.602 496.309L340.092 497.376C340.508 498.301 340.582 499.344 340.301 500.318C339.541 502.93 337.297 510.126 331.253 525.231C331.082 525.666 330.805 526.052 330.448 526.354C330.09 526.656 329.663 526.864 329.205 526.959Z" fill="white"/>
<g opacity="0.6">
<path opacity="0.6" d="M330.75 490.486C330.541 490.852 330.476 491.284 330.566 491.696C330.657 492.108 330.897 492.472 331.241 492.717C331.601 492.94 332.034 493.016 332.449 492.93C332.865 492.843 333.231 492.6 333.472 492.251C333.687 491.859 333.751 491.402 333.652 490.966C333.553 490.53 333.297 490.145 332.933 489.885C332.533 489.691 332.074 489.661 331.653 489.801C331.231 489.941 330.881 490.239 330.677 490.633" fill="white"/>
</g>
<path d="M330.015 513.314C329.087 512.717 328.015 512.381 326.913 512.342C325.81 512.303 324.717 512.563 323.75 513.093C323.75 513.093 323.934 512.701 324.485 512.358C325.224 511.913 326.076 511.696 326.937 511.732C327.793 511.759 328.623 512.031 329.328 512.517C329.867 512.909 330.064 513.265 330.015 513.314Z" fill="#263238"/>
<path d="M329.794 517.507C328.889 517.424 327.98 517.399 327.072 517.433C326.187 517.644 325.315 517.906 324.461 518.218C324.326 518.12 325.307 516.992 326.986 516.82C327.475 516.701 327.985 516.702 328.474 516.821C328.963 516.941 329.415 517.176 329.794 517.507Z" fill="#263238"/>
<path d="M331.412 507.466C330.027 507.225 328.625 507.089 327.219 507.061C325.819 507.218 324.433 507.489 323.076 507.87C324.281 507.013 325.707 506.519 327.185 506.447C328.662 506.376 330.13 506.729 331.412 507.466V507.466Z" fill="#263238"/>
<path d="M328.421 499.558C328.421 499.742 326.766 499.779 324.914 500.539C323.063 501.299 321.825 502.366 321.702 502.231C322.404 501.148 323.462 500.346 324.694 499.963C325.849 499.392 327.17 499.249 328.421 499.558Z" fill="#263238"/>
<path d="M325.098 492.116C323.836 492.26 322.599 492.573 321.42 493.048C320.327 493.687 319.328 494.475 318.453 495.39C318.392 495.39 318.515 494.912 318.956 494.323C319.533 493.545 320.29 492.918 321.163 492.496C322.026 492.065 322.981 491.846 323.946 491.859C324.682 491.883 325.111 492.055 325.098 492.116Z" fill="#263238"/>
<path d="M320.832 491.626C320.619 491.343 320.461 491.023 320.366 490.682C320.064 489.766 319.943 488.8 320.01 487.838C319.996 487.129 320.216 486.435 320.636 485.864C320.787 485.698 320.984 485.58 321.202 485.525C321.421 485.471 321.65 485.482 321.862 485.557C322.275 485.759 322.601 486.103 322.781 486.526C323.106 487.402 323.115 488.364 322.806 489.246C322.498 490.128 321.89 490.875 321.089 491.356C320.289 491.817 319.371 492.03 318.45 491.968C317.53 491.907 316.648 491.575 315.916 491.013C315.729 490.867 315.578 490.681 315.472 490.469C315.366 490.257 315.308 490.024 315.303 489.787C315.315 489.553 315.401 489.328 315.549 489.145C315.696 488.963 315.897 488.831 316.124 488.769C316.81 488.631 317.519 488.673 318.184 488.892C319.122 489.137 320.007 489.553 320.795 490.118C321.347 490.498 321.592 490.78 321.567 490.817C320.49 490.149 319.315 489.653 318.086 489.346C317.5 489.172 316.88 489.151 316.283 489.284C316.159 489.316 316.047 489.386 315.966 489.485C315.884 489.585 315.836 489.708 315.83 489.836C315.852 489.986 315.903 490.131 315.981 490.261C316.059 490.392 316.161 490.506 316.283 490.596C316.928 491.065 317.694 491.338 318.489 491.384C319.285 491.429 320.077 491.245 320.771 490.854C321.466 490.449 321.999 489.817 322.281 489.064C322.562 488.311 322.574 487.483 322.315 486.722C322.205 486.421 321.987 486.172 321.702 486.023C321.585 485.97 321.454 485.955 321.329 485.982C321.203 486.008 321.089 486.074 321.004 486.17C320.644 486.653 320.447 487.236 320.44 487.838C320.346 489.114 320.479 490.396 320.832 491.626V491.626Z" fill="#263238"/>
<path d="M350.305 430.718L317.558 408.65L328.396 302.246L297.379 284.138L269.021 277.566C269.021 277.566 257.178 302.209 251.857 318.024C240.651 351.58 232.793 363.607 234.595 387.906C235.159 395.606 263.578 414.878 281.526 425.557C281.728 427.694 282.047 429.818 282.483 431.92C288.613 459.652 307.346 496.53 307.346 496.53L335.789 483.301L326.619 451.855L336.181 457.433L350.305 430.718ZM279.92 362.062L283.745 345.009C282.936 355.859 282.201 367.175 281.673 378.025C279.824 372.933 279.223 367.472 279.92 362.099V362.062Z" fill="#263238"/>
<path d="M307.395 496.53C307.307 496.386 307.234 496.234 307.174 496.076L306.574 494.74L304.379 489.554C302.491 485.03 299.782 478.52 296.533 470.367C293.284 462.214 289.434 452.553 285.499 441.642C284.53 438.908 283.586 436.1 282.691 433.195C282.299 431.724 281.796 430.277 281.539 428.72C281.465 428.34 281.379 427.948 281.318 427.568L281.183 426.403L280.926 424.073C280.582 420.935 280.309 417.739 280.104 414.486C280.006 412.868 279.92 411.225 279.847 409.582C279.773 407.939 279.724 406.26 279.847 404.58C280.337 391.217 281.453 378.54 282.385 367.003C283.316 355.466 284.211 345.095 284.947 336.353C285.683 327.612 286.173 320.574 286.418 315.683C286.578 313.231 286.663 311.343 286.712 310.068L286.798 308.596C286.776 308.434 286.776 308.269 286.798 308.106C286.812 308.269 286.812 308.433 286.798 308.596C286.798 308.964 286.798 309.442 286.798 310.068C286.798 311.355 286.737 313.255 286.627 315.695C286.418 320.599 285.989 327.661 285.339 336.39C284.689 345.119 283.819 355.503 282.887 367.04C281.956 378.577 280.889 391.253 280.435 404.58C280.337 406.247 280.435 407.89 280.435 409.545C280.435 411.2 280.582 412.819 280.693 414.449C280.889 417.719 281.155 420.902 281.49 424L281.747 426.342L281.882 427.494C281.943 427.874 282.029 428.242 282.103 428.622C282.348 430.118 282.838 431.577 283.231 433.035C284.101 435.917 285.045 438.724 286.001 441.458C289.851 452.357 293.664 462.055 296.851 470.208C300.039 478.361 302.699 484.92 304.526 489.456C305.421 491.712 306.132 493.465 306.623 494.691C306.843 495.267 307.027 495.721 307.15 496.052C307.272 496.383 307.395 496.53 307.395 496.53Z" fill="#455A64"/>
<path d="M285.499 304.502C285.499 304.502 285.217 304.33 284.763 303.901C284.177 303.242 283.709 302.487 283.378 301.67C282.407 298.965 281.934 296.108 281.98 293.235C281.942 290.368 282.078 287.503 282.385 284.653C282.442 283.476 282.606 282.306 282.875 281.159C282.975 282.333 282.975 283.515 282.875 284.689C282.765 286.859 282.593 289.863 282.642 293.173C282.623 295.987 283.036 298.786 283.868 301.473C284.156 302.261 284.548 303.008 285.033 303.693C285.327 304.195 285.535 304.477 285.499 304.502Z" fill="#455A64"/>
<path d="M273.263 279.185C273.553 280.145 273.636 281.156 273.508 282.152C273.345 284.593 272.533 286.946 271.156 288.967C269.779 290.989 267.886 292.606 265.674 293.651C264.792 294.133 263.819 294.425 262.818 294.51C262.818 294.412 263.884 294.117 265.478 293.284C267.552 292.18 269.328 290.589 270.652 288.648C271.976 286.707 272.809 284.473 273.079 282.139C273.288 280.325 273.153 279.185 273.263 279.185Z" fill="#455A64"/>
<path d="M324.142 341.049C324.142 341.049 324.142 341.159 324.142 341.367C324.142 341.576 324.142 341.931 324.069 342.311C323.97 343.194 323.848 344.42 323.701 345.989C323.345 349.189 322.855 353.738 322.242 359.328C321.016 370.644 319.201 386.178 317.264 403.354C316.574 411.44 317.115 419.583 318.87 427.506C319.638 430.957 320.625 434.356 321.825 437.682C322.928 440.821 323.946 443.751 324.89 446.436C326.741 451.756 328.237 456.084 329.291 459.125C329.782 460.596 330.174 461.748 330.517 462.582L330.812 463.489C330.852 463.587 330.877 463.69 330.885 463.796C330.885 463.796 330.885 463.71 330.75 463.502C330.615 463.293 330.542 462.987 330.407 462.619C330.088 461.797 329.671 460.657 329.181 459.198L324.596 446.583C323.639 443.91 322.585 440.98 321.457 437.854C320.229 434.51 319.217 431.09 318.429 427.617C316.624 419.643 316.057 411.439 316.749 403.293C318.662 386.067 320.574 370.546 321.911 359.279C322.61 353.689 323.137 349.14 323.566 345.953C323.762 344.408 323.921 343.206 324.044 342.275C324.044 341.895 324.142 341.588 324.179 341.343C324.153 341.247 324.14 341.148 324.142 341.049V341.049Z" fill="#455A64"/>
<path d="M269.021 277.382L274.048 264.546L285.511 281.637L270.223 277.824" fill="#FFBE9D"/>
<path d="M388.948 238.8L375.352 208.31C373.722 203.406 370.669 202.646 368.119 199.801L334.048 180.59C309.209 170.414 295.687 204.521 295.687 204.521L273.116 256.013C246.573 264.804 265.368 285.192 265.368 285.192C265.368 285.192 258.147 272.638 265.257 268.114C272.687 263.369 280.926 275.862 288.846 287.73C298.2 301.731 328.58 310.828 328.58 310.828C332.136 307.076 331.143 293.97 333.926 286.933C334.808 284.714 355.846 235.981 355.846 235.981L363.999 255.731C363.999 255.731 374.445 243.471 379.521 241.534C382.58 240.357 385.734 239.443 388.948 238.8V238.8Z" fill="#558EB4"/>
<path d="M328.568 260.476C328.256 260.759 327.91 261.002 327.538 261.199C326.548 261.774 325.51 262.262 324.436 262.658C320.865 264.003 317.007 264.404 313.236 263.822C309.465 263.24 305.907 261.695 302.908 259.336C302.002 258.636 301.161 257.857 300.395 257.006C300.091 256.717 299.834 256.382 299.634 256.013C299.72 255.927 300.86 257.313 303.165 258.992C306.161 261.202 309.647 262.653 313.326 263.221C317.005 263.789 320.767 263.457 324.289 262.254C327.011 261.346 328.568 260.378 328.568 260.476Z" fill="#263238"/>
<path d="M272.172 212.098L293.198 214.084L326.839 178.53L307.052 177.844L271.829 181.325C273.682 191.49 273.798 201.895 272.172 212.098V212.098Z" fill="#558EB4"/>
<path d="M301.314 193.389C301.263 193.618 301.176 193.837 301.056 194.039L300.211 195.854C299.45 197.496 298.384 199.764 297.097 202.511C294.485 208.15 290.967 215.997 287.289 224.701C283.611 233.406 280.104 241.289 277.481 246.941C276.193 249.773 275.127 252.041 274.366 253.61L273.471 255.4C273.378 255.618 273.258 255.824 273.116 256.013C273.178 255.786 273.26 255.564 273.361 255.351L274.146 253.512L277.088 246.769C279.54 240.995 282.961 233.136 286.688 224.456C290.415 215.776 294.044 207.93 296.704 202.327C298.065 199.532 299.156 197.288 300.002 195.743C300.394 195.032 300.701 194.444 300.946 193.978C301.047 193.769 301.171 193.572 301.314 193.389V193.389Z" fill="#263238"/>
<path d="M365.495 203.724C365.556 203.835 364.269 204.509 362.467 206.029C361.433 206.915 360.485 207.896 359.635 208.96C358.599 210.272 357.703 211.69 356.962 213.189C356.251 214.699 355.692 216.276 355.295 217.897C354.986 219.229 354.805 220.588 354.755 221.955C354.669 224.285 354.939 225.731 354.817 225.743C354.687 225.426 354.605 225.092 354.571 224.75C354.479 224.347 354.422 223.937 354.4 223.524C354.337 222.987 354.308 222.447 354.314 221.906C354.305 220.505 354.449 219.107 354.743 217.738C355.111 216.047 355.666 214.402 356.398 212.834C357.166 211.298 358.099 209.851 359.181 208.518C360.077 207.447 361.084 206.473 362.185 205.613C362.6 205.272 363.038 204.961 363.497 204.681C363.827 204.445 364.175 204.235 364.539 204.056C364.838 203.895 365.161 203.784 365.495 203.724V203.724Z" fill="#263238"/>
<path d="M371.368 154.893L351.641 191.771C350.087 194.671 347.491 196.875 344.377 197.94C341.264 199.004 337.862 198.85 334.857 197.509C333.238 196.776 331.786 195.72 330.591 194.404C329.396 193.089 328.483 191.543 327.908 189.861C327.334 188.179 327.11 186.397 327.251 184.626C327.392 182.854 327.894 181.13 328.727 179.56L332.123 173.16C332.123 173.16 323.541 167.606 327.563 158.338C331.143 150.075 344.285 126.732 347.068 121.803L363.693 129.245C365.906 130.399 367.865 131.985 369.454 133.909C371.044 135.834 372.232 138.057 372.947 140.448C373.663 142.839 373.891 145.349 373.62 147.83C373.349 150.311 372.583 152.713 371.368 154.893V154.893Z" fill="#FFBE9D"/>
<path d="M332.123 173.025C336.345 175.008 341.06 175.69 345.671 174.987C345.671 174.987 339.859 180.345 331.032 175.404L332.123 173.025Z" fill="#EB996E"/>
<path d="M338.462 143.54C338.305 143.882 338.287 144.272 338.413 144.627C338.539 144.982 338.799 145.274 339.136 145.44C339.298 145.528 339.475 145.582 339.658 145.601C339.84 145.619 340.025 145.601 340.201 145.547C340.376 145.494 340.54 145.406 340.681 145.289C340.822 145.171 340.939 145.027 341.024 144.864C341.181 144.522 341.199 144.132 341.073 143.777C340.947 143.422 340.687 143.131 340.35 142.964C340.188 142.876 340.011 142.822 339.828 142.803C339.646 142.785 339.461 142.803 339.285 142.857C339.11 142.91 338.946 142.998 338.805 143.116C338.664 143.233 338.547 143.377 338.462 143.54V143.54Z" fill="#263238"/>
<path d="M338.535 142.375C338.621 142.621 339.945 142.375 341.367 142.964C342.79 143.552 343.501 144.766 343.734 144.668C343.967 144.57 343.807 144.239 343.513 143.712C343.087 143.014 342.458 142.462 341.711 142.13C340.973 141.799 340.149 141.709 339.357 141.873C338.781 142.008 338.486 142.216 338.535 142.375Z" fill="#263238"/>
<path d="M351.715 150.062C351.555 150.404 351.536 150.795 351.662 151.151C351.788 151.507 352.049 151.798 352.389 151.963C352.551 152.05 352.729 152.104 352.913 152.121C353.096 152.139 353.281 152.12 353.457 152.065C353.633 152.01 353.796 151.921 353.936 151.802C354.077 151.684 354.193 151.538 354.277 151.374C354.43 151.033 354.446 150.646 354.32 150.294C354.194 149.943 353.937 149.653 353.603 149.486C353.442 149.397 353.264 149.341 353.081 149.322C352.898 149.302 352.713 149.32 352.537 149.374C352.361 149.428 352.197 149.516 352.056 149.635C351.915 149.753 351.799 149.898 351.715 150.062V150.062Z" fill="#263238"/>
<path d="M352.34 148.861C352.426 149.106 353.75 148.861 355.172 149.449C356.594 150.038 357.305 151.264 357.538 151.166C357.771 151.068 357.624 150.737 357.318 150.197C356.89 149.503 356.262 148.956 355.515 148.628C354.779 148.291 353.953 148.201 353.162 148.371C352.585 148.505 352.291 148.751 352.34 148.861Z" fill="#263238"/>
<path d="M342.495 157.063C341.852 156.502 341.144 156.021 340.387 155.629C340.043 155.42 339.725 155.199 339.774 154.93C339.823 154.66 340.141 154.304 340.497 153.961L342.802 151.681C344.837 149.79 346.719 147.74 348.429 145.551C346.235 147.264 344.185 149.155 342.299 151.203L340.031 153.52C339.609 153.855 339.318 154.328 339.21 154.856C339.208 155.007 339.239 155.156 339.3 155.294C339.361 155.431 339.452 155.554 339.565 155.653C339.742 155.794 339.936 155.914 340.141 156.009C340.874 156.467 341.666 156.821 342.495 157.063Z" fill="#263238"/>
<path d="M346.222 159.907C346.002 159.797 345.315 161.329 343.513 161.832C341.711 162.335 340.141 161.44 340.031 161.648C339.921 161.857 340.264 162.102 340.951 162.433C341.844 162.851 342.856 162.938 343.807 162.678C344.724 162.435 345.508 161.84 345.989 161.023C346.333 160.41 346.333 159.956 346.222 159.907Z" fill="#263238"/>
<path d="M354.461 143.148C354.461 143.601 355.92 144.043 357.489 144.987C359.059 145.931 360.211 146.985 360.579 146.74C360.75 146.617 360.677 146.152 360.309 145.514C359.786 144.736 359.095 144.086 358.286 143.613C357.477 143.14 356.572 142.855 355.638 142.78C354.927 142.78 354.473 142.939 354.461 143.148Z" fill="#263238"/>
<path d="M340.889 138.538C341 138.979 342.115 139.077 343.341 139.58C344.567 140.083 345.413 140.806 345.793 140.536C346.173 140.267 345.965 140.022 345.658 139.531C345.255 138.895 344.657 138.405 343.954 138.133C343.259 137.833 342.487 137.76 341.748 137.925C341.135 138.023 340.828 138.293 340.889 138.538Z" fill="#263238"/>
<path d="M365.164 160.422C365.36 160.422 372.336 161.378 369.32 167.594C366.304 173.81 360.738 169.495 360.738 169.311C360.738 169.127 365.164 160.422 365.164 160.422Z" fill="#FFBE9D"/>
<path d="M363.803 167.876C363.803 167.876 363.877 167.999 364.012 168.183C364.22 168.416 364.509 168.561 364.821 168.587C365.353 168.534 365.862 168.338 366.293 168.021C366.724 167.704 367.063 167.277 367.273 166.785C367.546 166.261 367.701 165.684 367.726 165.093C367.761 164.87 367.741 164.643 367.669 164.429C367.596 164.216 367.473 164.023 367.31 163.867C367.199 163.775 367.061 163.725 366.917 163.725C366.774 163.725 366.635 163.775 366.525 163.867C366.366 164.002 366.341 164.137 366.304 164.137C366.267 164.137 366.218 163.965 366.39 163.732C366.502 163.595 366.658 163.5 366.831 163.463C367.065 163.419 367.307 163.467 367.506 163.597C367.735 163.772 367.915 164.002 368.031 164.266C368.147 164.53 368.194 164.819 368.168 165.105C368.17 165.771 368.01 166.428 367.702 167.018C367.464 167.586 367.063 168.072 366.551 168.414C366.039 168.756 365.437 168.94 364.821 168.943C364.631 168.905 364.45 168.827 364.292 168.716C364.134 168.604 364.001 168.46 363.901 168.293C363.742 168.036 363.779 167.876 363.803 167.876Z" fill="#EB996E"/>
<path d="M368.769 161.832C368.191 161.54 367.547 161.406 366.902 161.443C366.256 161.479 365.631 161.685 365.091 162.04C364.281 162.751 363.73 163.732 362.92 164.492C362.548 164.888 362.054 165.148 361.517 165.233C360.98 165.317 360.43 165.221 359.954 164.958C359.675 164.709 359.467 164.391 359.35 164.036C359.234 163.681 359.214 163.301 359.292 162.935C359.456 162.202 359.76 161.507 360.187 160.888C361.866 158.117 363.791 155.469 365.238 152.563C366.812 149.693 367.499 146.421 367.211 143.16C367.045 141.538 366.445 139.991 365.474 138.682C364.504 137.372 363.198 136.349 361.694 135.718C359.672 135.007 357.416 135.216 355.344 134.627C354.117 134.259 352.991 133.617 352.048 132.751C351.105 131.885 350.371 130.816 349.9 129.625C349.656 129.145 349.386 128.678 349.091 128.227C349.165 128.08 349.9 126.83 350.624 126.584C356.092 124.733 363.484 126.854 368.008 130.422C370.318 132.216 372.207 134.493 373.546 137.094C374.884 139.694 375.639 142.555 375.757 145.477C375.818 151.239 372.189 157.59 368.818 161.881" fill="#263238"/>
<path d="M368.83 161.158C370.558 158.215 373.354 156.094 375.487 153.446C377.62 150.798 379.165 147.059 377.571 144.018C377.056 142.976 376.223 142.106 375.793 141.027C375.454 139.907 375.248 138.75 375.18 137.582C374.904 135.796 374.226 134.096 373.198 132.61C372.171 131.124 370.82 129.889 369.247 129C367.064 127.774 364.551 127.283 362.332 126.119C358.838 124.28 356.276 120.871 352.524 119.412C351.933 119.124 351.288 118.964 350.631 118.943C349.974 118.922 349.319 119.04 348.711 119.29C348.42 119.431 348.162 119.633 347.954 119.88C347.746 120.128 347.593 120.417 347.503 120.728C347.414 121.039 347.392 121.366 347.437 121.686C347.483 122.006 347.595 122.314 347.767 122.588C347.695 122.305 347.561 122.042 347.376 121.817C347.191 121.591 346.959 121.409 346.696 121.283C346.433 121.157 346.146 121.09 345.855 121.087C345.563 121.083 345.274 121.144 345.009 121.264C344.487 121.548 344.061 121.98 343.784 122.506C343.507 123.031 343.391 123.627 343.452 124.218C343.596 125.398 344.057 126.517 344.788 127.455C347.061 130.677 350.408 132.985 354.228 133.965L362.7 133.303L369.639 138.44L374.764 146.617L365.458 158.706L368.83 161.158Z" fill="#263238"/>
<path d="M315.879 112.915C315.534 107.573 313.762 102.421 310.746 97.9988C307.731 93.5761 303.583 90.0445 298.736 87.7728C293.889 85.5011 288.521 84.5727 283.192 85.0847C277.864 85.5966 272.771 87.53 268.445 90.683C264.119 93.836 260.72 98.0928 258.601 103.009C256.483 107.925 255.723 113.319 256.402 118.629C257.081 123.939 259.174 128.968 262.461 133.193C265.748 137.418 270.11 140.682 275.09 142.645C275.323 146.176 275.58 150.173 275.58 150.173L301.719 148.481C301.719 148.481 301.608 144.251 301.412 140.475C306.124 137.655 309.968 133.591 312.52 128.729C315.072 123.866 316.234 118.394 315.879 112.915V112.915Z" fill="#558EB4"/>
<path d="M292.254 148.971C292.254 148.971 292.254 148.836 292.254 148.603C292.254 148.37 292.254 147.978 292.254 147.512C292.254 146.568 292.389 145.158 292.536 143.356C292.683 141.554 292.891 139.335 293.296 136.797C293.743 133.906 294.47 131.064 295.466 128.313C296.052 126.712 296.778 125.165 297.636 123.691C298.103 122.886 298.765 122.212 299.561 121.729C299.992 121.489 300.474 121.356 300.966 121.341C301.459 121.326 301.949 121.43 302.393 121.644C302.863 121.87 303.228 122.27 303.41 122.759C303.612 123.254 303.612 123.809 303.41 124.304C302.973 125.257 302.201 126.016 301.24 126.437C300.228 126.834 299.148 127.025 298.061 127.001C296.975 126.976 295.904 126.736 294.91 126.295C293.917 125.854 293.021 125.22 292.275 124.43C291.529 123.64 290.946 122.709 290.562 121.693C290.109 120.609 289.968 119.419 290.157 118.26C290.26 117.643 290.575 117.082 291.047 116.672C291.519 116.263 292.119 116.031 292.744 116.016C293.068 116.027 293.383 116.12 293.66 116.288C293.937 116.455 294.166 116.691 294.326 116.973C294.655 117.516 294.781 118.159 294.681 118.787C294.393 119.996 293.727 121.083 292.781 121.889C291.88 122.755 290.805 123.422 289.629 123.844C288.452 124.267 287.199 124.436 285.952 124.341C284.703 124.223 283.501 123.805 282.448 123.122C281.396 122.439 280.524 121.511 279.908 120.418C279.592 119.879 279.39 119.281 279.316 118.66C279.242 118.04 279.298 117.411 279.479 116.813C279.568 116.506 279.723 116.223 279.933 115.983C280.144 115.742 280.404 115.551 280.696 115.423C280.989 115.294 281.306 115.231 281.625 115.238C281.944 115.246 282.258 115.323 282.544 115.465C283.108 115.726 283.579 116.154 283.893 116.691C284.186 117.214 284.377 117.788 284.457 118.382C284.614 119.531 284.535 120.699 284.224 121.815C283.648 124.004 282.257 125.89 280.337 127.087C278.504 128.211 276.331 128.646 274.207 128.313C273.175 128.216 272.202 127.786 271.436 127.087C271.062 126.722 270.822 126.24 270.758 125.721C270.693 125.202 270.807 124.676 271.081 124.231C271.399 123.82 271.866 123.551 272.38 123.483C272.87 123.42 273.368 123.483 273.827 123.667C274.673 124.08 275.358 124.761 275.776 125.604C276.635 127.173 277.333 128.705 278.045 130.164C280.815 136.025 282.826 140.867 284.175 144.227C284.849 145.906 285.401 147.218 285.695 148.101C285.854 148.542 285.977 148.885 286.075 149.118C286.12 149.234 286.157 149.353 286.185 149.474L286.038 149.131L285.621 148.138L284.04 144.276C282.642 140.941 280.595 136.11 277.799 130.275C277.088 128.828 276.365 127.271 275.519 125.738C275.126 124.957 274.489 124.324 273.705 123.936C273.308 123.75 272.863 123.694 272.433 123.778C272.003 123.862 271.611 124.08 271.314 124.402C271.091 124.791 271.004 125.243 271.067 125.687C271.129 126.131 271.336 126.541 271.657 126.854C272.372 127.506 273.28 127.906 274.244 127.994C276.293 128.299 278.383 127.865 280.141 126.768C281.963 125.601 283.277 123.788 283.819 121.693C284.119 120.62 284.194 119.498 284.04 118.395C284.004 117.847 283.828 117.317 283.53 116.855C283.232 116.394 282.821 116.017 282.336 115.759C282.091 115.647 281.826 115.588 281.557 115.588C281.288 115.588 281.023 115.647 280.779 115.759C280.53 115.877 280.311 116.048 280.135 116.26C279.959 116.472 279.832 116.719 279.761 116.985C279.596 117.535 279.547 118.113 279.617 118.682C279.686 119.252 279.873 119.801 280.166 120.295C280.762 121.324 281.597 122.195 282.599 122.835C283.602 123.475 284.743 123.865 285.928 123.973C287.122 124.062 288.322 123.896 289.448 123.489C290.574 123.081 291.601 122.44 292.462 121.607C293.339 120.859 293.961 119.856 294.24 118.738C294.326 118.191 294.218 117.632 293.934 117.156C293.802 116.928 293.615 116.737 293.39 116.599C293.165 116.462 292.909 116.384 292.646 116.372C292.105 116.375 291.585 116.581 291.187 116.948C290.788 117.313 290.521 117.8 290.427 118.333C290.246 119.427 290.378 120.549 290.807 121.57C291.174 122.554 291.733 123.454 292.452 124.218C293.171 124.983 294.036 125.596 294.995 126.022C295.954 126.448 296.989 126.678 298.038 126.699C299.087 126.72 300.13 126.531 301.106 126.143C301.992 125.756 302.707 125.058 303.116 124.181C303.292 123.768 303.303 123.304 303.148 122.882C302.993 122.461 302.684 122.115 302.283 121.913C301.881 121.719 301.438 121.625 300.992 121.638C300.546 121.65 300.11 121.77 299.72 121.987C298.978 122.443 298.359 123.075 297.918 123.826C297.068 125.281 296.346 126.807 295.76 128.387C294.753 131.112 294.014 133.929 293.553 136.797C293.124 139.335 292.891 141.542 292.72 143.344C292.548 145.146 292.462 146.531 292.376 147.5C292.376 147.954 292.303 148.321 292.291 148.579C292.278 148.836 292.254 148.971 292.254 148.971Z" fill="#263238"/>
<path d="M300.014 153.446L277.579 154.905C277.13 154.932 276.69 154.781 276.352 154.485C276.015 154.189 275.808 153.771 275.776 153.323C275.75 152.877 275.901 152.437 276.197 152.102C276.494 151.766 276.911 151.562 277.358 151.534L299.806 150.087C300.027 150.072 300.248 150.101 300.458 150.171C300.667 150.242 300.861 150.354 301.027 150.5C301.193 150.645 301.329 150.823 301.427 151.021C301.524 151.22 301.582 151.435 301.596 151.656V151.656C301.623 152.103 301.471 152.542 301.175 152.878C300.879 153.213 300.461 153.418 300.014 153.446V153.446Z" fill="#263238"/>
<path d="M300.113 154.917L277.664 156.376C277.219 156.406 276.803 156.611 276.509 156.946C276.215 157.282 276.066 157.721 276.095 158.166C276.124 158.612 276.329 159.027 276.665 159.322C277.001 159.616 277.44 159.765 277.885 159.736L280.337 159.576L284.015 165.596C284.224 165.932 284.521 166.205 284.872 166.386C285.224 166.567 285.619 166.65 286.014 166.626L294.032 166.111C294.428 166.08 294.81 165.943 295.135 165.714C295.461 165.486 295.719 165.174 295.883 164.811L298.654 158.399L300.333 158.289C300.763 158.237 301.156 158.023 301.433 157.69C301.709 157.357 301.847 156.93 301.819 156.499C301.791 156.067 301.598 155.662 301.281 155.368C300.963 155.074 300.545 154.913 300.113 154.917V154.917Z" fill="#263238"/>
<g opacity="0.2">
<path opacity="0.2" d="M265.662 97.0746C267.315 95.3159 269.25 93.8449 271.387 92.7223C272.786 91.9575 274.29 91.4039 275.85 91.0795C276.978 90.8956 277.628 90.9569 277.701 91.1898C277.861 91.7293 275.654 92.6733 272.797 94.8678C268.981 97.6446 266.045 101.461 264.338 105.861C262.632 110.261 262.227 115.059 263.173 119.682C263.823 123.299 264.816 125.481 264.399 125.812C264.178 125.947 263.664 125.555 262.965 124.66C262.005 123.366 261.252 121.931 260.733 120.405C259.939 118.135 259.525 115.749 259.507 113.344C259.45 110.35 259.971 107.374 261.04 104.578" fill="white"/>
</g>
<g opacity="0.2">
<path opacity="0.2" d="M284.984 92.0236C283.096 92.1216 281.392 91.7171 281.134 90.724C281.024 90.2336 281.342 89.6819 281.992 89.2283C282.834 88.717 283.787 88.4185 284.77 88.3587C285.752 88.2989 286.735 88.4796 287.632 88.885C288.343 89.2651 288.711 89.78 288.662 90.2827" fill="white"/>
</g>
<path d="M295.466 165.363C294.931 165.269 294.403 165.142 293.884 164.983C292.624 164.716 291.331 164.638 290.047 164.75C288.782 164.886 287.543 165.204 286.369 165.694C285.462 166.086 284.922 166.405 284.898 166.356C285.294 165.978 285.755 165.675 286.259 165.461C287.451 164.88 288.739 164.518 290.059 164.394C291.381 164.267 292.715 164.383 293.995 164.738C294.517 164.861 295.014 165.073 295.466 165.363Z" fill="#455A64"/>
<path d="M298.715 158.473C298.715 158.571 294.669 158.914 289.655 159.245C284.64 159.576 280.595 159.748 280.582 159.637C280.57 159.527 284.628 159.196 289.63 158.877C294.632 158.559 298.703 158.375 298.715 158.473Z" fill="#455A64"/>
<path d="M297.477 161.231C296.756 161.41 296.022 161.529 295.282 161.587C293.921 161.771 292.033 161.967 289.937 162.138C287.84 162.31 285.952 162.396 284.579 162.433C283.841 162.5 283.098 162.5 282.36 162.433C283.087 162.285 283.825 162.203 284.567 162.187L289.912 161.783L295.258 161.342C295.993 161.242 296.735 161.205 297.477 161.231Z" fill="#455A64"/>
<path d="M135.841 311.404L140.745 319.214C140.745 319.214 161.587 300.076 182.171 305.482C182.135 305.458 163.597 289.741 135.841 311.404Z" fill="#558EB4"/>
<path d="M182.135 305.458C182.135 305.458 197.398 288.882 219.785 292.658L225.915 293.578L223.978 290.059C223.978 290.059 185.003 276.72 182.135 305.458Z" fill="#558EB4"/>
<path d="M149.915 249.565C149.915 249.565 119.339 244.305 99.306 255.155L131.182 315.082C131.182 315.082 157.247 289.961 182.184 305.433L149.915 249.565Z" fill="#F5F5F5"/>
<path d="M149.915 249.565C149.978 249.642 150.036 249.724 150.087 249.81L150.541 250.57L152.306 253.549L158.926 264.902L182.368 305.36C182.397 305.411 182.408 305.471 182.4 305.529C182.393 305.588 182.366 305.642 182.324 305.684C182.282 305.726 182.228 305.753 182.169 305.76C182.111 305.768 182.051 305.757 182 305.728C178.406 303.505 174.426 301.979 170.267 301.228C168.083 300.874 165.871 300.718 163.659 300.762C161.383 300.862 159.12 301.149 156.891 301.62C147.471 303.935 138.78 308.572 131.611 315.106L131.341 315.352C131.314 315.381 131.281 315.404 131.244 315.42C131.207 315.436 131.167 315.445 131.127 315.445C131.087 315.445 131.047 315.436 131.01 315.42C130.973 315.404 130.94 315.381 130.912 315.352V315.29L99.0731 255.278C99.0562 255.25 99.0453 255.219 99.0411 255.187C99.0369 255.154 99.0395 255.122 99.0488 255.09C99.058 255.059 99.0737 255.03 99.0948 255.006C99.1159 254.981 99.1419 254.961 99.1712 254.947V254.947C105.561 251.759 112.455 249.706 119.547 248.878C124.959 248.212 130.416 247.974 135.865 248.167C140.377 248.326 143.896 248.682 146.274 248.976C147.5 249.123 148.383 249.258 148.996 249.368L149.695 249.491H149.915H149.682L148.984 249.405C148.371 249.332 147.463 249.209 146.262 249.086C143.81 248.841 140.353 248.535 135.853 248.424C130.425 248.274 124.994 248.549 119.609 249.246C112.575 250.111 105.744 252.184 99.4164 255.376L99.5145 255.045L131.39 314.972L130.912 314.886L131.182 314.641C134.899 311.319 138.989 308.439 143.369 306.059C147.57 303.744 152.077 302.035 156.756 300.983C159.02 300.499 161.321 300.212 163.634 300.125C165.884 300.073 168.133 300.233 170.353 300.603C174.577 301.38 178.618 302.939 182.269 305.2L181.889 305.568L158.706 265.11L152.183 253.659L150.479 250.619C150.295 250.276 150.148 250.018 150.05 249.822C149.999 249.739 149.954 249.653 149.915 249.565Z" fill="#263238"/>
<path d="M197.974 237.268C197.974 237.268 174.852 222.556 150.308 249.528L182.527 305.421C182.527 305.421 189.098 282.74 227.57 290.623L197.974 237.268Z" fill="#F5F5F5"/>
<path d="M197.974 237.268C198.038 237.338 198.091 237.416 198.134 237.501C198.232 237.685 198.379 237.918 198.551 238.224L200.181 241.068L206.311 251.906L227.803 290.562C227.82 290.592 227.832 290.624 227.836 290.659C227.841 290.693 227.838 290.727 227.829 290.76C227.82 290.794 227.804 290.825 227.783 290.852C227.762 290.878 227.735 290.901 227.705 290.917C227.646 290.94 227.58 290.94 227.521 290.917L221.796 289.973C220.818 289.807 219.831 289.697 218.841 289.642L215.825 289.397C214.802 289.311 213.774 289.287 212.748 289.324L209.646 289.336C208.592 289.336 207.55 289.544 206.495 289.642C205.431 289.73 204.374 289.889 203.332 290.121L200.181 290.832L197.079 291.923C196.06 292.334 195.061 292.797 194.088 293.308C193.582 293.539 193.098 293.813 192.641 294.13L191.231 295.037C190.3 295.662 189.466 296.422 188.596 297.121C187.774 297.891 187.001 298.71 186.278 299.573C184.794 301.316 183.632 303.308 182.846 305.458C182.818 305.534 182.761 305.597 182.688 305.631C182.614 305.665 182.53 305.669 182.453 305.642C182.386 305.618 182.329 305.57 182.294 305.507L180.994 303.263C169.605 283.463 158.926 265.012 150.111 249.601C150.082 249.556 150.066 249.502 150.066 249.448C150.066 249.394 150.082 249.34 150.111 249.295C154.978 243.785 160.913 239.322 167.557 236.177C172.713 233.823 178.365 232.763 184.023 233.087C187.636 233.303 191.192 234.098 194.554 235.441C195.434 235.802 196.293 236.212 197.129 236.667L197.766 237.035L197.962 237.182L197.742 237.072L197.092 236.741C196.516 236.459 195.657 236.042 194.505 235.6C190.204 233.963 185.618 233.205 181.019 233.372C176.42 233.538 171.901 234.625 167.729 236.569C161.16 239.723 155.297 244.172 150.492 249.65V249.356L181.448 303.055L182.797 305.274L182.233 305.348C183.043 303.111 184.243 301.036 185.776 299.218C186.524 298.331 187.318 297.484 188.154 296.68C189.061 295.956 189.907 295.172 190.864 294.546L192.298 293.615C192.768 293.294 193.264 293.015 193.782 292.781C194.811 292.303 195.78 291.727 196.834 291.359L199.985 290.268L203.197 289.544C204.255 289.306 205.328 289.147 206.409 289.066C207.476 288.968 208.53 288.772 209.585 288.76H212.736C213.77 288.71 214.806 288.735 215.837 288.833L218.878 289.091C219.877 289.138 220.872 289.249 221.857 289.422L227.619 290.39L227.337 290.783C218.547 274.845 211.203 261.494 206.029 252.09C203.467 247.419 201.444 243.717 200.059 241.166L198.489 238.273C198.33 237.954 198.195 237.709 198.097 237.525C197.999 237.341 197.974 237.268 197.974 237.268Z" fill="#263238"/>
<path d="M107.888 226.344L142.375 292.732C142.375 292.732 170.39 291.506 182.257 305.164L150.308 249.565C150.308 249.565 131.574 226.344 107.888 226.344Z" fill="#F5F5F5"/>
<path d="M107.888 226.344H108.771L111.419 226.454C111.713 226.454 112.032 226.454 112.351 226.454L113.368 226.626L115.673 227.006C116.566 227.154 117.447 227.367 118.309 227.644C119.308 227.883 120.294 228.174 121.264 228.514C129.503 231.26 140.561 237.905 150.492 249.356L182.49 304.918C182.53 304.988 182.541 305.071 182.521 305.15C182.5 305.228 182.449 305.294 182.38 305.335C182.328 305.377 182.263 305.4 182.196 305.4C182.129 305.4 182.064 305.377 182.012 305.335V305.335L180.663 303.987C178.099 301.525 175.108 299.552 171.836 298.163C168.667 296.746 165.36 295.662 161.967 294.927C155.529 293.498 148.944 292.848 142.351 292.989V292.989C142.299 292.99 142.248 292.977 142.202 292.951C142.157 292.925 142.12 292.887 142.094 292.842C132.04 273.349 123.458 256.688 117.365 244.893C114.398 239.07 112.02 234.411 110.34 231.199C109.543 229.642 108.918 228.428 108.489 227.521L108.023 226.602L107.876 226.295C107.949 226.398 108.011 226.509 108.06 226.626L108.575 227.57L110.512 231.248L117.696 245.004L142.584 292.597L142.326 292.45C148.963 292.289 155.595 292.932 162.077 294.363C165.506 295.107 168.85 296.2 172.057 297.624C175.393 299.048 178.442 301.067 181.056 303.582L182.453 304.955L181.951 305.311C170.095 284.653 159.123 265.503 150.075 249.699C145.643 244.526 140.572 239.937 134.983 236.042C130.718 233.029 126.066 230.604 121.153 228.833C120.188 228.485 119.206 228.186 118.211 227.938C117.358 227.653 116.485 227.431 115.6 227.276L113.307 226.859L112.314 226.675L111.407 226.602L107.888 226.344Z" fill="#263238"/>
<path d="M215.531 414.633L216.266 415.859C217.097 417.24 218.305 418.354 219.748 419.071L220.974 419.709L219.748 420.444C218.372 421.281 217.259 422.487 216.536 423.926L215.899 425.214L215.163 423.988C214.332 422.607 213.124 421.493 211.681 420.775L210.394 420.138L211.62 419.402C213.003 418.575 214.119 417.366 214.832 415.92L215.531 414.633Z" fill="#558EB4"/>
<path d="M147.561 161.746L148.297 162.972C149.129 164.349 150.337 165.459 151.779 166.172L153.005 166.809L151.779 167.557C150.393 168.382 149.277 169.592 148.567 171.039L147.929 172.265L147.194 171.039C146.361 169.655 145.148 168.54 143.699 167.827L142.412 167.19L143.638 166.454C145.016 165.614 146.129 164.403 146.85 162.96L147.561 161.746Z" fill="#558EB4"/>
<path d="M462.128 205.38L462.864 206.606C463.696 207.989 464.909 209.105 466.358 209.818L467.645 210.455L466.419 211.191C465.042 212.027 463.932 213.239 463.22 214.685L462.582 215.911L461.834 214.685C461.006 213.305 459.797 212.194 458.352 211.485L457.053 210.872L458.279 210.124C459.664 209.3 460.781 208.09 461.491 206.642L462.128 205.38Z" fill="#558EB4"/>
<path d="M424.981 430.51L425.716 431.736C426.552 433.114 427.765 434.224 429.21 434.936L430.498 435.573L429.272 436.321C427.892 437.153 426.777 438.361 426.059 439.803L425.434 441.09L424.686 439.864C423.859 438.481 422.65 437.365 421.205 436.652L419.917 436.015L421.143 435.279C422.527 434.447 423.642 433.234 424.355 431.785L424.981 430.51Z" fill="#558EB4"/>
<path d="M432.055 477.821L432.41 477.968C432.8 478.12 433.224 478.163 433.636 478.091L434.016 478.017L433.869 478.373C433.717 478.763 433.675 479.187 433.746 479.599L433.82 479.979L433.464 479.832C433.074 479.681 432.651 479.638 432.238 479.709L431.858 479.783L432.006 479.427C432.157 479.037 432.2 478.613 432.128 478.201L432.055 477.821Z" fill="#558EB4"/>
<path d="M453.448 157.921L453.792 158.068C454.182 158.218 454.605 158.261 455.018 158.191L455.385 158.117L455.251 158.473C455.093 158.861 455.05 159.287 455.128 159.699L455.202 160.079L454.846 159.932C454.456 159.781 454.032 159.739 453.62 159.809L453.252 159.883L453.387 159.527C453.545 159.139 453.587 158.713 453.51 158.301L453.448 157.921Z" fill="#558EB4"/>
<path d="M161.378 128.73L161.734 128.865C162.122 129.023 162.548 129.065 162.96 128.987H163.34L163.193 129.331C163.043 129.721 163 130.144 163.07 130.557L163.144 130.925L162.788 130.79C162.4 130.632 161.974 130.589 161.562 130.667H161.182L161.329 130.324C161.479 129.934 161.522 129.51 161.452 129.098L161.378 128.73Z" fill="#558EB4"/>
<path d="M197.386 377.804L197.742 377.939C198.128 378.102 198.556 378.145 198.968 378.062L199.348 378L199.2 378.356C199.048 378.746 199.006 379.17 199.078 379.582L199.151 379.95L198.796 379.815C198.407 379.657 197.982 379.614 197.57 379.692L197.19 379.766L197.337 379.41C197.487 379.02 197.529 378.596 197.46 378.184L197.386 377.804Z" fill="#558EB4"/>
<path d="M236.508 474.082L236.164 474.437L235.147 475.455L231.187 479.366L216.475 493.551V493.404C217.247 508.79 218.228 529.632 219.258 552.926V553.441L218.816 553.159L213.508 549.604L179.866 527.082H179.793V527.008C174.766 512.014 170.537 499.362 167.533 490.437C166.062 485.999 164.909 482.492 164.1 480.065L163.217 477.306C163.119 477.012 163.046 476.779 162.997 476.607C162.997 476.436 162.923 476.362 162.935 476.362L163.033 476.583L163.291 477.282C163.512 477.932 163.83 478.839 164.247 480.016L167.803 490.351C170.843 499.264 175.159 511.88 180.234 526.849L180.136 526.726L213.814 549.211L219.123 552.754L218.706 552.987C217.713 529.693 216.818 508.851 216.156 493.44V493.355H216.217L231.027 479.305L235.061 475.516L236.115 474.548C236.373 474.18 236.508 474.082 236.508 474.082Z" fill="#558EB4"/>
<path d="M220.839 545.877L220.729 549.346L223.536 551.406L220.202 552.374L219.111 555.672L217.149 552.803L213.679 552.791L215.813 550.045L214.746 546.735L218.019 547.912L220.839 545.877Z" fill="#558EB4"/>
<path d="M180.308 522.325L180.381 524.569L182.269 525.795L180.148 526.542L179.572 528.725L178.199 526.947L175.955 527.07L177.218 525.206L176.409 523.11L178.567 523.747L180.308 522.325Z" fill="#558EB4"/>
<path d="M162.85 472.145L164.541 474.327L167.3 474.155L165.755 476.448L166.76 479.01L164.112 478.25L161.979 480.004L161.881 477.245L159.564 475.762L162.151 474.818L162.85 472.145Z" fill="#558EB4"/>
<path d="M234.804 469.975L236.508 472.145L239.254 471.985L237.709 474.266L238.714 476.84L236.066 476.068L233.933 477.821L233.847 475.063L231.518 473.579L234.117 472.635L234.804 469.975Z" fill="#558EB4"/>
<path d="M215.923 490.988L217.002 492.386L218.755 492.276L217.774 493.735L218.412 495.378L216.72 494.887L215.359 496.003L215.298 494.25L213.814 493.293L215.469 492.693L215.923 490.988Z" fill="#558EB4"/>
<path d="M151.031 398.266C164.532 398.266 175.477 387.321 175.477 373.82C175.477 360.318 164.532 349.373 151.031 349.373C137.53 349.373 126.584 360.318 126.584 373.82C126.584 387.321 137.53 398.266 151.031 398.266Z" fill="#558EB4"/>
<g opacity="0.3">
<path opacity="0.3" d="M147.856 381.445C147.858 382.237 147.625 383.011 147.187 383.67C146.749 384.33 146.125 384.844 145.394 385.148C144.663 385.452 143.859 385.532 143.082 385.378C142.306 385.224 141.592 384.843 141.033 384.284C140.473 383.724 140.092 383.011 139.938 382.234C139.784 381.458 139.865 380.653 140.169 379.922C140.473 379.192 140.987 378.568 141.646 378.129C142.305 377.691 143.08 377.458 143.871 377.461C144.927 377.464 145.938 377.885 146.685 378.631C147.432 379.378 147.852 380.39 147.856 381.445V381.445Z" fill="white"/>
</g>
<g opacity="0.3">
<path opacity="0.3" d="M142.216 369.945C142.218 370.407 142.084 370.858 141.829 371.243C141.575 371.628 141.212 371.928 140.787 372.106C140.361 372.284 139.892 372.332 139.44 372.244C138.987 372.155 138.571 371.935 138.244 371.609C137.917 371.284 137.694 370.869 137.603 370.417C137.512 369.965 137.557 369.496 137.733 369.069C137.909 368.643 138.208 368.278 138.591 368.022C138.975 367.765 139.425 367.628 139.887 367.628C140.502 367.628 141.093 367.872 141.529 368.306C141.966 368.74 142.213 369.33 142.216 369.945V369.945Z" fill="white"/>
</g>
<path d="M127.308 379.766C127.418 380.195 106.38 400.375 111.811 404.678C117.242 408.981 140.009 397.947 159.49 382.242C178.971 366.537 196.699 347.461 191.832 342.41C186.965 337.358 162.666 352.303 162.666 352.303L165.571 354.167C165.571 354.167 180.283 344.739 184.918 348.392C189.552 352.046 176.336 366.341 157.615 379.999C138.894 393.656 120.835 403.219 118.052 399.48C115.269 395.741 128.473 383.272 128.473 383.272L127.308 379.766Z" fill="#558EB4"/>
<g opacity="0.3">
<path opacity="0.3" d="M127.308 379.766C127.418 380.195 106.38 400.375 111.811 404.678C117.242 408.981 140.009 397.947 159.49 382.242C178.971 366.537 196.699 347.461 191.832 342.41C186.965 337.358 162.666 352.303 162.666 352.303L165.571 354.167C165.571 354.167 180.283 344.739 184.918 348.392C189.552 352.046 176.336 366.341 157.615 379.999C138.894 393.656 120.835 403.219 118.052 399.48C115.269 395.741 128.473 383.272 128.473 383.272L127.308 379.766Z" fill="black"/>
</g>
<g opacity="0.3">
<path opacity="0.3" d="M137.557 356.594C137.753 356.827 136.098 358.237 134.223 361.057C131.734 364.68 130.361 368.953 130.274 373.348C130.187 377.742 131.389 382.066 133.732 385.785C135.498 388.691 137.091 390.162 136.883 390.383C136.675 390.604 134.799 389.427 132.616 386.533C131.356 384.84 130.356 382.968 129.65 380.979C127.861 376.029 127.97 370.591 129.956 365.716C130.738 363.751 131.813 361.916 133.144 360.272C135.436 357.477 137.447 356.423 137.557 356.594Z" fill="white"/>
</g>
<path d="M434.449 159.309C442.48 151.591 442.734 138.824 435.016 130.793C427.299 122.762 414.532 122.508 406.501 130.225C398.469 137.943 398.215 150.71 405.933 158.741C413.651 166.772 426.418 167.026 434.449 159.309Z" fill="#558EB4"/>
<g opacity="0.4">
<path opacity="0.4" d="M427.053 137.067C427.067 136.417 427.274 135.787 427.647 135.255C428.02 134.723 428.543 134.313 429.149 134.078C429.754 133.843 430.416 133.793 431.051 133.934C431.685 134.075 432.263 134.401 432.712 134.87C433.161 135.34 433.461 135.932 433.573 136.572C433.686 137.212 433.606 137.871 433.344 138.466C433.082 139.06 432.65 139.564 432.102 139.913C431.554 140.262 430.914 140.44 430.265 140.426C429.833 140.418 429.407 140.325 429.011 140.151C428.615 139.978 428.258 139.728 427.959 139.415C427.66 139.103 427.426 138.735 427.271 138.332C427.115 137.929 427.041 137.499 427.053 137.067Z" fill="black"/>
</g>
<g opacity="0.4">
<path opacity="0.4" d="M433.624 144.742C433.631 144.36 433.752 143.99 433.97 143.678C434.188 143.365 434.494 143.124 434.849 142.986C435.204 142.847 435.592 142.817 435.965 142.9C436.337 142.982 436.676 143.173 436.939 143.449C437.203 143.724 437.379 144.072 437.444 144.447C437.51 144.823 437.463 145.209 437.309 145.558C437.154 145.906 436.9 146.201 436.578 146.405C436.256 146.609 435.881 146.713 435.5 146.703C435.247 146.698 434.999 146.644 434.768 146.542C434.537 146.441 434.328 146.295 434.154 146.113C433.979 145.93 433.843 145.715 433.752 145.48C433.661 145.245 433.617 144.994 433.624 144.742V144.742Z" fill="black"/>
</g>
<g opacity="0.4">
<path opacity="0.4" d="M431.062 150.626C431.154 150.626 431.245 150.645 431.33 150.681C431.415 150.717 431.492 150.77 431.556 150.836C431.62 150.902 431.67 150.981 431.703 151.067C431.736 151.153 431.751 151.245 431.748 151.337C431.742 151.525 431.663 151.703 431.528 151.833C431.393 151.963 431.212 152.036 431.025 152.036C430.838 152.03 430.662 151.95 430.533 151.815C430.405 151.68 430.335 151.499 430.338 151.313C430.34 151.22 430.36 151.128 430.397 151.043C430.435 150.958 430.489 150.882 430.556 150.818C430.623 150.754 430.703 150.704 430.789 150.671C430.876 150.638 430.969 150.623 431.062 150.626V150.626Z" fill="black"/>
</g>
</svg>
