<svg width="500" height="500" viewBox="0 0 500 500" fill="none" xmlns="http://www.w3.org/2000/svg">
<path d="M293.52 394.97V428.16H282.12L306.69 456.78L329.74 428.75H318.09V394.97H293.52Z" fill="#EBEBEB"/>
<path d="M336.99 145V156.68H332.98L341.63 166.76L349.75 156.89H345.64V145H336.99Z" fill="#EBEBEB"/>
<path d="M440.7 253.36V277.35H432.46L450.22 298.04L466.88 277.77H458.46V253.36H440.7Z" fill="#EBEBEB"/>
<path d="M60.84 350.3V374.29H52.6L70.36 394.97L87.03 374.71H78.6V350.3H60.84Z" fill="#EBEBEB"/>
<path d="M208.34 389.51V407.41H202.19L215.45 422.85L227.88 407.73H221.6V389.51H208.34Z" fill="#EBEBEB"/>
<path d="M168.29 96.7C169.13 90.61 160.53 85.6 154.07 85.08C151 84.83 147.8 85.31 144.88 84.29C138.56 82.09 136.03 73.92 129.88 71.29C125.27 69.34 119.97 71.07 115.49 73.29C111.01 75.51 106.61 78.38 101.61 78.7C97.27 78.97 92.55 77.36 88.75 79.48C85.92 81.07 84.43 84.33 81.82 86.25C79.21 88.17 75.94 88.54 72.82 88.71C69.7 88.88 66.37 88.91 63.48 90.23C60.59 91.55 58.21 94.61 58.81 97.72L168.29 96.7Z" fill="#F5F5F5"/>
<path d="M468.52 210.32C469.25 205.02 461.77 200.66 456.15 200.21C453.47 199.99 450.69 200.4 448.15 199.52C442.66 197.6 440.46 190.52 435.09 188.24C431.09 186.54 426.46 188.05 422.58 190.01C418.7 191.97 414.84 194.43 410.5 194.71C406.72 194.95 402.62 193.55 399.31 195.39C396.85 196.77 395.56 199.61 393.31 201.28C391.06 202.95 388.19 203.28 385.44 203.42C382.69 203.56 379.83 203.6 377.32 204.74C374.81 205.88 372.73 208.55 373.25 211.26L468.52 210.32Z" fill="#F5F5F5"/>
<path d="M223.72 49C224.08 46.41 220.42 44.28 217.67 44.06C216.358 44.1089 215.044 43.9947 213.76 43.72C211.07 42.78 210 39.31 207.37 38.2C205.37 37.38 203.15 38.11 201.25 39.07C199.35 40.03 197.47 41.23 195.35 41.37C193.5 41.49 191.49 40.8 189.87 41.7C188.67 42.38 188.04 43.76 186.93 44.58C185.768 45.2723 184.432 45.6192 183.08 45.58C181.717 45.5369 180.359 45.7576 179.08 46.23C178.447 46.4722 177.911 46.9132 177.55 47.4866C177.189 48.06 177.024 48.7349 177.08 49.41L223.72 49Z" fill="#E0E0E0"/>
<path d="M463.71 432.69C464.37 427.92 457.64 424.01 452.59 423.6C450.18 423.4 447.68 423.77 445.4 422.98C440.46 421.25 438.48 414.87 433.66 412.83C430.05 411.31 425.9 412.67 422.4 414.43C418.9 416.19 415.45 418.43 411.54 418.65C408.15 418.87 404.46 417.65 401.48 419.27C399.27 420.5 398.11 423.06 396.07 424.56C394.03 426.06 391.46 426.35 388.98 426.48C386.5 426.61 383.98 426.64 381.68 427.68C379.38 428.72 377.56 431.1 378.03 433.53L463.71 432.69Z" fill="#E0E0E0"/>
<path d="M212.58 143.23L204.87 129.64C209.636 121.903 211.336 112.663 209.635 103.737C207.935 94.8102 202.957 86.8426 195.68 81.4C188.403 75.9574 179.353 73.4334 170.31 74.3242C161.267 75.215 152.884 79.4562 146.808 86.214C140.733 92.9718 137.406 101.758 137.479 110.844C137.553 119.931 141.023 128.662 147.207 135.32C153.391 141.978 161.842 146.083 170.899 146.827C179.955 147.571 188.962 144.9 196.15 139.34V139.34L212.58 143.23Z" fill="#FAFAFA"/>
<path d="M212.58 143.23L196.1 139.48H195.91L196.03 139.32L196.22 139.5C191.152 143.454 185.128 145.997 178.76 146.87C176.849 147.14 174.918 147.237 172.99 147.16C171.99 147.16 170.99 147.08 169.99 147L166.92 146.53C162.031 145.596 157.385 143.671 153.268 140.873C149.152 138.075 145.651 134.464 142.983 130.262C140.315 126.061 138.536 121.357 137.754 116.441C136.973 111.526 137.206 106.502 138.44 101.68C139.811 96.1291 142.489 90.9863 146.25 86.68C150.051 82.2767 154.852 78.8478 160.25 76.68C165.433 74.63 171.011 73.7721 176.57 74.17C181.835 74.5266 186.956 76.0392 191.57 78.6C199.845 83.2065 206.032 90.8184 208.85 99.86C209.971 103.704 210.504 107.696 210.43 111.7C210.229 118.074 208.353 124.282 204.99 129.7V129.57L212.59 143.23L204.77 129.7V129.63V129.57C208.078 124.161 209.905 117.978 210.07 111.64C210.124 107.678 209.581 103.73 208.46 99.93C205.654 90.9957 199.526 83.479 191.34 78.93C186.793 76.4116 181.746 74.9263 176.56 74.58C171.078 74.1897 165.578 75.0408 160.47 77.07C155.127 79.2221 150.38 82.6279 146.63 87C142.927 91.2386 140.288 96.2983 138.93 101.76C137.607 106.996 137.46 112.46 138.5 117.76C139.501 122.769 141.564 127.505 144.55 131.65C149.933 139.13 157.959 144.285 167 146.07L170 146.54C171 146.63 172 146.66 173 146.71C174.907 146.791 176.818 146.704 178.71 146.45C185.027 145.613 191.011 143.126 196.06 139.24L196.86 138.62L196.24 139.42L196.16 139.22L212.58 143.23Z" fill="#263238"/>
<path d="M184.53 91.6799H160.97C159.832 91.6799 158.91 92.6022 158.91 93.7399V128.56C158.91 129.698 159.832 130.62 160.97 130.62H184.53C185.668 130.62 186.59 129.698 186.59 128.56V93.7399C186.59 92.6022 185.668 91.6799 184.53 91.6799Z" fill="#263238"/>
<path d="M185.17 94.02H160.19V123.12H185.17V94.02Z" fill="#FAFAFA"/>
<path d="M172.75 128.95C173.91 128.95 174.85 128.01 174.85 126.85C174.85 125.69 173.91 124.75 172.75 124.75C171.59 124.75 170.65 125.69 170.65 126.85C170.65 128.01 171.59 128.95 172.75 128.95Z" fill="#455A64"/>
<path d="M176.25 102.89L185.47 113.77L194.1 102.89H189.62V87.9199L180.66 87.8099L180.77 102.91L176.25 102.89Z" fill="#558EB4"/>
<path d="M176.82 107C175.64 108.606 174.325 110.108 172.89 111.49C171.58 112.986 170.145 114.368 168.6 115.62C169.771 114.01 171.083 112.507 172.52 111.13C173.829 109.629 175.268 108.247 176.82 107Z" fill="#263238"/>
<path d="M175 105.67C174.404 106.609 173.669 107.452 172.82 108.17C172.096 109.001 171.245 109.713 170.3 110.28C170.892 109.338 171.628 108.495 172.48 107.78C173.203 106.947 174.053 106.235 175 105.67Z" fill="#263238"/>
<path d="M402.39 102.21V119.12H396.58L409.11 133.71L420.86 119.42H414.92V102.21H402.39Z" fill="#558EB4"/>
<path opacity="0.3" d="M402.39 102.21V119.12H396.58L409.11 133.71L420.86 119.42H414.92V102.21H402.39Z" fill="black"/>
<path d="M443.23 64.48C441.673 58.4263 438.461 52.9263 433.952 48.5971C429.443 44.2679 423.817 41.2809 417.706 39.9713C411.594 38.6617 405.238 39.0813 399.351 41.1831C393.465 43.2849 388.28 46.9856 384.38 51.87C383.305 51.7374 382.223 51.6706 381.14 51.67C377.358 51.4948 373.58 52.0884 370.034 53.415C366.487 54.7416 363.247 56.7735 360.509 59.388C357.77 62.0025 355.591 65.1453 354.101 68.6262C352.612 72.1071 351.844 75.8539 351.844 79.64C351.844 83.4261 352.612 87.1729 354.101 90.6538C355.591 94.1347 357.77 97.2774 360.509 99.8919C363.247 102.506 366.487 104.538 370.034 105.865C373.58 107.192 377.358 107.785 381.14 107.61H442.05C447.679 107.621 453.089 105.433 457.127 101.512C461.165 97.5905 463.511 92.2468 463.665 86.6202C463.819 80.9936 461.769 75.5296 457.951 71.3935C454.133 67.2573 448.851 64.7765 443.23 64.48V64.48Z" fill="#558EB4"/>
<path d="M449.67 100.07C449.62 99.99 450.83 99.24 452.43 97.63C454.53 95.5456 456.141 93.0212 457.148 90.2388C458.154 87.4565 458.531 84.4855 458.25 81.54C458.04 79.28 457.6 77.92 457.69 77.9C457.854 78.191 457.976 78.5042 458.05 78.83C458.309 79.704 458.499 80.5967 458.62 81.5C459.011 84.5069 458.677 87.5638 457.645 90.4151C456.614 93.2665 454.915 95.8295 452.69 97.89C452.026 98.5163 451.31 99.085 450.55 99.59C450.285 99.797 449.988 99.9591 449.67 100.07V100.07Z" fill="#263238"/>
<path d="M385.16 60.05C385.16 60.14 383.61 59.75 381.11 59.7C377.848 59.6126 374.607 60.2447 371.617 61.5513C368.627 62.8579 365.962 64.807 363.81 67.26C362.15 69.14 361.41 70.53 361.32 70.47C361.436 70.1155 361.601 69.7789 361.81 69.47C362.319 68.6036 362.894 67.7779 363.53 67C365.651 64.426 368.35 62.3882 371.406 61.0521C374.462 59.716 377.79 59.1192 381.12 59.31C382.129 59.363 383.132 59.4968 384.12 59.71C384.48 59.7781 384.829 59.8924 385.16 60.05V60.05Z" fill="#263238"/>
<path d="M404.05 46.23C404.05 46.33 402.94 46.4 401.22 46.85C398.976 47.4657 396.862 48.482 394.98 49.85C393.109 51.2139 391.502 52.9084 390.24 54.85C389.24 56.34 388.86 57.38 388.77 57.35C388.803 57.0868 388.878 56.8304 388.99 56.59C389.241 55.9165 389.552 55.2672 389.92 54.65C390.455 53.7097 391.077 52.8224 391.78 52C392.654 51.0232 393.626 50.1386 394.68 49.36C395.743 48.5969 396.882 47.9467 398.08 47.42C399.063 46.9927 400.085 46.6579 401.13 46.42C401.831 46.2667 402.543 46.173 403.26 46.14C403.526 46.1287 403.793 46.159 404.05 46.23V46.23Z" fill="#263238"/>
<path d="M430.24 107.37C430.24 107.52 422.02 107.63 411.88 107.63C401.74 107.63 393.51 107.52 393.51 107.37C393.51 107.22 401.73 107.11 411.88 107.11C422.03 107.11 430.24 107.23 430.24 107.37Z" fill="#263238"/>
<path d="M432.3 157.76C432.16 157.76 432.04 151.02 432.04 142.76C432.04 134.5 432.16 127.76 432.3 127.76C432.44 127.76 432.57 134.49 432.57 142.76C432.57 151.03 432.45 157.76 432.3 157.76Z" fill="#263238"/>
<path d="M438.18 170.9C438.04 170.9 437.92 162.23 437.92 151.53C437.92 140.83 438.04 132.16 438.18 132.16C438.32 132.16 438.45 140.83 438.45 151.53C438.45 162.23 438.33 170.9 438.18 170.9Z" fill="#263238"/>
<path d="M62.2099 188.09V198.45H58.6499L66.3199 207.39L73.5199 198.64H69.8799V188.09H62.2099Z" fill="#558EB4"/>
<path opacity="0.3" d="M62.2099 188.09V198.45H58.6499L66.3199 207.39L73.5199 198.64H69.8799V188.09H62.2099Z" fill="black"/>
<path d="M87.2299 165C86.2755 161.291 84.3066 157.922 81.5441 155.269C78.7816 152.617 75.3348 150.787 71.5902 149.984C67.8457 149.182 63.9516 149.438 60.3447 150.725C56.7378 152.012 53.5607 154.278 51.1699 157.27C50.5059 157.194 49.8383 157.154 49.1699 157.15C46.8849 157.095 44.6119 157.497 42.4847 158.333C40.3575 159.17 38.419 160.423 36.7834 162.02C35.1478 163.616 33.848 165.524 32.9606 167.63C32.0731 169.737 31.616 171.999 31.616 174.285C31.616 176.571 32.0731 178.833 32.9606 180.94C33.848 183.046 35.1478 184.954 36.7834 186.55C38.419 188.147 40.3575 189.4 42.4847 190.236C44.6119 191.073 46.8849 191.475 49.1699 191.42H86.4999C89.9434 191.421 93.2513 190.078 95.7199 187.677C98.1885 185.276 99.6229 182.007 99.718 178.565C99.8131 175.123 98.5614 171.78 96.2291 169.246C93.8969 166.713 90.6682 165.189 87.2299 165V165Z" fill="#558EB4"/>
<path d="M91.1699 186.78C91.1699 186.71 91.8499 186.23 92.8099 185.24C94.0664 183.954 95.0375 182.417 95.6599 180.73C96.2565 179.034 96.4949 177.233 96.3599 175.44C96.2499 174.06 95.9999 173.22 96.0799 173.2C96.4465 173.88 96.6646 174.63 96.7199 175.4C96.981 177.253 96.785 179.143 96.1488 180.903C95.5126 182.663 94.4556 184.242 93.0699 185.5C92.5337 186.055 91.8862 186.492 91.1699 186.78V186.78Z" fill="#263238"/>
<path d="M51.6499 162.26C51.6499 162.35 50.6499 162.14 49.1599 162.12C47.1746 162.083 45.2047 162.476 43.3854 163.272C41.5662 164.067 39.9405 165.247 38.6199 166.73C37.6199 167.86 37.1199 168.73 37.0499 168.65C37.3311 167.851 37.7697 167.116 38.3399 166.49C39.6354 164.89 41.2961 163.624 43.1825 162.799C45.0688 161.975 47.1256 161.615 49.1799 161.75C50.0288 161.756 50.8681 161.929 51.6499 162.26V162.26Z" fill="#263238"/>
<path d="M63.2199 153.8C62.656 153.984 62.0816 154.134 61.4999 154.25C60.1457 154.634 58.8695 155.254 57.7299 156.08C56.5954 156.906 55.6111 157.921 54.8199 159.08C54.5208 159.602 54.1867 160.103 53.8199 160.58C53.9066 159.975 54.1288 159.397 54.4699 158.89C55.1924 157.608 56.1854 156.499 57.3799 155.64C58.5702 154.769 59.9347 154.165 61.3799 153.87C61.9795 153.704 62.6095 153.68 63.2199 153.8Z" fill="#263238"/>
<path d="M79.2699 191.26C79.2699 191.4 74.2699 191.52 68.0199 191.52C61.7699 191.52 56.7599 191.4 56.7599 191.26C56.7599 191.12 61.7999 191 67.9999 191C74.1999 191 79.2699 191.11 79.2699 191.26Z" fill="#263238"/>
<path d="M80.5299 222.12C80.2723 219.057 80.1855 215.982 80.2699 212.91C80.1854 209.834 80.2722 206.756 80.5299 203.69C80.7937 206.756 80.8805 209.834 80.7899 212.91C80.8803 215.982 80.7935 219.057 80.5299 222.12V222.12Z" fill="#263238"/>
<path d="M84.13 230.18C83.99 230.18 83.87 224.86 83.87 218.31C83.87 211.76 83.99 206.44 84.13 206.44C84.27 206.44 84.39 211.76 84.39 218.31C84.39 224.86 84.28 230.18 84.13 230.18Z" fill="#263238"/>
<path d="M243.28 362.71V411.18H226.63L262.52 452.98L296.19 412.03H279.17V362.71H243.28Z" fill="#558EB4"/>
<path opacity="0.3" d="M243.28 362.71V411.18H226.63L262.52 452.98L296.19 412.03H279.17V362.71H243.28Z" fill="black"/>
<path d="M360.32 254.58C355.854 237.234 346.644 221.476 333.723 209.072C320.802 196.668 304.681 188.109 287.167 184.356C269.654 180.602 251.441 181.802 234.571 187.82C217.702 193.839 202.842 204.438 191.66 218.43C188.58 218.059 185.482 217.866 182.38 217.85C161.118 217.85 140.726 226.296 125.691 241.331C110.656 256.366 102.21 276.758 102.21 298.02C102.21 319.282 110.656 339.674 125.691 354.709C140.726 369.744 161.118 378.19 182.38 378.19H356.94C373.059 378.202 388.545 371.92 400.101 360.684C411.658 349.447 418.371 334.143 418.812 318.031C419.252 301.918 413.385 286.27 402.46 274.419C391.535 262.567 376.415 255.449 360.32 254.58V254.58Z" fill="#558EB4"/>
<path d="M202.15 269.17C202.096 268.998 202.069 268.82 202.07 268.64C202.07 268.24 202.01 267.74 201.97 267.13C201.97 266.79 201.97 266.43 201.91 266.03C201.85 265.63 201.81 265.2 201.76 264.74C201.63 263.81 201.55 262.74 201.29 261.6C201.18 261.02 201.06 260.41 200.93 259.78C200.8 259.15 200.6 258.52 200.43 257.85C200.12 256.5 199.6 255.11 199.1 253.64C197.898 250.505 196.402 247.492 194.63 244.64C192.8 241.806 190.708 239.151 188.38 236.71C187.27 235.63 186.23 234.57 185.15 233.71C184.62 233.27 184.15 232.82 183.62 232.43L182.13 231.33C181.21 230.6 180.28 230.07 179.5 229.56L178.4 228.86L177.4 228.34L176.08 227.59C175.916 227.517 175.764 227.419 175.63 227.3C175.799 227.351 175.963 227.418 176.12 227.5L177.5 228.16L178.5 228.65C178.85 228.84 179.22 229.07 179.63 229.31C180.56 229.835 181.461 230.409 182.33 231.03L183.84 232.11C184.37 232.49 184.84 232.95 185.41 233.38C186.558 234.322 187.657 235.323 188.7 236.38C193.511 241.244 197.206 247.096 199.53 253.53C200.038 254.926 200.472 256.348 200.83 257.79C200.99 258.47 201.19 259.11 201.31 259.79C201.43 260.47 201.53 261.04 201.63 261.62C201.818 262.672 201.952 263.734 202.03 264.8C202.03 265.27 202.12 265.7 202.14 266.11C202.16 266.52 202.14 266.87 202.14 267.21V268.73C202.152 268.876 202.156 269.023 202.15 269.17V269.17Z" fill="#263238"/>
<path d="M169.35 253.67C169.28 253.74 168.23 252.67 166.35 251.28C161.367 247.579 155.446 245.348 149.26 244.84C146.89 244.64 145.41 244.73 145.41 244.64C145.735 244.545 146.072 244.498 146.41 244.5C147.355 244.436 148.304 244.436 149.25 244.5C155.556 244.798 161.608 247.072 166.55 251C167.296 251.584 168.001 252.219 168.66 252.9C168.919 253.129 169.15 253.388 169.35 253.67V253.67Z" fill="#263238"/>
<path d="M206.07 322.1C205.545 322.154 205.015 322.154 204.49 322.1C203.49 322.1 201.99 322.1 200.17 322.01C196.53 321.88 191.5 321.58 185.96 321.01C180.42 320.44 175.43 319.78 171.83 319.19C170.03 318.9 168.58 318.65 167.58 318.45C167.054 318.375 166.535 318.254 166.03 318.09C166.56 318.106 167.088 318.159 167.61 318.25L171.89 318.83C175.49 319.32 180.48 319.95 186.01 320.49C191.54 321.03 196.56 321.39 200.19 321.61L204.49 321.87C205.021 321.91 205.549 321.987 206.07 322.1Z" fill="#263238"/>
<path d="M357.7 254.09C357.516 254.131 357.329 254.155 357.14 254.16L355.53 254.27C354.84 254.27 353.98 254.35 353 254.48C352.02 254.61 350.88 254.67 349.65 254.89L347.71 255.2C347.04 255.31 346.35 255.48 345.63 255.62C344.19 255.89 342.68 256.32 341.08 256.74C334.181 258.702 327.642 261.758 321.71 265.79C320.36 266.74 319.06 267.62 317.93 268.56C317.35 269.02 316.78 269.44 316.27 269.88L314.79 271.17C313.79 271.97 313.04 272.79 312.32 273.47C311.6 274.15 311.01 274.77 310.53 275.29L309.42 276.45C309.295 276.592 309.154 276.719 309 276.83C309.097 276.668 309.211 276.517 309.34 276.38C309.61 276.05 309.96 275.65 310.34 275.15C310.72 274.65 311.34 273.97 312.08 273.27C312.82 272.57 313.55 271.72 314.5 270.9L315.97 269.58C316.48 269.12 317.05 268.69 317.62 268.22C318.75 267.22 320.05 266.36 321.4 265.39C327.377 261.277 334.002 258.197 341 256.28C342.61 255.87 344.14 255.45 345.59 255.2C346.32 255.06 347.02 254.9 347.7 254.8L349.7 254.53C350.94 254.33 352.08 254.28 353.07 254.19C353.921 254.106 354.775 254.066 355.63 254.07H357.24C357.394 254.061 357.548 254.067 357.7 254.09V254.09Z" fill="#263238"/>
<path d="M352.76 378.73C352.76 378.88 314.11 378.99 266.45 378.99C218.79 378.99 180.13 378.88 180.13 378.73C180.13 378.58 218.77 378.47 266.45 378.47C314.13 378.47 352.76 378.59 352.76 378.73Z" fill="#263238"/>
<path d="M144.31 413.42C144.17 413.42 144.05 406.19 144.05 397.28C144.05 388.37 144.17 381.13 144.31 381.13C144.45 381.13 144.57 388.35 144.57 397.28C144.57 406.21 144.45 413.42 144.31 413.42Z" fill="#263238"/>
<path d="M150.87 443.2C150.73 443.2 150.61 433.03 150.61 420.49C150.61 407.95 150.73 397.78 150.87 397.78C151.01 397.78 151.13 407.94 151.13 420.49C151.13 433.04 151 443.2 150.87 443.2Z" fill="#263238"/>
<g opacity="0.3">
<path opacity="0.3" d="M382.46 286.7C380.46 275.29 365.33 263.7 352.29 266.31C340.93 268.57 328.7 271.21 317.47 274.05C312.83 275.22 308.03 269.59 304.15 266.8C302.15 265.34 300.91 263 299.64 260.8C292.41 248.51 280.51 239.29 267.22 234.14C253.93 228.99 239.31 227.76 225.14 229.31C214.14 230.52 202.14 234.31 196.99 244.11C194.93 248.06 194.11 252.8 190.92 255.9C186.66 260.02 179.92 259.69 174.37 261.78C163.27 265.96 157.65 281.83 159.05 293.6C160.45 305.37 170.92 320.54 192.93 322.96C192.93 322.96 272.66 323.66 312.03 325.57C325.68 326.23 329.8 324.35 343.45 323.99C367.54 323.41 386.06 307.63 382.46 286.7Z" fill="black"/>
</g>
<path d="M236 344.05C237.34 343.71 238.84 342.33 240 341.59C242.84 339.763 245.65 337.887 248.43 335.96C238.43 333.06 229.98 330.77 220 327.96C219.657 331.96 220.03 335.99 221.1 339.86C222.02 342.95 223.78 346.24 226.9 347.06C229.73 347.8 232.61 346.24 235.11 344.7L235.8 344.27" fill="#E0E0E0"/>
<path d="M237.71 338.53C237.56 338.53 237.62 337.22 237.27 335.69C236.92 334.16 236.27 333.02 236.45 332.94C237.103 333.696 237.56 334.602 237.78 335.577C238 336.552 237.976 337.566 237.71 338.53V338.53Z" fill="#263238"/>
<path d="M239.86 338C239.757 337.258 239.704 336.509 239.7 335.76C239.545 335.028 239.441 334.286 239.39 333.54C239.851 334.177 240.138 334.925 240.22 335.707C240.303 336.49 240.178 337.28 239.86 338V338Z" fill="#263238"/>
<path d="M226.68 329.82C226.77 329.82 226.48 330.82 226.46 332.53C226.428 334.702 226.97 336.844 228.03 338.74C229.044 340.662 230.431 342.361 232.11 343.74C232.86 344.239 233.653 344.671 234.48 345.03C234.228 345.044 233.975 345.003 233.74 344.91C233.086 344.714 232.466 344.421 231.9 344.04C230.097 342.702 228.617 340.976 227.57 338.99C226.466 337.017 225.955 334.766 226.1 332.51C226.132 331.834 226.236 331.164 226.41 330.51C226.455 330.265 226.547 330.03 226.68 329.82Z" fill="#455A64"/>
<path d="M234.48 332.13C235.356 333.978 235.904 335.964 236.1 338C236.453 340.005 236.453 342.055 236.1 344.06C235.94 344.06 236.05 341.35 235.6 338.06C235.15 334.77 234.32 332.18 234.48 332.13Z" fill="#455A64"/>
<path d="M232.22 342.77C231.625 342.431 231.089 341.999 230.63 341.49C229.41 340.367 228.395 339.041 227.63 337.57C226.866 336.078 226.55 334.397 226.72 332.73C226.749 332.033 226.978 331.36 227.38 330.79C227.46 330.79 227.16 331.54 227.09 332.79C227.032 334.377 227.376 335.952 228.09 337.37C228.837 338.789 229.772 340.101 230.87 341.27C231.368 341.725 231.82 342.227 232.22 342.77V342.77Z" fill="#558EB4"/>
<path d="M246.2 337.35C245.122 338.223 243.94 338.959 242.68 339.54C241.501 340.269 240.239 340.854 238.92 341.28C239.993 340.397 241.176 339.657 242.44 339.08C243.617 338.35 244.88 337.769 246.2 337.35V337.35Z" fill="#558EB4"/>
<path d="M230.28 342.91C229.451 343.814 228.405 344.492 227.242 344.88C226.079 345.268 224.836 345.354 223.63 345.13C223.63 344.98 225.24 345.01 227.08 344.38C228.92 343.75 230.19 342.79 230.28 342.91Z" fill="#455A64"/>
<path d="M226.89 337.79C226.89 337.94 225.54 338.13 224.04 338.79C222.54 339.45 221.49 340.37 221.38 340.26C221.96 339.365 222.817 338.684 223.82 338.32C224.756 337.806 225.836 337.62 226.89 337.79V337.79Z" fill="#455A64"/>
<path d="M226.23 333.24C225.152 332.869 224.054 332.561 222.94 332.32C221.801 332.261 220.659 332.261 219.52 332.32C220.59 331.753 221.825 331.579 223.01 331.83C224.219 331.895 225.363 332.396 226.23 333.24V333.24Z" fill="#455A64"/>
<path d="M302.79 318.78C302.85 318.87 265.28 327.93 265.28 327.93L259.76 315L262.29 311.09C262.29 311.09 278.17 307.5 291.09 300.19L302.79 318.78Z" fill="#FFBE9D"/>
<path d="M214.63 281.94C214.63 281.94 212.91 279.43 205.63 275.86C199.58 272.86 184.05 270.42 177.76 282.57C171.47 294.72 176.3 313.36 186.76 317.34C197.22 321.32 214.63 326.77 221.76 329.07C228.89 331.37 252.34 337.24 252.34 337.24L261.98 331.59L263.12 313.59C263.12 313.59 249.83 299.94 238.52 296.17C227.21 292.4 214.63 281.94 214.63 281.94Z" fill="#263238"/>
<path d="M192.93 273.46C193.03 273.31 203.59 273.61 211.3 276.52C214.2 277.61 217.04 278.78 217.04 278.78L221.3 266.64L253.23 256H288.58L300.08 278.78V279.93C300.08 279.93 313.89 280.16 319.87 277.4C325.85 274.64 344.48 266.58 349.31 264.97C354.14 263.36 375.77 260.27 380.6 273.43C385.43 286.59 382.01 300.32 373.93 305.34C370.12 307.7 305.84 324.34 305.84 324.34L290.65 300.18C290.65 300.18 267.51 311.65 259.76 310.4C252.01 309.15 192.93 273.46 192.93 273.46Z" fill="#263238"/>
<path d="M258.13 261.87C258.198 262.021 258.252 262.179 258.29 262.34C258.38 262.7 258.5 263.15 258.64 263.69C258.93 264.87 259.3 266.6 259.64 268.74C260.42 273.02 261.2 278.99 261.8 285.6C262.4 292.21 262.72 298.21 262.85 302.6C262.92 304.77 262.94 306.53 262.94 307.75C262.94 308.31 262.94 308.75 262.94 309.15C262.967 309.312 262.967 309.478 262.94 309.64C262.908 309.478 262.888 309.315 262.88 309.15C262.88 308.77 262.88 308.31 262.81 307.75C262.74 306.46 262.66 304.75 262.55 302.62C262.33 298.28 261.94 292.29 261.35 285.68C260.76 279.07 260.03 273.13 259.35 268.84C259.02 266.7 258.7 264.97 258.47 263.78C258.37 263.23 258.28 262.78 258.21 262.4C258.154 262.229 258.127 262.05 258.13 261.87V261.87Z" fill="#455A64"/>
<path d="M299.73 280.49C299.73 280.63 291.73 281.64 281.82 282.74C271.91 283.84 263.88 284.62 263.82 284.47C263.76 284.32 271.82 283.32 281.73 282.22C291.64 281.12 299.71 280.35 299.73 280.49Z" fill="#455A64"/>
<path d="M294.45 280.54C294.068 280.557 293.685 280.527 293.31 280.45C292.58 280.35 291.53 280.22 290.22 280.09C286.823 279.72 283.406 279.563 279.99 279.62C276.576 279.686 273.17 279.96 269.79 280.44L266.72 280.91C266.346 280.995 265.964 281.042 265.58 281.05C265.931 280.893 266.301 280.782 266.68 280.72C267.39 280.53 268.43 280.31 269.73 280.08C276.516 278.894 283.446 278.773 290.27 279.72C291.57 279.91 292.62 280.09 293.34 280.25C293.719 280.309 294.091 280.406 294.45 280.54V280.54Z" fill="#455A64"/>
<path d="M299.34 279.16C297.148 278.084 294.853 277.233 292.49 276.62C290.086 276.179 287.643 275.988 285.2 276.05C285.891 275.809 286.618 275.687 287.35 275.69C290.889 275.486 294.416 276.265 297.54 277.94C298.201 278.248 298.809 278.66 299.34 279.16V279.16Z" fill="#455A64"/>
<path d="M269.9 298.93C268.991 299.841 267.882 300.526 266.66 300.93C265.504 301.487 264.232 301.758 262.95 301.72C262.95 301.57 264.56 301.21 266.46 300.44C268.36 299.67 269.81 298.81 269.9 298.93Z" fill="#455A64"/>
<path d="M268.2 303.41C266.544 304.297 264.629 304.573 262.79 304.19C263.671 303.946 264.577 303.802 265.49 303.76C266.378 303.546 267.287 303.429 268.2 303.41V303.41Z" fill="#455A64"/>
<path d="M322.53 278.28C322.384 278.402 322.227 278.509 322.06 278.6L320.67 279.43L315.49 282.43L298.31 292.09L281.05 301.62L275.79 304.46L274.34 305.21C274.174 305.302 274 305.379 273.82 305.44C273.964 305.316 274.122 305.208 274.29 305.12L275.69 304.28L280.87 301.28L298.05 291.62L315.31 282.09L320.57 279.26L322.01 278.51C322.171 278.407 322.346 278.33 322.53 278.28Z" fill="#455A64"/>
<path d="M349.5 273.19C349.288 273.259 349.07 273.313 348.85 273.35L346.99 273.73C345.37 274.07 343.04 274.61 340.2 275.41C332.815 277.56 325.65 280.402 318.8 283.9C310.74 287.9 303.8 292.2 298.72 295.27L292.72 298.93L291.08 299.93C290.892 300.049 290.695 300.152 290.49 300.24C290.656 300.088 290.837 299.954 291.03 299.84L292.61 298.78C293.99 297.87 295.99 296.56 298.49 294.98C303.49 291.82 310.49 287.51 318.54 283.45C325.415 279.936 332.628 277.128 340.07 275.07C342.94 274.31 345.29 273.83 346.92 273.56C347.73 273.4 348.37 273.33 348.8 273.27C349.029 273.214 349.264 273.187 349.5 273.19Z" fill="#455A64"/>
<path d="M365.33 268.64C365.33 268.73 364.17 268.64 362.33 268.64C359.905 268.712 357.498 269.075 355.16 269.72C352.826 270.373 350.577 271.299 348.46 272.48C346.83 273.4 345.89 274.08 345.84 274.01C345.79 273.94 346.03 273.78 346.44 273.45C347.022 272.985 347.634 272.558 348.27 272.17C350.367 270.867 352.64 269.874 355.02 269.22C357.397 268.561 359.854 268.241 362.32 268.27C363.066 268.277 363.811 268.33 364.55 268.43C364.819 268.462 365.082 268.533 365.33 268.64V268.64Z" fill="#455A64"/>
<path d="M359.77 272.87C359.77 273.02 357.09 272.67 353.77 272.79C350.45 272.91 347.87 273.43 347.84 273.28C349.735 272.599 351.736 272.261 353.75 272.28C355.776 272.119 357.814 272.319 359.77 272.87V272.87Z" fill="#455A64"/>
<path d="M348.17 268.79C348.24 268.93 345.94 270.15 343.38 272.06C340.82 273.97 338.97 275.81 338.86 275.7C340.013 274.109 341.439 272.735 343.07 271.64C344.593 270.403 346.318 269.439 348.17 268.79V268.79Z" fill="#455A64"/>
<path d="M382 280.2C381.967 280.272 381.93 280.342 381.89 280.41L381.56 281C381.25 281.53 380.79 282.28 380.12 283.21C378.243 285.87 375.974 288.23 373.39 290.21C369.54 293.087 365.381 295.526 360.99 297.48C356.07 299.75 350.46 301.75 344.58 303.81L314.44 314.36L305.28 317.49L302.79 318.32L302.13 318.53C302.056 318.558 301.979 318.575 301.9 318.58L302.11 318.48L302.75 318.22L305.22 317.3L314.32 314.01L344.41 303.32C350.29 301.26 355.89 299.32 360.8 297.04C365.167 295.119 369.315 292.732 373.17 289.92C375.757 287.98 378.056 285.684 380 283.1C380.68 282.19 381.18 281.45 381.51 280.95L381.89 280.38C381.963 280.253 382 280.193 382 280.2Z" fill="#455A64"/>
<path d="M260.91 332.23C260.661 332.158 260.418 332.072 260.18 331.97L258.12 331.14C256.34 330.41 253.77 329.32 250.62 327.93C244.31 325.16 235.62 321.2 226.22 316.59C216.82 311.98 208.35 307.59 202.38 304.09C199.38 302.37 197.02 300.91 195.38 299.86L193.53 298.63C193.308 298.498 193.101 298.344 192.91 298.17C193.146 298.275 193.374 298.398 193.59 298.54L195.48 299.69C197.13 300.69 199.53 302.1 202.54 303.76C208.54 307.13 217 311.49 226.43 316.12C235.86 320.75 244.49 324.74 250.75 327.59L258.2 331L260.2 331.91C260.447 331.992 260.685 332.099 260.91 332.23V332.23Z" fill="#455A64"/>
<path d="M195.41 279.77C195.676 279.536 195.976 279.344 196.3 279.2C197.142 278.752 198.018 278.371 198.92 278.06C201.924 277.023 205.124 276.681 208.28 277.06C211.432 277.361 214.502 278.235 217.34 279.64C218.187 280.087 218.979 280.63 219.7 281.26C219.979 281.472 220.225 281.725 220.43 282.01C219.389 281.257 218.3 280.572 217.17 279.96C214.321 278.677 211.28 277.873 208.17 277.58C205.091 277.204 201.967 277.476 199 278.38C196.75 279.11 195.45 279.86 195.41 279.77Z" fill="#455A64"/>
<path d="M263.11 313.6C262.936 313.504 262.778 313.383 262.64 313.24L261.36 312.15C260.25 311.15 258.61 309.85 256.57 308.21C252.49 304.94 246.73 300.56 240.38 295.71L235.76 292.16C234.25 291.04 232.76 290.08 231.24 289.16C228.24 287.39 225.54 285.88 223.37 284.39C221.634 283.247 220.016 281.934 218.54 280.47C218.139 280.077 217.758 279.663 217.4 279.23C217.26 279.089 217.139 278.931 217.04 278.76C217.04 278.76 217.61 279.34 218.68 280.33C220.197 281.721 221.833 282.976 223.57 284.08C225.75 285.52 228.5 286.99 231.49 288.75C232.98 289.64 234.49 290.6 236.06 291.75C237.63 292.9 239.06 294.09 240.69 295.3C247.04 300.15 252.77 304.57 256.8 307.93C258.8 309.6 260.43 310.99 261.49 311.99C262.04 312.49 262.44 312.89 262.71 313.17C262.856 313.301 262.99 313.445 263.11 313.6V313.6Z" fill="#455A64"/>
<path d="M236.74 288.67C237.951 289.046 239.139 289.49 240.3 290C242.49 290.85 245.52 292 248.93 293.05C252.34 294.1 255.46 294.96 257.73 295.52C258.973 295.789 260.202 296.123 261.41 296.52C261.074 296.534 260.737 296.501 260.41 296.42C259.76 296.33 258.82 296.16 257.67 295.92C254.672 295.294 251.708 294.513 248.79 293.58C245.868 292.66 242.994 291.592 240.18 290.38C239.11 289.91 238.24 289.51 237.65 289.22C237.327 289.072 237.021 288.888 236.74 288.67V288.67Z" fill="#455A64"/>
<path d="M247.8 279.81C246.617 280.087 245.418 280.294 244.21 280.43C241.99 280.76 238.92 281.23 235.55 281.83C232.18 282.43 229.14 283.06 226.94 283.52C225.762 283.817 224.566 284.038 223.36 284.18C223.651 284.031 223.96 283.92 224.28 283.85C224.88 283.67 225.76 283.43 226.85 283.16C229.04 282.61 232.07 281.93 235.46 281.32C238.85 280.71 241.92 280.32 244.16 280.06C245.28 279.94 246.16 279.86 246.82 279.82C247.144 279.769 247.475 279.765 247.8 279.81Z" fill="#455A64"/>
<path d="M243.06 273.94C243.06 274.02 241.68 274.14 239.48 274.47C233.722 275.319 228.129 277.053 222.9 279.61C220.9 280.61 219.69 281.28 219.65 281.2C219.885 280.974 220.151 280.782 220.44 280.63C220.96 280.28 221.74 279.82 222.73 279.28C225.32 277.899 228.036 276.768 230.84 275.9C233.641 275.035 236.517 274.433 239.43 274.1C240.55 273.98 241.43 273.92 242.08 273.91C242.406 273.868 242.737 273.879 243.06 273.94V273.94Z" fill="#455A64"/>
<path d="M283.24 324.43L277.24 338.43C279.45 340.43 287.85 341.71 290.81 341.56C293.77 341.41 298.05 341.44 301 341.11C304.758 340.807 308.536 340.833 312.29 341.19C316.046 341.546 319.83 341.475 323.57 340.98C327.319 340.465 330.815 338.794 333.57 336.2C334.902 335.023 335.909 333.524 336.495 331.846C337.081 330.168 337.225 328.368 336.915 326.618C336.605 324.868 335.85 323.227 334.723 321.853C333.596 320.479 332.135 319.417 330.48 318.77C327.464 317.487 324.16 317.035 320.91 317.46C317.677 317.886 314.49 318.609 311.39 319.62C308.06 320.62 304.65 321.62 301.19 321.32C300.49 321.26 299.79 321.32 299.1 321.16C294.58 320.32 289.87 320.28 285.8 322.84C285 323.35 284.09 323.8 283.24 324.43Z" fill="#E0E0E0"/>
<path d="M284.11 326C284.27 325.817 284.448 325.649 284.64 325.5C285.179 325.055 285.754 324.657 286.36 324.31C288.616 323.012 291.22 322.449 293.81 322.7C295.43 322.86 297.17 323.19 299.05 323.47C301.029 323.823 303.046 323.92 305.05 323.76C307.251 323.464 309.421 322.965 311.53 322.27C313.827 321.51 316.202 321.006 318.61 320.77C321.034 320.535 323.481 320.745 325.83 321.39C326.945 321.712 328.024 322.147 329.05 322.69C330.047 323.196 330.947 323.873 331.71 324.69C333.115 326.217 334.103 328.08 334.58 330.1C334.814 331.019 334.844 331.978 334.67 332.91C334.481 333.766 334.142 334.582 333.67 335.32C332.88 336.574 331.817 337.634 330.56 338.42C329.626 339.015 328.639 339.52 327.61 339.93C326.77 340.28 326.11 340.51 325.66 340.67C325.435 340.763 325.2 340.83 324.96 340.87C325.171 340.751 325.392 340.651 325.62 340.57C326.06 340.38 326.71 340.12 327.53 339.75C328.527 339.304 329.487 338.779 330.4 338.18C331.599 337.396 332.606 336.354 333.35 335.13C333.809 334.403 334.114 333.589 334.246 332.74C334.378 331.89 334.336 331.022 334.12 330.19C333.637 328.258 332.674 326.48 331.32 325.02C329.749 323.473 327.79 322.378 325.65 321.85C323.371 321.234 321 321.031 318.65 321.25C313.77 321.61 309.44 323.84 305.1 324.25C303.061 324.4 301.01 324.285 299 323.91C297.12 323.6 295.39 323.25 293.79 323.07C291.263 322.809 288.716 323.303 286.47 324.49C285.657 324.951 284.869 325.455 284.11 326V326Z" fill="#455A64"/>
<path d="M325 340.93C325 340.93 324.78 340.74 324.46 340.32C324.258 340.073 324.075 339.813 323.91 339.54C323.676 339.187 323.466 338.82 323.28 338.44C322.771 337.464 322.352 336.443 322.03 335.39C321.639 334.085 321.371 332.745 321.23 331.39C321.111 330.043 321.111 328.687 321.23 327.34C321.335 326.244 321.539 325.159 321.84 324.1C321.948 323.689 322.081 323.284 322.24 322.89C322.343 322.589 322.467 322.295 322.61 322.01C322.85 321.54 322.99 321.29 323.02 321.31C323.05 321.33 322.62 322.39 322.2 324.19C321.949 325.238 321.785 326.305 321.71 327.38C321.631 328.696 321.651 330.017 321.77 331.33C321.921 332.64 322.172 333.938 322.52 335.21C322.814 336.238 323.188 337.241 323.64 338.21C324.37 340 325.06 340.88 325 340.93Z" fill="#263238"/>
<path d="M286.93 322.47C287.06 322.54 286.93 323.06 286.64 323.66C286.35 324.26 286.12 324.74 285.98 324.66C285.84 324.58 285.9 324.06 286.16 323.43C286.42 322.8 286.81 322.4 286.93 322.47Z" fill="#455A64"/>
<path d="M291.2 320.81C291.33 320.87 291.2 321.38 291.03 321.98C290.86 322.58 290.61 323.06 290.47 322.98C290.33 322.9 290.33 322.4 290.53 321.77C290.73 321.14 291.07 320.75 291.2 320.81Z" fill="#455A64"/>
<path d="M296.69 320.7C296.82 320.75 296.75 321.34 296.53 322.02C296.31 322.7 296.01 323.22 295.88 323.17C295.75 323.12 295.81 322.54 296.03 321.86C296.25 321.18 296.55 320.66 296.69 320.7Z" fill="#455A64"/>
<path d="M301.84 321.35C301.98 321.35 301.93 321.98 301.73 322.67C301.53 323.36 301.25 323.89 301.12 323.85C300.99 323.81 301.03 323.22 301.23 322.52C301.43 321.82 301.7 321.31 301.84 321.35Z" fill="#455A64"/>
<path d="M306.18 324.07C306.04 324.07 305.92 323.37 305.93 322.51C305.94 321.65 306.05 320.96 306.2 320.96C306.35 320.96 306.45 321.66 306.45 322.51C306.45 323.36 306.32 324.07 306.18 324.07Z" fill="#455A64"/>
<path d="M311 322.84C310.85 322.84 310.65 322.24 310.54 321.46C310.43 320.68 310.46 320.03 310.6 320.01C310.74 319.99 310.95 320.61 311.06 321.39C311.17 322.17 311.16 322.82 311 322.84Z" fill="#455A64"/>
<path d="M315.46 318.47C315.6 318.47 315.83 319.03 315.97 319.78C316.11 320.53 316.11 321.16 315.97 321.18C315.83 321.2 315.6 320.62 315.46 319.87C315.32 319.12 315.32 318.49 315.46 318.47Z" fill="#455A64"/>
<path d="M321.22 317.41C321.36 317.41 321.3 318.26 321.1 319.24C320.9 320.22 320.6 321 320.46 320.97C320.32 320.94 320.38 320.12 320.59 319.14C320.8 318.16 321.08 317.38 321.22 317.41Z" fill="#455A64"/>
<path d="M326.16 317.55C326.29 317.61 325.94 318.55 325.37 319.55C324.8 320.55 324.24 321.41 324.12 321.34C324.229 320.622 324.499 319.939 324.91 319.34C325.47 318.29 326 317.49 326.16 317.55Z" fill="#455A64"/>
<path d="M331.19 318.87C331.31 318.95 330.85 319.87 330.19 320.93C329.53 321.99 328.84 322.79 328.72 322.71C328.6 322.63 329.06 321.71 329.72 320.65C330.38 319.59 331.07 318.79 331.19 318.87Z" fill="#455A64"/>
<path d="M334.43 321.91C334.54 321.99 334.1 322.82 333.43 323.77C332.76 324.72 332.14 325.42 332.03 325.34C331.92 325.26 332.35 324.42 333.03 323.47C333.71 322.52 334.31 321.82 334.43 321.91Z" fill="#455A64"/>
<path d="M336.69 325.77C336.81 325.85 336.36 326.66 335.6 327.5C334.84 328.34 334.08 328.86 333.99 328.76C333.9 328.66 334.48 327.97 335.22 327.15C335.96 326.33 336.57 325.68 336.69 325.77Z" fill="#455A64"/>
<path d="M336.36 331.66C336.47 331.74 336.22 332.23 335.63 332.49C335.04 332.75 334.5 332.61 334.52 332.49C334.54 332.37 334.95 332.24 335.42 332.03C335.89 331.82 336.25 331.56 336.36 331.66Z" fill="#455A64"/>
<path d="M333.16 336.7C333.16 336.83 333.07 337 332.85 336.97C332.63 336.94 332.56 336.72 332.65 336.61C332.682 336.562 332.725 336.522 332.776 336.495C332.826 336.467 332.882 336.451 332.94 336.45C332.995 336.47 333.043 336.503 333.082 336.547C333.12 336.591 333.147 336.643 333.16 336.7V336.7Z" fill="#455A64"/>
<path d="M298.29 338.69C299 337.193 299.547 335.624 299.92 334.01C300.133 332.352 300.167 330.675 300.02 329.01C300.598 330.628 300.743 332.369 300.44 334.061C300.136 335.752 299.395 337.334 298.29 338.65V338.69Z" fill="#263238"/>
<path d="M302.41 338.22C303.068 336.84 303.571 335.391 303.91 333.9C304.086 332.378 304.086 330.842 303.91 329.32C304.513 330.795 304.693 332.41 304.429 333.982C304.166 335.554 303.47 337.021 302.42 338.22H302.41Z" fill="#263238"/>
<path d="M307.6 338.25C309.399 335.384 310.036 331.94 309.38 328.62C309.665 329.045 309.843 329.532 309.9 330.04C310.134 331.249 310.134 332.491 309.9 333.7C309.684 334.913 309.232 336.071 308.57 337.11C308.08 337.9 307.65 338.29 307.6 338.25Z" fill="#263238"/>
<path d="M313.46 337.9C314.06 336.343 314.512 334.732 314.81 333.09C314.928 331.424 314.894 329.75 314.71 328.09C315.329 329.703 315.538 331.444 315.32 333.157C315.102 334.871 314.463 336.504 313.46 337.91V337.9Z" fill="#263238"/>
<path d="M297.24 333.51C296.973 333.627 296.679 333.668 296.39 333.63C295.597 333.579 294.83 333.328 294.16 332.9C293.2 332.251 292.36 331.439 291.68 330.5C291.219 329.971 290.853 329.365 290.6 328.71C290.474 328.333 290.444 327.931 290.51 327.54C290.586 327.119 290.805 326.738 291.13 326.46C291.446 326.207 291.819 326.036 292.216 325.961C292.614 325.886 293.024 325.909 293.41 326.03C294.09 326.254 294.705 326.642 295.2 327.16C296.024 327.989 296.662 328.985 297.07 330.08C297.347 330.807 297.513 331.573 297.56 332.35C297.604 332.634 297.587 332.924 297.51 333.2C297.357 332.175 297.095 331.17 296.73 330.2C296.293 329.181 295.657 328.26 294.86 327.49C294.421 327.03 293.875 326.687 293.27 326.49C292.965 326.399 292.642 326.383 292.329 326.442C292.016 326.501 291.721 326.634 291.47 326.83C291.242 327.042 291.084 327.318 291.016 327.621C290.949 327.925 290.974 328.241 291.09 328.53C291.326 329.133 291.664 329.692 292.09 330.18C292.721 331.094 293.498 331.899 294.39 332.56C295.23 333.142 296.219 333.472 297.24 333.51V333.51Z" fill="#263238"/>
<path d="M297 333.36C296.981 333.622 296.917 333.88 296.81 334.12C296.586 334.812 296.298 335.481 295.95 336.12C295.444 337.093 294.675 337.904 293.73 338.46C293.15 338.789 292.497 338.968 291.83 338.98C291.443 339.006 291.056 338.933 290.706 338.767C290.355 338.6 290.054 338.347 289.83 338.03C289.655 337.687 289.582 337.301 289.621 336.917C289.66 336.534 289.809 336.171 290.05 335.87C290.438 335.332 290.953 334.899 291.55 334.61C292.531 334.174 293.567 333.878 294.63 333.73C295.574 333.495 296.539 333.351 297.51 333.3C296.601 333.643 295.664 333.907 294.71 334.09C293.695 334.287 292.708 334.606 291.77 335.04C291.252 335.302 290.806 335.686 290.47 336.16C290.292 336.382 290.179 336.65 290.146 336.933C290.112 337.216 290.159 337.502 290.28 337.76C290.454 337.991 290.682 338.176 290.943 338.299C291.204 338.423 291.491 338.481 291.78 338.47C292.364 338.468 292.938 338.32 293.45 338.04C294.335 337.535 295.073 336.808 295.59 335.93C296.5 334.39 296.87 333.31 297 333.36Z" fill="#263238"/>
<path d="M296.59 337.62C296.47 337.52 297.05 336.75 297.22 335.62C297.39 334.49 297.11 333.62 297.22 333.54C297.474 333.834 297.65 334.186 297.734 334.564C297.818 334.943 297.806 335.337 297.7 335.71C297.53 337 296.67 337.73 296.59 337.62Z" fill="#263238"/>
<path d="M298.82 330.63C298.95 330.63 298.82 331.43 298.39 332.25C297.96 333.07 297.39 333.59 297.28 333.51C297.17 333.43 297.52 332.78 297.93 332.01C298.34 331.24 298.68 330.58 298.82 330.63Z" fill="#263238"/>
<path d="M314.83 323.19C314.144 323.645 313.397 323.999 312.61 324.24C308.871 325.635 304.883 326.234 300.9 326C300.078 325.996 299.26 325.879 298.47 325.65C301.243 325.684 304.015 325.54 306.77 325.22C309.498 324.719 312.19 324.041 314.83 323.19V323.19Z" fill="#558EB4"/>
<path d="M312.35 339.4C310.545 339.788 308.706 340.003 306.86 340.04C305.028 340.251 303.18 340.291 301.34 340.16C303.145 339.772 304.984 339.557 306.83 339.52C308.662 339.309 310.51 339.269 312.35 339.4V339.4Z" fill="#558EB4"/>
<path d="M325.62 339.79C326.873 339.613 328.073 339.17 329.14 338.49C330.266 337.721 331.17 336.669 331.76 335.44C332.439 333.922 332.627 332.23 332.3 330.6C331.982 328.959 331.213 327.439 330.08 326.21C329.144 325.216 328.023 324.414 326.78 323.85C325.599 323.37 324.373 323.012 323.12 322.78C323.467 322.717 323.823 322.717 324.17 322.78C325.115 322.89 326.04 323.129 326.92 323.49C328.243 324.026 329.438 324.833 330.43 325.86C331.65 327.14 332.476 328.744 332.81 330.48C333.164 332.219 332.946 334.025 332.19 335.63C331.546 336.921 330.56 338.01 329.34 338.78C328.525 339.294 327.613 339.635 326.66 339.78C326.317 339.848 325.964 339.852 325.62 339.79V339.79Z" fill="#558EB4"/>
<path d="M262.36 315.21L288.36 326.76C288.613 330.065 288.064 333.383 286.76 336.43C284.86 340.33 279.09 339.55 279.09 339.55L256.21 334.23L261.31 331.23L262.36 315.21Z" fill="#FFBE9D"/>
<path d="M285.6 338.48C284.571 337.76 283.631 336.921 282.8 335.98C281.969 335.028 281.502 333.813 281.48 332.55C281.593 331.412 281.977 330.318 282.6 329.36C283.132 328.202 284.046 327.262 285.19 326.7C286.63 326.16 288.19 326.78 289.6 327.47L289.87 333.27L285.6 338.48Z" fill="#E0E0E0"/>
<path d="M288.4 326.76C288.34 326.89 282.47 324.41 275.28 321.22C268.09 318.03 262.28 315.34 262.36 315.22C262.44 315.1 268.3 317.56 275.49 320.75C282.68 323.94 288.46 326.62 288.4 326.76Z" fill="#EB996E"/>
<path d="M318 221.91C318.25 221.923 318.501 221.887 318.737 221.803C318.974 221.72 319.191 221.59 319.377 221.421C319.563 221.253 319.714 221.05 319.82 220.823C319.927 220.596 319.988 220.35 320 220.1C320.29 211.88 314.87 193.26 312.27 185.53C310.68 180.81 305.27 177.36 301.55 174.82C297.01 171.75 280.96 167.99 275.67 166.53H273.89L249.3 164.7L235.79 171.17C235.79 171.17 217.06 178.27 211.63 188.17C206.2 198.07 202.07 227 202.07 227C202.07 227 199.58 235.27 202.07 239C203.62 241.33 209.39 243.35 214.58 244.34C211.77 253.7 213.99 260.65 213.89 261.84C213.68 264.3 211.79 270.03 216.22 269.68C220.65 269.33 255.29 260.18 265.58 259.77C274.292 259.534 282.907 261.648 290.52 265.89C295.71 268.8 295.67 269.01 297.52 263.89C299.37 258.77 293.46 253 293.46 253C293.46 253 298.76 233.85 301.23 221.33L318 221.91Z" fill="#455A64"/>
<path d="M235.51 210.79C235.51 210.79 235.2 210.52 234.73 209.96C234.26 209.4 233.52 208.53 232.73 207.59C230.58 204.978 228.24 202.528 225.73 200.26C224.332 199.03 222.834 197.919 221.25 196.94C219.957 196.151 218.594 195.482 217.18 194.94C214.75 194.02 213.18 193.79 213.18 193.69C213.56 193.682 213.94 193.722 214.31 193.81C214.752 193.873 215.19 193.967 215.62 194.09C216.197 194.223 216.765 194.393 217.32 194.6C218.782 195.108 220.189 195.761 221.52 196.55C223.139 197.522 224.669 198.636 226.09 199.88C228.647 202.161 230.99 204.672 233.09 207.38C233.9 208.38 234.54 209.26 234.96 209.86C235.172 210.152 235.356 210.464 235.51 210.79V210.79Z" fill="#263238"/>
<path d="M231 238.44C230.601 238.514 230.195 238.544 229.79 238.53C229.01 238.53 227.88 238.58 226.48 238.53C222.842 238.508 219.211 238.237 215.61 237.72C212.008 237.214 208.476 236.302 205.08 235C204.056 234.606 203.054 234.155 202.08 233.65C201.706 233.491 201.353 233.286 201.03 233.04C201.03 232.96 202.61 233.72 205.23 234.66C208.643 235.853 212.162 236.717 215.74 237.24C219.321 237.74 222.926 238.057 226.54 238.19L229.84 238.32C230.23 238.318 230.619 238.358 231 238.44V238.44Z" fill="#263238"/>
<path d="M283 247.82C282.92 248.087 282.798 248.34 282.64 248.57C282.265 249.215 281.854 249.84 281.41 250.44C278.46 254.436 274.473 257.549 269.88 259.44C269.19 259.732 268.482 259.979 267.76 260.18C267.503 260.276 267.234 260.333 266.96 260.35C266.96 260.26 268.03 259.89 269.73 259.11C271.933 258.078 274.015 256.807 275.94 255.32C277.852 253.815 279.59 252.101 281.12 250.21C282.25 248.76 282.88 247.78 283 247.82Z" fill="#263238"/>
<path d="M283.4 255.5C282.937 256.023 282.385 256.459 281.77 256.79C280.362 257.7 278.851 258.442 277.27 259C275.688 259.557 274.047 259.933 272.38 260.12C271.692 260.239 270.988 260.239 270.3 260.12C272.598 259.733 274.867 259.188 277.09 258.49C279.26 257.64 281.368 256.641 283.4 255.5Z" fill="#263238"/>
<path d="M312.2 185.53C312.201 185.818 312.161 186.104 312.08 186.38C311.924 187.14 311.727 187.891 311.49 188.63C310.726 191.072 309.689 193.42 308.4 195.63C307.103 197.845 305.567 199.91 303.82 201.79C303.15 202.5 302.58 203.05 302.16 203.41C301.74 203.77 301.51 203.96 301.48 203.93C301.45 203.9 302.28 203.02 303.55 201.54C305.197 199.618 306.67 197.553 307.95 195.37C309.218 193.177 310.285 190.874 311.14 188.49C311.8 186.68 312.12 185.51 312.2 185.53Z" fill="#263238"/>
<path d="M318.5 217.51C317.703 217.666 316.891 217.729 316.08 217.7C314.58 217.7 312.51 217.7 310.23 217.7C307.95 217.7 305.88 217.46 304.39 217.3C303.578 217.265 302.773 217.138 301.99 216.92C302.795 216.842 303.605 216.842 304.41 216.92L310.25 217.17L316.08 217.37C316.889 217.334 317.7 217.381 318.5 217.51V217.51Z" fill="#263238"/>
<path d="M299 188.84C299.152 189.269 299.266 189.711 299.34 190.16C299.54 191.16 299.8 192.33 300.1 193.79C300.72 196.86 301.61 201.11 302.1 205.88C302.564 209.958 302.544 214.077 302.04 218.15C301.81 219.7 301.58 220.95 301.36 221.8C301.276 222.25 301.152 222.692 300.99 223.12C301 222.662 301.057 222.206 301.16 221.76C301.32 220.91 301.5 219.65 301.67 218.1C302.068 214.051 302.038 209.972 301.58 205.93C301.05 201.2 300.22 196.93 299.7 193.86C299.43 192.32 299.22 191.06 299.1 190.2C299.015 189.752 298.982 189.296 299 188.84V188.84Z" fill="#263238"/>
<path d="M235.51 214.25C235.529 214.638 235.506 215.027 235.44 215.41C235.36 216.15 235.23 217.21 235.06 218.52C234.71 221.15 234.18 224.78 233.45 228.76C232.859 232.169 232.071 235.542 231.09 238.86C230.787 239.863 230.426 240.848 230.01 241.81C229.865 242.163 229.681 242.499 229.46 242.81C229.38 242.81 230.08 241.29 230.74 238.73C231.4 236.17 232.21 232.61 232.94 228.64C233.67 224.67 234.25 221.06 234.7 218.45C234.907 217.23 235.087 216.2 235.24 215.36C235.286 214.981 235.376 214.608 235.51 214.25V214.25Z" fill="#263238"/>
<path d="M232.14 198.32C232.567 198.935 232.904 199.609 233.14 200.32C234.496 203.607 235.372 207.073 235.74 210.61C235.847 211.339 235.847 212.081 235.74 212.81C235.58 212.81 235.27 209.49 234.25 205.5C233.23 201.51 232 198.38 232.14 198.32Z" fill="#263238"/>
<path d="M260.44 233.78C260.518 233.583 260.612 233.392 260.72 233.21C260.94 232.81 261.24 232.28 261.61 231.6L264.97 225.65C267.9 220.55 271.97 213.47 276.65 205.33L276.98 205.68C273.98 207.12 270.84 208.54 267.5 209.86C263.5 211.46 259.5 212.81 255.81 213.86L255.03 214.09L255.55 213.46L269.55 196.46L273.65 191.56L274.76 190.26C274.884 190.105 275.021 189.961 275.17 189.83C275.071 190.003 274.957 190.167 274.83 190.32L273.78 191.66L269.78 196.66L255.9 213.81L255.63 213.41C259.31 212.31 263.26 210.96 267.27 209.41C270.59 208.09 273.77 206.68 276.72 205.26L277.47 204.9L277.05 205.61L265.21 225.84L261.72 231.72L260.72 233.29C260.642 233.461 260.548 233.625 260.44 233.78V233.78Z" fill="white"/>
<g opacity="0.3">
<path opacity="0.3" d="M278.38 261.15C279.56 261.46 281.82 257.89 283.13 255.7C279.13 257.92 275.27 260.58 270.79 259.61C273.28 258.944 275.568 257.675 277.452 255.915C279.335 254.156 280.756 251.959 281.59 249.52C278.462 254.294 273.841 257.898 268.45 259.77C268.45 259.77 276.51 260.66 278.38 261.15Z" fill="black"/>
</g>
<path d="M232.14 155C232.14 155 232.82 155.28 234.14 155.56C235.945 155.992 237.843 155.805 239.53 155.03C240.665 154.472 241.611 153.592 242.25 152.5C242.621 151.891 242.853 151.208 242.929 150.499C243.005 149.79 242.924 149.074 242.69 148.4C242.453 147.652 242.022 146.979 241.441 146.452C240.859 145.925 240.148 145.562 239.38 145.4C238.552 145.306 237.717 145.481 236.997 145.899C236.276 146.317 235.709 146.955 235.38 147.72C235.229 148.105 235.159 148.516 235.174 148.929C235.19 149.342 235.29 149.748 235.47 150.12C235.847 150.851 236.441 151.448 237.17 151.83C237.864 152.225 238.651 152.429 239.45 152.42C240.221 152.402 240.98 152.225 241.68 151.9C242.994 151.267 244.138 150.332 245.02 149.17C245.819 148.174 246.466 147.066 246.94 145.88C247.624 144.149 247.964 142.301 247.94 140.44C247.94 139.13 247.77 138.44 247.82 138.39C247.891 138.556 247.938 138.731 247.96 138.91C248.054 139.415 248.114 139.927 248.14 140.44C248.232 142.34 247.922 144.238 247.23 146.01C246.765 147.243 246.118 148.399 245.31 149.44C244.399 150.669 243.205 151.661 241.83 152.33C241.072 152.69 240.248 152.891 239.41 152.92C238.522 152.932 237.646 152.712 236.87 152.28C236.047 151.847 235.38 151.169 234.96 150.34C234.745 149.906 234.624 149.431 234.605 148.947C234.586 148.463 234.669 147.98 234.85 147.53C235.219 146.658 235.861 145.93 236.68 145.456C237.499 144.981 238.45 144.786 239.39 144.9C240.243 145.07 241.034 145.465 241.682 146.046C242.329 146.627 242.809 147.371 243.07 148.2C243.32 148.938 243.403 149.723 243.315 150.497C243.227 151.271 242.969 152.017 242.56 152.68C241.862 153.827 240.844 154.745 239.63 155.32C237.864 156.104 235.879 156.245 234.02 155.72C233.522 155.594 233.037 155.423 232.57 155.21C232.42 155.155 232.275 155.085 232.14 155V155Z" fill="#263238"/>
<path d="M310.54 132.93C310.75 130.898 310.522 128.844 309.872 126.907C309.221 124.97 308.164 123.194 306.77 121.7C305.35 120.228 303.579 119.14 301.624 118.538C299.668 117.936 297.592 117.841 295.59 118.26C292.708 118.796 290.055 120.19 287.98 122.26C287.341 122.901 286.82 123.649 286.44 124.47C286.37 124.59 286.31 124.72 286.24 124.85C286.17 124.98 286.09 125.18 286.02 125.35V125.43C284.782 128.261 284.474 131.412 285.14 134.43C285.676 136.707 286.784 138.81 288.359 140.541C289.934 142.271 291.923 143.572 294.14 144.32C296.382 144.995 298.767 145.042 301.034 144.457C303.301 143.872 305.365 142.676 307 141C309.038 138.774 310.282 135.937 310.54 132.93V132.93Z" fill="#263238"/>
<path d="M308.75 139.61C308.66 139.61 308.48 138.47 307.75 136.76C306.845 134.528 305.44 132.534 303.642 130.932C301.843 129.33 299.701 128.162 297.38 127.52C295.6 127.02 294.38 126.98 294.44 126.88C294.711 126.835 294.989 126.835 295.26 126.88C296.005 126.92 296.744 127.027 297.47 127.2C299.892 127.758 302.135 128.917 303.991 130.571C305.847 132.224 307.257 134.318 308.09 136.66C308.343 137.362 308.533 138.085 308.66 138.82C308.733 139.077 308.763 139.343 308.75 139.61V139.61Z" fill="#455A64"/>
<path d="M304.84 131.71C304.658 132.535 304.351 133.327 303.93 134.06C302.997 135.879 301.797 137.547 300.37 139.01C298.932 140.46 297.284 141.683 295.48 142.64C294.758 143.088 293.972 143.425 293.15 143.64C293.05 143.47 296.71 142.05 300 138.64C303.29 135.23 304.68 131.61 304.84 131.71Z" fill="#455A64"/>
<path d="M294.05 127.41C293.9 127.32 295.1 125.41 296.05 122.85C296.584 121.286 296.936 119.665 297.1 118.02C297.275 118.493 297.336 118.999 297.28 119.5C297.228 120.709 296.978 121.902 296.54 123.03C295.997 124.636 295.152 126.122 294.05 127.41V127.41Z" fill="#558EB4"/>
<path d="M294.2 123.93C294.444 118.223 292.517 112.636 288.805 108.294C285.094 103.952 279.875 101.177 274.2 100.53C271.27 100.203 268.305 100.471 265.48 101.316C262.656 102.162 260.032 103.568 257.763 105.451C255.495 107.333 253.629 109.654 252.278 112.274C250.927 114.894 250.118 117.76 249.9 120.7L247.9 170.06C247.864 171.015 248.149 171.955 248.71 172.73C251.823 177.002 256.493 179.876 261.71 180.73C266.231 181.171 270.773 180.14 274.66 177.79C275.293 177.415 275.816 176.881 276.178 176.24C276.539 175.6 276.726 174.875 276.72 174.14V163.14C276.72 163.121 276.727 163.104 276.74 163.09C276.754 163.077 276.771 163.07 276.79 163.07C277.822 163.129 278.857 163.082 279.88 162.93C282.79 162.16 290.18 159.16 292.47 148.19C293.14 144.47 293.79 134.17 294.2 123.93Z" fill="#FFBE9D"/>
<path d="M278.29 140.35C279.333 140.088 280.404 139.954 281.48 139.95C281.98 139.95 282.48 139.85 282.56 139.52C282.619 139.017 282.525 138.508 282.29 138.06C281.88 136.85 281.44 135.58 280.99 134.26C279.19 128.85 277.91 124.42 278.13 124.35C278.35 124.28 279.99 128.61 281.79 134.01C282.22 135.35 282.64 136.62 283.03 137.83C283.315 138.432 283.376 139.117 283.2 139.76C283.119 139.93 283 140.08 282.853 140.197C282.706 140.315 282.534 140.398 282.35 140.44C282.071 140.5 281.785 140.524 281.5 140.51C280.427 140.589 279.349 140.535 278.29 140.35V140.35Z" fill="#263238"/>
<path d="M289.45 131.29C289.427 131.757 289.223 132.196 288.881 132.515C288.54 132.835 288.087 133.008 287.62 133C287.39 133.008 287.161 132.97 286.946 132.889C286.732 132.807 286.535 132.684 286.368 132.525C286.202 132.367 286.068 132.177 285.976 131.967C285.883 131.756 285.834 131.53 285.83 131.3C285.848 130.831 286.051 130.389 286.393 130.069C286.736 129.748 287.191 129.576 287.66 129.59C287.89 129.582 288.119 129.62 288.334 129.701C288.548 129.783 288.745 129.906 288.912 130.064C289.078 130.223 289.212 130.413 289.304 130.623C289.397 130.833 289.446 131.06 289.45 131.29V131.29Z" fill="#263238"/>
<path d="M291.25 125.86C291.07 126.05 289.62 125.96 287.78 126.58C285.94 127.2 284.72 128.17 284.48 128.12C284.24 128.07 284.48 127.8 285.05 127.36C285.826 126.752 286.703 126.285 287.64 125.98C288.541 125.66 289.495 125.517 290.45 125.56C291.08 125.61 291.34 125.76 291.25 125.86Z" fill="#263238"/>
<path d="M270.69 130.06C270.667 130.527 270.463 130.966 270.121 131.285C269.78 131.605 269.327 131.778 268.86 131.77C268.631 131.777 268.402 131.738 268.188 131.656C267.974 131.574 267.778 131.45 267.611 131.292C267.445 131.134 267.311 130.945 267.219 130.735C267.126 130.525 267.075 130.299 267.07 130.07C267.091 129.602 267.294 129.161 267.636 128.842C267.978 128.522 268.432 128.349 268.9 128.36C269.13 128.352 269.359 128.39 269.573 128.471C269.788 128.553 269.985 128.676 270.152 128.834C270.318 128.993 270.452 129.183 270.544 129.393C270.637 129.603 270.686 129.83 270.69 130.06Z" fill="#263238"/>
<path d="M271.33 127.46C271.04 127.46 269.98 126.32 268.08 125.46C266.18 124.6 264.52 124.38 264.38 124.16C264.24 123.94 264.65 123.95 265.38 124.02C266.424 124.147 267.439 124.451 268.38 124.92C269.318 125.346 270.166 125.947 270.88 126.69C271.38 127.15 271.46 127.45 271.33 127.46Z" fill="#263238"/>
<path d="M276.63 163C276.63 163 269.08 163.22 259.92 157.18C259.92 157.18 262.44 167.11 276.63 166.53V163Z" fill="#EB996E"/>
<path d="M277.26 144.92C276.904 144.443 276.435 144.062 275.896 143.811C275.357 143.56 274.764 143.446 274.17 143.48C273.74 143.498 273.318 143.601 272.929 143.782C272.539 143.964 272.189 144.222 271.9 144.54C271.63 144.847 271.46 145.228 271.414 145.634C271.367 146.04 271.446 146.45 271.64 146.81C271.94 147.172 272.34 147.438 272.789 147.575C273.239 147.712 273.719 147.714 274.17 147.58C275.099 147.304 275.965 146.849 276.72 146.24C276.948 146.098 277.148 145.915 277.31 145.7C277.38 145.595 277.417 145.471 277.417 145.345C277.417 145.219 277.38 145.095 277.31 144.99" fill="#EB996E"/>
<path d="M272.5 141.38C272.81 141.38 272.72 143.46 274.5 145.03C276.28 146.6 278.5 146.48 278.5 146.77C278.5 146.9 277.98 147.15 277.03 147.13C275.792 147.081 274.609 146.608 273.68 145.79C272.81 145.02 272.266 143.947 272.16 142.79C272.09 141.87 272.35 141.36 272.5 141.38Z" fill="#263238"/>
<path d="M272.64 119.72C272.37 120.2 270.49 119.63 268.19 119.5C265.89 119.37 263.96 119.67 263.74 119.15C263.65 118.91 264.04 118.48 264.86 118.15C265.947 117.698 267.126 117.51 268.3 117.6C269.477 117.662 270.623 118.005 271.64 118.6C272.42 119 272.77 119.49 272.64 119.72Z" fill="#263238"/>
<path d="M291.21 120C290.85 120.42 289.53 119.9 287.92 119.8C286.31 119.7 284.92 119.94 284.63 119.47C284.5 119.24 284.74 118.81 285.35 118.47C286.182 118.022 287.126 117.824 288.068 117.9C289.011 117.977 289.911 118.324 290.66 118.9C291.21 119.36 291.37 119.82 291.21 120Z" fill="#263238"/>
<path d="M275.84 98C274.84 96.29 272.84 95.54 270.76 95.25C262.1 94.11 252.56 99.49 247.86 106.85C243.16 114.21 243.1 125.1 246.79 133L250.04 133.51C256.78 132.98 267.78 113.97 277.04 103.41C278.19 102.11 276.76 99.52 275.84 98Z" fill="#263238"/>
<path d="M292.48 103.39C288.8 99.3899 282.83 94.4499 275.39 97.3899C274.32 99.5099 276.6 102.2 278.48 103.75C281.25 106.04 283.66 107.57 285.48 109.2C289.15 112.51 293.73 118.01 294.2 124.2C294.2 124.59 294.53 124.64 294.92 124.57C295.31 124.5 296.53 121.94 297.07 118.57C298.19 111.41 296.17 107.43 292.48 103.39Z" fill="#263238"/>
<path d="M250.57 122.22C250.171 120.566 249.39 119.028 248.29 117.73V117.73C247.571 116.877 246.72 116.144 245.77 115.56C243.993 114.545 241.988 113.996 239.942 113.967C237.896 113.937 235.875 114.427 234.07 115.39C232.292 116.386 230.747 117.751 229.54 119.393C228.332 121.034 227.49 122.916 227.07 124.91C226.381 127.856 226.687 130.947 227.94 133.7C228.987 135.794 230.589 137.561 232.571 138.808C234.553 140.055 236.839 140.733 239.18 140.77C241.522 140.744 243.819 140.122 245.854 138.962C247.889 137.802 249.595 136.142 250.81 134.14C252.47 131.32 252 126.34 250.57 122.22Z" fill="#263238"/>
<path d="M252.11 129.54C251.91 129.44 243.87 126.43 243.52 134.83C243.17 143.23 251.68 141.83 251.7 141.61C251.72 141.39 252.11 129.54 252.11 129.54Z" fill="#FFBE9D"/>
<path d="M249.27 138.32C249.27 138.32 249.12 138.42 248.87 138.52C248.517 138.66 248.123 138.66 247.77 138.52C246.9 138.15 246.21 136.71 246.23 135.2C246.237 134.478 246.408 133.766 246.73 133.12C246.82 132.86 246.972 132.627 247.172 132.439C247.372 132.25 247.615 132.114 247.88 132.04C248.049 132.003 248.226 132.027 248.38 132.108C248.533 132.188 248.654 132.32 248.72 132.48C248.83 132.72 248.77 132.88 248.81 132.9C248.85 132.92 249 132.77 248.94 132.42C248.909 132.207 248.798 132.014 248.63 131.88C248.407 131.694 248.119 131.604 247.83 131.63C247.483 131.686 247.156 131.829 246.879 132.046C246.603 132.262 246.386 132.546 246.25 132.87C245.865 133.583 245.659 134.379 245.65 135.19C245.65 136.88 246.43 138.5 247.65 138.91C247.873 138.985 248.111 139.008 248.344 138.979C248.578 138.949 248.802 138.868 249 138.74C249.25 138.52 249.3 138.34 249.27 138.32Z" fill="#EB996E"/>
<path d="M294.21 105.07C293.412 105.29 292.587 105.397 291.76 105.39C289.775 105.502 287.783 105.435 285.81 105.19C283.843 104.961 281.899 104.563 280 104C279.195 103.808 278.421 103.506 277.7 103.1C278.513 103.223 279.315 103.407 280.1 103.65C282.012 104.111 283.948 104.464 285.9 104.71C287.852 104.934 289.815 105.051 291.78 105.06C292.589 104.998 293.402 105.002 294.21 105.07V105.07Z" fill="#455A64"/>
<path d="M297 111.1C296.427 111.36 295.809 111.506 295.18 111.53C293.664 111.697 292.13 111.616 290.64 111.29C289.153 110.963 287.728 110.399 286.42 109.62C285.853 109.338 285.349 108.943 284.94 108.46C286.773 109.471 288.725 110.25 290.75 110.78C292.813 111.136 294.911 111.243 297 111.1V111.1Z" fill="#455A64"/>
<path d="M246.79 109.75C246.79 109.64 248.61 109.96 251.54 109.88C253.257 109.833 254.968 109.66 256.66 109.36C258.723 108.971 260.758 108.443 262.75 107.78C264.739 107.094 266.683 106.282 268.57 105.35C270.104 104.578 271.593 103.72 273.03 102.78C275.49 101.18 276.86 99.97 276.93 100.04C276.65 100.369 276.338 100.671 276 100.94C275.7 101.22 275.31 101.54 274.84 101.94C274.37 102.34 273.84 102.72 273.24 103.13C271.812 104.121 270.323 105.02 268.78 105.82C266.887 106.785 264.929 107.617 262.92 108.31C260.903 108.987 258.837 109.508 256.74 109.87C255.024 110.151 253.288 110.291 251.55 110.29C250.882 110.302 250.214 110.275 249.55 110.21C249.047 110.191 248.546 110.138 248.05 110.05C247.622 109.989 247.2 109.889 246.79 109.75V109.75Z" fill="#455A64"/>
<path d="M276.37 103C276.188 103.412 275.963 103.804 275.7 104.17C275.47 104.54 275.18 104.99 274.81 105.48C274.44 105.97 274.05 106.56 273.53 107.14C272.38 108.551 271.119 109.868 269.76 111.08C268.083 112.55 266.28 113.869 264.37 115.02C262.438 116.148 260.406 117.095 258.3 117.85C256.582 118.452 254.815 118.907 253.02 119.21C252.26 119.37 251.56 119.42 250.95 119.49C250.426 119.563 249.899 119.603 249.37 119.61C248.921 119.647 248.469 119.647 248.02 119.61C248.02 119.5 249.94 119.46 252.95 118.86C254.714 118.507 256.449 118.022 258.14 117.41C262.288 115.899 266.12 113.63 269.44 110.72C270.801 109.545 272.075 108.271 273.25 106.91C275.27 104.55 276.28 102.93 276.37 103Z" fill="#455A64"/>
<path d="M270.76 95.2799C271.324 95.1693 271.907 95.2107 272.45 95.3999C273.783 95.7805 274.98 96.5333 275.9 97.5699C276.165 97.8803 276.399 98.2151 276.6 98.5699C276.775 98.8873 276.916 99.2226 277.02 99.5699C277.222 100.143 277.379 100.732 277.49 101.33C277.639 101.891 277.597 102.486 277.37 103.02C277.28 103.02 277.37 102.37 277.13 101.41C276.973 100.839 276.783 100.278 276.56 99.7299C276.46 99.4036 276.326 99.0885 276.16 98.7899C275.971 98.4802 275.753 98.1889 275.51 97.9199C274.645 96.9499 273.557 96.205 272.34 95.7499C271.4 95.4199 270.76 95.3699 270.76 95.2799Z" fill="#455A64"/>
<path d="M248.59 128.81C248.51 128.81 248.76 127.94 248.94 126.56C249.165 124.759 249.06 122.933 248.63 121.17C248.174 119.419 247.303 117.803 246.09 116.46C245.09 115.46 244.39 114.97 244.45 114.88C244.51 114.79 244.66 114.95 245.01 115.16C245.493 115.442 245.942 115.777 246.35 116.16C247.701 117.49 248.662 119.163 249.13 121C249.594 122.822 249.652 124.723 249.3 126.57C249.203 127.354 248.963 128.113 248.59 128.81V128.81Z" fill="#558EB4"/>
<path d="M249.22 127C249.17 127.07 248.14 126.41 246.37 125.53C241.754 123.249 236.657 122.114 231.51 122.22C229.51 122.22 228.33 122.42 228.31 122.34C228.577 122.225 228.86 122.155 229.15 122.13C229.927 121.99 230.712 121.896 231.5 121.85C236.716 121.541 241.914 122.705 246.5 125.21C247.193 125.58 247.861 125.994 248.5 126.45C249 126.74 249.24 126.93 249.22 127Z" fill="#455A64"/>
<path d="M241.57 123.62C241.483 124.47 241.271 125.302 240.94 126.09C240.244 128.024 239.299 129.859 238.13 131.55C236.956 133.239 235.564 134.765 233.99 136.09C233.371 136.677 232.666 137.166 231.9 137.54C234.053 135.658 235.998 133.549 237.7 131.25C239.257 128.851 240.554 126.294 241.57 123.62V123.62Z" fill="#455A64"/>
<path d="M247.1 139.94C247.16 139.78 247.46 139.68 247.96 139.81C248.683 140.03 249.306 140.497 249.72 141.13C250.275 141.962 250.49 142.975 250.321 143.961C250.152 144.947 249.611 145.831 248.81 146.43C248.139 146.91 247.339 147.179 246.513 147.2C245.688 147.221 244.875 146.995 244.18 146.55C243.566 146.149 243.064 145.598 242.72 144.95C242.403 144.363 242.238 143.707 242.24 143.04C242.26 142.501 242.386 141.971 242.61 141.48C242.893 140.758 243.445 140.174 244.15 139.85C244.68 139.65 245 139.79 245.04 139.95C245.1 140.31 244.47 140.79 244.37 142.02C244.325 142.318 244.325 142.622 244.37 142.92C244.45 143.211 244.582 143.486 244.76 143.73C244.944 143.998 245.19 144.218 245.477 144.369C245.765 144.521 246.085 144.6 246.41 144.6C246.718 144.605 247.021 144.523 247.284 144.364C247.548 144.205 247.761 143.975 247.9 143.7C248.176 143.17 248.237 142.554 248.07 141.98C247.77 140.87 247 140.28 247.1 139.94Z" fill="#455A64"/>
<path d="M255.61 126.65C257.323 126.528 259.018 126.23 260.67 125.76C264.612 124.447 268.087 122.015 270.67 118.76C273.201 115.472 275.1 111.742 276.27 107.76C276.75 106.23 277.08 104.98 277.27 104.12C277.354 103.662 277.482 103.214 277.65 102.78C277.631 103.245 277.567 103.707 277.46 104.16C277.31 105.04 277.03 106.31 276.6 107.86C275.513 111.936 273.623 115.754 271.04 119.09C268.402 122.411 264.817 124.852 260.76 126.09C259.533 126.448 258.267 126.653 256.99 126.7C256.657 126.716 256.323 126.716 255.99 126.7C255.74 126.68 255.61 126.67 255.61 126.65Z" fill="#263238"/>
<path d="M276.35 170.39C276.534 170.442 276.706 170.526 276.86 170.64C277.315 170.942 277.717 171.317 278.05 171.75C278.579 172.439 278.954 173.234 279.15 174.08C279.428 175.204 279.397 176.382 279.06 177.49C278.564 178.906 277.755 180.193 276.694 181.254C275.633 182.315 274.346 183.124 272.93 183.62C271.295 184.242 269.588 184.659 267.85 184.86C265.994 185.105 264.119 185.179 262.25 185.08C258.604 184.951 255.061 183.835 252 181.85C249.494 180.217 247.536 177.869 246.38 175.11C245.932 174.054 245.704 172.917 245.71 171.77C245.721 170.896 245.955 170.039 246.39 169.28C246.662 168.803 247.03 168.388 247.47 168.06C247.617 167.943 247.783 167.852 247.96 167.79C247.384 168.21 246.909 168.753 246.57 169.38C246.184 170.117 245.988 170.938 246 171.77C246.031 172.876 246.276 173.966 246.72 174.98C247.895 177.635 249.825 179.885 252.27 181.45C255.268 183.356 258.72 184.43 262.27 184.56C264.109 184.657 265.953 184.587 267.78 184.35C269.49 184.17 271.17 183.773 272.78 183.17C274.149 182.717 275.398 181.962 276.437 180.962C277.475 179.961 278.276 178.741 278.78 177.39C279.07 176.468 279.148 175.492 279.005 174.536C278.863 173.579 278.506 172.668 277.96 171.87C277.508 171.292 276.964 170.792 276.35 170.39Z" fill="#263238"/>
<path d="M254.35 183.35C254.196 182.52 254.371 181.662 254.84 180.96C255.48 179.72 256.45 179.09 256.53 179.2C256.61 179.31 255.88 180.07 255.3 181.2C254.72 182.33 254.5 183.37 254.35 183.35Z" fill="#263238"/>
<path d="M263.73 185.13C263.508 184.453 263.449 183.734 263.56 183.03C263.56 181.88 263.75 180.95 263.9 180.95C264.123 181.626 264.184 182.345 264.08 183.05C264 184.2 263.88 185.13 263.73 185.13Z" fill="#263238"/>
<path d="M273.15 183.74C272.496 182.278 272.172 180.691 272.2 179.09C272.603 179.786 272.852 180.56 272.93 181.36C273.17 182.129 273.245 182.94 273.15 183.74V183.74Z" fill="#263238"/>
<path d="M278.65 177.74C278.52 177.81 278.13 177.29 277.48 176.87C276.83 176.45 276.21 176.27 276.22 176.12C276.23 175.97 277 175.92 277.77 176.43C278.54 176.94 278.78 177.69 278.65 177.74Z" fill="#263238"/>
<path d="M249.38 174C249.38 174.14 248.85 174.33 248.32 174.77C247.79 175.21 247.46 175.68 247.32 175.63C247.18 175.58 247.32 174.88 247.99 174.36C248.66 173.84 249.37 173.87 249.38 174Z" fill="#263238"/>
<path d="M265.83 240.92C265.492 240.904 265.163 240.806 264.871 240.635C264.579 240.464 264.332 240.224 264.153 239.938C263.973 239.651 263.865 239.325 263.839 238.988C263.812 238.65 263.867 238.311 264 238C266.7 231.92 274.07 220.22 274.55 219.46C275.25 218.4 275.62 217.09 277.86 216.82C278.72 216.72 292.22 216.41 295.39 216.34C295.646 216.33 295.902 216.371 296.142 216.46C296.382 216.549 296.603 216.685 296.79 216.86C297.42 217.46 298.08 218.6 297.08 220.39C295.96 222.39 287.8 235.06 284.49 239.94C284.167 240.415 283.729 240.801 283.216 241.061C282.704 241.322 282.134 241.449 281.56 241.43L265.83 240.92Z" fill="#263238"/>
<path d="M286.66 220.7C286.53 220.548 286.358 220.438 286.166 220.384C285.973 220.331 285.769 220.336 285.58 220.4C285.217 220.519 284.89 220.729 284.63 221.01C284.477 221.135 284.374 221.31 284.337 221.504C284.301 221.697 284.334 221.898 284.43 222.07C284.543 222.194 284.686 222.287 284.845 222.341C285.004 222.396 285.174 222.409 285.34 222.38C285.766 222.354 286.169 222.173 286.47 221.87C286.615 221.716 286.71 221.522 286.744 221.314C286.778 221.106 286.748 220.892 286.66 220.7V220.7Z" fill="white"/>
<path d="M293.6 223.45C293.736 223.043 293.914 222.651 294.13 222.28C294.33 221.89 294.55 221.44 294.81 220.95C294.95 220.69 295.09 220.41 295.24 220.12C295.423 219.855 295.54 219.55 295.58 219.23C295.585 219.067 295.551 218.906 295.479 218.759C295.408 218.613 295.302 218.486 295.17 218.39C295.014 218.291 294.84 218.224 294.658 218.193C294.476 218.162 294.29 218.168 294.11 218.21L291.35 218.32L285.04 218.54L278.72 218.73H278.02C277.831 218.746 277.651 218.815 277.5 218.93C277.224 219.236 276.983 219.571 276.78 219.93C276.32 220.65 275.89 221.33 275.48 221.93L273.58 224.84C273.362 225.199 273.107 225.534 272.82 225.84C272.974 225.439 273.172 225.057 273.41 224.7L275.17 221.7L276.41 219.64L276.75 219.08C276.868 218.858 277.023 218.658 277.21 218.49C277.425 218.309 277.69 218.198 277.97 218.17H278.71L285 218L291.32 217.82L294.07 217.76C294.534 217.683 295.01 217.787 295.4 218.05C295.574 218.19 295.713 218.368 295.805 218.572C295.897 218.775 295.94 218.997 295.93 219.22C295.921 219.427 295.863 219.63 295.76 219.81L295.51 220.26L295.04 221.07C294.76 221.55 294.51 221.98 294.28 222.36C294.095 222.748 293.867 223.113 293.6 223.45V223.45Z" fill="#455A64"/>
<path d="M316.2 221.93C316.2 221.93 314.83 231.45 313.43 237.57C312.18 243.02 310.19 261.44 305.13 263.76C300.07 266.08 293.76 264.63 291.43 260.14C289.1 255.65 286.6 243.7 286.6 243.7L276 239.24C276 239.24 273.56 230.35 274.95 229.35C276.34 228.35 290.02 229.85 290.02 229.85L293.69 229.02C293.69 229.02 287.85 228.18 286.6 227.85C286.316 227.809 286.043 227.711 285.798 227.562C285.553 227.412 285.341 227.215 285.175 226.981C285.008 226.747 284.891 226.482 284.83 226.202C284.769 225.922 284.766 225.632 284.82 225.35C285.11 224.18 285.35 223.01 288.51 223.01C291.67 223.01 296.63 222.54 297.51 222.85C298.63 223.23 299.89 223.85 300.14 226.68C300.39 229.51 299.06 234.68 299.06 234.68L299.35 235.12L301.22 221.34L316.2 221.93Z" fill="#FFBE9D"/>
<path d="M298.4 238.37C298.135 238.532 297.844 238.647 297.54 238.71C296.744 238.977 295.932 239.198 295.11 239.37C292.396 239.961 289.613 240.173 286.84 240C284.063 239.822 281.329 239.225 278.73 238.23C277.942 237.947 277.174 237.613 276.43 237.23C276.145 237.109 275.879 236.947 275.64 236.75C275.64 236.67 276.86 237.23 278.86 237.91C281.448 238.777 284.137 239.312 286.86 239.5C289.584 239.651 292.315 239.483 295 239C297.12 238.64 298.38 238.29 298.4 238.37Z" fill="#EB996E"/>
<path d="M296.39 234.55C296.118 234.683 295.829 234.774 295.53 234.82C294.97 234.96 294.15 235.14 293.13 235.31C290.454 235.759 287.732 235.859 285.03 235.61C282.318 235.351 279.679 234.584 277.25 233.35C276.519 232.975 275.82 232.54 275.16 232.05C274.7 231.7 274.46 231.48 274.48 231.45C274.5 231.42 275.56 232.15 277.41 233.02C279.838 234.129 282.433 234.828 285.09 235.09C287.754 235.334 290.437 235.283 293.09 234.94C295.12 234.7 296.38 234.47 296.39 234.55Z" fill="#EB996E"/>
<path d="M299.7 224.72C299.76 224.72 299.95 225.19 299.9 226C299.885 226.494 299.751 226.978 299.51 227.41C299.342 227.673 299.108 227.887 298.83 228.03C298.563 228.181 298.282 228.305 297.99 228.4C297.001 228.707 295.975 228.882 294.94 228.92C294.526 228.979 294.108 229.012 293.69 229.02C293.69 228.95 294.11 228.7 294.89 228.56C295.883 228.408 296.865 228.191 297.83 227.91C298.32 227.784 298.765 227.52 299.11 227.15C299.33 226.785 299.476 226.381 299.54 225.96C299.566 225.544 299.62 225.129 299.7 224.72Z" fill="#EB996E"/>
<path d="M294.66 240.74C294.79 241.01 294.857 241.306 294.857 241.605C294.857 241.904 294.79 242.2 294.66 242.47C294.453 243.092 294.083 243.648 293.59 244.08C292.983 244.606 292.242 244.952 291.45 245.08C290.672 245.215 289.874 245.181 289.11 244.98C288.506 244.808 287.922 244.57 287.37 244.27C286.847 244.042 286.35 243.757 285.89 243.42C286.461 243.482 287.015 243.655 287.52 243.93C288.707 244.524 290.045 244.747 291.36 244.57C292.061 244.458 292.722 244.169 293.28 243.73C293.715 243.357 294.057 242.888 294.28 242.36C294.481 241.84 294.609 241.295 294.66 240.74V240.74Z" fill="#EB996E"/>
<path d="M299.07 223.76C299.07 223.76 299.14 223.76 299.26 223.87C299.43 224.009 299.573 224.178 299.68 224.37C300.054 225.084 300.26 225.874 300.28 226.68C300.338 229.407 300.001 232.129 299.28 234.76V234.62C299.795 235.986 300.427 237.304 301.17 238.56C302.199 240.305 303.348 241.975 304.61 243.56C305.759 244.8 306.765 246.166 307.61 247.63C308.133 248.682 308.237 249.894 307.9 251.02C307.798 251.32 307.646 251.601 307.45 251.85C307.32 252.01 307.23 252.08 307.22 252.07C307.413 251.715 307.574 251.344 307.7 250.96C307.947 249.887 307.798 248.761 307.28 247.79C306.413 246.384 305.408 245.067 304.28 243.86C302.981 242.285 301.805 240.614 300.76 238.86C300.006 237.586 299.367 236.247 298.85 234.86V234.78V234.71C299.562 232.118 299.945 229.447 299.99 226.76C299.995 225.992 299.849 225.231 299.56 224.52C299.412 224.257 299.249 224.003 299.07 223.76V223.76Z" fill="#EB996E"/>
<path d="M205.49 241.55C205.49 241.55 203.94 262.81 213.83 266.37C227.46 271.29 243 257.71 243.06 257.49C243.12 257.27 259.6 244 259.6 244L254.47 229.87C254.47 229.87 252.41 229.87 249.08 232.25C247.87 233.11 228.77 243.18 228.77 243.18C228.77 243.18 220.43 243.11 205.49 241.55Z" fill="#FFBE9D"/>
<path d="M229.46 242.86C229.53 243.02 225.93 244.48 221.58 246.43C219.41 247.43 217.5 248.43 216.13 249.15C215.416 249.602 214.667 249.996 213.89 250.33C214.506 249.744 215.195 249.24 215.94 248.83C217.687 247.758 219.5 246.799 221.37 245.96C223.55 244.96 225.57 244.18 227.04 243.64C227.82 243.303 228.63 243.042 229.46 242.86V242.86Z" fill="#EB996E"/>
<path d="M272.74 222.17C272.74 222.17 270.16 218.52 269.14 218.53C268.12 218.54 261.97 219.53 261.97 219.53L253.28 229C253.28 229 252.68 232.07 254.56 233.18C254.56 233.18 253.93 238.01 256.25 239.4C256.25 239.4 257.98 243.94 259.6 244.03C260.285 244.091 260.975 244.091 261.66 244.03C261.66 244.03 261.31 246.76 263.78 246.93C266.229 246.893 268.672 246.649 271.08 246.2C271.436 246.14 271.777 246.01 272.082 245.818C272.388 245.626 272.652 245.375 272.86 245.08L274.98 242.08C275.314 241.615 275.494 241.057 275.494 240.485C275.494 239.912 275.314 239.355 274.98 238.89V238.89C275.537 238.23 275.971 237.474 276.26 236.66C276.4 235.715 276.4 234.755 276.26 233.81C276.26 233.81 279.93 230.7 280.02 229.89C280.11 229.08 279.93 228.3 278.31 228.39C278.31 228.39 277.97 225.88 275.92 225.94C273.87 226 264.16 225.94 264.16 225.94L266.01 224.14C266.01 224.14 270.84 225.98 271.35 224.76L272.74 222.17Z" fill="#FFBE9D"/>
<path d="M258.8 233.05C259.323 232.974 259.851 232.937 260.38 232.94C261.38 232.88 262.86 232.79 264.68 232.58C266.823 232.326 268.95 231.948 271.05 231.45C272.24 231.16 273.48 230.82 274.76 230.45C276.032 229.961 277.179 229.196 278.12 228.21L278.18 228.16H278.25C278.726 228.045 279.226 228.094 279.67 228.3C279.908 228.45 280.086 228.681 280.17 228.95C280.238 229.187 280.268 229.433 280.26 229.68C280.274 229.789 280.274 229.9 280.26 230.01C280.235 230.142 280.184 230.268 280.11 230.38C279.998 230.555 279.874 230.722 279.74 230.88C279.49 231.18 279.21 231.46 278.94 231.74C278.39 232.29 277.84 232.8 277.28 233.29C275.36 234.82 273.357 236.242 271.28 237.55C269.582 238.573 267.7 239.253 265.74 239.55C264.444 239.746 263.124 239.713 261.84 239.45C261.5 239.379 261.165 239.282 260.84 239.16C260.722 239.129 260.611 239.078 260.51 239.01C262.206 239.444 263.974 239.515 265.7 239.22C267.599 238.895 269.421 238.216 271.07 237.22C272.96 236.09 274.87 234.52 276.98 232.93C277.53 232.44 278.08 231.93 278.61 231.39C278.88 231.12 279.14 230.85 279.38 230.56C279.62 230.27 279.61 230.27 279.71 230.13C279.81 229.99 279.79 229.97 279.79 229.96C279.8 229.874 279.8 229.786 279.79 229.7C279.79 229.28 279.72 228.91 279.45 228.77C279.114 228.63 278.743 228.602 278.39 228.69L278.53 228.63C278.004 229.123 277.446 229.58 276.86 230C276.296 230.451 275.651 230.79 274.96 231C273.67 231.4 272.41 231.73 271.2 232C269.081 232.475 266.933 232.809 264.77 233C262.93 233.18 261.45 233.21 260.43 233.21C259.92 233.21 259.53 233.21 259.26 233.21C259.1 233.18 258.945 233.126 258.8 233.05Z" fill="#EB996E"/>
<path d="M276.25 233.79C276.405 234.281 276.476 234.795 276.46 235.31C276.46 235.55 276.46 235.82 276.46 236.12C276.46 236.27 276.46 236.42 276.46 236.58C276.446 236.762 276.395 236.938 276.31 237.1C276.165 237.444 275.998 237.778 275.81 238.1L275.51 238.6L275.35 238.85C275.32 238.905 275.287 238.959 275.25 239.01L275.18 239.07C275.13 239.07 275.18 239.14 274.94 239.07C274.895 239.041 274.861 238.997 274.844 238.946C274.828 238.895 274.83 238.84 274.85 238.79C274.846 238.773 274.846 238.756 274.85 238.74L274.9 238.67L275.3 238.91C274.646 240.099 273.782 241.159 272.75 242.04C271.012 243.537 268.838 244.435 266.55 244.6C265.883 244.649 265.213 244.629 264.55 244.54C264.299 244.524 264.052 244.466 263.82 244.37C263.82 244.27 264.88 244.45 266.56 244.24C268.738 243.968 270.789 243.064 272.46 241.64C273.444 240.784 274.279 239.77 274.93 238.64L275.34 238.88C275.968 237.258 276.277 235.529 276.25 233.79V233.79Z" fill="#EB996E"/>
<path d="M266.23 224.2C266.23 224.32 265.23 223.95 264.74 222.79C264.568 222.312 264.54 221.794 264.66 221.3C264.76 220.93 264.9 220.73 264.96 220.75C265.02 220.77 264.88 221.68 265.23 222.61C265.58 223.54 266.33 224.07 266.23 224.2Z" fill="#EB996E"/>
<path d="M261.88 244.09C261.643 244.216 261.378 244.278 261.11 244.27C260.38 244.324 259.65 244.186 258.99 243.87C257.988 243.396 257.2 242.565 256.78 241.54C256.54 240.942 256.418 240.304 256.42 239.66C256.42 239.53 256.391 239.403 256.333 239.286C256.276 239.17 256.193 239.069 256.09 238.99C255.555 238.637 255.115 238.158 254.81 237.595C254.504 237.031 254.343 236.401 254.34 235.76C254.297 234.969 254.327 234.176 254.43 233.39L254.54 233.61C254.01 233.272 253.577 232.802 253.282 232.246C252.988 231.691 252.842 231.068 252.86 230.44C252.83 229.968 252.968 229.5 253.25 229.12C253.182 229.554 253.142 229.991 253.13 230.43C253.153 230.994 253.315 231.543 253.601 232.03C253.887 232.516 254.289 232.925 254.77 233.22L254.89 233.29V233.43C254.824 234.192 254.824 234.958 254.89 235.72C254.941 236.537 255.241 237.319 255.75 237.96C255.965 238.197 256.206 238.409 256.47 238.59C256.621 238.711 256.745 238.862 256.833 239.035C256.921 239.207 256.971 239.397 256.98 239.59C256.967 240.183 257.065 240.773 257.27 241.33C257.632 242.264 258.317 243.037 259.2 243.51C260.035 243.912 260.953 244.111 261.88 244.09Z" fill="#EB996E"/>
<g opacity="0.3">
<path opacity="0.3" d="M235.32 215.51C234.15 226.12 232.5 234.22 230.01 241.51C233.505 238.55 235.814 234.427 236.51 229.9C237.17 225.43 236.12 220 235.32 215.51Z" fill="black"/>
</g>
<g opacity="0.3">
<path opacity="0.3" d="M303.44 209.68C303.049 205.916 302.105 202.229 300.64 198.74C302.21 206.24 302.39 213.965 301.17 221.53L301.53 220.72C303.163 217.284 303.824 213.465 303.44 209.68V209.68Z" fill="black"/>
</g>
</svg>
