<svg width="500" height="500" viewBox="0 0 500 500" fill="none" xmlns="http://www.w3.org/2000/svg">
<path d="M411.72 389.52C411.836 383.262 414.249 377.265 418.5 372.67C420.55 381.13 411.72 389.52 411.72 389.52Z" fill="#EBEBEB"/>
<path d="M421.57 384.75C427.354 382.364 433.813 382.186 439.72 384.25C432.79 389.5 421.57 384.75 421.57 384.75Z" fill="#EBEBEB"/>
<path d="M422.69 379.27C421.754 374.423 422.633 369.401 425.16 365.16C428.13 371.36 422.69 379.27 422.69 379.27Z" fill="#EBEBEB"/>
<path d="M384.62 359.51C399.01 363.35 406.73 375.86 406.73 375.86C394.43 375.86 384.62 359.51 384.62 359.51Z" fill="#EBEBEB"/>
<path d="M407.6 365.41C406.85 349.9 422 332.34 422 332.34C419.71 351.6 407.58 365.41 407.58 365.41" fill="#EBEBEB"/>
<path d="M407.53 321.23C407.826 329 405.938 336.698 402.08 343.45C399.94 333.47 407.53 321.23 407.53 321.23Z" fill="#EBEBEB"/>
<path d="M401.68 352.75C390.34 351.53 384.17 340.25 384.17 340.25C397.89 344.09 401.68 352.75 401.68 352.75Z" fill="#EBEBEB"/>
<path d="M377.22 400.17C382.541 396.877 388.887 395.656 395.05 396.74C389.06 403 377.22 400.17 377.22 400.17Z" fill="#EBEBEB"/>
<path d="M406.61 405.26C405.165 408.934 402.465 411.977 398.99 413.85C399.47 408.62 406.61 405.26 406.61 405.26Z" fill="#EBEBEB"/>
<path d="M405.15 403.59C401.054 405.963 396.253 406.816 391.59 406C396 401.46 405.15 403.59 405.15 403.59Z" fill="#EBEBEB"/>
<path d="M411 424.48C410.985 424.401 410.985 424.319 411 424.24C411 424.06 411 423.84 411 423.57V421C411 419.87 411 418.49 411 416.89C411 415.29 411 413.46 410.89 411.44C410.79 407.44 410.51 402.62 410.09 397.3C409.67 391.98 408.99 386.16 408.09 380.07C406.3 367.89 403.85 357 401.88 349.18C400.88 345.27 400.05 342.11 399.44 339.94C399.16 338.88 398.93 338.04 398.76 337.43C398.7 337.16 398.64 336.95 398.6 336.77C398.591 336.694 398.591 336.616 398.6 336.54C398.642 336.608 398.672 336.682 398.69 336.76C398.75 336.93 398.82 337.14 398.9 337.4L399.67 339.88C400.34 342.04 401.23 345.18 402.27 349.09C404.909 359.271 406.982 369.59 408.48 380C409.37 386.1 410 391.94 410.48 397.26C410.96 402.58 411.12 407.4 411.17 411.43C411.23 413.43 411.17 415.28 411.17 416.89C411.17 418.5 411.17 419.89 411.11 421C411.05 422.11 411.04 423 411.02 423.6V424.28C411.023 424.347 411.016 424.415 411 424.48V424.48Z" fill="#E0E0E0"/>
<path d="M390.13 391.64C390.21 391.52 394.8 394.53 400.37 398.35C405.94 402.17 410.37 405.35 410.32 405.48C410.27 405.61 405.66 402.59 400.08 398.77C394.5 394.95 390.05 391.76 390.13 391.64Z" fill="#E0E0E0"/>
<path d="M410.32 393.29C410.526 393.007 410.764 392.748 411.03 392.52L413.03 390.52C414.86 388.79 417.23 386.58 419.84 384.12L426.66 377.73L428.73 375.79C429.22 375.34 429.5 375.1 429.53 375.13C429.342 375.422 429.121 375.69 428.87 375.93C428.42 376.43 427.75 377.13 426.87 377.99C425.19 379.7 422.82 381.99 420.15 384.5C417.48 387.01 415.03 389.2 413.23 390.78C412.33 391.57 411.6 392.2 411.08 392.63C410.859 392.885 410.603 393.107 410.32 393.29Z" fill="#E0E0E0"/>
<path d="M375.57 384.29C375.57 384.29 387.29 384.07 392.25 393.29C388.961 393.194 385.739 392.33 382.843 390.767C379.947 389.205 377.456 386.986 375.57 384.29V384.29Z" fill="#EBEBEB"/>
<path d="M391.58 379.59C391.58 379.59 401.12 386.39 399.58 396.76C397.001 394.719 394.935 392.104 393.546 389.123C392.157 386.142 391.484 382.877 391.58 379.59V379.59Z" fill="#EBEBEB"/>
<path d="M441.85 362.81C441.85 362.81 438.08 375.93 426.12 378.29C427.352 374.661 429.417 371.372 432.148 368.684C434.88 365.996 438.202 363.984 441.85 362.81V362.81Z" fill="#EBEBEB"/>
<path d="M386.37 314C386.37 314 401.37 323.75 399.67 339.62C395.611 336.68 392.295 332.833 389.986 328.385C387.677 323.937 386.439 319.011 386.37 314Z" fill="#EBEBEB"/>
<path d="M436.14 400.8C435.834 401.093 435.499 401.354 435.14 401.58C434.49 402.04 433.57 402.74 432.46 403.63C429.555 405.935 426.846 408.477 424.36 411.23C421.888 413.999 419.648 416.965 417.66 420.1C416.9 421.31 416.31 422.29 415.91 422.99C415.722 423.362 415.498 423.713 415.24 424.04C415.365 423.64 415.533 423.254 415.74 422.89C416.08 422.17 416.63 421.15 417.36 419.89C419.269 416.682 421.486 413.668 423.98 410.89C426.484 408.114 429.251 405.586 432.24 403.34C433.39 402.49 434.35 401.83 435.03 401.41C435.377 401.167 435.749 400.963 436.14 400.8V400.8Z" fill="#E0E0E0"/>
<path d="M423.13 410.54C422.045 404.377 423.266 398.03 426.56 392.71C428.17 403.83 423.13 410.54 423.13 410.54Z" fill="#EBEBEB"/>
<path d="M433.19 405.05C437.148 402.806 441.792 402.094 446.24 403.05C439 406.86 433.19 405.05 433.19 405.05Z" fill="#EBEBEB"/>
<path d="M389.15 425.69L394.76 462.56H427.35L434.92 426.23L389.15 425.69Z" fill="#EBEBEB"/>
<path d="M430.36 449.32C430.36 449.43 422.01 449.52 411.71 449.52C401.41 449.52 393.05 449.43 393.05 449.32C393.05 449.21 401.4 449.13 411.71 449.13C422.02 449.13 430.36 449.22 430.36 449.32Z" fill="#FAFAFA"/>
<path d="M430.48 447.51C430.48 447.62 422.08 447.7 411.71 447.7C401.34 447.7 392.93 447.62 392.93 447.51C392.93 447.4 401.33 447.32 411.71 447.32C422.09 447.32 430.48 447.41 430.48 447.51Z" fill="#FAFAFA"/>
<path d="M430.42 445.46C430.42 445.57 422.01 445.65 411.64 445.65C401.27 445.65 392.86 445.57 392.86 445.46C392.86 445.35 401.27 445.27 411.64 445.27C422.01 445.27 430.42 445.36 430.42 445.46Z" fill="#FAFAFA"/>
<path d="M398.5 460.46C398.046 458.942 397.712 457.39 397.5 455.82C397.162 454.27 396.954 452.695 396.88 451.11C397.334 452.628 397.668 454.18 397.88 455.75C398.212 457.301 398.42 458.876 398.5 460.46Z" fill="#FAFAFA"/>
<path d="M400.72 460.07C400.38 457.057 400.173 454.031 400.1 451C400.458 452.478 400.659 453.99 400.7 455.51C400.863 457.025 400.869 458.553 400.72 460.07V460.07Z" fill="#FAFAFA"/>
<path d="M404.76 460.07C404.317 458.553 404.032 456.995 403.91 455.42C403.669 453.862 403.585 452.284 403.66 450.71C403.964 452.252 404.175 453.812 404.29 455.38C404.538 456.933 404.695 458.499 404.76 460.07V460.07Z" fill="#FAFAFA"/>
<path d="M407.6 460.26C407.282 458.707 407.128 457.125 407.14 455.54C407.032 453.959 407.082 452.371 407.29 450.8C407.461 452.371 407.541 453.95 407.53 455.53C407.639 457.104 407.662 458.683 407.6 460.26V460.26Z" fill="#FAFAFA"/>
<path d="M412.62 460.07C412.376 458.589 412.258 457.091 412.27 455.59C412.148 454.096 412.148 452.594 412.27 451.1C412.514 452.581 412.631 454.079 412.62 455.58C412.742 457.074 412.742 458.576 412.62 460.07V460.07Z" fill="#FAFAFA"/>
<path d="M416.29 460.26C416.105 458.724 416.052 457.175 416.13 455.63C416.082 454.083 416.159 452.535 416.36 451C416.545 452.536 416.598 454.085 416.52 455.63C416.562 457.177 416.485 458.725 416.29 460.26V460.26Z" fill="#FAFAFA"/>
<path d="M419.73 459.77C419.686 458.152 419.777 456.533 420 454.93C420.097 453.312 420.317 451.704 420.66 450.12C420.697 451.742 420.603 453.363 420.38 454.97C420.289 456.585 420.072 458.189 419.73 459.77V459.77Z" fill="#FAFAFA"/>
<path d="M424.16 459.29C424.169 457.899 424.354 456.515 424.71 455.17C424.935 453.789 425.342 452.444 425.92 451.17C425.712 452.534 425.431 453.886 425.08 455.22C424.849 456.593 424.542 457.951 424.16 459.29V459.29Z" fill="#FAFAFA"/>
<path d="M385.41 418.39V425.29C385.409 425.647 385.478 426 385.613 426.33C385.749 426.66 385.948 426.96 386.2 427.213C386.452 427.465 386.751 427.666 387.081 427.803C387.41 427.94 387.763 428.01 388.12 428.01H435.32C436.041 428.01 436.733 427.723 437.243 427.213C437.753 426.703 438.04 426.011 438.04 425.29V418.39H385.41Z" fill="#EBEBEB"/>
<path d="M389.5 428.01L389.89 430.21L433.44 433.31L434.55 428.01H389.5Z" fill="#E0E0E0"/>
<path d="M365.86 303.92H118.51V405.59H365.86V303.92Z" fill="#FAFAFA"/>
<path d="M365.86 405.59C365.86 405.59 365.86 404.97 365.86 403.78C365.86 402.59 365.86 400.78 365.86 398.5C365.86 393.87 365.86 387.05 365.81 378.27C365.81 360.71 365.81 335.32 365.71 303.92L365.9 304.1L118.57 304.18L118.83 303.92C118.83 339.54 118.83 373.92 118.83 405.59L118.58 405.34L295.99 405.45L347.41 405.52H361.16H364.71H365.93H364.74H361.22H347.52L296.16 405.59L118.58 405.71H118.33V405.46C118.33 373.78 118.33 339.46 118.33 303.79V303.53H118.61L365.94 303.6H366V303.79C366 335.24 365.93 360.67 365.9 378.25C365.9 387.02 365.9 393.82 365.9 398.44C365.9 400.74 365.9 402.5 365.9 403.68C365.9 404.86 365.86 405.59 365.86 405.59Z" fill="#263238"/>
<path d="M150.31 349.84C160.008 349.84 167.87 341.978 167.87 332.28C167.87 322.582 160.008 314.72 150.31 314.72C140.612 314.72 132.75 322.582 132.75 332.28C132.75 341.978 140.612 349.84 150.31 349.84Z" fill="#EBEBEB"/>
<path d="M254.64 330C254.64 330.15 237.09 330.26 215.44 330.26C193.79 330.26 176.23 330.15 176.23 330C176.23 329.85 193.78 329.74 215.44 329.74C237.1 329.74 254.64 329.88 254.64 330Z" fill="#263238"/>
<path d="M235.25 340.89C235.25 341.04 221.85 341.15 205.32 341.15C188.79 341.15 175.38 341.04 175.38 340.89C175.38 340.74 188.78 340.63 205.32 340.63C221.86 340.63 235.25 340.75 235.25 340.89Z" fill="#E0E0E0"/>
<path d="M336.4 363.41C336.4 363.56 294.89 363.67 243.7 363.67C192.51 363.67 150.99 363.56 150.99 363.41C150.99 363.26 192.49 363.15 243.7 363.15C294.91 363.15 336.4 363.27 336.4 363.41Z" fill="#263238"/>
<path d="M336.4 375.93C336.4 376.08 294.89 376.19 243.7 376.19C192.51 376.19 150.99 376.08 150.99 375.93C150.99 375.78 192.49 375.67 243.7 375.67C294.91 375.67 336.4 375.79 336.4 375.93Z" fill="#263238"/>
<path d="M140.26 313.68C139.58 306.06 143.44 299.31 151.07 298.84H151.78C155.217 298.825 158.532 300.105 161.068 302.426C163.603 304.746 165.171 307.936 165.46 311.36C166.02 317.97 166.55 325.27 166.52 328.82C166.45 336.16 159.11 337.33 159.11 337.33L159.27 339.68C159.353 340.941 159.171 342.206 158.737 343.392C158.302 344.579 157.624 345.662 156.747 346.572C155.869 347.481 154.811 348.197 153.641 348.674C152.47 349.151 151.213 349.378 149.95 349.34C147.643 349.273 145.448 348.328 143.813 346.698C142.178 345.069 141.225 342.877 141.15 340.57L140.26 313.68Z" fill="#FFBE9D"/>
<path d="M159.12 337.32C155.731 337.402 152.395 336.469 149.54 334.64C149.54 334.64 151.82 339.91 159.15 339.22L159.12 337.32Z" fill="#EB996E"/>
<path d="M163.17 316.86C163.17 317.131 163.067 317.392 162.881 317.589C162.695 317.786 162.441 317.905 162.17 317.92C162.037 317.931 161.903 317.915 161.776 317.873C161.65 317.832 161.533 317.765 161.432 317.678C161.331 317.59 161.249 317.483 161.19 317.363C161.132 317.244 161.098 317.113 161.09 316.98C161.087 316.707 161.189 316.444 161.376 316.245C161.562 316.045 161.818 315.925 162.09 315.91C162.224 315.899 162.358 315.915 162.486 315.958C162.613 316 162.731 316.067 162.832 316.156C162.932 316.245 163.014 316.353 163.072 316.474C163.131 316.594 163.164 316.726 163.17 316.86V316.86Z" fill="#263238"/>
<path d="M164 314.57C163.87 314.71 163.08 314.13 161.95 314.13C160.82 314.13 160 314.71 159.87 314.57C159.74 314.43 159.95 314.26 160.31 314C160.796 313.659 161.376 313.477 161.97 313.48C162.555 313.476 163.126 313.658 163.6 314C164 314.27 164.07 314.51 164 314.57Z" fill="#263238"/>
<path d="M152.6 317.14C152.603 317.413 152.501 317.676 152.315 317.875C152.128 318.075 151.872 318.195 151.6 318.21C151.465 318.222 151.33 318.207 151.201 318.166C151.073 318.124 150.954 318.057 150.852 317.968C150.75 317.879 150.667 317.771 150.608 317.649C150.55 317.527 150.516 317.395 150.51 317.26C150.51 316.989 150.613 316.728 150.799 316.531C150.985 316.334 151.239 316.215 151.51 316.2C151.644 316.188 151.779 316.202 151.907 316.243C152.035 316.284 152.153 316.351 152.255 316.438C152.356 316.526 152.439 316.634 152.499 316.754C152.558 316.875 152.593 317.006 152.6 317.14Z" fill="#263238"/>
<path d="M152.76 314.3C152.65 314.45 151.76 313.95 150.67 314.08C149.58 314.21 148.79 314.86 148.67 314.74C148.55 314.62 148.67 314.43 149.03 314.13C149.48 313.74 150.038 313.496 150.63 313.43C151.212 313.367 151.799 313.486 152.31 313.77C152.67 314 152.82 314.23 152.76 314.3Z" fill="#263238"/>
<path d="M156.93 323.56C157.524 323.374 158.139 323.26 158.76 323.22C159.05 323.22 159.32 323.13 159.37 322.94C159.397 322.641 159.33 322.34 159.18 322.08C158.9 321.39 158.62 320.66 158.32 319.89C157.521 318.035 156.872 316.119 156.38 314.16C157.326 315.949 158.125 317.812 158.77 319.73C159.06 320.49 159.34 321.23 159.6 321.93C159.783 322.277 159.836 322.677 159.75 323.06C159.707 323.16 159.642 323.249 159.561 323.322C159.48 323.394 159.384 323.448 159.28 323.48C159.12 323.524 158.956 323.548 158.79 323.55C158.173 323.631 157.548 323.635 156.93 323.56V323.56Z" fill="#263238"/>
<path d="M153.62 324.35C153.8 324.35 153.81 325.57 154.86 326.43C155.91 327.29 157.21 327.16 157.22 327.33C157.23 327.5 156.93 327.57 156.38 327.58C155.653 327.603 154.942 327.362 154.38 326.9C153.835 326.47 153.477 325.847 153.38 325.16C153.4 324.65 153.53 324.35 153.62 324.35Z" fill="#263238"/>
<path d="M152.61 310.58C152.53 310.9 151.39 310.85 150.09 311.13C148.79 311.41 147.75 311.85 147.55 311.6C147.35 311.35 147.62 311.17 148.03 310.83C148.569 310.412 149.2 310.127 149.87 310C150.532 309.866 151.217 309.886 151.87 310.06C152.38 310.22 152.65 310.43 152.61 310.58Z" fill="#263238"/>
<path d="M163.47 311.7C163.27 311.95 162.47 311.7 161.56 311.7C160.65 311.7 159.83 311.88 159.65 311.61C159.47 311.34 159.65 311.23 160.04 310.98C160.501 310.682 161.042 310.536 161.59 310.56C162.14 310.57 162.674 310.748 163.12 311.07C163.45 311.31 163.56 311.57 163.47 311.7Z" fill="#263238"/>
<path d="M144.8 315.93C144.71 315.93 145.13 316.71 146.07 317.02C146.333 317.144 146.623 317.2 146.913 317.183C147.203 317.165 147.484 317.075 147.73 316.92C147.209 316.873 146.691 316.793 146.18 316.68C145.701 316.468 145.239 316.217 144.8 315.93V315.93Z" fill="#EB996E"/>
<path d="M144.8 318.42C144.8 318.51 145.39 318.33 146.06 318.17C146.73 318.01 147.3 317.91 147.3 317.81C147.3 317.71 146.69 317.65 145.98 317.81C145.27 317.97 144.76 318.33 144.8 318.42Z" fill="#EB996E"/>
<path d="M162 322.94C162 323.02 162.22 323.05 162.44 323C162.66 322.95 162.82 322.84 162.8 322.76C162.78 322.68 162.59 322.66 162.37 322.71C162.15 322.76 162 322.87 162 322.94Z" fill="#EB996E"/>
<path d="M162 323.56C162 323.64 162.08 323.72 162.22 323.75C162.36 323.78 162.47 323.75 162.49 323.65C162.51 323.55 162.41 323.48 162.27 323.46C162.13 323.44 162 323.47 162 323.56Z" fill="#EB996E"/>
<path d="M151.87 325.1C151.87 325.1 152.04 325.02 152.21 324.84C152.419 324.612 152.657 324.413 152.92 324.25C153.175 324.105 153.471 324.052 153.76 324.1C153.98 324.1 154.1 324.24 154.14 324.2C154.18 324.16 154.14 323.99 153.84 323.86C153.665 323.788 153.476 323.758 153.287 323.77C153.098 323.782 152.915 323.837 152.75 323.93C152.445 324.119 152.19 324.38 152.01 324.69C151.88 324.91 151.83 325.07 151.87 325.1Z" fill="#EB996E"/>
<path d="M145.09 335.3C145.09 335.3 145.02 335.23 144.95 335.12C144.864 334.95 144.843 334.755 144.89 334.57C144.95 334.33 145.13 334.07 145.26 333.69C145.33 333.476 145.33 333.244 145.26 333.03C145.167 332.833 145.049 332.648 144.91 332.48C144.868 332.43 144.844 332.366 144.844 332.3C144.844 332.234 144.868 332.17 144.91 332.12C145.033 331.989 145.163 331.866 145.3 331.75C145.456 331.61 145.556 331.418 145.58 331.21C145.6 331.04 145.576 330.868 145.51 330.71C145.419 330.497 145.282 330.306 145.11 330.15C144.99 330.04 144.92 330 144.9 330.01C144.88 330.02 145.11 330.32 145.27 330.79C145.313 330.915 145.318 331.051 145.284 331.179C145.25 331.307 145.179 331.422 145.08 331.51C144.917 331.628 144.766 331.762 144.63 331.91C144.548 332.022 144.504 332.156 144.504 332.295C144.504 332.434 144.548 332.568 144.63 332.68C144.75 332.827 144.857 332.984 144.95 333.15C144.995 333.297 144.995 333.453 144.95 333.6C144.832 333.9 144.735 334.207 144.66 334.52C144.636 334.643 144.641 334.769 144.676 334.889C144.711 335.009 144.774 335.119 144.86 335.21C145 335.33 145.09 335.32 145.09 335.3Z" fill="#EB996E"/>
<path d="M143.23 334.62C143.23 334.62 143.16 334.62 143.13 334.5C143.1 334.38 143.2 334.35 143.31 334.07C143.337 333.779 143.267 333.487 143.11 333.24C143.052 333.125 143.034 332.995 143.058 332.868C143.081 332.742 143.145 332.627 143.24 332.54C143.486 332.31 143.695 332.044 143.86 331.75C143.924 331.605 143.945 331.445 143.92 331.289C143.895 331.133 143.826 330.988 143.72 330.87C143.656 330.792 143.577 330.729 143.487 330.682C143.398 330.636 143.3 330.608 143.2 330.6C143.06 330.6 142.99 330.6 142.99 330.6C142.99 330.6 143.3 330.6 143.52 330.98C143.574 331.067 143.603 331.168 143.603 331.27C143.603 331.372 143.574 331.473 143.52 331.56C143.347 331.813 143.15 332.047 142.93 332.26C142.794 332.404 142.703 332.585 142.67 332.78C142.647 332.966 142.682 333.155 142.77 333.32C142.92 333.6 143.05 333.8 143.03 333.96C143.006 334.052 142.976 334.142 142.94 334.23C142.917 334.275 142.905 334.325 142.905 334.375C142.905 334.425 142.917 334.475 142.94 334.52C143.12 334.72 143.26 334.64 143.23 334.62Z" fill="#EB996E"/>
<path d="M140.88 319.11C140.75 319.06 135.88 317.64 136.01 322.65C136.14 327.66 141.19 326.46 141.19 326.31C141.19 326.16 140.88 319.11 140.88 319.11Z" fill="#FFBE9D"/>
<path d="M139.59 324.47C139.59 324.47 139.51 324.53 139.36 324.6C139.257 324.644 139.147 324.667 139.035 324.667C138.923 324.667 138.813 324.644 138.71 324.6C138.377 324.409 138.102 324.132 137.913 323.797C137.725 323.463 137.631 323.084 137.64 322.7C137.61 322.27 137.679 321.839 137.84 321.44C137.879 321.281 137.958 321.133 138.067 321.011C138.177 320.889 138.316 320.796 138.47 320.74C138.57 320.709 138.678 320.714 138.775 320.755C138.871 320.795 138.951 320.867 139 320.96C139.07 321.1 139 321.2 139.07 321.21C139.14 321.22 139.17 321.12 139.12 320.92C139.093 320.796 139.022 320.685 138.92 320.61C138.777 320.512 138.601 320.473 138.43 320.5C138.225 320.548 138.036 320.648 137.88 320.79C137.724 320.931 137.607 321.111 137.54 321.31C137.346 321.754 137.261 322.237 137.29 322.72C137.281 323.167 137.405 323.607 137.645 323.984C137.885 324.361 138.231 324.659 138.64 324.84C138.777 324.871 138.919 324.873 139.057 324.845C139.195 324.818 139.325 324.761 139.44 324.68C139.59 324.59 139.61 324.48 139.59 324.47Z" fill="#263238"/>
<path d="M166.24 302.8C166.147 302.315 165.916 301.868 165.573 301.513C165.23 301.157 164.791 300.91 164.31 300.8C164.523 300.326 164.567 299.793 164.435 299.29C164.303 298.787 164.004 298.344 163.586 298.035C163.168 297.726 162.657 297.569 162.138 297.59C161.618 297.61 161.122 297.808 160.73 298.15C160.715 297.777 160.61 297.412 160.425 297.088C160.241 296.763 159.981 296.487 159.667 296.284C159.354 296.08 158.996 295.954 158.625 295.917C158.253 295.88 157.877 295.932 157.53 296.07C157.537 295.631 157.4 295.201 157.138 294.848C156.877 294.494 156.507 294.237 156.085 294.115C155.662 293.993 155.212 294.014 154.802 294.174C154.393 294.334 154.048 294.624 153.82 295C153.532 294.575 153.153 294.221 152.709 293.964C152.266 293.706 151.77 293.552 151.259 293.513C150.748 293.473 150.234 293.55 149.756 293.736C149.279 293.923 148.849 294.215 148.5 294.59C147.485 294.27 146.387 294.332 145.415 294.765C144.442 295.197 143.661 295.971 143.22 296.94C142.399 297.001 141.614 297.305 140.968 297.815C140.321 298.324 139.841 299.016 139.59 299.8C139.057 299.837 138.544 300.016 138.104 300.317C137.663 300.619 137.311 301.033 137.084 301.516C136.857 301.999 136.763 302.534 136.811 303.065C136.86 303.597 137.049 304.106 137.36 304.54C137.061 304.713 136.805 304.952 136.614 305.24C136.422 305.527 136.3 305.856 136.256 306.198C136.213 306.541 136.249 306.889 136.363 307.216C136.476 307.542 136.663 307.838 136.91 308.08C136.533 308.265 136.217 308.553 135.998 308.912C135.78 309.27 135.667 309.683 135.675 310.102C135.682 310.522 135.809 310.931 136.04 311.281C136.271 311.631 136.597 311.908 136.98 312.08C136.24 312.18 135.98 313.16 136.17 313.87C136.489 314.555 136.842 315.222 137.23 315.87C137.47 316.43 137.54 317.05 137.75 317.63C137.951 318.171 138.267 318.662 138.677 319.07C139.086 319.477 139.578 319.791 140.12 319.99L140 320C139.87 320.64 140.77 321.08 141.37 320.83C141.937 320.491 142.39 319.989 142.67 319.39C143.106 318.78 143.444 318.105 143.67 317.39C143.793 317.027 143.791 316.634 143.666 316.272C143.542 315.91 143.3 315.6 142.98 315.39C143.4 315.212 143.767 314.927 144.044 314.564C144.321 314.201 144.499 313.773 144.56 313.32C144.668 312.411 144.611 311.489 144.39 310.6L143.67 306.6C144.583 306.563 145.468 306.277 146.229 305.773C146.991 305.269 147.6 304.566 147.99 303.74C148.323 303.97 148.701 304.127 149.098 304.201C149.496 304.276 149.905 304.265 150.298 304.171C150.692 304.076 151.061 303.9 151.382 303.654C151.702 303.407 151.968 303.096 152.16 302.74C152.487 303.627 153.139 304.358 153.983 304.783C154.828 305.208 155.803 305.296 156.71 305.03C156.52 306.03 158.38 307.03 159.41 307.3C160.205 307.402 161.012 307.245 161.71 306.85C161.71 306.85 163.47 307.85 164.43 307.49C165.39 307.13 166.67 306 166 305C166.259 304.297 166.341 303.542 166.24 302.8Z" fill="#263238"/>
<path d="M136.65 308C136.65 308 136.73 308.35 137.15 308.65C137.27 308.732 137.406 308.787 137.55 308.812C137.693 308.836 137.84 308.828 137.98 308.79C138.15 308.739 138.304 308.644 138.426 308.514C138.547 308.384 138.631 308.224 138.67 308.05L138.73 307.75L138.96 307.95C139.158 308.121 139.403 308.229 139.663 308.26C139.924 308.29 140.187 308.242 140.419 308.122C140.652 308.001 140.843 307.814 140.968 307.583C141.093 307.353 141.146 307.091 141.12 306.83V306.53L141.4 306.65C141.693 306.77 142.02 306.779 142.32 306.676C142.62 306.573 142.872 306.365 143.03 306.09C143.139 305.856 143.223 305.611 143.28 305.36C143.28 305.36 143.43 305.67 143.21 306.19C143.075 306.497 142.838 306.747 142.54 306.9C142.345 306.999 142.131 307.056 141.912 307.068C141.694 307.081 141.475 307.047 141.27 306.97L141.5 306.79C141.543 307.146 141.469 307.507 141.288 307.818C141.108 308.128 140.831 308.371 140.5 308.51C140.209 308.632 139.89 308.669 139.578 308.618C139.267 308.567 138.977 308.429 138.74 308.22L139.03 308.12C138.976 308.365 138.854 308.589 138.677 308.767C138.499 308.944 138.275 309.066 138.03 309.12C137.855 309.155 137.673 309.15 137.5 309.105C137.327 309.06 137.166 308.976 137.03 308.86C136.56 308.43 136.63 308 136.65 308Z" fill="#FAFAFA"/>
<path d="M135.91 312.84C135.91 312.84 136.09 312.98 136.45 313.05C136.69 313.098 136.939 313.072 137.164 312.976C137.389 312.879 137.579 312.717 137.71 312.51L137.81 312.33L137.95 312.48C138.114 312.646 138.318 312.767 138.542 312.83C138.767 312.893 139.004 312.897 139.23 312.84C139.487 312.762 139.715 312.608 139.881 312.397C140.047 312.185 140.145 311.928 140.16 311.66V311.33L140.44 311.51C140.509 311.56 140.587 311.598 140.67 311.62C140.852 311.672 141.046 311.666 141.225 311.603C141.404 311.541 141.56 311.424 141.67 311.27C141.758 311.118 141.804 310.946 141.804 310.77C141.804 310.594 141.758 310.422 141.67 310.27L141.48 309.96H141.83C142.24 310.016 142.655 309.912 142.99 309.67C143.25 309.48 143.446 309.215 143.55 308.91C143.626 308.623 143.667 308.327 143.67 308.03C143.745 308.172 143.791 308.327 143.805 308.487C143.819 308.647 143.8 308.808 143.75 308.96C143.661 309.329 143.453 309.659 143.16 309.9C142.969 310.053 142.75 310.167 142.515 310.234C142.279 310.301 142.033 310.32 141.79 310.29L141.95 310.04C142.089 310.258 142.158 310.513 142.147 310.772C142.136 311.03 142.046 311.279 141.888 311.484C141.731 311.69 141.514 311.841 141.268 311.919C141.021 311.997 140.757 311.998 140.51 311.92C140.394 311.884 140.283 311.834 140.18 311.77L140.47 311.62C140.45 311.968 140.32 312.3 140.099 312.57C139.878 312.839 139.577 313.032 139.24 313.12C138.956 313.188 138.659 313.177 138.381 313.089C138.102 313.001 137.853 312.839 137.66 312.62H137.9C137.81 312.767 137.691 312.895 137.55 312.995C137.409 313.094 137.249 313.164 137.08 313.2C136.838 313.267 136.582 313.267 136.34 313.2C136 313.07 135.89 312.85 135.91 312.84Z" fill="#FAFAFA"/>
<path d="M156.87 295.88C156.701 295.74 156.508 295.632 156.3 295.56C156.065 295.468 155.805 295.468 155.57 295.56C155.421 295.629 155.288 295.73 155.183 295.856C155.077 295.983 155.001 296.131 154.96 296.29L154.9 296.58L154.74 296.32C154.577 296.058 154.351 295.841 154.081 295.691C153.812 295.541 153.509 295.461 153.2 295.46C152.826 295.469 152.464 295.595 152.166 295.822C151.868 296.048 151.649 296.362 151.54 296.72L151.45 297.05L151.24 296.78C151.03 296.521 150.765 296.312 150.464 296.168C150.163 296.025 149.834 295.95 149.5 295.95C149.144 295.957 148.795 296.052 148.484 296.226C148.174 296.401 147.911 296.649 147.72 296.95C147.563 297.2 147.458 297.479 147.41 297.77V297.97L147.22 297.92C146.753 297.813 146.263 297.867 145.83 298.072C145.396 298.277 145.044 298.621 144.83 299.05C144.656 299.433 144.597 299.858 144.661 300.274C144.725 300.689 144.909 301.077 145.19 301.39L145.38 301.6L145.11 301.65C144.495 301.771 143.952 302.131 143.6 302.65C143.333 303.042 143.19 303.506 143.19 303.98C143.205 304.4 143.297 304.813 143.46 305.2C143.46 305.2 143.36 305.12 143.26 304.92C143.108 304.636 143.02 304.322 143 304C142.964 303.482 143.098 302.966 143.38 302.53C143.565 302.241 143.807 301.991 144.09 301.797C144.374 301.603 144.693 301.468 145.03 301.4L144.95 301.65C144.603 301.267 144.388 300.783 144.335 300.27C144.282 299.756 144.394 299.239 144.654 298.793C144.915 298.347 145.311 297.996 145.785 297.79C146.259 297.585 146.786 297.536 147.29 297.65L147.06 297.8C147.107 297.443 147.233 297.101 147.43 296.8C147.651 296.444 147.958 296.149 148.324 295.945C148.689 295.74 149.101 295.632 149.52 295.63C149.907 295.635 150.289 295.727 150.635 295.9C150.981 296.073 151.284 296.323 151.52 296.63L151.22 296.69C151.314 296.289 151.53 295.927 151.837 295.653C152.145 295.379 152.53 295.207 152.939 295.16C153.348 295.113 153.762 295.193 154.124 295.39C154.485 295.587 154.777 295.891 154.96 296.26H154.74C154.795 296.07 154.893 295.895 155.026 295.75C155.16 295.604 155.326 295.491 155.51 295.42C155.781 295.319 156.079 295.319 156.35 295.42C156.516 295.477 156.665 295.577 156.78 295.71C156.85 295.82 156.88 295.88 156.87 295.88Z" fill="#FAFAFA"/>
<path d="M104.47 440.45C102.27 440.34 101.62 437.24 102.47 435.2C103.32 433.16 104.91 431.34 104.93 429.13C104.93 427.22 103.74 425.49 103.62 423.58C103.41 420.14 106.73 417.34 106.88 413.89C106.99 411.21 105.12 408.65 105.58 406C106.06 403.16 109.02 401.3 109.7 398.49C110.43 395.49 108.36 392.36 109.15 389.39C109.94 386.42 113.42 384.27 112.93 381.25C112.76 380.25 112.16 379.38 111.93 378.4C111.31 376.15 112.54 373.81 114.02 372.01C115.5 370.21 117.34 368.61 118.26 366.46C119.67 363.16 118.69 359.15 120.36 355.97C121.75 353.33 124.84 351.55 125.23 348.58C126.8 351.25 125.23 354.64 125.62 357.72C125.86 359.72 126.89 361.53 127.53 363.44C128.172 365.401 128.399 367.474 128.198 369.528C127.996 371.581 127.37 373.571 126.36 375.37C125.02 377.73 122.94 379.96 123.05 382.68C123.18 385.97 126.47 388.36 127.05 391.6C127.88 396.23 122.94 400.4 123.63 405.06C123.8 406.27 124.35 407.4 124.46 408.61C124.81 412.73 120.13 415.61 119.46 419.71C118.94 422.71 120.67 425.81 119.96 428.76C119.4 431.04 117.44 433.09 117.96 435.38C118.289 436.342 118.711 437.27 119.22 438.15C119.599 439.048 119.722 440.033 119.576 440.997C119.429 441.961 119.019 442.865 118.39 443.61C117.737 444.334 116.869 444.831 115.914 445.027C114.959 445.223 113.966 445.109 113.08 444.7" fill="#558EB4"/>
<g opacity="0.5">
<path opacity="0.5" d="M119.07 438.15C118.561 437.27 118.139 436.342 117.81 435.38C117.33 433.09 119.29 431.04 119.81 428.76C120.52 425.81 118.81 422.71 119.31 419.71C120.02 415.64 124.7 412.71 124.31 408.61C124.2 407.4 123.65 406.27 123.48 405.06C122.79 400.4 127.73 396.23 126.9 391.6C126.32 388.36 123.03 385.97 122.9 382.68C122.79 379.96 124.9 377.73 126.21 375.37C127.22 373.571 127.846 371.581 128.048 369.528C128.249 367.474 128.022 365.401 127.38 363.44C126.75 361.53 125.71 359.72 125.47 357.72C125.12 354.64 126.65 351.25 125.08 348.58C124.69 351.58 121.6 353.33 120.21 355.97C118.54 359.15 119.52 363.16 118.11 366.46C117.19 368.61 115.36 370.21 113.87 372.01C112.38 373.81 111.16 376.15 111.78 378.4C112.05 379.4 112.65 380.25 112.78 381.25C113.27 384.25 109.78 386.44 109 389.39C108.22 392.34 110.28 395.51 109.55 398.49C108.87 401.3 105.91 403.16 105.43 406C104.97 408.65 106.84 411.21 106.73 413.89C106.58 417.34 103.26 420.14 103.47 423.58C103.59 425.49 104.8 427.22 104.78 429.13C104.78 431.34 103.14 433.13 102.32 435.2C101.5 437.27 102.15 440.34 104.32 440.45L112.78 444.7C113.666 445.109 114.659 445.223 115.614 445.027C116.569 444.831 117.437 444.334 118.09 443.61C118.744 442.88 119.182 441.983 119.355 441.019C119.528 440.055 119.429 439.061 119.07 438.15V438.15Z" fill="white"/>
</g>
<path d="M116.2 436.14C115.615 435.155 115.32 434.025 115.35 432.88C115.58 431.62 117.7 430.52 118.23 428.38C118.92 425.61 117.68 420.71 118.23 417.92C118.95 414.12 122.87 411.62 122.71 407.85C122.71 406.74 122.82 403.78 122.71 402.69C122.29 398.44 126.02 395.59 125.48 391.37C125.1 388.43 122.05 384.97 122.04 381.95C122.04 379.46 123.83 377.27 125.04 375.01C126.81 371.624 127.273 367.705 126.34 364C125.87 362.28 125.07 360.68 124.94 358.85C124.74 356.04 126.12 352.85 124.94 350.46C124.53 353.22 121.94 355.06 120.67 357.58C119.19 360.58 119.88 364.25 118.6 367.38C117.77 369.38 116.21 371.01 114.92 372.76C113.63 374.51 112.54 376.76 112.98 378.76C113.286 379.594 113.544 380.446 113.75 381.31C114.07 384.06 111.12 386.31 110.37 389.05C109.62 391.79 111.23 394.6 110.54 397.4C109.89 400.02 107.32 403.59 106.83 406.23C106.37 408.7 108.61 410.31 108.43 412.78C108.21 415.96 105.02 419.78 105.08 422.97C105.08 424.72 106.58 425.28 106.51 427.04C106.42 429.04 104.72 433.1 103.98 435.04C103.583 435.913 103.422 436.876 103.515 437.831C103.608 438.786 103.951 439.7 104.51 440.48L113.96 445.17C118.14 443.13 118 439 116.2 436.14Z" fill="#558EB4"/>
<path d="M122.55 364.78C122.557 364.85 122.557 364.92 122.55 364.99V365.61C122.55 366.15 122.55 366.95 122.46 367.97C122.371 369.225 122.081 370.457 121.6 371.62C120.837 373.093 119.882 374.458 118.76 375.68C118.16 376.408 117.702 377.243 117.41 378.14C117.117 379.111 117.002 380.128 117.07 381.14C117.17 383.27 117.83 385.5 118.14 387.92C118.324 389.171 118.284 390.444 118.02 391.68C117.852 392.316 117.603 392.927 117.28 393.5C116.918 394.035 116.584 394.589 116.28 395.16C115.854 396.401 115.833 397.746 116.22 399C116.36 399.66 116.51 400.34 116.59 401C116.68 401.704 116.68 402.416 116.59 403.12C116.326 404.504 115.886 405.848 115.28 407.12C114.72 408.327 114.233 409.565 113.82 410.83C113.461 412.056 113.352 413.341 113.5 414.61C113.678 415.852 113.721 417.109 113.63 418.36C113.411 419.538 113.01 420.675 112.44 421.73C111.914 422.7 111.511 423.731 111.24 424.8C110.84 426.89 111.44 428.89 111.39 430.74C111.288 432.4 110.923 434.034 110.31 435.58C109.876 436.741 109.564 437.944 109.38 439.17C109.29 439.948 109.372 440.737 109.62 441.48C109.81 441.97 109.96 442.22 109.94 442.23C109.786 442 109.656 441.756 109.55 441.5C109.261 440.756 109.155 439.954 109.24 439.16C109.387 437.917 109.679 436.695 110.11 435.52C110.681 433.986 111.018 432.374 111.11 430.74C111.11 429.84 110.98 428.89 110.88 427.89C110.721 426.846 110.721 425.784 110.88 424.74C111.28 422.55 112.88 420.67 113.22 418.31C113.308 417.085 113.258 415.854 113.07 414.64C112.924 413.327 113.04 411.998 113.41 410.73C114.13 408.16 115.7 405.81 116.15 403.09C116.237 402.426 116.237 401.754 116.15 401.09C116.064 400.418 115.944 399.75 115.79 399.09C115.416 397.74 115.49 396.305 116 395C116.302 394.416 116.636 393.848 117 393.3C117.313 392.761 117.552 392.183 117.71 391.58C117.969 390.387 118.01 389.157 117.83 387.95C117.54 385.57 116.89 383.33 116.83 381.14C116.767 380.082 116.896 379.022 117.21 378.01C117.524 377.084 118.005 376.223 118.63 375.47C119.749 374.263 120.71 372.919 121.49 371.47C121.974 370.334 122.277 369.13 122.39 367.9C122.5 366.9 122.53 366.08 122.56 365.55C122.56 365.29 122.56 365.09 122.56 364.93C122.552 364.88 122.549 364.83 122.55 364.78Z" fill="#263238"/>
<path d="M91 441.53C87.93 441.98 86.18 437.86 86.76 434.8C87.34 431.74 89.08 428.8 88.51 425.73C88.01 423.08 85.85 421.01 85.17 418.4C83.94 413.69 87.77 408.89 87.03 404.08C86.44 400.33 83.16 397.3 83.03 393.51C82.93 389.44 86.52 386.04 86.7 381.97C86.88 377.64 83.15 373.84 83.44 369.51C83.73 365.18 87.95 361.25 86.44 357.2C85.94 355.86 84.87 354.82 84.22 353.54C82.74 350.54 83.8 347 85.37 344.1C86.94 341.2 89.03 338.49 89.72 335.26C90.77 330.26 88.31 325.01 89.72 320.15C90.92 316.15 94.72 312.79 94.44 308.58C97.35 311.84 96.15 316.97 97.44 321.13C98.31 323.84 100.24 326.06 101.65 328.54C103.075 331.08 103.958 333.888 104.242 336.787C104.526 339.686 104.205 342.612 103.3 345.38C102.08 349.03 99.82 352.68 100.71 356.38C101.79 360.9 107 363.31 108.71 367.64C111.13 373.83 105.43 380.96 107.65 387.23C108.22 388.85 109.3 390.23 109.77 391.91C111.39 397.53 105.71 402.84 105.84 408.68C105.94 412.97 109.18 416.79 109 421.08C108.86 424.39 106.69 427.76 108 430.81C108.56 432.13 109.7 433.11 110.5 434.3C111.273 435.441 111.715 436.773 111.779 438.149C111.842 439.526 111.524 440.893 110.86 442.1C110.156 443.287 109.091 444.217 107.822 444.757C106.552 445.296 105.143 445.417 103.8 445.1" fill="#558EB4"/>
<g opacity="0.5">
<path opacity="0.5" d="M110.56 434.34C109.76 433.15 108.62 432.17 108.06 430.85C106.76 427.8 108.93 424.43 109.06 421.12C109.24 416.83 106 413.01 105.9 408.72C105.77 402.88 111.45 397.57 109.83 391.95C109.36 390.31 108.28 388.89 107.71 387.27C105.49 381 111.19 373.87 108.77 367.68C107.07 363.35 101.86 360.94 100.77 356.42C99.88 352.68 102.14 349.03 103.36 345.42C104.265 342.652 104.586 339.726 104.302 336.827C104.018 333.928 103.135 331.12 101.71 328.58C100.3 326.1 98.37 323.88 97.5 321.17C96.16 317.01 97.36 311.88 94.5 308.62C94.78 312.83 90.98 316.15 89.78 320.19C88.33 325.05 90.78 330.34 89.78 335.3C89.09 338.53 87 341.24 85.43 344.14C83.86 347.04 82.8 350.63 84.28 353.58C84.93 354.86 86 355.9 86.5 357.24C88.01 361.29 83.78 365.24 83.5 369.55C83.22 373.86 86.94 377.68 86.76 382.01C86.58 386.08 82.99 389.48 83.09 393.55C83.19 397.34 86.47 400.37 87.09 404.12C87.83 408.93 84 413.73 85.23 418.44C85.91 421.05 88.07 423.12 88.57 425.77C89.14 428.83 87.39 431.77 86.82 434.84C86.25 437.91 87.89 442 91 441.53L103.9 445.1C105.243 445.417 106.652 445.296 107.922 444.757C109.191 444.217 110.256 443.287 110.96 442.1C111.611 440.894 111.917 439.532 111.847 438.164C111.776 436.796 111.331 435.473 110.56 434.34V434.34Z" fill="white"/>
</g>
<path d="M106 432.34C104.917 431.139 104.199 429.655 103.93 428.06C103.93 426.26 106.54 424.14 106.69 421.06C106.88 417.06 103.83 410.58 103.79 406.57C103.79 401.11 108.5 396.57 107.25 391.39C106.88 389.87 106.25 385.72 105.83 384.23C104.09 378.47 108.47 373.49 106.57 367.8C105.23 363.8 100.06 359.88 99.22 355.69C98.54 352.24 100.42 348.69 101.44 345.25C103.001 340.056 102.587 334.468 100.28 329.56C99.16 327.31 97.61 325.31 96.93 322.81C95.93 318.98 96.93 314.13 94.58 311.21C94.76 315.14 91.58 318.4 90.58 322.21C89.36 326.82 91.31 331.67 90.4 336.35C89.8 339.4 88.08 342.03 86.77 344.81C85.46 347.59 84.56 351 85.77 353.69C86.27 354.86 87.14 355.79 87.53 357.02C88.72 360.74 85.24 364.63 84.96 368.67C84.68 372.71 87.68 376.13 87.48 380.19C87.3 384 84.72 389.64 84.76 393.45C84.76 396.99 88.34 398.6 88.76 402.09C89.32 406.55 85.96 412.76 86.91 417.09C87.44 419.5 89.62 419.88 90 422.34C90.43 425.17 89.18 431.22 88.68 434.11C88.3779 435.442 88.4334 436.829 88.8409 438.132C89.2483 439.436 89.9932 440.608 91 441.53L105.38 445.44C110.64 441.5 109.26 435.87 106 432.34Z" fill="#558EB4"/>
<path d="M95.29 331.74C95.6315 333.203 95.8787 334.686 96.03 336.18C96.2481 337.939 96.184 339.721 95.84 341.46C95.591 342.539 95.2115 343.583 94.71 344.57C94.19 345.62 93.57 346.69 93 347.84C92.3631 349.023 91.9559 350.316 91.8 351.65C91.6503 353.093 91.769 354.551 92.15 355.95C92.88 358.89 94.4 361.8 95.49 365.06C96.089 366.734 96.3771 368.503 96.34 370.28C96.2908 371.2 96.1159 372.108 95.82 372.98C95.4572 373.82 95.1466 374.682 94.89 375.56C94.45 377.35 95.13 379.2 95.89 380.94C96.26 381.83 96.66 382.72 96.96 383.66C97.2516 384.615 97.4197 385.603 97.46 386.6C97.4637 388.568 97.2253 390.53 96.75 392.44C96.2996 394.27 95.9656 396.127 95.75 398C95.5875 399.805 95.7881 401.624 96.34 403.35C96.9267 405.015 97.3324 406.738 97.55 408.49C97.5744 410.185 97.328 411.873 96.82 413.49C96.3669 414.985 96.0949 416.53 96.01 418.09C96.0584 419.543 96.3178 420.981 96.78 422.36C97.2111 423.649 97.5717 424.961 97.86 426.29C98.0685 427.515 98.1156 428.763 98 430C97.92 431.16 97.78 432.26 97.65 433.28C97.362 435.007 97.2681 436.762 97.37 438.51C97.4605 439.616 97.8025 440.687 98.37 441.64C98.77 442.28 99.05 442.57 99.03 442.59C98.7609 442.308 98.5166 442.004 98.3 441.68C97.7049 440.728 97.3418 439.649 97.24 438.53C97.1143 436.767 97.1881 434.996 97.46 433.25C97.58 432.25 97.71 431.14 97.78 429.98C97.8705 428.763 97.8033 427.54 97.58 426.34C97.2793 425.022 96.9122 423.721 96.48 422.44C95.9977 421.035 95.7281 419.565 95.68 418.08C95.7521 416.496 96.0209 414.928 96.48 413.41C96.9709 411.831 97.2072 410.184 97.18 408.53C96.9689 406.799 96.5733 405.096 96 403.45C95.4277 401.684 95.2201 399.819 95.39 397.97C95.6028 396.081 95.9369 394.207 96.39 392.36C96.8589 390.483 97.094 388.555 97.09 386.62C97.0572 385.656 96.8958 384.701 96.61 383.78C96.31 382.86 95.93 381.98 95.61 381.09C95.1977 380.211 94.8631 379.297 94.61 378.36C94.3902 377.413 94.3902 376.427 94.61 375.48C94.8717 374.589 95.1856 373.714 95.55 372.86C95.8377 372.021 96.0092 371.146 96.06 370.26C96.0948 368.527 95.8135 366.802 95.23 365.17C94.17 361.94 92.65 359.02 91.92 356.03C91.545 354.589 91.4332 353.091 91.59 351.61C91.7582 350.246 92.1823 348.926 92.84 347.72C93.42 346.56 94.06 345.5 94.57 344.46C95.0756 343.512 95.4587 342.504 95.71 341.46C96.0686 339.744 96.1564 337.983 95.97 336.24C95.84 334.81 95.65 333.7 95.54 332.94C95.48 332.58 95.44 332.3 95.41 332.09C95.38 331.88 95.29 331.74 95.29 331.74Z" fill="#263238"/>
<path d="M89 443.56C87.24 444.42 85.4 442.29 85.16 440.35C84.92 438.41 85.38 436.3 84.45 434.58C83.64 433.09 81.95 432.27 81.03 430.84C79.39 428.26 80.76 424.65 79.38 421.91C78.31 419.78 75.76 418.6 74.96 416.35C74.11 413.94 75.61 411.21 74.96 408.74C74.23 406.11 71.26 404.56 70.6 401.91C69.94 399.26 71.7 396.09 70.01 393.91C69.3734 393.29 68.7059 392.703 68.01 392.15C66.56 390.67 66.49 388.32 66.87 386.28C67.25 384.24 67.98 382.21 67.77 380.15C67.44 376.98 64.94 374.28 64.87 371.1C64.81 368.44 66.44 365.73 65.46 363.26C67.83 364.65 68.11 367.95 69.71 370.18C70.71 371.63 72.34 372.59 73.71 373.8C75.0549 375.044 76.1263 376.554 76.8563 378.234C77.5862 379.914 77.9587 381.728 77.95 383.56C77.95 385.98 77.28 388.61 78.54 390.67C80.06 393.17 83.64 393.6 85.54 395.86C88.19 399.1 86.16 404.47 88.7 407.79C89.36 408.65 90.27 409.29 90.87 410.19C92.87 413.19 90.55 417.51 91.76 420.98C92.65 423.53 95.33 425.19 96.05 427.79C96.61 429.79 95.96 432.24 97.33 433.79C98.0018 434.393 98.7283 434.932 99.5 435.4C100.183 435.931 100.705 436.642 101.009 437.452C101.313 438.262 101.386 439.141 101.22 439.99C101.024 440.835 100.564 441.596 99.9051 442.16C99.2467 442.725 98.4251 443.065 97.56 443.13" fill="#558EB4"/>
<g opacity="0.5">
<path opacity="0.5" d="M99.38 435.47C98.6082 435.002 97.8818 434.463 97.21 433.86C95.84 432.29 96.49 429.86 95.93 427.86C95.21 425.26 92.53 423.6 91.64 421.05C90.43 417.58 92.8 413.3 90.75 410.26C90.15 409.36 89.24 408.72 88.58 407.86C86.04 404.54 88.07 399.17 85.42 395.93C83.57 393.67 79.99 393.24 78.42 390.74C77.16 388.68 77.81 386.05 77.83 383.63C77.8387 381.798 77.4662 379.984 76.7362 378.304C76.0063 376.624 74.9349 375.114 73.59 373.87C72.27 372.66 70.69 371.7 69.59 370.25C67.99 368.02 67.71 364.72 65.34 363.33C66.34 365.8 64.69 368.51 64.75 371.17C64.82 374.35 67.32 377.05 67.65 380.22C67.86 382.28 67.13 384.31 66.75 386.35C66.37 388.39 66.44 390.74 67.89 392.22C68.6239 392.776 69.3282 393.37 70 394C71.69 396.13 69.92 399.32 70.59 402C71.26 404.68 74.22 406.2 74.95 408.83C75.63 411.3 74.13 414.03 74.95 416.44C75.75 418.69 78.3 419.87 79.37 422C80.75 424.74 79.37 428.35 81.02 430.93C81.94 432.36 83.63 433.18 84.44 434.67C85.37 436.39 84.9 438.5 85.15 440.44C85.4 442.38 87.23 444.51 88.99 443.65L97.39 443.29C98.2551 443.225 99.0767 442.885 99.7351 442.32C100.394 441.756 100.854 440.995 101.05 440.15C101.239 439.292 101.183 438.398 100.887 437.57C100.592 436.742 100.07 436.015 99.38 435.47Z" fill="white"/>
</g>
<path d="M96.28 435.14C95.4051 434.635 94.6909 433.893 94.22 433C93.85 431.93 95.02 430.15 94.51 428.26C93.85 425.82 90.77 422.55 89.98 420.15C88.89 416.9 90.87 413.26 89.11 410.4C88.6 409.56 87.44 407.2 86.88 406.4C84.72 403.29 86.39 399.46 84.15 396.4C82.58 394.27 78.72 392.91 77.41 390.57C76.33 388.63 76.78 386.16 76.72 383.89C76.6525 380.479 75.3278 377.214 73 374.72C71.7833 373.707 70.6741 372.571 69.69 371.33C68.32 369.24 68 366.14 66.04 364.84C66.91 367.16 65.67 369.72 65.8 372.21C65.96 375.21 68.06 377.73 68.42 380.71C68.66 382.65 68.13 384.56 67.89 386.47C67.65 388.38 67.75 390.6 69 392C69.5958 392.519 70.1633 393.07 70.7 393.65C72.13 395.65 70.8 398.65 71.42 401.12C72.04 403.59 74.49 405.06 75.15 407.52C75.81 409.98 75.33 413.72 76.09 415.99C76.8 418.1 79.23 418.38 80.16 420.38C81.36 422.95 80.55 427.31 81.96 429.73C82.74 431.07 84.12 430.87 84.82 432.27C85.63 433.89 86.05 437.75 86.31 439.57C86.3805 440.42 86.6724 441.236 87.1567 441.938C87.6409 442.64 88.3006 443.202 89.07 443.57L98.43 443.13C100.81 439.74 98.89 436.63 96.28 435.14Z" fill="#558EB4"/>
<path d="M70.41 377C70.4474 377.051 70.4809 377.104 70.51 377.16C70.59 377.28 70.68 377.44 70.79 377.63C71.02 378.05 71.36 378.63 71.73 379.5C72.2091 380.513 72.5198 381.597 72.65 382.71C72.6905 384.183 72.5392 385.656 72.2 387.09C72.0451 387.913 72.0451 388.757 72.2 389.58C72.3759 390.465 72.715 391.309 73.2 392.07C74.2 393.68 75.67 395.12 76.96 396.87C77.6512 397.767 78.17 398.784 78.49 399.87C78.6408 400.437 78.7115 401.023 78.7 401.61C78.6506 402.179 78.6305 402.749 78.64 403.32C78.8458 404.465 79.4095 405.515 80.25 406.32C80.64 406.78 81.05 407.24 81.42 407.75C81.7835 408.27 82.0792 408.835 82.3 409.43C82.6828 410.613 82.918 411.839 83 413.08C83.0874 414.258 83.2443 415.43 83.47 416.59C83.724 417.694 84.193 418.737 84.85 419.66C85.5252 420.548 86.102 421.507 86.57 422.52C86.9093 423.533 87.0881 424.592 87.1 425.66C87.1118 426.636 87.2462 427.607 87.5 428.55C88.08 430.33 89.41 431.63 90.18 433.09C90.812 434.43 91.2304 435.861 91.42 437.33C91.5768 438.418 91.8553 439.484 92.25 440.51C92.5076 441.151 92.9077 441.726 93.42 442.19C93.79 442.5 94.01 442.63 93.99 442.64C93.7705 442.532 93.5628 442.401 93.37 442.25C92.8237 441.797 92.392 441.221 92.11 440.57C91.6951 439.539 91.3933 438.466 91.21 437.37C91.0228 435.926 90.6147 434.52 90 433.2C89.25 431.79 87.9 430.51 87.26 428.62C86.62 426.73 87.06 424.62 86.26 422.62C85.7962 421.636 85.2297 420.705 84.57 419.84C83.8836 418.886 83.3941 417.805 83.13 416.66C82.58 414.34 82.79 411.84 81.96 409.54C81.7519 408.977 81.473 408.443 81.13 407.95C80.78 407.46 80.38 407.01 79.99 406.55C79.0959 405.688 78.5004 404.564 78.29 403.34C78.2792 402.753 78.2992 402.165 78.35 401.58C78.3702 401.049 78.3197 400.518 78.2 400C77.8892 398.962 77.391 397.989 76.73 397.13C75.48 395.41 74.01 393.95 72.99 392.3C72.4815 391.505 72.1223 390.624 71.93 389.7C71.7689 388.844 71.7689 387.966 71.93 387.11C72.2874 385.698 72.4588 384.246 72.44 382.79C72.3247 381.696 72.0414 380.627 71.6 379.62C71.25 378.79 70.93 378.16 70.72 377.73L70.48 377.24C70.43 377.07 70.4 377 70.41 377Z" fill="#263238"/>
<path d="M75.6 436.16L79.24 443.56H123.59L128.6 436.16H75.6Z" fill="#455A64"/>
<path d="M80.3 441.01L86.94 463.93L116.82 463.95L122.83 441.05L80.3 441.01Z" fill="#455A64"/>
<path d="M123.4 443.5C123.4 443.61 113.5 443.69 101.29 443.69C89.08 443.69 79.19 443.61 79.19 443.5C79.19 443.39 89.09 443.31 101.29 443.31C113.49 443.31 123.4 443.4 123.4 443.5Z" fill="#263238"/>
<path d="M360.9 47.8H116.77V177.91H360.9V47.8Z" fill="#FAFAFA"/>
<path d="M360.91 177.91C360.91 176.34 360.83 127.83 360.71 47.8L360.91 48L116.79 48.06L117.05 47.8C117.05 93.8 117.05 137.8 117.05 177.91L116.8 177.67L292.34 177.79L342.82 177.85H356.28H359.75H360.94H359.78H356.3H342.9L292.48 177.92L116.77 178.04H116.53V177.79C116.53 137.65 116.53 93.63 116.53 47.68V47.42H116.81L360.93 47.48H361.13V47.68C361 127.83 360.91 176.34 360.91 177.91Z" fill="#263238"/>
<path d="M251.14 69.05C251.14 69.2 233.81 69.31 212.44 69.31C191.07 69.31 173.75 69.2 173.75 69.05C173.75 68.9 191.07 68.79 212.44 68.79C233.81 68.79 251.14 68.91 251.14 69.05Z" fill="#263238"/>
<path d="M235.22 77.73C235.22 77.87 221.99 77.99 205.67 77.99C189.35 77.99 176.12 77.87 176.12 77.73C176.12 77.59 189.35 77.47 205.67 77.47C221.99 77.47 235.22 77.58 235.22 77.73Z" fill="#E0E0E0"/>
<path d="M332.17 112.86C332.17 113 294.81 113.12 248.73 113.12C202.65 113.12 165.28 113 165.28 112.86C165.28 112.72 202.63 112.6 248.73 112.6C294.83 112.6 332.17 112.71 332.17 112.86Z" fill="#263238"/>
<path d="M332.17 125.21C332.17 125.36 291.17 125.47 240.68 125.47C190.19 125.47 149.17 125.36 149.17 125.21C149.17 125.06 190.17 124.95 240.68 124.95C291.19 124.95 332.17 125.07 332.17 125.21Z" fill="#263238"/>
<path d="M250 140.49C250 140.63 227.26 140.75 199.23 140.75C171.2 140.75 148.46 140.63 148.46 140.49C148.46 140.35 171.18 140.23 199.23 140.23C227.28 140.23 250 140.35 250 140.49Z" fill="#263238"/>
<path d="M148.85 88.61C157.664 88.61 164.81 81.4645 164.81 72.65C164.81 63.8355 157.664 56.69 148.85 56.69C140.036 56.69 132.89 63.8355 132.89 72.65C132.89 81.4645 140.036 88.61 148.85 88.61Z" fill="#263238"/>
<path d="M154.54 70.84C154.54 71.9654 154.206 73.0655 153.581 74.0012C152.956 74.9369 152.067 75.6662 151.028 76.0969C149.988 76.5275 148.844 76.6402 147.74 76.4207C146.636 76.2011 145.622 75.6592 144.827 74.8634C144.031 74.0677 143.489 73.0538 143.269 71.9501C143.05 70.8463 143.162 69.7022 143.593 68.6625C144.024 67.6228 144.753 66.7342 145.689 66.1089C146.625 65.4837 147.725 65.15 148.85 65.15C150.359 65.15 151.806 65.7495 152.873 66.8166C153.941 67.8836 154.54 69.3309 154.54 70.84V70.84Z" fill="#FAFAFA"/>
<path d="M140.22 84.38C140.22 84.38 143.08 78.71 148.88 78.71C154.68 78.71 157.88 84.1 157.88 84.1C155.411 86.3052 152.189 87.4792 148.88 87.38C143.11 87.33 140.22 84.38 140.22 84.38Z" fill="#FAFAFA"/>
<path d="M465.67 463.61C465.67 463.76 369.55 463.87 251.01 463.87C132.47 463.87 36.33 463.76 36.33 463.61C36.33 463.46 132.43 463.35 251.01 463.35C369.59 463.35 465.67 463.47 465.67 463.61Z" fill="#263238"/>
<path d="M287.45 203.19C287.45 203.19 283.25 225.54 283.82 226.96C284.39 228.38 290.76 234.54 293.04 233.96C293.657 233.607 294.214 233.158 294.69 232.63L303.46 229.63L299.1 191.73L292.1 206.14L287.45 203.19Z" fill="#455A64"/>
<path d="M294.69 232.62C294.6 232.62 295.08 231.15 295.3 228.72C295.563 225.553 295.513 222.367 295.15 219.21C294.819 216.048 294.22 212.92 293.36 209.86C292.7 207.51 292.03 206.14 292.11 206.1C292.326 206.386 292.504 206.698 292.64 207.03C293.055 207.913 293.412 208.821 293.71 209.75C294.695 212.807 295.365 215.957 295.71 219.15C296.089 222.342 296.089 225.568 295.71 228.76C295.595 229.728 295.397 230.685 295.12 231.62C295.018 231.97 294.874 232.305 294.69 232.62V232.62Z" fill="#263238"/>
<path d="M334.89 139.55C336.538 137.592 337.96 135.456 339.13 133.18C340.294 130.873 340.647 128.242 340.13 125.71C339.78 124.26 339.04 122.9 338.82 121.42C338.53 119.42 339.23 117.17 338.35 115.3C336.97 112.38 332.88 112.21 330.26 110.3C328.26 108.83 327.08 106.3 324.86 105.06C322.93 104.06 320.56 104.21 318.42 104.67C316.28 105.13 314.12 105.83 311.93 105.67C310.375 105.462 308.833 105.168 307.31 104.79C305.767 104.419 304.141 104.648 302.76 105.43C301.47 106.31 300.86 108.28 301.85 109.5C299.24 108.5 296.19 110.71 295.71 113.43C295.23 116.15 296.83 118.95 299.1 120.56C301.467 122.058 304.174 122.935 306.97 123.11C314.8 124 323.11 122.58 329.44 117.94" fill="#FF725E"/>
<path d="M335.05 129.63L333.05 168.63C332.968 170.204 332.566 171.745 331.868 173.158C331.17 174.572 330.191 175.828 328.991 176.85C327.791 177.872 326.395 178.639 324.889 179.103C323.382 179.567 321.797 179.719 320.23 179.55V179.55C314.03 178.91 309.23 177.97 309.56 171.77C309.71 168.84 310 161.94 309.99 161.64C309.99 161.64 300.06 160.16 299.83 150.29C299.72 145.52 300.31 135.67 300.93 126.78C301.268 122.167 303.336 117.853 306.72 114.7C310.105 111.548 314.555 109.79 319.18 109.78H320.18C330.49 110.34 335.84 119.37 335.05 129.63Z" fill="#FFD5BD"/>
<path d="M310 161.53C314.574 161.59 319.064 160.292 322.9 157.8C322.9 157.8 319.9 164.92 310.01 164.09L310 161.53Z" fill="#FFB294"/>
<path d="M303.26 135.3C303.26 135.669 303.404 136.023 303.662 136.287C303.92 136.55 304.271 136.702 304.64 136.71C304.82 136.725 305 136.703 305.171 136.646C305.342 136.589 305.5 136.498 305.634 136.379C305.769 136.259 305.878 136.113 305.955 135.95C306.031 135.787 306.074 135.61 306.08 135.43C306.078 135.064 305.934 134.712 305.678 134.45C305.423 134.187 305.076 134.033 304.71 134.02C304.53 134.005 304.349 134.027 304.177 134.083C304.006 134.14 303.848 134.231 303.712 134.351C303.577 134.47 303.467 134.616 303.389 134.779C303.311 134.942 303.267 135.119 303.26 135.3Z" fill="#263238"/>
<path d="M303.14 131.64C303.32 131.82 304.39 131.03 305.91 131.02C307.43 131.01 308.56 131.77 308.72 131.58C308.88 131.39 308.62 131.17 308.13 130.82C307.468 130.366 306.682 130.129 305.88 130.14C305.089 130.143 304.32 130.395 303.68 130.86C303.21 131.23 303.06 131.56 303.14 131.64Z" fill="#263238"/>
<path d="M317.66 136.05C317.665 136.419 317.812 136.772 318.072 137.034C318.331 137.297 318.681 137.45 319.05 137.46C319.229 137.474 319.409 137.451 319.58 137.393C319.75 137.336 319.907 137.245 320.041 137.125C320.176 137.006 320.285 136.861 320.362 136.698C320.439 136.536 320.482 136.36 320.49 136.18C320.49 135.811 320.346 135.457 320.088 135.193C319.83 134.93 319.479 134.778 319.11 134.77C318.93 134.755 318.749 134.777 318.577 134.833C318.406 134.89 318.248 134.981 318.112 135.101C317.977 135.22 317.867 135.366 317.789 135.529C317.711 135.692 317.667 135.869 317.66 136.05V136.05Z" fill="#263238"/>
<path d="M318.13 131.84C318.31 132.02 319.37 131.23 320.89 131.22C322.41 131.21 323.54 131.97 323.71 131.78C323.88 131.59 323.61 131.37 323.11 131.02C322.448 130.566 321.662 130.329 320.86 130.34C320.07 130.345 319.301 130.597 318.66 131.06C318.2 131.43 318 131.76 318.13 131.84Z" fill="#263238"/>
<path d="M312.71 143.12C311.903 142.879 311.071 142.735 310.23 142.69C309.84 142.69 309.47 142.58 309.41 142.32C309.369 141.921 309.452 141.519 309.65 141.17C310.01 140.23 310.38 139.24 310.77 138.17C312.33 133.96 313.45 130.5 313.28 130.44C313.11 130.38 311.71 133.74 310.15 137.95C309.78 138.95 309.42 139.95 309.08 140.95C308.841 141.419 308.777 141.958 308.9 142.47C308.958 142.607 309.045 142.728 309.156 142.827C309.267 142.926 309.398 142.998 309.54 143.04C309.756 143.093 309.978 143.12 310.2 143.12C311.033 143.232 311.877 143.232 312.71 143.12Z" fill="#263238"/>
<path d="M317.21 144.15C316.96 144.15 316.97 145.78 315.57 146.96C314.17 148.14 312.4 147.96 312.39 148.2C312.38 148.44 312.79 148.51 313.53 148.53C314.499 148.538 315.441 148.205 316.19 147.59C316.901 146.997 317.353 146.151 317.45 145.23C317.51 144.55 317.32 144.14 317.21 144.15Z" fill="#263238"/>
<path d="M317.67 125.9C317.83 126.31 319.35 126.1 321.14 126.31C322.93 126.52 324.38 126.99 324.61 126.62C324.72 126.44 324.46 126.06 323.87 125.62C323.094 125.122 322.209 124.82 321.29 124.74C320.377 124.634 319.451 124.747 318.59 125.07C317.93 125.38 317.61 125.7 317.67 125.9Z" fill="#FF725E"/>
<path d="M303.66 127.25C303.93 127.59 304.98 127.25 306.24 127.25C307.5 127.25 308.57 127.47 308.82 127.11C308.92 126.93 308.75 126.59 308.28 126.27C307.65 125.879 306.918 125.684 306.177 125.711C305.436 125.737 304.72 125.984 304.12 126.42C303.68 126.72 303.54 127.08 303.66 127.25Z" fill="#FF725E"/>
<path d="M334.32 136.94C334.49 136.87 341.11 134.94 340.97 141.65C340.83 148.36 334.04 146.83 334.03 146.65C334.02 146.47 334.32 136.94 334.32 136.94Z" fill="#FFD5BD"/>
<path d="M336.16 144.13C336.16 144.13 336.28 144.22 336.47 144.31C336.749 144.442 337.068 144.46 337.36 144.36C337.803 144.094 338.167 143.715 338.415 143.261C338.663 142.808 338.785 142.297 338.77 141.78C338.798 141.201 338.696 140.624 338.47 140.09C338.412 139.876 338.302 139.679 338.151 139.517C337.999 139.355 337.81 139.232 337.6 139.16C337.465 139.122 337.322 139.132 337.194 139.189C337.066 139.245 336.962 139.345 336.9 139.47C336.8 139.65 336.84 139.79 336.81 139.8C336.78 139.81 336.66 139.68 336.72 139.4C336.769 139.241 336.867 139.101 337 139C337.191 138.864 337.428 138.806 337.66 138.84C337.937 138.902 338.193 139.034 338.405 139.223C338.617 139.412 338.777 139.652 338.87 139.92C339.145 140.51 339.272 141.159 339.24 141.81C339.259 142.413 339.099 143.008 338.78 143.521C338.462 144.033 337.999 144.44 337.45 144.69C337.266 144.735 337.073 144.74 336.887 144.704C336.7 144.668 336.524 144.591 336.37 144.48C336.17 144.3 336.14 144.14 336.16 144.13Z" fill="#FFB294"/>
<path d="M300.75 117.61C301.42 120.25 307.04 122.3 311.54 121.84C315.68 121.42 317.54 119.22 320.48 117.55C322.32 116.49 322.32 116.49 324.94 116.72C327.07 116.91 328.34 119.29 329.66 120.97C327.79 125.97 329.14 131.59 330.5 136.79C330.586 137.381 330.868 137.927 331.3 138.34C332.11 138.95 333.3 138.47 334 137.73C335.013 136.466 335.635 134.933 335.79 133.32C336.461 129.694 336.399 125.971 335.61 122.37C334.806 118.75 332.96 115.444 330.3 112.86C326.834 109.731 322.298 108.055 317.63 108.18C312.994 108.348 308.527 109.968 304.86 112.81C303.114 114.045 301.701 115.694 300.75 117.61" fill="#FF725E"/>
<path d="M311.12 136C311.06 136 311.19 135.43 311.12 134.43C310.994 133.005 310.4 131.662 309.43 130.61C308.726 129.834 307.84 129.245 306.852 128.896C305.864 128.547 304.805 128.449 303.77 128.61C302.517 128.813 301.356 129.396 300.444 130.279C299.532 131.162 298.913 132.304 298.67 133.55C298.44 134.801 298.597 136.093 299.12 137.253C299.644 138.413 300.509 139.385 301.6 140.04C302.498 140.582 303.516 140.893 304.563 140.943C305.611 140.994 306.654 140.783 307.6 140.33C308.897 139.722 309.953 138.697 310.6 137.42C311.05 136.51 311.13 135.94 311.19 135.95C311.198 136.092 311.181 136.234 311.14 136.37C311.073 136.76 310.955 137.14 310.79 137.5C310.195 138.877 309.133 140 307.79 140.67C306.673 141.232 305.421 141.47 304.175 141.358C302.93 141.247 301.741 140.789 300.741 140.037C299.742 139.286 298.973 138.269 298.52 137.104C298.068 135.938 297.95 134.669 298.18 133.44C298.444 132.09 299.12 130.854 300.113 129.902C301.106 128.949 302.37 128.327 303.73 128.12C304.833 127.959 305.959 128.074 307.007 128.457C308.054 128.839 308.99 129.476 309.73 130.31C310.708 131.42 311.276 132.832 311.34 134.31C311.356 134.709 311.326 135.108 311.25 135.5C311.18 135.87 311.14 136 311.12 136Z" fill="#263238"/>
<path d="M327.23 136.3C327.17 136.3 327.3 135.73 327.23 134.73C327.105 133.308 326.511 131.967 325.54 130.92C324.836 130.144 323.95 129.555 322.962 129.206C321.974 128.857 320.915 128.759 319.88 128.92C318.669 129.111 317.544 129.661 316.65 130.5C315.949 131.157 315.41 131.967 315.075 132.868C314.741 133.768 314.62 134.734 314.723 135.689C314.826 136.645 315.149 137.563 315.667 138.372C316.186 139.18 316.885 139.858 317.71 140.35C318.608 140.891 319.626 141.2 320.673 141.251C321.721 141.301 322.764 141.091 323.71 140.64C325.006 140.03 326.061 139.007 326.71 137.73C327.16 136.82 327.24 136.25 327.3 136.26C327.322 136.399 327.322 136.541 327.3 136.68C327.225 137.07 327.104 137.449 326.94 137.81C326.345 139.187 325.283 140.31 323.94 140.98C322.824 141.541 321.573 141.779 320.329 141.668C319.084 141.556 317.896 141.099 316.897 140.349C315.898 139.599 315.129 138.584 314.675 137.42C314.222 136.256 314.102 134.988 314.33 133.76C314.591 132.407 315.265 131.168 316.259 130.214C317.253 129.26 318.518 128.636 319.88 128.43C320.983 128.269 322.109 128.384 323.157 128.767C324.204 129.149 325.14 129.786 325.88 130.62C326.869 131.743 327.438 133.174 327.49 134.67C327.506 135.069 327.476 135.468 327.4 135.86C327.29 136.17 327.25 136.31 327.23 136.3Z" fill="#263238"/>
<path d="M314.34 134C314.25 134.12 313.49 133.57 312.46 133.68C311.43 133.79 310.8 134.47 310.68 134.37C310.56 134.27 310.68 134.09 310.99 133.8C311.372 133.428 311.87 133.199 312.4 133.15C312.933 133.089 313.471 133.216 313.92 133.51C314.26 133.77 314.39 134 314.34 134Z" fill="#263238"/>
<path d="M336.38 136.33C334.785 136.275 333.202 136.04 331.66 135.63C330.084 135.386 328.538 134.974 327.05 134.4C328.645 134.455 330.228 134.69 331.77 135.1C333.347 135.342 334.892 135.755 336.38 136.33V136.33Z" fill="#263238"/>
<path d="M298.87 110.78C298.836 110.992 298.836 111.208 298.87 111.42C298.953 112.011 299.202 112.566 299.59 113.02C300.161 113.698 300.919 114.192 301.77 114.44C302.804 114.721 303.869 114.869 304.94 114.88C306.869 114.979 308.801 114.979 310.73 114.88L312.48 114.74L312.95 114.68H313.12C313.12 114.68 313.06 114.68 312.95 114.68H312.47L310.72 114.77C309.25 114.84 307.2 114.87 304.94 114.77C303.883 114.761 302.832 114.62 301.81 114.35C300.984 114.117 300.243 113.648 299.68 113C299.293 112.565 299.034 112.032 298.93 111.46C298.85 111 298.89 110.78 298.87 110.78Z" fill="white"/>
<path d="M297.13 112C297.105 112.641 297.179 113.282 297.35 113.9C297.739 115.419 298.574 116.786 299.746 117.827C300.919 118.868 302.376 119.534 303.93 119.74C304.563 119.842 305.207 119.842 305.84 119.74C305.84 119.74 305.66 119.74 305.33 119.74C304.865 119.739 304.4 119.702 303.94 119.63C302.421 119.394 301.001 118.725 299.852 117.704C298.703 116.682 297.872 115.351 297.46 113.87C297.33 113.426 297.239 112.97 297.19 112.51C297.15 112.16 297.14 112 297.13 112Z" fill="white"/>
<path d="M328.9 424.87L340.22 443.09C340.22 443.09 325.5 460.72 327.22 464.29L363.34 443.61L346.87 414.49L328.9 424.87Z" fill="#558EB4"/>
<path d="M350.49 435.13C350.9 435.035 351.331 435.094 351.7 435.297C352.069 435.5 352.351 435.832 352.49 436.23C352.603 436.638 352.554 437.075 352.353 437.447C352.151 437.82 351.814 438.101 351.41 438.23C350.977 438.325 350.525 438.257 350.14 438.039C349.754 437.821 349.462 437.469 349.32 437.05C349.249 436.617 349.35 436.174 349.6 435.814C349.85 435.454 350.23 435.205 350.66 435.12" fill="#E0E0E0"/>
<path d="M363.38 443.61L361.61 440.74L327.61 461.64C327.61 461.64 326.4 463.26 327.23 464.29L363.38 443.61Z" fill="white"/>
<path d="M339.53 443.24C339.63 443.42 340.53 442.99 341.76 443.06C342.99 443.13 343.83 443.61 343.96 443.45C344.09 443.29 343.23 442.45 341.79 442.36C340.35 442.27 339.4 443.1 339.53 443.24Z" fill="#263238"/>
<path d="M336.64 447C336.69 447.19 337.64 447.06 338.64 447.46C339.64 447.86 340.29 448.55 340.46 448.46C340.63 448.37 340.17 447.29 338.88 446.81C337.59 446.33 336.54 446.81 336.64 447Z" fill="#263238"/>
<path d="M337.08 452.75C337.26 452.69 337 451.67 336 450.96C335 450.25 333.95 450.35 334 450.54C334.05 450.73 334.81 450.95 335.63 451.54C336.45 452.13 336.9 452.83 337.08 452.75Z" fill="#263238"/>
<path d="M337.41 438.81C337.57 438.92 338.24 438.22 339.28 437.71C340.32 437.2 341.28 437.08 341.28 436.88C341.28 436.68 340.18 436.47 338.96 437.08C337.74 437.69 337.24 438.72 337.41 438.81Z" fill="#263238"/>
<path d="M350.49 435.13C350.9 435.035 351.331 435.094 351.7 435.297C352.069 435.5 352.351 435.832 352.49 436.23C352.603 436.638 352.554 437.075 352.353 437.447C352.151 437.82 351.814 438.101 351.41 438.23C350.977 438.325 350.525 438.257 350.14 438.039C349.754 437.821 349.462 437.469 349.32 437.05C349.249 436.617 349.35 436.174 349.6 435.814C349.85 435.454 350.23 435.205 350.66 435.12" fill="#E0E0E0"/>
<path d="M363.38 443.61L361.61 440.74L327.61 461.64C327.61 461.64 326.4 463.26 327.23 464.29L363.38 443.61Z" fill="white"/>
<path d="M339.53 443.24C339.63 443.42 340.53 442.99 341.76 443.06C342.99 443.13 343.83 443.61 343.96 443.45C344.09 443.29 343.23 442.45 341.79 442.36C340.35 442.27 339.4 443.1 339.53 443.24Z" fill="#263238"/>
<path d="M336.64 447C336.69 447.19 337.64 447.06 338.64 447.46C339.64 447.86 340.29 448.55 340.46 448.46C340.63 448.37 340.17 447.29 338.88 446.81C337.59 446.33 336.54 446.81 336.64 447Z" fill="#263238"/>
<path d="M337.08 452.75C337.26 452.69 337 451.67 336 450.96C335 450.25 333.95 450.35 334 450.54C334.05 450.73 334.81 450.95 335.63 451.54C336.45 452.13 336.9 452.83 337.08 452.75Z" fill="#263238"/>
<path d="M337.41 438.81C337.57 438.92 338.24 438.22 339.28 437.71C340.32 437.2 341.28 437.08 341.28 436.88C341.28 436.68 340.18 436.47 338.96 437.08C337.74 437.69 337.24 438.72 337.41 438.81Z" fill="#263238"/>
<path d="M327.13 430.65L328.35 452.07C328.35 452.07 306.99 460.51 306.83 464.49L348.44 463.61L347.91 430.16L327.13 430.65Z" fill="#558EB4"/>
<path d="M341.18 450C341.583 450.113 341.93 450.37 342.155 450.722C342.38 451.074 342.467 451.497 342.4 451.91C342.302 452.317 342.051 452.671 341.699 452.898C341.347 453.125 340.921 453.208 340.51 453.13C340.089 453.011 339.726 452.741 339.491 452.373C339.255 452.004 339.162 451.562 339.23 451.13C339.378 450.716 339.68 450.376 340.074 450.18C340.467 449.984 340.921 449.948 341.34 450.08" fill="#E0E0E0"/>
<path d="M348.44 463.61L348.26 460.24L308.43 462.34C308.43 462.34 306.59 463.19 306.83 464.49L348.44 463.61Z" fill="white"/>
<path d="M327.67 451.87C327.67 452.08 328.67 452.15 329.67 452.78C330.67 453.41 331.24 454.26 331.42 454.17C331.6 454.08 331.28 452.92 330.04 452.17C328.8 451.42 327.62 451.69 327.67 451.87Z" fill="#263238"/>
<path d="M323.34 453.77C323.34 453.97 324.19 454.3 324.9 455.14C325.61 455.98 325.82 456.89 326.03 456.88C326.24 456.87 326.33 455.71 325.43 454.68C324.53 453.65 323.35 453.58 323.34 453.77Z" fill="#263238"/>
<path d="M321 459.05C321.18 459.05 321.44 458.05 320.9 456.96C320.36 455.87 319.39 455.44 319.31 455.61C319.23 455.78 319.83 456.36 320.26 457.28C320.69 458.2 320.77 459 321 459.05Z" fill="#263238"/>
<path d="M327.94 447C328.02 447.19 328.94 446.89 330.1 446.94C331.26 446.99 332.1 447.34 332.26 447.16C332.42 446.98 331.48 446.28 330.13 446.23C328.78 446.18 327.83 446.8 327.94 447Z" fill="#263238"/>
<path d="M341.18 450C341.583 450.113 341.93 450.37 342.155 450.722C342.38 451.074 342.467 451.497 342.4 451.91C342.302 452.317 342.051 452.671 341.699 452.898C341.347 453.125 340.921 453.208 340.51 453.13C340.089 453.011 339.726 452.741 339.491 452.373C339.255 452.004 339.162 451.562 339.23 451.13C339.378 450.716 339.68 450.376 340.074 450.18C340.467 449.984 340.921 449.948 341.34 450.08" fill="#E0E0E0"/>
<path d="M348.44 463.61L348.26 460.24L308.43 462.34C308.43 462.34 306.59 463.19 306.83 464.49L348.44 463.61Z" fill="white"/>
<path d="M327.67 451.87C327.67 452.08 328.67 452.15 329.67 452.78C330.67 453.41 331.24 454.26 331.42 454.17C331.6 454.08 331.28 452.92 330.04 452.17C328.8 451.42 327.62 451.69 327.67 451.87Z" fill="#263238"/>
<path d="M323.34 453.77C323.34 453.97 324.19 454.3 324.9 455.14C325.61 455.98 325.82 456.89 326.03 456.88C326.24 456.87 326.33 455.71 325.43 454.68C324.53 453.65 323.35 453.58 323.34 453.77Z" fill="#263238"/>
<path d="M321 459.05C321.18 459.05 321.44 458.05 320.9 456.96C320.36 455.87 319.39 455.44 319.31 455.61C319.23 455.78 319.83 456.36 320.26 457.28C320.69 458.2 320.77 459 321 459.05Z" fill="#263238"/>
<path d="M327.94 447C328.02 447.19 328.94 446.89 330.1 446.94C331.26 446.99 332.1 447.34 332.26 447.16C332.42 446.98 331.48 446.28 330.13 446.23C328.78 446.18 327.83 446.8 327.94 447Z" fill="#263238"/>
<path d="M344.77 293.21C344.77 293.21 347.35 304.97 346.21 306.69C344.988 309.002 343.932 311.398 343.05 313.86L344.78 366.91L349.93 444.91H325.15L314.52 376.12C312.355 372.411 310.624 368.465 309.36 364.36C307.92 358.92 299.46 304.71 299.46 304.71V283.81L344.77 293.21Z" fill="#263238"/>
<path d="M288.24 285.23C288.24 285.23 293.41 356.31 295.13 362.62C296.85 368.93 332.13 433.45 332.13 433.45L353.34 423L325.15 354.88V289.15L288.24 285.23Z" fill="#263238"/>
<path d="M296.72 291.35C296.711 291.483 296.711 291.617 296.72 291.75C296.72 292.04 296.82 292.43 296.88 292.93C297.04 293.99 297.27 295.5 297.57 297.44C298.18 301.38 299.07 307.03 300.16 314.01C301.25 320.99 302.61 329.34 304.08 338.58C304.83 343.21 305.58 348.06 306.44 353.09C307.263 358.302 308.555 363.43 310.3 368.41C312.17 373.5 314.83 378.14 315.73 383.16C316.8 388.16 317.54 392.99 318.27 397.61C319.67 406.87 320.8 415.23 321.76 422.24C322.72 429.25 323.49 434.94 324.08 438.86C324.38 440.86 324.61 442.34 324.8 443.36C324.9 443.86 324.97 444.24 325.02 444.53C325.036 444.663 325.066 444.794 325.11 444.92C325.125 444.787 325.125 444.653 325.11 444.52C325.11 444.23 325.02 443.84 324.94 443.35C324.8 442.29 324.59 440.77 324.32 438.83C323.81 434.83 323.07 429.2 322.16 422.2C321.25 415.2 320.16 406.81 318.78 397.54C318.06 392.91 317.33 388.05 316.26 383.05C315.35 377.95 312.67 373.27 310.82 368.23C309.098 363.277 307.82 358.18 307 353C306.13 348 305.37 343.13 304.61 338.51C303.09 329.27 301.73 320.95 300.61 313.95C299.49 306.95 298.51 301.34 297.85 297.41L297.08 292.91C296.99 292.42 296.92 292.03 296.86 291.74C296.826 291.606 296.78 291.475 296.72 291.35V291.35Z" fill="#455A64"/>
<path d="M347.16 403C347.119 403.549 347.119 404.101 347.16 404.65C347.16 405.7 347.26 407.23 347.37 409.11C347.58 412.88 347.96 418.11 348.37 423.83C348.78 429.55 349.19 434.77 349.43 438.53C349.55 440.35 349.65 441.85 349.72 442.99C349.737 443.537 349.794 444.081 349.89 444.62C349.942 444.075 349.942 443.525 349.89 442.98C349.89 441.93 349.84 440.4 349.76 438.51C349.61 434.74 349.29 429.51 348.86 423.79C348.43 418.07 347.99 412.93 347.69 409.09C347.53 407.27 347.4 405.77 347.31 404.63C347.308 404.083 347.258 403.538 347.16 403V403Z" fill="#455A64"/>
<path d="M309.59 169.37L306.65 171.37C306.65 171.37 295 197.38 293 205.86C291 214.34 282.68 302.86 282.68 302.86L289.59 303.41V289.53L309.59 169.37Z" fill="#455A64"/>
<path d="M309.39 171C309.39 171 299.93 190.95 297.64 202.05C295.87 210.61 286.25 289.55 286.25 289.55L314 288.21L330.59 190.76L334.16 165.31C334.16 165.31 317.79 175.31 314.03 174.7C312.989 174.577 312.003 174.165 311.183 173.511C310.363 172.857 309.742 171.988 309.39 171V171Z" fill="#558EB4"/>
<path d="M353.9 179.15L336.23 165.31L335.56 161.11L313.83 174.26L303.33 301.93H348.49L343.3 249.67L352.88 193.55L353.9 179.15Z" fill="#455A64"/>
<path d="M313.89 174.05C313.955 174.467 314.062 174.875 314.21 175.27L315.26 178.53C315.373 178.883 315.493 179.243 315.62 179.61C315.706 180.058 315.925 180.47 316.25 180.79C316.489 180.911 316.76 180.954 317.024 180.91C317.289 180.867 317.532 180.741 317.72 180.55C318.08 180.26 318.44 179.97 318.82 179.68L323.69 175.79C327.13 173.02 330.2 170.45 332.37 168.53C333.46 167.53 334.32 166.78 334.91 166.22C335.235 165.949 335.53 165.644 335.79 165.31C335.429 165.525 335.094 165.78 334.79 166.07L332.15 168.25C329.92 170.1 326.82 172.62 323.38 175.39L318.53 179.31C317.8 179.83 317.05 180.77 316.53 180.44C316.28 180.28 316.17 179.85 316.03 179.44L315.64 178.37L314.44 175.16C314.299 174.77 314.115 174.398 313.89 174.05V174.05Z" fill="#263238"/>
<path d="M297.62 192.41C297.615 192.506 297.594 192.6 297.56 192.69L297.36 193.5C297.18 194.2 296.85 195.22 296.53 196.57C296.21 197.92 295.84 199.57 295.47 201.49C295.1 203.41 294.65 205.61 294.28 208.05C292.62 217.81 290.84 231.36 289.16 246.36C287.48 261.36 286.11 274.96 285.16 284.81C284.66 289.7 284.26 293.68 283.98 296.47C283.83 297.81 283.72 298.87 283.64 299.63C283.59 299.97 283.56 300.24 283.53 300.46C283.527 300.555 283.51 300.649 283.48 300.74C283.467 300.644 283.467 300.546 283.48 300.45L283.53 299.63C283.59 298.86 283.67 297.8 283.78 296.45C284.02 293.65 284.37 289.67 284.78 284.77C285.68 274.92 286.96 261.31 288.66 246.3C290.36 231.29 292.19 217.74 293.94 207.99C294.34 205.55 294.83 203.36 295.21 201.43C295.59 199.5 296.05 197.87 296.36 196.52C296.67 195.17 297.07 194.16 297.28 193.46C297.38 193.14 297.47 192.88 297.53 192.68C297.553 192.588 297.583 192.497 297.62 192.41Z" fill="#263238"/>
<path d="M438.79 201.1H172.48V310.56H438.79V201.1Z" fill="#FAFAFA"/>
<path d="M442.61 300.14C442.5 298.72 439.31 258.41 433.99 191.02L434.19 191.19L168.69 211.79L168.93 211.51C171.93 249.74 174.73 286.64 177.36 320.65L177.09 320.42L367.55 305.81L442.63 300.14C442.63 300.14 442.21 300.19 441.36 300.26L437.57 300.56L422.87 301.73L367.74 306.06L177.11 320.91H176.86V320.67C174.23 286.67 171.37 249.76 168.41 211.53V211.27H168.67L434.18 190.82H434.36V191C439.45 258.4 442.5 298.72 442.61 300.14Z" fill="#263238"/>
<path d="M205.19 257.35C213.839 257.35 220.85 250.339 220.85 241.69C220.85 233.041 213.839 226.03 205.19 226.03C196.541 226.03 189.53 233.041 189.53 241.69C189.53 250.339 196.541 257.35 205.19 257.35Z" fill="#EBEBEB"/>
<path d="M316.75 227.38C316.75 227.52 297.93 229.1 274.69 230.89C251.45 232.68 232.59 234.03 232.58 233.89C232.57 233.75 251.4 232.18 274.65 230.38C297.9 228.58 316.74 227.24 316.75 227.38Z" fill="#558EB4"/>
<path d="M296.84 240.66C296.84 240.8 282.48 242.03 264.73 243.4C246.98 244.77 232.58 245.77 232.57 245.62C232.56 245.47 246.94 244.25 264.69 242.88C282.44 241.51 296.83 240.51 296.84 240.66Z" fill="#E0E0E0"/>
<path d="M407.29 256.44C407.29 256.58 362.75 260.14 307.8 264.39C252.85 268.64 208.27 271.96 208.26 271.82C208.25 271.68 252.79 268.12 307.76 263.87C362.73 259.62 407.28 256.29 407.29 256.44Z" fill="#263238"/>
<path d="M408.33 269.88C408.33 270.02 363.79 273.58 308.84 277.83C253.89 282.08 209.31 285.4 209.3 285.26C209.29 285.12 253.83 281.56 308.8 277.31C363.77 273.06 408.32 269.73 408.33 269.88Z" fill="#263238"/>
<path d="M330 187.22C330.268 184.984 331.08 182.847 332.365 180.997C333.65 179.148 335.37 177.642 337.372 176.611C339.375 175.581 341.6 175.057 343.852 175.087C346.104 175.116 348.315 175.698 350.29 176.78C354.51 179.03 358.43 183.05 360.89 189.4C367.25 205.86 380.05 231.32 377.63 236.76C375.21 242.2 362.46 246.76 362.46 246.76L350.6 226.56L346.67 227.17L328.61 196.35C328.61 196.35 329.37 192.63 330 187.22Z" fill="#455A64"/>
<path d="M357 219.71C356.478 219.437 355.883 219.335 355.3 219.42C354.585 219.451 353.883 219.626 353.236 219.934C352.59 220.242 352.012 220.676 351.536 221.211C351.06 221.747 350.697 222.372 350.468 223.05C350.238 223.728 350.147 224.446 350.2 225.16C350.186 225.749 350.353 226.329 350.68 226.82C350.77 226.82 350.54 226.17 350.56 225.15C350.584 223.832 351.064 222.563 351.92 221.56C352.811 220.585 354.02 219.958 355.33 219.79C356.36 219.65 357 219.8 357 219.71Z" fill="#263238"/>
<path d="M331.2 188.14C331.3 188.14 331.52 186.55 332.52 184.14C333.112 182.758 333.878 181.458 334.8 180.27C335.916 178.816 337.322 177.61 338.93 176.73C340.571 175.916 342.378 175.488 344.21 175.48C345.709 175.427 347.207 175.627 348.64 176.07C349.96 176.503 351.203 177.144 352.32 177.97C352.32 177.97 352.27 177.88 352.13 177.75C351.939 177.54 351.728 177.349 351.5 177.18C350.675 176.545 349.749 176.055 348.76 175.73C347.295 175.219 345.751 174.972 344.2 175C342.29 174.989 340.403 175.424 338.69 176.27C337.017 177.186 335.561 178.451 334.42 179.98C333.494 181.203 332.743 182.549 332.19 183.98C331.81 184.951 331.522 185.955 331.33 186.98C331.228 187.358 331.184 187.749 331.2 188.14Z" fill="#263238"/>
<path d="M350.6 226.56L312.49 226.82L310.72 239C310.72 239 340.37 246 360.91 244.23L350.6 226.56Z" fill="#FFD5BD"/>
<path d="M298.2 214.08C298.2 214.08 305.47 214.72 306.54 214.93C307.61 215.14 311.98 218.57 311.98 218.57L314.04 228.38L310.72 239C308.449 238.625 306.248 237.911 304.19 236.88C301.19 235.28 296.71 228.44 296.71 228.44C296.71 228.44 293.83 228.55 293.61 228.12C293.39 227.69 292.61 225.67 293.61 225.12C293.61 225.12 292.86 222.34 293.93 221.6L295.32 221.38C295.32 221.38 294.04 217.86 296.5 217.86C296.5 217.82 295.32 214.51 298.2 214.08Z" fill="#FFD5BD"/>
<path d="M296.67 217.55C296.67 217.7 298.67 217.55 301.16 217.75C303.65 217.95 305.6 218.32 305.63 218.17C304.224 217.576 302.716 217.26 301.19 217.24C299.678 217.046 298.142 217.152 296.67 217.55V217.55Z" fill="#FFB294"/>
<path d="M294.79 221.33C294.79 221.41 295.23 221.39 295.93 221.42L298.65 221.58C299.945 221.719 301.253 221.689 302.54 221.49C301.277 221.181 299.98 221.037 298.68 221.06C297.761 221.004 296.839 221.004 295.92 221.06C295.2 221.12 294.78 221.27 294.79 221.33Z" fill="#FFB294"/>
<path d="M300.3 224.42C299.247 223.951 298.089 223.768 296.942 223.889C295.796 224.01 294.702 224.431 293.77 225.11C293.84 225.25 295.19 224.58 297 224.4C298.81 224.22 300.26 224.57 300.3 224.42Z" fill="#FFB294"/>
<path d="M267.53 202.09C266.839 201.039 266.008 200.087 265.06 199.26C264.66 199.011 264.201 198.873 263.729 198.861C263.258 198.849 262.793 198.962 262.38 199.19L261.81 199.65C261.81 199.65 259.02 198.26 257.62 199.19C257.62 199.19 254.97 197.8 253.62 199.19C253.62 199.19 251.62 197.76 250.62 198.9C250.219 199.512 249.963 200.208 249.872 200.934C249.78 201.66 249.854 202.397 250.09 203.09C250.47 204.09 251.09 207.68 251.75 207.76C251.75 207.76 253.4 208.01 253.66 207.12C253.92 206.23 254.03 205.8 254.03 205.8C254.03 205.8 254.53 209 255.29 209.19C256.05 209.38 257.51 209.35 257.62 207.96C257.62 207.96 258.28 209.04 258.99 208.76C259.7 208.48 260.57 208.01 260.53 207.15C260.49 206.29 260.53 205.42 260.53 205.42C260.53 205.42 260.86 206.69 261.53 206.42C262.2 206.15 262.79 206.26 263.19 205.21C263.59 204.16 264.57 202.09 264.57 202.09H267.53Z" fill="#FFD5BD"/>
<path d="M260.6 205.37C260.6 205.37 260.49 205.02 260.37 204.46C260.203 203.736 260.203 202.984 260.37 202.26C260.536 201.532 260.86 200.849 261.32 200.26C261.67 199.8 261.95 199.57 261.93 199.54C261.91 199.51 261.58 199.69 261.17 200.13C260.65 200.695 260.282 201.384 260.1 202.13C259.923 202.894 259.951 203.69 260.18 204.44C260.241 204.78 260.386 205.099 260.6 205.37V205.37Z" fill="#FFB294"/>
<path d="M257.44 199.2C257.244 199.591 257.106 200.009 257.03 200.44C256.79 201.465 256.683 202.517 256.71 203.57C256.741 204.623 256.902 205.667 257.19 206.68C257.295 207.103 257.456 207.51 257.67 207.89C257.305 206.472 257.077 205.022 256.99 203.56C256.998 202.095 257.148 200.635 257.44 199.2V199.2Z" fill="#FFB294"/>
<path d="M253.55 199.25C253.304 200.352 253.243 201.488 253.37 202.61C253.416 203.735 253.643 204.846 254.04 205.9C254.12 205.9 253.78 204.42 253.65 202.59C253.52 200.76 253.63 199.26 253.55 199.25Z" fill="#FFB294"/>
<path d="M193.71 228.86C192.405 227.435 191.265 225.869 190.31 224.19C189.356 222.493 189.003 220.523 189.31 218.6C189.52 217.5 190.03 216.45 190.13 215.33C190.28 213.78 189.68 212.14 190.27 210.71C191.2 208.46 194.27 208.2 196.16 206.71C197.64 205.53 198.4 203.57 200.01 202.59C201.506 201.855 203.215 201.677 204.83 202.09C206.43 202.502 208.078 202.693 209.73 202.66C210.89 202.446 212.038 202.172 213.17 201.84C214.312 201.515 215.534 201.637 216.59 202.18C217.092 202.473 217.46 202.95 217.617 203.51C217.774 204.07 217.707 204.669 217.43 205.18C219.35 204.36 221.71 205.91 222.17 207.95C222.331 208.986 222.202 210.046 221.798 211.013C221.394 211.98 220.73 212.817 219.88 213.43C218.159 214.628 216.165 215.374 214.08 215.6C208.24 216.52 201.96 215.72 197.08 212.43" fill="#FF725E"/>
<path d="M220.36 235.83C220.27 232.23 219.48 224.83 218.69 218.16C218.266 214.711 216.562 211.546 213.916 209.294C211.269 207.042 207.873 205.866 204.4 206H203.68C195.96 206.74 192.28 213.71 193.23 221.41L195.81 247.65C196.55 255.65 201.54 256.33 206.15 256.05C210.76 255.77 213.85 251.95 213.39 247.3C213.17 245.09 213.16 244.95 213.15 244.72C213.15 244.7 220.54 243.27 220.36 235.83Z" fill="#FFD5BD"/>
<path d="M213.16 244.6C209.728 244.788 206.317 243.953 203.36 242.2C203.36 242.2 205.85 247.47 213.25 246.52L213.16 244.6Z" fill="#FFB294"/>
<path d="M216 224.21C216.014 224.49 215.916 224.763 215.729 224.971C215.541 225.179 215.279 225.304 215 225.32C214.865 225.338 214.727 225.328 214.596 225.291C214.464 225.254 214.342 225.19 214.236 225.104C214.13 225.018 214.043 224.911 213.98 224.79C213.917 224.669 213.88 224.536 213.87 224.4C213.859 224.121 213.957 223.849 214.144 223.642C214.331 223.434 214.591 223.308 214.87 223.29C215.005 223.272 215.143 223.282 215.274 223.319C215.406 223.356 215.528 223.419 215.634 223.506C215.74 223.592 215.827 223.699 215.89 223.82C215.953 223.941 215.99 224.074 216 224.21Z" fill="#263238"/>
<path d="M217.23 221.87C217.1 222.02 216.23 221.45 215.13 221.5C214.03 221.55 213.13 222.15 213.04 222.01C212.95 221.87 213.1 221.7 213.46 221.42C213.939 221.058 214.52 220.855 215.12 220.84C215.716 220.807 216.307 220.972 216.8 221.31C217.16 221.56 217.29 221.81 217.23 221.87Z" fill="#263238"/>
<path d="M205.18 224.93C205.191 225.209 205.093 225.481 204.906 225.688C204.719 225.896 204.459 226.022 204.18 226.04C204.045 226.058 203.907 226.048 203.776 226.011C203.644 225.974 203.522 225.91 203.416 225.824C203.31 225.738 203.223 225.631 203.16 225.51C203.097 225.389 203.06 225.256 203.05 225.12C203.036 224.84 203.134 224.567 203.321 224.359C203.509 224.151 203.771 224.025 204.05 224.01C204.185 223.992 204.323 224.002 204.454 224.039C204.586 224.076 204.708 224.139 204.814 224.226C204.92 224.312 205.007 224.419 205.07 224.54C205.133 224.661 205.17 224.794 205.18 224.93Z" fill="#263238"/>
<path d="M206 222.51C205.87 222.65 205.05 222.09 203.9 222.13C202.75 222.17 201.9 222.78 201.82 222.65C201.74 222.52 201.88 222.33 202.23 222.05C202.713 221.688 203.297 221.485 203.9 221.47C204.492 221.449 205.076 221.613 205.57 221.94C205.93 222.2 206.06 222.44 206 222.51Z" fill="#263238"/>
<path d="M210.47 230.83C211.062 230.61 211.681 230.472 212.31 230.42C212.6 230.42 212.87 230.31 212.92 230.11C212.929 229.81 212.849 229.514 212.69 229.26L211.74 227.07C210.871 225.217 210.152 223.298 209.59 221.33C210.605 223.108 211.477 224.964 212.2 226.88L213.11 229.08C213.307 229.425 213.374 229.829 213.3 230.22C213.263 230.325 213.202 230.42 213.122 230.498C213.043 230.576 212.946 230.635 212.84 230.67C212.68 230.716 212.516 230.746 212.35 230.76C211.728 230.857 211.097 230.881 210.47 230.83Z" fill="#263238"/>
<path d="M207.13 231.74C207.32 231.74 207.37 232.97 208.46 233.81C209.55 234.65 210.87 234.46 210.89 234.64C210.91 234.82 210.6 234.89 210.04 234.92C209.321 234.955 208.613 234.735 208.04 234.3C207.493 233.877 207.134 233.255 207.04 232.57C206.92 232.05 207.05 231.74 207.13 231.74Z" fill="#263238"/>
<path d="M206.13 218C206.03 218.31 204.88 218.21 203.55 218.42C202.22 218.63 201.14 219.04 200.95 218.77C200.76 218.5 201.05 218.34 201.47 218.02C202.039 217.629 202.689 217.373 203.372 217.271C204.055 217.169 204.752 217.223 205.41 217.43C205.91 217.63 206.17 217.87 206.13 218Z" fill="#FF725E"/>
<path d="M216.68 218.58C216.49 218.85 215.68 218.58 214.75 218.58C213.82 218.58 213.01 218.82 212.81 218.58C212.61 218.34 212.81 218.18 213.18 217.93C213.638 217.611 214.182 217.44 214.74 217.44C215.296 217.429 215.842 217.593 216.3 217.91C216.65 218.19 216.77 218.45 216.68 218.58Z" fill="#FF725E"/>
<path d="M194.05 226.87C193.92 226.82 188.88 225.55 189.23 230.63C189.58 235.71 194.61 234.31 194.61 234.16C194.61 234.01 194.05 226.87 194.05 226.87Z" fill="#FFD5BD"/>
<path d="M192.92 232.34C192.92 232.34 192.84 232.41 192.69 232.49C192.487 232.596 192.249 232.618 192.03 232.55C191.688 232.366 191.402 232.093 191.202 231.761C191.001 231.428 190.894 231.048 190.89 230.66C190.843 230.223 190.898 229.782 191.05 229.37C191.085 229.209 191.158 229.059 191.265 228.934C191.371 228.808 191.507 228.711 191.66 228.65C191.759 228.615 191.868 228.616 191.966 228.652C192.065 228.689 192.148 228.759 192.2 228.85C192.28 228.99 192.25 229.09 192.28 229.1C192.31 229.11 192.39 229.01 192.33 228.8C192.29 228.679 192.213 228.574 192.11 228.5C191.962 228.404 191.783 228.368 191.61 228.4C191.405 228.457 191.218 228.564 191.066 228.713C190.914 228.862 190.801 229.046 190.74 229.25C190.556 229.706 190.484 230.2 190.53 230.69C190.539 231.142 190.68 231.582 190.936 231.955C191.192 232.328 191.551 232.618 191.97 232.79C192.109 232.822 192.253 232.821 192.392 232.788C192.531 232.755 192.66 232.691 192.77 232.6C192.92 232.47 192.94 232.35 192.92 232.34Z" fill="#FFB294"/>
<path d="M218.52 211.24C218.11 213.24 213.97 214.97 210.58 214.77C207.46 214.59 205.96 212.99 203.72 211.77C202.31 211.03 202.31 211.03 200.35 211.29C198.76 211.5 197.89 213.29 196.97 214.64C198.55 218.37 197.74 222.64 196.91 226.58C196.859 227.028 196.666 227.449 196.36 227.78C196.034 227.954 195.659 228.012 195.295 227.945C194.932 227.878 194.602 227.689 194.36 227.41C193.547 226.491 193.022 225.354 192.85 224.14C192.218 221.434 192.13 218.63 192.59 215.89C193.066 213.143 194.335 210.595 196.24 208.56C198.721 206.093 202.062 204.684 205.56 204.63C209.051 204.6 212.461 205.679 215.3 207.71C216.661 208.578 217.783 209.775 218.56 211.19" fill="#FF725E"/>
<path d="M211.4 225.42C211.4 225.42 211.33 224.99 211.4 224.23C211.439 223.156 211.833 222.126 212.52 221.3C213.026 220.701 213.672 220.236 214.402 219.948C215.132 219.66 215.921 219.558 216.7 219.65C217.618 219.755 218.482 220.135 219.18 220.74C219.937 221.378 220.47 222.241 220.701 223.204C220.931 224.167 220.847 225.179 220.46 226.09C220.108 226.943 219.509 227.671 218.74 228.18C218.089 228.617 217.338 228.883 216.557 228.954C215.776 229.026 214.99 228.901 214.27 228.59C213.282 228.172 212.463 227.436 211.94 226.5C211.57 225.83 211.49 225.4 211.44 225.42C211.429 225.523 211.429 225.627 211.44 225.73C211.509 226.021 211.613 226.303 211.75 226.57C212.243 227.584 213.074 228.394 214.1 228.86C214.709 229.137 215.367 229.289 216.035 229.308C216.703 229.326 217.369 229.21 217.992 228.967C218.614 228.723 219.182 228.357 219.661 227.891C220.14 227.424 220.52 226.866 220.78 226.25C221.197 225.257 221.288 224.158 221.04 223.11C220.793 222.062 220.214 221.122 219.39 220.43C218.88 219.997 218.288 219.671 217.65 219.471C217.012 219.271 216.34 219.201 215.674 219.266C215.008 219.33 214.362 219.527 213.774 219.846C213.186 220.164 212.668 220.598 212.25 221.12C211.546 222.002 211.172 223.102 211.19 224.23C211.189 224.53 211.226 224.829 211.3 225.12C211.321 225.224 211.355 225.324 211.4 225.42V225.42Z" fill="#263238"/>
<path d="M199.34 226.16C199.34 226.16 199.26 225.73 199.29 224.97C199.33 223.898 199.728 222.87 200.42 222.05C200.923 221.45 201.568 220.985 202.296 220.697C203.024 220.409 203.813 220.307 204.59 220.4C205.507 220.501 206.371 220.878 207.07 221.48C207.62 221.95 208.053 222.54 208.336 223.205C208.62 223.871 208.745 224.593 208.702 225.314C208.66 226.036 208.45 226.738 208.091 227.366C207.731 227.993 207.231 228.528 206.63 228.93C205.977 229.362 205.227 229.626 204.447 229.698C203.667 229.769 202.881 229.646 202.16 229.34C201.171 228.919 200.351 228.18 199.83 227.24C199.47 226.58 199.38 226.15 199.34 226.16C199.3 226.17 199.34 226.27 199.34 226.47C199.406 226.764 199.507 227.049 199.64 227.32C200.139 228.33 200.973 229.136 202 229.6C202.609 229.877 203.267 230.029 203.935 230.048C204.603 230.066 205.269 229.95 205.892 229.707C206.514 229.463 207.082 229.097 207.561 228.631C208.04 228.164 208.42 227.606 208.68 226.99C209.105 226.001 209.199 224.901 208.948 223.855C208.698 222.808 208.116 221.87 207.29 221.18C206.78 220.747 206.188 220.421 205.55 220.221C204.912 220.021 204.24 219.951 203.574 220.016C202.908 220.08 202.262 220.277 201.674 220.596C201.086 220.914 200.568 221.348 200.15 221.87C199.446 222.748 199.071 223.845 199.09 224.97C199.094 225.27 199.131 225.568 199.2 225.86C199.29 226.06 199.32 226.16 199.34 226.16Z" fill="#263238"/>
<path d="M208.92 224C208.99 224.09 209.54 223.65 210.32 223.7C211.1 223.75 211.59 224.24 211.67 224.16C211.75 224.08 211.67 223.95 211.43 223.74C211.126 223.476 210.743 223.321 210.341 223.299C209.939 223.277 209.541 223.39 209.21 223.62C209 223.84 208.88 224 208.92 224Z" fill="#263238"/>
<path d="M192.48 226.48C193.672 226.384 194.849 226.156 195.99 225.8C197.164 225.569 198.308 225.207 199.4 224.72C198.208 224.816 197.031 225.044 195.89 225.4C194.716 225.631 193.572 225.993 192.48 226.48Z" fill="#263238"/>
<path d="M219.68 206C219.709 206.159 219.709 206.321 219.68 206.48C219.636 206.926 219.47 207.352 219.2 207.71C218.797 208.242 218.243 208.639 217.61 208.85C216.849 209.098 216.059 209.243 215.26 209.28C213.814 209.408 212.362 209.462 210.91 209.44C210.36 209.44 209.91 209.44 209.6 209.39H209.24H209.11H211C212.11 209.39 213.65 209.39 215.34 209.2C216.131 209.161 216.915 209.02 217.67 208.78C218.28 208.578 218.819 208.203 219.22 207.7C219.492 207.36 219.665 206.952 219.72 206.52C219.725 206.346 219.711 206.171 219.68 206V206Z" fill="white"/>
<path d="M221 206.88C221.042 207.359 221.008 207.842 220.9 208.31C220.666 209.463 220.091 210.519 219.249 211.341C218.407 212.163 217.338 212.713 216.18 212.92C215.71 213.017 215.227 213.041 214.75 212.99C214.877 212.981 215.003 212.981 215.13 212.99C215.466 212.973 215.801 212.929 216.13 212.86C217.259 212.63 218.298 212.079 219.123 211.274C219.948 210.469 220.523 209.443 220.78 208.32C220.859 207.992 220.91 207.657 220.93 207.32C221 207 221 206.88 221 206.88Z" fill="white"/>
</svg>
