<svg width="500" height="500" viewBox="0 0 500 500" fill="none" xmlns="http://www.w3.org/2000/svg">
<path d="M80.41 95.5499C82.5124 95.0744 84.6892 95.0286 86.8097 95.4153C88.9302 95.8019 90.9508 96.613 92.75 97.7999C96.3442 100.193 99.3384 103.382 101.5 107.12C105.88 114.19 107.36 123.65 107.5 131.96C98.27 131.5 90.5 124.17 86.72 120.21C80.8 113.93 74 98.9999 80.41 95.5499Z" fill="#F5F5F5"/>
<path d="M122.28 137.67C120.443 136.109 119.051 134.09 118.247 131.817C117.442 129.544 117.254 127.099 117.7 124.73C118.189 122.373 119.14 120.137 120.5 118.151C121.859 116.165 123.6 114.468 125.62 113.16C127.47 111.93 129.74 110.95 131.87 111.6C132.845 111.964 133.705 112.581 134.362 113.388C135.02 114.195 135.45 115.162 135.61 116.19C135.889 118.259 135.624 120.365 134.84 122.3C132.44 129 128.9 135.05 122.28 137.67Z" fill="#F5F5F5"/>
<path d="M127.64 157.78C126.609 156.259 125.734 154.637 125.03 152.94C124.189 151.114 123.571 149.194 123.19 147.22C122.635 144.842 122.237 142.43 122 140C121.61 135.519 122.324 131.011 124.08 126.87C124.628 125.64 125.298 124.467 126.08 123.37C126.68 122.62 127.08 122.24 127.08 122.28C127.08 122.32 125.88 124.02 124.63 127.13C123.1 131.213 122.499 135.586 122.87 139.93C123.091 142.328 123.444 144.711 123.93 147.07C124.266 148.997 124.802 150.884 125.53 152.7C126.92 155.79 127.78 157.72 127.64 157.78Z" fill="#E0E0E0"/>
<path d="M86.63 106.45C87.3353 107.057 87.9845 107.727 88.57 108.45C89.76 109.78 91.47 111.73 93.57 114.15C97.74 119 103.43 125.76 109.57 133.37C115.71 140.98 121 148.05 124.7 153.23C126.57 155.83 128.06 157.94 129.06 159.42C129.623 160.163 130.121 160.952 130.55 161.78C129.898 161.118 129.302 160.402 128.77 159.64L124.17 153.64C120.29 148.56 114.89 141.58 108.79 133.97L93.05 114.57L88.29 108.69C87.6781 107.989 87.123 107.239 86.63 106.45V106.45Z" fill="#E0E0E0"/>
<path d="M116 146.66C111.804 143.791 106.985 141.962 101.942 141.325C96.8992 140.689 91.7771 141.263 87 143C84.58 143.9 82 145.59 81.88 148.17C81.76 150.75 84.34 152.59 86.73 153.59C91.7446 155.571 97.2333 156.023 102.504 154.889C107.775 153.755 112.593 151.087 116.35 147.22" fill="#F5F5F5"/>
<path d="M93.47 147C93.905 146.767 94.3742 146.605 94.86 146.52C95.76 146.27 97.09 145.98 98.74 145.67C103.08 144.833 107.537 144.795 111.89 145.56C114.289 146.056 116.593 146.937 118.71 148.17C121.577 149.886 124.013 152.236 125.83 155.04C126.134 155.426 126.373 155.858 126.54 156.32C126.39 156.43 125.25 154.68 122.89 152.32C119.811 149.31 115.923 147.26 111.7 146.42C107.448 145.689 103.107 145.638 98.84 146.27C95.54 146.7 93.5 147.1 93.47 147Z" fill="#E0E0E0"/>
<path d="M129.53 349.67C159.35 335.19 170.98 301.36 174.89 269.91C175.55 264.66 177 259.25 175.24 254.27C173.48 249.29 168.19 245.27 163.16 246.7C159 247.9 156.59 252.15 153.83 255.53C150.137 260.042 145.247 263.422 139.72 265.28C136.12 266.47 131.84 266.87 128.84 264.54C124.73 261.34 125.19 255.03 126.05 249.84L130.85 220.84C131.71 215.65 132.57 210.35 131.74 205.16C130.91 199.97 128.07 194.83 123.35 192.66C118.63 190.49 112.07 192.37 110.22 197.28C109.44 199.33 109.53 201.59 109.04 203.73C108.55 205.87 107.17 208.08 105.04 208.36C102.91 208.64 101.04 206.84 99.72 205.07C95.2 198.97 92.63 191.64 90.3 184.38C87.97 177.12 85.77 169.72 81.81 163.23C77.85 156.74 71.81 151.13 64.48 149.52C57.15 147.91 48.48 151.25 45.42 158.25C42.36 165.25 45.42 173.38 49.16 180.05C54.6573 189.937 61.5553 198.977 69.64 206.89C71.09 208.32 72.64 209.89 72.98 211.89C73.56 215.53 69.73 218.45 66.13 219.04C62.06 219.71 57.92 218.64 53.79 218.48C49.66 218.32 45 219.4 42.86 222.98C39.86 227.98 43.44 234.22 47.23 238.56C54.8118 247.248 63.8337 254.565 73.9 260.19C77.49 262.19 81.32 264.06 83.97 267.24C86.62 270.42 87.74 275.38 85.3 278.74C82.86 282.1 77.89 282.51 74.01 281.13C70.13 279.75 66.89 277 63.3 275C56.6 271.17 47.3 270.19 41.75 275.63C38.1 279.21 36.94 284.81 37.69 289.89C38.44 294.97 40.86 299.61 43.52 303.97C52.82 319.21 65.74 332.35 81.39 340.72C97.04 349.09 112.12 353.1 129.53 349.72" fill="#EBEBEB"/>
<path d="M125.3 351.33C126.14 338.76 126.7 345.28 124.58 328.77C122.46 312.26 118.69 294.34 114.08 275.77L110.61 262C109.46 257.49 108.33 253 106.94 248.7C104.27 240.429 101.142 232.313 97.57 224.39C94.22 216.8 90.76 209.72 87.47 203.13C84.18 196.54 81 190.42 77.84 185C72.9187 176.417 67.3245 168.238 61.11 160.54C58.92 157.82 57.11 155.77 55.93 154.39L54.53 152.83C54.3816 152.643 54.214 152.472 54.03 152.32C54.1547 152.526 54.2987 152.721 54.46 152.9C54.79 153.3 55.23 153.83 55.78 154.52C56.95 155.93 58.67 158.03 60.78 160.78C66.8612 168.549 72.3532 176.762 77.21 185.35C80.31 190.78 83.45 196.87 86.72 203.46C89.99 210.05 93.39 217.15 96.72 224.73C100.258 232.643 103.356 240.745 106 249C107.37 253.29 108.49 257.73 109.64 262.26C110.79 266.79 111.93 271.37 113.1 276.01C117.71 294.6 121.52 312.47 123.66 328.93C125.8 345.39 125.33 338.8 124.58 351.33" fill="#E0E0E0"/>
<path d="M106.68 248.59C107.039 247.908 107.327 247.191 107.54 246.45C108.04 245.06 108.7 243.03 109.47 240.5C111.03 235.44 112.94 228.39 115.02 220.61C117.1 212.83 119.11 205.81 120.74 200.8C121.54 198.29 122.22 196.26 122.74 194.87C123.038 194.16 123.256 193.418 123.39 192.66C122.985 193.313 122.65 194.007 122.39 194.73C121.8 196.09 121.02 198.08 120.13 200.58C118.33 205.58 116.21 212.58 114.13 220.35C112.05 228.12 110.26 234.99 108.85 240.35C108.21 242.74 107.66 244.76 107.22 246.35C106.95 247.072 106.769 247.824 106.68 248.59V248.59Z" fill="#E0E0E0"/>
<path d="M41.89 225.48C42.7374 225.813 43.6147 226.064 44.51 226.23C46.19 226.65 48.64 227.23 51.64 228.09C57.64 229.73 65.87 232.27 74.82 235.48C83.77 238.69 91.74 241.97 97.44 244.48C100.3 245.73 102.59 246.8 104.17 247.48C104.97 247.915 105.811 248.27 106.68 248.54C105.945 248.001 105.162 247.532 104.34 247.14C102.8 246.31 100.55 245.14 97.72 243.81C92.08 241.12 84.12 237.74 75.15 234.51C67.4971 231.733 59.7068 229.35 51.81 227.37C48.81 226.62 46.3 226.11 44.58 225.8C43.6947 225.613 42.7944 225.506 41.89 225.48Z" fill="#E0E0E0"/>
<path d="M124 327.41C124 327.41 124.23 327.18 124.59 326.67L126.12 324.44C127.43 322.49 129.26 319.63 131.48 316.06C135.92 308.92 141.74 298.87 148.01 287.69C154.28 276.51 160.01 266.42 164.29 259.2C166.39 255.7 168.11 252.81 169.39 250.67C169.94 249.74 170.39 248.97 170.77 248.34C170.948 248.077 171.089 247.791 171.19 247.49C171.19 247.49 170.96 247.72 170.6 248.23L169 250.46C167.68 252.41 165.85 255.27 163.63 258.84C159.22 266 153.4 276 147.13 287.21C140.86 298.42 135.13 308.48 130.85 315.7C128.75 319.2 127.03 322.09 125.75 324.23L124.38 326.56C124.215 326.824 124.087 327.111 124 327.41V327.41Z" fill="#E0E0E0"/>
<path d="M39.78 284.7C40.0295 284.903 40.3053 285.071 40.6 285.2L43 286.47L52 291.06C59.61 294.94 70.06 300.42 81.59 306.49C93.12 312.56 103.59 317.94 111.33 321.67C115.17 323.53 118.33 325 120.48 325.98L123 327.09C123.285 327.236 123.587 327.343 123.9 327.41C123.651 327.207 123.375 327.039 123.08 326.91L120.64 325.64L111.64 321.05C104.03 317.17 93.58 311.69 82.05 305.62C70.52 299.55 60.05 294.16 52.32 290.44C48.47 288.58 45.32 287.11 43.16 286.13L40.68 285C40.3944 284.861 40.0918 284.76 39.78 284.7Z" fill="#E0E0E0"/>
<path d="M465.36 435C465.36 435.14 370.69 435.26 253.94 435.26C137.19 435.26 42.5 435.15 42.5 435C42.5 434.85 137.15 434.74 253.94 434.74C370.73 434.74 465.36 434.86 465.36 435Z" fill="#263238"/>
<path d="M65.73 269.39C65.73 269.39 72.63 264.73 81.25 281.26C89.87 297.79 93.17 307.34 93.17 307.34C93.17 307.34 95.44 310.8 97.81 308.5C100.18 306.2 103.39 299.72 107.47 300.85C111.55 301.98 113.13 306.7 112.39 313.62C111.65 320.54 110.59 335.76 110.5 337.13C110.41 338.5 111.2 340.46 113.06 339.13C114.92 337.8 125.61 325.7 131.06 331.13C136.51 336.56 131.29 355.48 130.76 357.56C130.23 359.64 130.64 360.56 131.63 361.03C132.62 361.5 135.83 357.12 139.01 353.8C142.19 350.48 146.46 347.17 149.34 350.56C152.22 353.95 153.27 368.11 140 391.25L133.15 401.57L120.72 401C94.19 398.15 83.34 389 82.3 384.67C81.26 380.34 86.42 378.83 90.98 378.21C95.54 377.59 100.98 377.58 101.17 376.48C101.36 375.38 100.87 374.53 98.87 373.74C96.87 372.95 78.48 366.06 77.3 358.47C76.12 350.88 92.2 349.35 94.36 348.6C96.52 347.85 95.36 346.06 94.22 345.34C93.08 344.62 80.11 336.53 74.08 333.06C68.05 329.59 65.08 325.69 66.63 321.58C68.11 317.58 75.24 318.83 78.5 318.26C81.76 317.69 80.28 313.82 80.28 313.82C80.28 313.82 74.48 305.55 66.17 288.82C57.86 272.09 65.88 269.25 65.88 269.25" fill="#558EB4"/>
<path d="M73.48 284.18C73.5421 284.273 73.5988 284.37 73.65 284.47L74.12 285.36L75.87 288.77L82.27 301.35C87.72 311.97 95.27 326.6 103.52 342.77C111.77 358.94 119.34 373.6 124.66 384.26C127.3 389.58 129.43 393.9 130.92 396.91L132.59 400.36L133.02 401.27C133.11 401.47 133.15 401.58 133.15 401.58C133.15 401.58 133.08 401.49 132.97 401.29L132.51 400.41C132.09 399.6 131.51 398.41 130.76 396.99C129.23 393.99 127.05 389.71 124.36 384.41C119 373.79 111.43 359.15 103.1 343C94.77 326.85 87.29 312.16 82 301.5L75.7 288.85C74.99 287.37 74.43 286.21 74.03 285.4C73.85 285.02 73.71 284.72 73.61 284.49C73.552 284.394 73.5082 284.289 73.48 284.18Z" fill="#263238"/>
<path d="M103.34 310.1C103.184 311.201 102.953 312.29 102.65 313.36C102.17 315.49 101.55 318.19 100.86 321.19C100.17 324.19 99.52 327 99 329C98.73 330 98.5 330.79 98.32 331.34C98.252 331.632 98.1408 331.911 97.99 332.17C98.1598 331.072 98.3868 329.984 98.67 328.91L100.4 321.07C101.1 318.01 101.78 315.25 102.33 313.26C102.61 312.26 102.85 311.47 103.03 310.93C103.092 310.64 103.197 310.36 103.34 310.1V310.1Z" fill="#263238"/>
<path d="M96.85 332.42C96.85 332.54 91.13 331.08 84.15 329.14C77.17 327.2 71.55 325.54 71.59 325.41C71.63 325.28 77.3 326.75 84.28 328.68C91.26 330.61 96.88 332.29 96.85 332.42Z" fill="#263238"/>
<path d="M112.89 360.24C112.594 360.324 112.288 360.368 111.98 360.37C111.4 360.43 110.55 360.49 109.5 360.54C107.4 360.64 104.5 360.71 101.28 360.62C98.06 360.53 95.18 360.3 93.09 360.08C92.09 359.97 91.2 359.86 90.61 359.77C90.306 359.748 90.0065 359.684 89.72 359.58C90.8523 359.563 91.9845 359.616 93.11 359.74C95.21 359.88 98.11 360.05 101.3 360.14C104.49 360.23 107.39 360.22 109.49 360.2C110.623 360.14 111.759 360.154 112.89 360.24V360.24Z" fill="#263238"/>
<path d="M123.21 341.34C122.82 342.314 122.355 343.257 121.82 344.16C120.9 345.87 119.61 348.22 118.16 350.8C116.71 353.38 115.37 355.71 114.38 357.38C113.887 358.306 113.322 359.192 112.69 360.03C113.08 359.056 113.545 358.113 114.08 357.21C115 355.5 116.29 353.15 117.74 350.57C119.19 347.99 120.53 345.66 121.52 344C122.015 343.072 122.58 342.182 123.21 341.34V341.34Z" fill="#263238"/>
<path d="M140.49 364.1C140.383 364.451 140.232 364.787 140.04 365.1L138.63 367.69C137.43 369.86 135.74 372.85 133.85 376.14C131.96 379.43 130.22 382.4 128.94 384.53C128.34 385.53 127.82 386.36 127.41 387.05C127.24 387.368 127.032 387.663 126.79 387.93C126.9 387.58 127.051 387.245 127.24 386.93L128.65 384.34C129.85 382.16 131.54 379.17 133.43 375.88C135.32 372.59 137.06 369.63 138.34 367.5L139.87 364.98C140.047 364.667 140.255 364.372 140.49 364.1V364.1Z" fill="#263238"/>
<path d="M127 387.26C126.622 387.341 126.236 387.375 125.85 387.36C125.1 387.36 124.02 387.41 122.69 387.42C120.03 387.42 116.34 387.42 112.28 387.15C108.22 386.88 104.54 386.58 101.9 386.27C100.57 386.12 99.5 385.97 98.77 385.86C98.3824 385.828 97.9998 385.751 97.63 385.63C98.0159 385.595 98.4042 385.595 98.79 385.63L101.93 385.89C104.58 386.12 108.25 386.41 112.3 386.63C116.35 386.85 120.03 386.97 122.69 387.04L125.85 387.13C126.237 387.136 126.622 387.179 127 387.26V387.26Z" fill="#263238"/>
<path d="M452.12 263.89L418.65 296.48L387.81 355.33L353.13 421.88L310.52 401.88L264.46 378.3L293.92 322.02L312.23 259.02C299.29 267.6 275.23 279.29 246.53 273.19C215.39 266.59 230.34 149.19 230.34 149.19L264.56 148.31L268 231.08L306.65 214L306.71 214.14C309.04 213.14 311.08 212.14 312.16 211.59C333.55 199.92 347.59 198.51 370.54 206.7L403.65 217.7C412.16 221.7 443.53 237.15 452.12 263.89Z" fill="#558EB4"/>
<path d="M335 204.24C335 204.24 334.23 204.68 332.93 205.61C331.107 206.936 329.49 208.523 328.13 210.32C326.133 213.002 324.543 215.964 323.41 219.11C322.032 222.977 320.854 226.912 319.88 230.9L314 252.53C313.23 255.24 312.61 257.46 312.15 259.06C311.94 259.79 311.76 260.38 311.63 260.83C311.581 261.041 311.507 261.246 311.41 261.44C311.423 261.226 311.463 261.014 311.53 260.81C311.64 260.34 311.78 259.75 311.96 259.01C312.37 257.39 312.96 255.16 313.64 252.43C315.12 246.83 317.14 239.2 319.38 230.76C320.36 226.759 321.555 222.813 322.96 218.94C324.129 215.763 325.775 212.782 327.84 210.1C329.249 208.291 330.937 206.718 332.84 205.44C333.353 205.093 333.887 204.779 334.44 204.5C334.62 204.4 334.807 204.313 335 204.24V204.24Z" fill="#263238"/>
<g opacity="0.3">
<path opacity="0.3" d="M322.51 220.83C312.94 246.74 295.73 261.22 271.36 274.2C285.748 272.606 299.536 267.556 311.55 259.48" fill="black"/>
</g>
<g opacity="0.3">
<path opacity="0.3" d="M353 202.39C357.053 267.31 361.107 332.227 365.16 397.14L353.16 421.88L353 202.39Z" fill="black"/>
</g>
<path d="M390.68 269.74C390.54 269.8 389.32 266.74 387.61 263.05C385.9 259.36 384.38 256.43 384.51 256.36C384.981 256.911 385.381 257.519 385.7 258.17C386.37 259.33 387.23 260.97 388.08 262.83C388.93 264.69 389.63 266.4 390.08 267.66C390.374 268.323 390.576 269.022 390.68 269.74V269.74Z" fill="#FAFAFA"/>
<path d="M417.92 256.05C415.858 257.653 413.686 259.11 411.42 260.41C409.25 261.866 406.985 263.176 404.64 264.33C406.714 262.739 408.889 261.282 411.15 259.97C413.318 258.515 415.579 257.206 417.92 256.05V256.05Z" fill="#FAFAFA"/>
<path d="M406.1 246.19C405.753 244.441 405.573 242.663 405.56 240.88C405.392 239.101 405.392 237.309 405.56 235.53C405.919 237.281 406.1 239.063 406.1 240.85C406.274 242.626 406.274 244.414 406.1 246.19Z" fill="#FAFAFA"/>
<path d="M433.29 244.29C429.935 242.625 426.741 240.654 423.75 238.4C425.467 239.154 427.11 240.065 428.66 241.12C430.299 242.03 431.849 243.091 433.29 244.29V244.29Z" fill="#FAFAFA"/>
<path d="M391.72 298.23C392.459 295.864 393.361 293.551 394.42 291.31C395.326 289.003 396.388 286.762 397.6 284.6C396.865 286.968 395.962 289.28 394.9 291.52C393.996 293.827 392.934 296.07 391.72 298.23V298.23Z" fill="#FAFAFA"/>
<path d="M379.61 310.49C378.649 309.145 377.832 307.704 377.17 306.19C376.349 304.749 375.679 303.228 375.17 301.65C376.132 302.995 376.953 304.436 377.62 305.95C378.442 307.388 379.11 308.91 379.61 310.49Z" fill="#FAFAFA"/>
<path d="M389.74 327C388.107 327.707 386.372 328.149 384.6 328.31C382.853 328.648 381.064 328.702 379.3 328.47C379.3 328.32 381.65 328.21 384.53 327.8C387.41 327.39 389.7 326.84 389.74 327Z" fill="#FAFAFA"/>
<path d="M402.73 308.94C403.164 307.269 403.761 305.645 404.51 304.09C405.101 302.468 405.855 300.91 406.76 299.44C406.332 301.111 405.739 302.736 404.99 304.29C404.403 305.915 403.646 307.474 402.73 308.94V308.94Z" fill="#FAFAFA"/>
<path d="M371.14 347.08C371.01 347.16 369.54 345.13 367.52 342.8C365.5 340.47 363.7 338.72 363.81 338.61C366.813 340.896 369.309 343.78 371.14 347.08V347.08Z" fill="#FAFAFA"/>
<path d="M365.41 306.07C364.702 307.816 363.828 309.49 362.8 311.07C361.926 312.748 360.898 314.342 359.73 315.83C360.452 314.088 361.329 312.415 362.35 310.83C363.222 309.153 364.246 307.559 365.41 306.07V306.07Z" fill="#FAFAFA"/>
<path d="M369.49 292C367.596 291.771 365.725 291.377 363.9 290.82C362.033 290.427 360.205 289.864 358.44 289.14C360.335 289.363 362.206 289.758 364.03 290.32C365.898 290.71 367.726 291.272 369.49 292V292Z" fill="#FAFAFA"/>
<path d="M369.25 263C370.349 264.284 371.352 265.648 372.25 267.08C373.28 268.409 374.209 269.813 375.03 271.28C373.799 270.12 372.724 268.806 371.83 267.37C370.78 266.035 369.912 264.565 369.25 263V263Z" fill="#FAFAFA"/>
<path d="M360 261.55C357.817 263.914 355.383 266.033 352.74 267.87C353.767 266.627 354.927 265.5 356.2 264.51C357.358 263.392 358.632 262.399 360 261.55V261.55Z" fill="#FAFAFA"/>
<path d="M367.31 246.38C363.933 243.717 361.118 240.41 359.03 236.65C359.16 236.57 360.8 238.91 363.09 241.59C365.38 244.27 367.42 246.27 367.31 246.38Z" fill="#FAFAFA"/>
<path d="M392.89 241.71C391.082 242.54 389.205 243.209 387.28 243.71C385.408 244.374 383.48 244.869 381.52 245.19C383.331 244.368 385.207 243.699 387.13 243.19C389.003 242.528 390.93 242.033 392.89 241.71Z" fill="#FAFAFA"/>
<path d="M356.88 217.35C356.73 217.35 356.8 215.06 356.44 212.28C356.08 209.5 355.44 207.28 355.62 207.28C356.977 210.462 357.414 213.962 356.88 217.38V217.35Z" fill="#FAFAFA"/>
<path d="M334.12 289.86C333.383 290.5 332.597 291.081 331.77 291.6C330.29 292.6 328.27 294.09 326.11 295.79C323.95 297.49 322.05 299.1 320.69 300.28C319.986 300.96 319.234 301.588 318.44 302.16C319.028 301.374 319.699 300.654 320.44 300.01C322.142 298.375 323.928 296.829 325.79 295.38C327.644 293.921 329.57 292.556 331.56 291.29C332.366 290.734 333.223 290.255 334.12 289.86Z" fill="#FAFAFA"/>
<path d="M332.81 281.84C332.68 281.91 331 279.3 328.67 276.25C326.34 273.2 324.28 270.88 324.39 270.77C324.959 271.157 325.468 271.625 325.9 272.16C327.026 273.362 328.091 274.62 329.09 275.93C330.25 277.47 331.22 278.93 331.87 280.01C332.267 280.573 332.584 281.189 332.81 281.84V281.84Z" fill="#FAFAFA"/>
<path d="M338.9 250.23C335.808 252.333 332.527 254.144 329.1 255.64C330.6 254.519 332.2 253.538 333.88 252.71C335.472 251.727 337.152 250.897 338.9 250.23Z" fill="#FAFAFA"/>
<path d="M332.87 236.43C332.24 236.061 331.665 235.607 331.16 235.08C329.864 233.897 328.658 232.62 327.55 231.26C326.431 229.902 325.412 228.465 324.5 226.96C324.078 226.363 323.742 225.71 323.5 225.02C323.64 224.94 325.35 227.78 327.94 230.93C330.53 234.08 333 236.31 332.87 236.43Z" fill="#FAFAFA"/>
<path d="M343.25 236.14C343.705 234.622 344.322 233.157 345.09 231.77C345.707 230.307 346.482 228.916 347.4 227.62C346.95 229.14 346.333 230.606 345.56 231.99C344.947 233.455 344.172 234.847 343.25 236.14V236.14Z" fill="#FAFAFA"/>
<path d="M340.48 220.35C340.32 220.35 340.48 217.24 339.9 213.49C339.32 209.74 338.21 206.84 338.36 206.78C338.738 207.352 339.024 207.98 339.21 208.64C339.762 210.189 340.167 211.786 340.42 213.41C340.669 215.034 340.773 216.677 340.73 218.32C340.756 219.006 340.672 219.691 340.48 220.35V220.35Z" fill="#FAFAFA"/>
<path d="M343 300C342.933 299.024 342.933 298.045 343 297.07C343.07 295.27 343.12 292.78 343.05 290.07C342.98 287.36 342.8 284.84 342.65 283.07C342.514 282.103 342.454 281.126 342.47 280.15C342.747 281.09 342.931 282.054 343.02 283.03C343.331 285.371 343.515 287.728 343.57 290.09C343.633 292.448 343.566 294.809 343.37 297.16C343.346 298.117 343.222 299.069 343 300V300Z" fill="#FAFAFA"/>
<path d="M341.52 324.89C340.123 323.604 338.643 322.412 337.09 321.32C335.449 320.371 333.749 319.529 332 318.8C333.917 319.125 335.749 319.832 337.387 320.878C339.026 321.924 340.438 323.288 341.54 324.89H341.52Z" fill="#FAFAFA"/>
<path d="M354 340.29C351.798 341.724 349.503 343.011 347.13 344.14C344.839 345.427 342.464 346.556 340.02 347.52C342.225 346.094 344.52 344.811 346.89 343.68C349.182 342.393 351.557 341.26 354 340.29V340.29Z" fill="#FAFAFA"/>
<path d="M318.82 347.12C316.995 345.089 315.305 342.941 313.76 340.69C312.072 338.541 310.522 336.286 309.12 333.94C310.94 335.978 312.63 338.129 314.18 340.38C315.864 342.529 317.414 344.78 318.82 347.12V347.12Z" fill="#FAFAFA"/>
<path d="M308 318.68C307.827 318.011 307.75 317.321 307.77 316.63C307.72 315.36 307.7 313.63 307.77 311.63C307.84 309.63 308.04 307.94 308.21 306.63C308.258 305.948 308.396 305.276 308.62 304.63C308.77 304.63 308.47 307.77 308.29 311.63C308.11 315.49 308.1 318.68 308 318.68Z" fill="#FAFAFA"/>
<path d="M296.22 367.23C294.172 365.86 292.22 364.349 290.38 362.71C288.43 361.201 286.589 359.557 284.87 357.79C286.919 359.159 288.871 360.67 290.71 362.31C292.66 363.819 294.501 365.463 296.22 367.23V367.23Z" fill="#FAFAFA"/>
<path d="M303.26 365.74C302.937 363.139 302.787 360.52 302.81 357.9C302.666 355.284 302.692 352.662 302.89 350.05C303.213 352.65 303.363 355.27 303.34 357.89C303.484 360.506 303.458 363.128 303.26 365.74Z" fill="#FAFAFA"/>
<path d="M317.16 395.85C317.16 395.93 315.91 395.44 313.9 394.79C308.665 393.105 303.175 392.357 297.68 392.58C295.57 392.66 294.27 392.81 294.26 392.72C294.548 392.607 294.851 392.536 295.16 392.51C295.74 392.4 296.6 392.3 297.66 392.21C303.204 391.791 308.773 392.555 314 394.45C314.796 394.738 315.573 395.072 316.33 395.45C316.626 395.54 316.906 395.675 317.16 395.85V395.85Z" fill="#FAFAFA"/>
<path d="M328.61 401.35C329.423 401.775 330.181 402.295 330.87 402.9C334.33 405.64 337.46 408.77 340.2 412.23C340.805 412.919 341.325 413.677 341.75 414.49C341.089 413.869 340.474 413.201 339.91 412.49C338.81 411.22 337.25 409.49 335.44 407.68C333.63 405.87 331.9 404.32 330.63 403.21C329.912 402.641 329.236 402.019 328.61 401.35Z" fill="#FAFAFA"/>
<path d="M333.6 349.25C332.585 347.378 331.719 345.428 331.01 343.42C330.147 341.48 329.441 339.473 328.9 337.42C329.915 339.292 330.781 341.241 331.49 343.25C332.353 345.19 333.059 347.196 333.6 349.25V349.25Z" fill="#FAFAFA"/>
<path d="M293.43 247.9C293.004 248.528 292.489 249.091 291.9 249.57C290.567 250.81 289.135 251.94 287.62 252.95C286.103 253.967 284.504 254.857 282.84 255.61C282.17 255.966 281.453 256.226 280.71 256.38C280.65 256.23 283.82 254.87 287.33 252.52C290.84 250.17 293.32 247.78 293.43 247.9Z" fill="#FAFAFA"/>
<path d="M296 237.3C295.793 234.327 295.934 231.34 296.42 228.4C296.627 231.373 296.486 234.36 296 237.3Z" fill="#FAFAFA"/>
<path d="M276.05 246.2C274.259 245.667 272.521 244.967 270.86 244.11C269.118 243.409 267.444 242.549 265.86 241.54C267.65 242.078 269.387 242.778 271.05 243.63C272.792 244.331 274.466 245.191 276.05 246.2V246.2Z" fill="#FAFAFA"/>
<path d="M311.64 232.64C311.524 230.795 311.581 228.944 311.81 227.11C311.858 225.262 312.085 223.424 312.49 221.62C312.607 223.464 312.553 225.315 312.33 227.15C312.274 228.998 312.043 230.836 311.64 232.64Z" fill="#FAFAFA"/>
<path d="M265.45 267.4C263.424 266.889 261.498 266.044 259.75 264.9C257.911 263.902 256.257 262.597 254.86 261.04C254.96 260.92 257.09 262.71 260.01 264.46C262.93 266.21 265.51 267.25 265.45 267.4Z" fill="#FAFAFA"/>
<path d="M250.62 247.05C249.332 248.825 247.908 250.497 246.36 252.05C244.936 253.733 243.385 255.305 241.72 256.75C244.428 253.273 247.403 250.013 250.62 247V247.05Z" fill="#FAFAFA"/>
<path d="M249.35 228.82C247.646 228.244 246.063 227.359 244.68 226.21C243.198 225.199 241.908 223.933 240.87 222.47C240.98 222.36 242.66 224.05 245 225.79C247.34 227.53 249.42 228.69 249.35 228.82Z" fill="#FAFAFA"/>
<path d="M240 232.64C239.434 233.71 238.716 234.694 237.87 235.56C237.152 236.537 236.3 237.409 235.34 238.15C236.621 236.1 238.191 234.244 240 232.64V232.64Z" fill="#FAFAFA"/>
<path d="M260 198.8C258.836 200.627 257.528 202.359 256.09 203.98C254.789 205.715 253.347 207.341 251.78 208.84C252.945 207.01 254.253 205.275 255.69 203.65C256.996 201.922 258.437 200.3 260 198.8V198.8Z" fill="#FAFAFA"/>
<path d="M242.87 202.65C241.328 201.281 239.903 199.786 238.61 198.18C237.192 196.69 235.901 195.084 234.75 193.38C236.294 194.743 237.719 196.235 239.01 197.84C240.428 199.333 241.719 200.942 242.87 202.65V202.65Z" fill="#FAFAFA"/>
<path d="M251.45 180.93C250.303 179.448 249.299 177.861 248.45 176.19C247.459 174.602 246.612 172.929 245.92 171.19C247.066 172.677 248.07 174.267 248.92 175.94C249.912 177.524 250.758 179.194 251.45 180.93V180.93Z" fill="#FAFAFA"/>
<path d="M251 166.92C250.88 166.82 252.38 164.92 253.57 162.23C254.76 159.54 255.19 157.17 255.35 157.23C255.101 160.884 253.559 164.33 251 166.95V166.92Z" fill="#FAFAFA"/>
<path d="M234.51 166.09C234.355 163.976 234.78 161.86 235.74 159.97C236.361 158.614 237.183 157.36 238.18 156.25C238.562 155.761 239.033 155.351 239.57 155.04C238.272 156.63 237.146 158.353 236.21 160.18C235.433 162.083 234.863 164.065 234.51 166.09V166.09Z" fill="#FAFAFA"/>
<path d="M378.69 142.3C378.23 138.155 378.18 133.975 378.54 129.82C378.913 125.64 380.514 121.663 383.14 118.39C385.87 115.23 390.07 113.2 394.2 113.73C396.76 114.06 399.2 115.32 401.75 115.25C404.75 115.16 407.32 113.32 410.03 112.09C414.302 110.151 419.088 109.649 423.67 110.66C426.085 111.115 428.321 112.246 430.12 113.92C431.006 114.765 431.663 115.821 432.029 116.99C432.394 118.158 432.457 119.401 432.21 120.6C435.232 120.467 438.258 120.733 441.21 121.39C444.167 122.056 446.746 123.85 448.4 126.39C449.89 129 449.79 132.63 447.65 134.74C449.059 134.551 450.488 134.89 451.662 135.691C452.836 136.492 453.672 137.699 454.01 139.08C454.276 140.477 454.134 141.921 453.602 143.24C453.07 144.559 452.17 145.698 451.01 146.52C448.214 148.232 444.901 148.898 441.66 148.4C438.88 147.87 435.66 147.09 433.43 145.4" fill="#263238"/>
<path d="M376.52 236.5C382.037 237.917 387.89 237.095 392.804 234.214C397.717 231.333 401.293 226.626 402.75 221.12C404.44 214.71 405.82 209.34 405.82 209.34C405.82 209.34 422.53 212.21 428.06 196.34C433.59 180.47 443.06 143.13 443.06 143.13C435.332 136.22 425.901 131.497 415.738 129.449C405.576 127.401 395.051 128.102 385.25 131.48L382.25 132.48L361.02 209.81C360.251 212.581 360.044 215.477 360.41 218.329C360.777 221.181 361.709 223.931 363.153 226.417C364.597 228.903 366.523 231.076 368.819 232.808C371.114 234.539 373.733 235.795 376.52 236.5V236.5Z" fill="#B78876"/>
<path d="M405.92 209.12C398.543 206.795 392.023 202.329 387.19 196.29C387.19 196.29 388.25 209.36 404.58 213.29L405.92 209.12Z" fill="#AA6550"/>
<path d="M378.74 149.66C378.51 149.45 368.91 142.77 365.62 153.75C362.33 164.73 374.02 165.75 374.13 165.46C374.24 165.17 378.74 149.66 378.74 149.66Z" fill="#B78876"/>
<path d="M372 160.29C372 160.29 371.77 160.37 371.4 160.42C370.897 160.462 370.397 160.312 370 160C369 159.23 368.55 157.09 369.09 155.1C369.341 154.15 369.802 153.268 370.44 152.52C370.651 152.215 370.931 151.965 371.258 151.792C371.586 151.618 371.95 151.524 372.32 151.52C372.563 151.518 372.798 151.603 372.982 151.762C373.166 151.92 373.286 152.14 373.32 152.38C373.38 152.73 373.24 152.93 373.32 152.97C373.4 153.01 373.61 152.85 373.65 152.37C373.671 152.083 373.594 151.797 373.43 151.56C373.312 151.398 373.163 151.261 372.991 151.158C372.819 151.055 372.628 150.988 372.43 150.96C371.952 150.912 371.47 150.988 371.031 151.181C370.591 151.373 370.208 151.676 369.92 152.06C369.165 152.868 368.623 153.851 368.34 154.92C367.74 157.15 368.25 159.56 369.7 160.5C369.97 160.673 370.276 160.784 370.594 160.824C370.912 160.863 371.236 160.831 371.54 160.73C371.93 160.55 372.06 160.33 372 160.29Z" fill="#AA6550"/>
<path d="M429.61 166.05C429.415 166.651 428.99 167.152 428.429 167.442C427.867 167.732 427.213 167.789 426.61 167.6C426.314 167.526 426.036 167.393 425.792 167.21C425.548 167.026 425.343 166.796 425.189 166.532C425.036 166.269 424.936 165.977 424.897 165.674C424.857 165.372 424.879 165.064 424.96 164.77C425.153 164.178 425.569 163.684 426.12 163.393C426.67 163.102 427.312 163.037 427.91 163.21C428.211 163.28 428.495 163.41 428.744 163.592C428.994 163.774 429.204 164.004 429.363 164.269C429.522 164.534 429.625 164.828 429.668 165.134C429.71 165.44 429.691 165.752 429.61 166.05V166.05Z" fill="#263238"/>
<path d="M432.57 164.51C432.19 164.71 430.9 162.87 428.46 162.05C426.02 161.23 423.81 161.86 423.65 161.47C423.56 161.3 424.03 160.86 425 160.55C426.311 160.163 427.71 160.198 429 160.65C430.272 161.071 431.375 161.887 432.15 162.98C432.68 163.81 432.75 164.43 432.57 164.51Z" fill="#263238"/>
<path d="M405.61 158C405.417 158.592 405.001 159.085 404.45 159.377C403.9 159.668 403.258 159.733 402.66 159.56C402.364 159.486 402.086 159.353 401.842 159.17C401.598 158.986 401.393 158.756 401.239 158.492C401.086 158.229 400.986 157.937 400.947 157.634C400.907 157.332 400.929 157.024 401.01 156.73C401.201 156.137 401.617 155.641 402.168 155.35C402.719 155.058 403.362 154.994 403.96 155.17C404.256 155.244 404.534 155.377 404.778 155.56C405.022 155.744 405.227 155.974 405.381 156.238C405.534 156.501 405.634 156.793 405.673 157.096C405.713 157.398 405.691 157.706 405.61 158Z" fill="#263238"/>
<path d="M408.43 156.91C408.05 157.12 406.75 155.27 404.31 154.45C401.87 153.63 399.67 154.26 399.5 153.87C399.42 153.7 399.88 153.26 400.86 152.96C402.17 152.573 403.569 152.604 404.86 153.05C406.133 153.474 407.239 154.289 408.02 155.38C408.53 156.21 408.61 156.83 408.43 156.91Z" fill="#263238"/>
<path d="M411.21 178C411.21 177.86 412.85 178.1 415.41 178.61C416.06 178.76 416.69 178.83 416.94 178.44C417.207 177.809 417.277 177.112 417.14 176.44C417.06 174.73 416.98 172.94 416.89 171.07C416.6 163.46 416.61 157.28 416.89 157.27C417.17 157.26 417.68 163.43 417.97 171.04C418.03 172.91 418.08 174.7 418.13 176.41C418.274 177.291 418.1 178.195 417.64 178.96C417.476 179.15 417.271 179.3 417.041 179.399C416.81 179.497 416.56 179.542 416.31 179.53C415.932 179.511 415.559 179.44 415.2 179.32C412.71 178.63 411.17 178.13 411.21 178Z" fill="#263238"/>
<path d="M403.46 177.27C403.86 177.38 402.98 180.03 404.62 182.67C406.26 185.31 409.17 185.97 409.07 186.34C409.07 186.52 408.26 186.65 407.07 186.28C405.511 185.781 404.179 184.747 403.31 183.36C402.468 182.032 402.181 180.427 402.51 178.89C402.77 177.75 403.28 177.19 403.46 177.27Z" fill="#263238"/>
<path d="M433.11 159.92C432.5 160.33 431.01 159.19 429 158.48C426.99 157.77 425.14 157.6 424.94 156.89C424.86 156.55 425.32 156.08 426.24 155.81C427.457 155.517 428.733 155.593 429.906 156.028C431.08 156.462 432.097 157.236 432.83 158.25C433.35 159.06 433.39 159.71 433.11 159.92Z" fill="#263238"/>
<path d="M408.21 147C407.84 147.2 407.21 146.87 406.5 146.44C405.581 145.891 404.617 145.42 403.62 145.03C402.609 144.666 401.569 144.392 400.51 144.21C399.66 144.04 399 143.91 398.85 143.51C398.7 143.11 399.18 142.51 400.26 142.11C401.697 141.656 403.245 141.695 404.658 142.22C406.071 142.745 407.268 143.727 408.06 145.01C408.61 146.06 408.56 146.84 408.21 147Z" fill="#263238"/>
<path d="M442.23 148.32C433.878 147.834 425.899 144.699 419.45 139.37C412.27 133.49 403.28 129.37 400.83 130.53C398.38 131.69 396.05 139.93 387.47 140.53C387.47 140.53 384.41 156.58 378.19 154.53C371.97 152.48 381.54 128.76 381.54 128.76L398.79 124.7L416.46 125.35L432.33 128.95L446.06 136.84L442.23 148.32Z" fill="#263238"/>
<path d="M353.13 85.37H128.6V435.01H353.13V85.37Z" fill="#FAFAFA"/>
<path d="M353.13 435C353.13 432.85 353.03 290.85 352.89 85.36L353.13 85.6H128.63L128.9 85.34C128.9 217.62 128.9 339.42 128.84 434.98L128.63 434.77L353.16 434.98L128.63 435.18H128.43V435C128.43 339.44 128.43 217.64 128.37 85.36V85.1H128.66H353.16H353.4V85.34C353.23 290.86 353.13 432.86 353.13 435Z" fill="#263238"/>
<path d="M188.78 163.23H160.05C159.097 163.23 158.183 162.852 157.508 162.179C156.833 161.506 156.453 160.593 156.45 159.64V119.87C156.453 118.917 156.833 118.004 157.508 117.331C158.183 116.658 159.097 116.28 160.05 116.28H178.27L192.37 130.81V159.64C192.37 160.592 191.992 161.505 191.319 162.179C190.645 162.852 189.732 163.23 188.78 163.23Z" fill="#558EB4"/>
<path d="M178.27 116.28V127.47C178.273 128.355 178.625 129.203 179.251 129.829C179.877 130.455 180.725 130.807 181.61 130.81H192.37L178.27 116.28Z" fill="#558EB4"/>
<g opacity="0.2">
<path opacity="0.2" d="M178.42 128.45C178.424 129.297 178.718 130.117 179.253 130.774C179.788 131.43 180.531 131.884 181.36 132.06L181.72 132.14C183.12 132.39 192.37 134.03 192.37 133.82V130.82H181.61C181.61 130.82 178.93 130.72 178.42 128.45Z" fill="black"/>
</g>
<g opacity="0.3">
<path opacity="0.3" d="M178.27 116.28V127.47C178.273 128.355 178.625 129.203 179.251 129.829C179.877 130.455 180.725 130.807 181.61 130.81H192.37L178.27 116.28Z" fill="white"/>
</g>
<path d="M175.86 127C173.653 127.257 171.43 127.344 169.21 127.26C166.993 127.344 164.773 127.257 162.57 127C164.773 126.743 166.993 126.656 169.21 126.74C171.43 126.656 173.653 126.743 175.86 127V127Z" fill="#FAFAFA"/>
<path d="M184.44 133.34C184.44 133.48 179.55 133.6 173.51 133.6C167.47 133.6 162.57 133.48 162.57 133.34C162.57 133.2 167.47 133.08 173.51 133.08C179.55 133.08 184.44 133.19 184.44 133.34Z" fill="#FAFAFA"/>
<path d="M186.41 138.62C186.41 138.77 181.08 138.88 174.49 138.88C167.9 138.88 162.57 138.77 162.57 138.62C162.57 138.47 167.91 138.36 174.49 138.36C181.07 138.36 186.41 138.48 186.41 138.62Z" fill="#FAFAFA"/>
<path d="M186.41 143.61C186.41 143.75 181.08 143.87 174.49 143.87C167.9 143.87 162.57 143.75 162.57 143.61C162.57 143.47 167.91 143.35 174.49 143.35C181.07 143.35 186.41 143.46 186.41 143.61Z" fill="#FAFAFA"/>
<path d="M186.41 148.59C186.41 148.74 181.08 148.85 174.49 148.85C167.9 148.85 162.57 148.74 162.57 148.59C162.57 148.44 167.91 148.33 174.49 148.33C181.07 148.33 186.41 148.45 186.41 148.59Z" fill="#FAFAFA"/>
<path d="M186.41 153.58C186.41 153.72 181.08 153.84 174.49 153.84C167.9 153.84 162.57 153.72 162.57 153.58C162.57 153.44 167.91 153.32 174.49 153.32C181.07 153.32 186.41 153.43 186.41 153.58Z" fill="#FAFAFA"/>
<path d="M202.42 136.71H199.42V135.61H206.73V136.71H203.73V144.45H202.48L202.42 136.71Z" fill="#263238"/>
<path d="M214.49 143.35V144.45H208.08V135.61H214.31V136.71H209.31V139.42H213.74V140.5H209.31V143.35H214.49Z" fill="#263238"/>
<path d="M222.44 144.45L220.53 141.73C220.347 141.74 220.163 141.74 219.98 141.73H217.8V144.42H216.53V135.58H220C222.3 135.58 223.68 136.74 223.68 138.66C223.711 139.274 223.537 139.881 223.186 140.386C222.835 140.891 222.326 141.265 221.74 141.45L223.84 144.45H222.44ZM222.44 138.69C222.44 137.43 221.6 136.69 219.98 136.69H217.8V140.69H219.94C221.56 140.69 222.4 140 222.4 138.69H222.44Z" fill="#263238"/>
<path d="M233.9 144.45V138L230.7 143.36H230.12L226.93 138.04V144.44H225.72V135.6H226.72L230.4 141.81L234.03 135.6H235.03V144.44L233.9 144.45Z" fill="#263238"/>
<path d="M237 143.44L237.46 142.44C238.286 143.105 239.32 143.459 240.38 143.44C241.91 143.44 242.56 142.84 242.56 142.07C242.56 139.91 237.21 141.28 237.21 138C237.21 136.63 238.27 135.47 240.59 135.47C241.593 135.45 242.581 135.725 243.43 136.26L243.02 137.26C242.293 136.799 241.451 136.553 240.59 136.55C239.09 136.55 238.45 137.18 238.45 137.95C238.45 140.1 243.8 138.75 243.8 141.95C243.8 143.3 242.71 144.46 240.38 144.46C239.169 144.52 237.976 144.159 237 143.44V143.44Z" fill="#263238"/>
<path d="M248.28 140C248.244 139.064 248.489 138.138 248.983 137.342C249.477 136.545 250.198 135.915 251.053 135.532C251.908 135.148 252.858 135.029 253.782 135.189C254.705 135.35 255.559 135.783 256.234 136.432C256.91 137.082 257.376 137.919 257.572 138.835C257.769 139.751 257.687 140.705 257.337 141.575C256.987 142.444 256.385 143.189 255.609 143.714C254.833 144.239 253.917 144.519 252.98 144.52C252.37 144.549 251.761 144.453 251.19 144.238C250.619 144.023 250.097 143.694 249.658 143.271C249.218 142.848 248.869 142.34 248.632 141.777C248.395 141.215 248.275 140.61 248.28 140V140ZM256.4 140C256.406 139.32 256.21 138.653 255.836 138.085C255.462 137.517 254.928 137.073 254.301 136.809C253.674 136.545 252.983 136.473 252.316 136.603C251.648 136.733 251.034 137.058 250.552 137.538C250.07 138.017 249.741 138.629 249.607 139.296C249.473 139.963 249.541 140.654 249.801 141.283C250.061 141.911 250.503 142.448 251.069 142.825C251.635 143.202 252.3 143.402 252.98 143.4C253.432 143.415 253.881 143.338 254.302 143.173C254.722 143.007 255.105 142.758 255.425 142.439C255.745 142.121 255.997 141.74 256.165 141.32C256.332 140.901 256.413 140.452 256.4 140V140Z" fill="#263238"/>
<path d="M260.86 136.71V139.79H265.29V140.88H260.86V144.45H259.6V135.61H265.83V136.71H260.86Z" fill="#263238"/>
<path d="M270.2 143.44L270.67 142.44C271.493 143.103 272.523 143.457 273.58 143.44C275.11 143.44 275.77 142.84 275.77 142.07C275.77 139.91 270.42 141.28 270.42 138C270.42 136.63 271.48 135.47 273.8 135.47C274.803 135.452 275.79 135.727 276.64 136.26L276.22 137.26C275.496 136.8 274.657 136.554 273.8 136.55C272.3 136.55 271.65 137.18 271.65 137.95C271.65 140.1 277 138.75 277 141.95C277 143.3 275.92 144.46 273.58 144.46C272.37 144.518 271.176 144.158 270.2 143.44Z" fill="#263238"/>
<path d="M285.26 143.35V144.45H278.85V135.61H285.08V136.71H280.08V139.42H284.51V140.5H280.08V143.35H285.26Z" fill="#263238"/>
<path d="M293.21 144.45L291.31 141.73C291.123 141.74 290.937 141.74 290.75 141.73H288.57V144.42H287.31V135.58H290.75C293.05 135.58 294.44 136.74 294.44 138.66C294.47 139.275 294.295 139.883 293.942 140.388C293.589 140.893 293.078 141.267 292.49 141.45L294.59 144.45H293.21ZM293.21 138.69C293.21 137.43 292.37 136.69 290.75 136.69H288.61V140.69H290.75C292.33 140.69 293.17 140 293.17 138.69H293.21Z" fill="#263238"/>
<path d="M304.15 135.61L300.28 144.45H299L295.11 135.61H296.48L299.66 142.87L302.86 135.61H304.15Z" fill="#263238"/>
<path d="M305.28 135.61H306.54V144.45H305.28V135.61Z" fill="#263238"/>
<path d="M308.47 140C308.463 139.391 308.58 138.786 308.814 138.224C309.049 137.662 309.396 137.153 309.834 136.73C310.273 136.306 310.793 135.977 311.363 135.762C311.933 135.547 312.541 135.451 313.15 135.48C313.776 135.455 314.401 135.565 314.981 135.803C315.56 136.042 316.082 136.402 316.51 136.86L315.69 137.65C315.37 137.316 314.982 137.054 314.553 136.882C314.123 136.709 313.662 136.63 313.2 136.65C312.637 136.652 312.084 136.794 311.589 137.063C311.095 137.332 310.675 137.72 310.367 138.191C310.059 138.663 309.873 139.203 309.826 139.764C309.779 140.325 309.871 140.889 310.096 141.405C310.32 141.921 310.669 142.374 311.111 142.722C311.554 143.07 312.076 143.303 312.63 143.399C313.185 143.496 313.755 143.454 314.289 143.276C314.823 143.098 315.304 142.79 315.69 142.38L316.51 143.17C316.081 143.63 315.558 143.992 314.976 144.232C314.395 144.472 313.769 144.584 313.14 144.56C312.529 144.587 311.918 144.489 311.347 144.271C310.775 144.053 310.254 143.72 309.816 143.293C309.378 142.865 309.033 142.352 308.801 141.786C308.57 141.22 308.457 140.612 308.47 140V140Z" fill="#263238"/>
<path d="M324.73 143.35V144.45H318.32V135.61H324.55V136.71H319.55V139.42H324V140.5H319.57V143.35H324.73Z" fill="#263238"/>
<path d="M210.35 153.52L207.99 160.52H206.94L205 154.94L203.07 160.56H202L199.65 153.56H200.65L202.55 159.29L204.55 153.56H205.48L207.42 159.32L209.36 153.56L210.35 153.52Z" fill="#E0E0E0"/>
<path d="M215.83 158.22H211.5C211.565 158.678 211.801 159.094 212.162 159.383C212.522 159.673 212.979 159.815 213.44 159.78C213.726 159.789 214.011 159.736 214.274 159.626C214.538 159.516 214.776 159.35 214.97 159.14L215.51 159.76C215.242 160.048 214.915 160.275 214.55 160.423C214.186 160.572 213.793 160.639 213.4 160.62C213.029 160.648 212.657 160.598 212.306 160.473C211.956 160.348 211.636 160.151 211.366 159.895C211.097 159.639 210.884 159.329 210.741 158.985C210.599 158.641 210.531 158.272 210.54 157.9C210.525 157.543 210.583 157.187 210.711 156.853C210.839 156.52 211.035 156.216 211.285 155.961C211.535 155.706 211.835 155.505 212.167 155.371C212.498 155.236 212.853 155.171 213.21 155.18C213.569 155.171 213.925 155.237 214.257 155.373C214.589 155.509 214.888 155.714 215.137 155.972C215.385 156.231 215.577 156.539 215.7 156.876C215.823 157.213 215.874 157.572 215.85 157.93C215.85 158 215.84 158.13 215.83 158.22ZM211.5 157.53H214.92C214.874 157.108 214.675 156.718 214.359 156.435C214.043 156.152 213.634 155.995 213.21 155.995C212.786 155.995 212.377 156.152 212.061 156.435C211.746 156.718 211.546 157.108 211.5 157.53V157.53Z" fill="#E0E0E0"/>
<path d="M217.19 153.1H218.19V160.56H217.19V153.1Z" fill="#E0E0E0"/>
<path d="M219.5 157.9C219.493 157.532 219.561 157.167 219.702 156.827C219.842 156.487 220.051 156.179 220.316 155.924C220.581 155.669 220.895 155.471 221.24 155.343C221.585 155.215 221.953 155.159 222.32 155.18C222.751 155.156 223.18 155.25 223.562 155.451C223.944 155.651 224.265 155.952 224.49 156.32L223.75 156.79C223.596 156.55 223.383 156.353 223.13 156.22C222.878 156.087 222.595 156.021 222.31 156.03C221.836 156.065 221.393 156.277 221.07 156.625C220.747 156.973 220.567 157.43 220.567 157.905C220.567 158.38 220.747 158.837 221.07 159.185C221.393 159.533 221.836 159.745 222.31 159.78C222.595 159.789 222.878 159.723 223.13 159.59C223.383 159.457 223.596 159.26 223.75 159.02L224.49 159.48C224.265 159.848 223.944 160.149 223.562 160.349C223.18 160.55 222.751 160.644 222.32 160.62C221.953 160.641 221.585 160.585 221.24 160.457C220.895 160.329 220.581 160.131 220.316 159.876C220.051 159.621 219.842 159.313 219.702 158.973C219.561 158.633 219.493 158.268 219.5 157.9Z" fill="#E0E0E0"/>
<path d="M225.16 157.9C225.15 157.35 225.304 156.811 225.602 156.349C225.899 155.887 226.328 155.524 226.833 155.306C227.337 155.089 227.895 155.026 228.435 155.127C228.976 155.227 229.474 155.486 229.867 155.87C230.26 156.254 230.529 156.747 230.641 157.285C230.753 157.823 230.703 158.382 230.496 158.891C230.29 159.4 229.936 159.837 229.481 160.145C229.026 160.452 228.49 160.618 227.94 160.62C227.576 160.636 227.212 160.578 226.871 160.448C226.53 160.318 226.22 160.119 225.959 159.864C225.698 159.609 225.493 159.303 225.355 158.965C225.218 158.627 225.151 158.265 225.16 157.9V157.9ZM229.73 157.9C229.714 157.547 229.595 157.207 229.388 156.922C229.18 156.636 228.893 156.418 228.563 156.294C228.232 156.17 227.873 156.147 227.529 156.226C227.185 156.305 226.872 156.483 226.628 156.739C226.385 156.994 226.222 157.316 226.16 157.663C226.098 158.011 226.139 158.369 226.279 158.693C226.419 159.017 226.651 159.293 226.946 159.486C227.241 159.679 227.587 159.782 227.94 159.78C228.184 159.786 228.428 159.741 228.654 159.648C228.88 159.554 229.084 159.414 229.252 159.237C229.421 159.06 229.551 158.85 229.633 158.619C229.715 158.389 229.748 158.144 229.73 157.9Z" fill="#E0E0E0"/>
<path d="M240.89 157.5V160.56H239.89V157.61C239.89 156.56 239.38 156.05 238.51 156.05C237.64 156.05 236.91 156.66 236.91 157.82V160.56H235.91V157.61C235.91 156.56 235.4 156.05 234.53 156.05C233.66 156.05 232.93 156.66 232.93 157.82V160.56H231.93V155.23H233V156.03C233.214 155.749 233.494 155.525 233.815 155.377C234.135 155.229 234.487 155.161 234.84 155.18C235.211 155.158 235.58 155.241 235.907 155.417C236.234 155.594 236.505 155.858 236.69 156.18C236.923 155.857 237.231 155.597 237.589 155.422C237.947 155.248 238.342 155.164 238.74 155.18C239.044 155.153 239.35 155.196 239.635 155.306C239.92 155.415 240.176 155.589 240.384 155.813C240.592 156.037 240.745 156.305 240.833 156.598C240.92 156.89 240.94 157.199 240.89 157.5Z" fill="#E0E0E0"/>
<path d="M247.5 158.22H243.18C243.24 158.678 243.474 159.095 243.833 159.386C244.192 159.676 244.65 159.817 245.11 159.78C245.398 159.79 245.684 159.739 245.95 159.628C246.216 159.518 246.454 159.351 246.65 159.14L247.18 159.76C246.787 160.168 246.283 160.452 245.731 160.577C245.179 160.703 244.602 160.665 244.071 160.467C243.54 160.27 243.078 159.922 242.743 159.466C242.407 159.01 242.211 158.465 242.18 157.9C242.166 157.542 242.226 157.186 242.355 156.852C242.484 156.519 242.681 156.215 242.932 155.96C243.183 155.706 243.483 155.505 243.815 155.371C244.147 155.236 244.502 155.171 244.86 155.18C245.218 155.171 245.574 155.236 245.906 155.373C246.237 155.51 246.536 155.714 246.784 155.973C247.031 156.232 247.222 156.54 247.344 156.877C247.465 157.214 247.515 157.572 247.49 157.93C247.52 158 247.51 158.13 247.5 158.22ZM243.18 157.53H246.6C246.554 157.108 246.354 156.718 246.039 156.435C245.723 156.152 245.314 155.995 244.89 155.995C244.466 155.995 244.057 156.152 243.741 156.435C243.425 156.718 243.226 157.108 243.18 157.53V157.53Z" fill="#E0E0E0"/>
<path d="M248.64 160C248.64 159.914 248.657 159.829 248.691 159.75C248.724 159.671 248.773 159.6 248.834 159.54C248.896 159.48 248.969 159.434 249.049 159.403C249.129 159.372 249.214 159.357 249.3 159.36C249.47 159.36 249.633 159.427 249.753 159.547C249.873 159.667 249.94 159.83 249.94 160C249.94 160.17 249.873 160.332 249.753 160.452C249.633 160.572 249.47 160.64 249.3 160.64C249.214 160.643 249.129 160.628 249.049 160.597C248.969 160.566 248.896 160.519 248.834 160.46C248.773 160.4 248.724 160.329 248.691 160.25C248.657 160.171 248.64 160.086 248.64 160V160ZM248.73 153.54H249.87L249.68 158.36H248.91L248.73 153.54Z" fill="#E0E0E0"/>
<path d="M338.72 106.89H337.54C336.805 106.89 336.21 107.485 336.21 108.22V399.13C336.21 399.865 336.805 400.46 337.54 400.46H338.72C339.455 400.46 340.05 399.865 340.05 399.13V108.22C340.05 107.485 339.455 106.89 338.72 106.89Z" fill="#E0E0E0"/>
<path d="M338.72 106.89H337.54C336.805 106.89 336.21 107.485 336.21 108.22V256.91C336.21 257.645 336.805 258.24 337.54 258.24H338.72C339.455 258.24 340.05 257.645 340.05 256.91V108.22C340.05 107.485 339.455 106.89 338.72 106.89Z" fill="#558EB4"/>
<path d="M163.75 194.52V201.52H162.75V195.4H161.16V194.52H163.75Z" fill="#263238"/>
<path d="M165.27 200.93C165.272 200.796 165.314 200.665 165.389 200.555C165.465 200.444 165.572 200.359 165.697 200.309C165.821 200.259 165.957 200.247 166.089 200.274C166.22 200.302 166.34 200.367 166.434 200.463C166.528 200.558 166.592 200.679 166.618 200.811C166.643 200.943 166.629 201.079 166.577 201.202C166.525 201.326 166.438 201.432 166.327 201.506C166.215 201.58 166.084 201.62 165.95 201.62C165.859 201.621 165.77 201.604 165.686 201.57C165.602 201.536 165.526 201.485 165.463 201.42C165.399 201.356 165.349 201.279 165.316 201.195C165.283 201.111 165.267 201.021 165.27 200.93Z" fill="#263238"/>
<path d="M172.25 195.4H169.83V194.52H175.66V195.4H173.24V201.56H172.24L172.25 195.4Z" fill="#263238"/>
<path d="M180.86 199.22H176.53C176.592 199.677 176.827 200.093 177.186 200.383C177.544 200.673 178 200.815 178.46 200.78C178.748 200.789 179.035 200.736 179.301 200.624C179.567 200.511 179.805 200.343 180 200.13L180.53 200.76C180.139 201.172 179.635 201.46 179.081 201.588C178.528 201.717 177.948 201.679 177.416 201.481C176.883 201.283 176.42 200.933 176.085 200.474C175.75 200.015 175.557 199.468 175.53 198.9C175.515 198.543 175.573 198.187 175.701 197.853C175.829 197.52 176.025 197.216 176.275 196.961C176.525 196.706 176.825 196.505 177.156 196.371C177.488 196.236 177.843 196.171 178.2 196.18C178.559 196.171 178.915 196.237 179.247 196.373C179.579 196.509 179.878 196.714 180.127 196.972C180.375 197.231 180.567 197.539 180.69 197.876C180.813 198.213 180.864 198.572 180.84 198.93C180.88 199 180.87 199.13 180.86 199.22ZM176.53 198.52H180C179.954 198.098 179.754 197.708 179.439 197.425C179.123 197.142 178.714 196.985 178.29 196.985C177.866 196.985 177.457 197.142 177.141 197.425C176.825 197.708 176.626 198.098 176.58 198.52H176.53Z" fill="#263238"/>
<path d="M185.08 196.18V197.12H184.86C184.625 197.105 184.389 197.142 184.17 197.228C183.951 197.315 183.754 197.449 183.593 197.622C183.432 197.794 183.312 198 183.241 198.224C183.169 198.449 183.148 198.686 183.18 198.92V201.57H182.18V196.24H183.1V197.14C183.3 196.804 183.594 196.534 183.946 196.363C184.298 196.193 184.692 196.129 185.08 196.18Z" fill="#263238"/>
<path d="M195.12 198.49V201.56H194.12V198.56C194.12 197.56 193.62 197.01 192.74 197.01C191.86 197.01 191.15 197.62 191.15 198.78V201.52H190.15V198.52C190.15 197.52 189.65 196.97 188.77 196.97C188.542 196.96 188.315 197.001 188.105 197.089C187.895 197.177 187.707 197.31 187.554 197.479C187.401 197.648 187.288 197.849 187.221 198.067C187.155 198.285 187.137 198.515 187.17 198.74V201.48H186.17V196.15H187.09V196.95C187.304 196.669 187.583 196.444 187.904 196.296C188.225 196.148 188.577 196.08 188.93 196.1C189.301 196.078 189.67 196.161 189.997 196.337C190.324 196.514 190.595 196.778 190.78 197.1C191.013 196.776 191.324 196.514 191.684 196.34C192.043 196.165 192.441 196.083 192.84 196.1C193.161 196.047 193.49 196.074 193.799 196.177C194.108 196.28 194.386 196.458 194.611 196.693C194.836 196.929 194.999 197.215 195.088 197.528C195.177 197.842 195.188 198.172 195.12 198.49Z" fill="#263238"/>
<path d="M166.51 309.92V310.79H161.51V310.11L164.37 307.34C165.12 306.62 165.26 306.18 165.26 305.73C165.26 305.01 164.74 304.57 163.76 304.57C163.422 304.55 163.084 304.608 162.771 304.74C162.459 304.872 162.182 305.074 161.96 305.33L161.27 304.74C161.593 304.381 161.993 304.099 162.439 303.914C162.886 303.729 163.367 303.645 163.85 303.67C165.32 303.67 166.26 304.43 166.26 305.67C166.249 306.102 166.14 306.525 165.94 306.908C165.741 307.291 165.457 307.623 165.11 307.88L162.95 309.96L166.51 309.92Z" fill="#263238"/>
<path d="M167.42 310.16C167.417 310.069 167.433 309.979 167.466 309.895C167.499 309.811 167.549 309.734 167.612 309.67C167.676 309.605 167.752 309.554 167.836 309.52C167.92 309.486 168.009 309.469 168.1 309.47C168.283 309.47 168.458 309.543 168.588 309.672C168.717 309.801 168.79 309.977 168.79 310.16C168.79 310.343 168.717 310.518 168.588 310.648C168.458 310.777 168.283 310.85 168.1 310.85C168.01 310.85 167.921 310.832 167.837 310.797C167.754 310.762 167.679 310.711 167.616 310.647C167.552 310.583 167.502 310.507 167.469 310.423C167.435 310.34 167.419 310.25 167.42 310.16Z" fill="#263238"/>
<path d="M173 303.75H174V309.92H177.81V310.79H173V303.75Z" fill="#263238"/>
<path d="M178.67 303.81C178.67 303.726 178.687 303.642 178.72 303.564C178.753 303.486 178.801 303.416 178.862 303.357C178.922 303.299 178.994 303.253 179.073 303.222C179.152 303.192 179.236 303.177 179.32 303.18C179.444 303.184 179.563 303.224 179.664 303.296C179.765 303.367 179.843 303.467 179.888 303.582C179.932 303.698 179.942 303.824 179.915 303.945C179.889 304.066 179.827 304.176 179.738 304.262C179.65 304.348 179.537 304.406 179.416 304.429C179.294 304.452 179.168 304.438 179.055 304.39C178.941 304.342 178.843 304.261 178.775 304.158C178.707 304.055 178.67 303.934 178.67 303.81V303.81ZM178.84 305.46H179.84V310.79H178.84V305.46Z" fill="#263238"/>
<path d="M181.15 308.13C181.143 307.763 181.211 307.399 181.351 307.059C181.491 306.72 181.699 306.413 181.962 306.158C182.226 305.903 182.54 305.704 182.883 305.576C183.227 305.447 183.594 305.391 183.96 305.41C184.393 305.383 184.825 305.476 185.209 305.676C185.593 305.877 185.915 306.179 186.14 306.55L185.4 307.02C185.246 306.78 185.033 306.583 184.78 306.45C184.528 306.317 184.245 306.251 183.96 306.26C183.486 306.295 183.043 306.507 182.72 306.855C182.397 307.203 182.217 307.66 182.217 308.135C182.217 308.61 182.397 309.067 182.72 309.415C183.043 309.763 183.486 309.975 183.96 310.01C184.246 310.017 184.529 309.949 184.781 309.814C185.034 309.679 185.247 309.482 185.4 309.24L186.14 309.7C185.915 310.072 185.594 310.375 185.21 310.578C184.826 310.78 184.394 310.874 183.96 310.85C183.594 310.869 183.227 310.813 182.883 310.684C182.54 310.556 182.226 310.357 181.962 310.102C181.699 309.847 181.491 309.54 181.351 309.201C181.211 308.861 181.143 308.497 181.15 308.13V308.13Z" fill="#263238"/>
<path d="M192.1 308.45H187.78C187.842 308.907 188.077 309.323 188.436 309.613C188.794 309.903 189.25 310.045 189.71 310.01C189.998 310.019 190.285 309.966 190.551 309.854C190.817 309.741 191.055 309.573 191.25 309.36L191.78 309.99C191.387 310.398 190.883 310.682 190.331 310.807C189.779 310.933 189.202 310.895 188.671 310.697C188.14 310.5 187.679 310.152 187.343 309.696C187.007 309.24 186.811 308.696 186.78 308.13C186.766 307.773 186.826 307.416 186.955 307.082C187.084 306.749 187.281 306.445 187.532 306.19C187.783 305.936 188.084 305.735 188.415 305.601C188.747 305.466 189.102 305.402 189.46 305.41C189.818 305.401 190.174 305.467 190.506 305.603C190.837 305.74 191.136 305.944 191.384 306.203C191.631 306.462 191.822 306.77 191.944 307.107C192.065 307.444 192.115 307.803 192.09 308.16C192.12 308.24 192.11 308.36 192.1 308.45ZM187.78 307.75H191.2C191.154 307.328 190.955 306.938 190.639 306.655C190.323 306.372 189.914 306.215 189.49 306.215C189.066 306.215 188.657 306.372 188.341 306.655C188.026 306.938 187.826 307.328 187.78 307.75Z" fill="#263238"/>
<path d="M198.52 307.72V310.79H197.52V307.79C197.52 306.79 197 306.24 196.09 306.24C195.856 306.222 195.622 306.256 195.403 306.34C195.184 306.423 194.987 306.555 194.825 306.724C194.663 306.894 194.541 307.097 194.468 307.319C194.394 307.542 194.371 307.778 194.4 308.01V310.75H193.4V305.42H194.33V306.22C194.558 305.935 194.852 305.709 195.186 305.561C195.52 305.413 195.885 305.347 196.25 305.37C196.564 305.334 196.882 305.371 197.179 305.478C197.476 305.585 197.745 305.758 197.964 305.986C198.183 306.213 198.348 306.487 198.444 306.788C198.541 307.089 198.566 307.408 198.52 307.72V307.72Z" fill="#263238"/>
<path d="M199.85 308.13C199.841 307.763 199.908 307.397 200.048 307.057C200.187 306.717 200.395 306.41 200.659 306.154C200.923 305.899 201.237 305.701 201.582 305.573C201.926 305.445 202.293 305.389 202.66 305.41C203.093 305.383 203.525 305.476 203.909 305.676C204.293 305.877 204.615 306.179 204.84 306.55L204.1 307.02C203.945 306.779 203.729 306.582 203.475 306.449C203.221 306.316 202.937 306.251 202.65 306.26C202.176 306.295 201.733 306.507 201.41 306.855C201.087 307.203 200.907 307.66 200.907 308.135C200.907 308.61 201.087 309.067 201.41 309.415C201.733 309.763 202.176 309.975 202.65 310.01C202.938 310.017 203.222 309.95 203.476 309.815C203.73 309.681 203.945 309.482 204.1 309.24L204.84 309.7C204.615 310.072 204.294 310.375 203.91 310.578C203.526 310.78 203.094 310.874 202.66 310.85C202.294 310.869 201.927 310.813 201.583 310.684C201.24 310.556 200.926 310.357 200.662 310.102C200.399 309.847 200.191 309.54 200.051 309.201C199.911 308.861 199.843 308.497 199.85 308.13V308.13Z" fill="#263238"/>
<path d="M210.8 308.45H206.48C206.542 308.907 206.777 309.323 207.136 309.613C207.494 309.903 207.95 310.045 208.41 310.01C208.698 310.019 208.985 309.966 209.251 309.854C209.517 309.741 209.755 309.573 209.95 309.36L210.48 309.99C210.087 310.398 209.583 310.682 209.031 310.807C208.479 310.933 207.902 310.895 207.371 310.697C206.84 310.5 206.379 310.152 206.043 309.696C205.707 309.24 205.511 308.696 205.48 308.13C205.466 307.773 205.526 307.416 205.655 307.082C205.784 306.749 205.981 306.445 206.232 306.19C206.483 305.936 206.783 305.735 207.115 305.601C207.447 305.466 207.802 305.402 208.16 305.41C208.518 305.401 208.874 305.467 209.206 305.603C209.537 305.74 209.836 305.944 210.084 306.203C210.331 306.462 210.522 306.77 210.644 307.107C210.765 307.444 210.815 307.803 210.79 308.16C210.82 308.24 210.81 308.36 210.8 308.45ZM206.48 307.75H209.9C209.854 307.328 209.655 306.938 209.339 306.655C209.023 306.372 208.614 306.215 208.19 306.215C207.766 306.215 207.357 306.372 207.041 306.655C206.726 306.938 206.526 307.328 206.48 307.75V307.75Z" fill="#263238"/>
<path d="M315.23 217.39C315.23 217.54 280.72 217.65 238.16 217.65C195.6 217.65 161.08 217.54 161.08 217.39C161.08 217.24 195.59 217.13 238.16 217.13C280.73 217.13 315.23 217.25 315.23 217.39Z" fill="#263238"/>
<path d="M315.23 229.06C315.23 229.2 280.72 229.32 238.16 229.32C195.6 229.32 161.08 229.2 161.08 229.06C161.08 228.92 195.59 228.8 238.16 228.8C280.73 228.8 315.23 228.91 315.23 229.06Z" fill="#263238"/>
<path d="M315.23 240.72C315.23 240.87 280.72 240.98 238.16 240.98C195.6 240.98 161.08 240.87 161.08 240.72C161.08 240.57 195.59 240.46 238.16 240.46C280.73 240.46 315.23 240.58 315.23 240.72Z" fill="#263238"/>
<path d="M315.23 252.39C315.23 252.53 280.72 252.65 238.16 252.65C195.6 252.65 161.08 252.53 161.08 252.39C161.08 252.25 195.59 252.13 238.16 252.13C280.73 252.13 315.23 252.24 315.23 252.39Z" fill="#263238"/>
<path d="M315.23 264.05C315.23 264.2 280.72 264.31 238.16 264.31C195.6 264.31 161.08 264.2 161.08 264.05C161.08 263.9 195.59 263.79 238.16 263.79C280.73 263.79 315.23 263.91 315.23 264.05Z" fill="#263238"/>
<path d="M315.23 275.72C315.23 275.86 280.72 275.98 238.16 275.98C195.6 275.98 161.08 275.86 161.08 275.72C161.08 275.58 195.59 275.46 238.16 275.46C280.73 275.46 315.23 275.57 315.23 275.72Z" fill="#263238"/>
<path d="M315.23 320C315.23 320.14 280.72 320.26 238.16 320.26C195.6 320.26 161.08 320.14 161.08 320C161.08 319.86 195.59 319.74 238.16 319.74C280.73 319.74 315.23 319.88 315.23 320Z" fill="#263238"/>
<path d="M315.23 330C315.23 330.15 280.72 330.26 238.16 330.26C195.6 330.26 161.08 330.15 161.08 330C161.08 329.85 195.59 329.74 238.16 329.74C280.73 329.74 315.23 329.86 315.23 330Z" fill="#E0E0E0"/>
<path d="M315.23 340C315.23 340.14 280.72 340.26 238.16 340.26C195.6 340.26 161.08 340.14 161.08 340C161.08 339.86 195.59 339.74 238.16 339.74C280.73 339.74 315.23 339.84 315.23 340Z" fill="#EBEBEB"/>
<path d="M326.48 369.83H244.94V400.21H326.48V369.83Z" fill="#558EB4"/>
<path d="M272.1 386.59H268.1L267.27 388.48H266.16L269.58 380.93H270.64L274.07 388.48H272.94L272.1 386.59ZM271.72 385.73L270.09 382.03L268.47 385.73H271.72Z" fill="white"/>
<path d="M274.45 385.62C274.443 385.228 274.516 384.839 274.665 384.477C274.815 384.114 275.037 383.787 275.318 383.514C275.6 383.241 275.934 383.029 276.301 382.89C276.667 382.752 277.059 382.691 277.45 382.71C277.913 382.682 278.374 382.781 278.784 382.996C279.195 383.211 279.539 383.534 279.78 383.93L278.99 384.43C278.824 384.171 278.595 383.96 278.323 383.816C278.051 383.672 277.747 383.601 277.44 383.61C276.91 383.61 276.401 383.821 276.026 384.196C275.651 384.571 275.44 385.08 275.44 385.61C275.44 386.14 275.651 386.649 276.026 387.024C276.401 387.399 276.91 387.61 277.44 387.61C277.747 387.619 278.051 387.548 278.323 387.404C278.595 387.26 278.824 387.049 278.99 386.79L279.78 387.28C279.54 387.677 279.196 388.001 278.785 388.218C278.375 388.434 277.913 388.535 277.45 388.51C277.06 388.529 276.671 388.468 276.305 388.331C275.94 388.194 275.607 387.984 275.326 387.713C275.045 387.442 274.822 387.117 274.671 386.757C274.521 386.397 274.445 386.01 274.45 385.62V385.62Z" fill="white"/>
<path d="M280.52 385.62C280.513 385.228 280.586 384.839 280.735 384.477C280.885 384.114 281.107 383.786 281.388 383.514C281.67 383.241 282.004 383.029 282.371 382.89C282.737 382.752 283.129 382.691 283.52 382.71C283.983 382.681 284.444 382.78 284.855 382.995C285.266 383.21 285.61 383.533 285.85 383.93L285.06 384.43C284.894 384.171 284.665 383.96 284.393 383.816C284.121 383.672 283.817 383.601 283.51 383.61C282.98 383.61 282.471 383.821 282.096 384.196C281.721 384.571 281.51 385.079 281.51 385.61C281.51 386.14 281.721 386.649 282.096 387.024C282.471 387.399 282.98 387.61 283.51 387.61C283.817 387.619 284.121 387.548 284.393 387.404C284.665 387.26 284.894 387.049 285.06 386.79L285.85 387.28C285.61 387.678 285.267 388.002 284.856 388.219C284.446 388.436 283.984 388.536 283.52 388.51C283.13 388.529 282.741 388.468 282.375 388.331C282.01 388.194 281.677 387.984 281.396 387.713C281.115 387.442 280.892 387.117 280.741 386.757C280.591 386.397 280.515 386.01 280.52 385.62Z" fill="white"/>
<path d="M292.27 386H287.63C287.697 386.49 287.949 386.935 288.334 387.245C288.718 387.556 289.207 387.708 289.7 387.67C290.009 387.681 290.316 387.625 290.601 387.506C290.885 387.386 291.141 387.207 291.35 386.98L291.92 387.65C291.633 387.959 291.282 388.201 290.892 388.36C290.501 388.519 290.081 388.591 289.66 388.57C289.262 388.599 288.862 388.545 288.487 388.411C288.111 388.276 287.767 388.065 287.478 387.79C287.189 387.515 286.961 387.183 286.808 386.814C286.655 386.445 286.581 386.049 286.59 385.65C286.575 385.267 286.638 384.885 286.777 384.528C286.915 384.171 287.125 383.846 287.394 383.573C287.663 383.3 287.985 383.085 288.341 382.942C288.696 382.799 289.077 382.73 289.46 382.74C289.844 382.728 290.227 382.796 290.583 382.941C290.939 383.086 291.261 383.304 291.528 383.581C291.795 383.858 292 384.188 292.132 384.55C292.263 384.911 292.317 385.296 292.29 385.68C292.29 385.74 292.28 385.87 292.27 386ZM287.63 385.25H291.29C291.243 384.798 291.029 384.379 290.691 384.074C290.354 383.77 289.915 383.601 289.46 383.601C289.005 383.601 288.566 383.77 288.229 384.074C287.891 384.379 287.677 384.798 287.63 385.25V385.25Z" fill="white"/>
<path d="M299.64 385.62C299.661 386.006 299.601 386.393 299.464 386.755C299.327 387.117 299.115 387.446 298.843 387.721C298.571 387.996 298.244 388.211 297.883 388.352C297.523 388.493 297.137 388.557 296.75 388.54C296.368 388.553 295.989 388.476 295.641 388.316C295.294 388.156 294.989 387.918 294.75 387.62V390.57H293.75V382.76H294.75V383.67C294.978 383.355 295.279 383.099 295.628 382.925C295.976 382.751 296.361 382.664 296.75 382.67C297.139 382.652 297.528 382.717 297.891 382.86C298.253 383.002 298.582 383.22 298.855 383.499C299.128 383.777 299.338 384.11 299.474 384.475C299.609 384.841 299.666 385.231 299.64 385.62V385.62ZM298.59 385.62C298.576 385.242 298.452 384.875 298.231 384.567C298.011 384.259 297.705 384.023 297.351 383.888C296.998 383.752 296.612 383.724 296.242 383.806C295.873 383.888 295.535 384.077 295.272 384.35C295.01 384.622 294.833 384.966 294.764 385.338C294.695 385.711 294.737 386.095 294.885 386.444C295.032 386.792 295.28 387.09 295.595 387.299C295.911 387.508 296.281 387.62 296.66 387.62C296.921 387.626 297.181 387.578 297.422 387.478C297.664 387.379 297.882 387.231 298.063 387.043C298.245 386.855 298.385 386.632 298.476 386.387C298.566 386.142 298.605 385.881 298.59 385.62V385.62Z" fill="white"/>
<path d="M304.29 388.14C303.927 388.412 303.483 388.553 303.03 388.54C302.787 388.568 302.541 388.542 302.31 388.462C302.079 388.382 301.869 388.252 301.695 388.08C301.521 387.908 301.388 387.699 301.306 387.469C301.224 387.239 301.194 386.993 301.22 386.75V383.61H300.22V382.76H301.22V381.51H302.22V382.76H303.86V383.61H302.22V386.71C302.195 386.837 302.2 386.969 302.234 387.094C302.268 387.219 302.33 387.334 302.417 387.431C302.503 387.528 302.61 387.603 302.731 387.652C302.851 387.7 302.981 387.72 303.11 387.71C303.403 387.715 303.688 387.619 303.92 387.44L304.29 388.14Z" fill="white"/>
<path d="M157.27 400.45C157.27 400.45 157.2 400.45 157.07 400.32L156.49 399.87L154.06 398L153.97 397.93L154.08 397.88C163.92 394.11 196.01 382.07 235.56 367.33L235.7 367.28L235.81 367.37L238.97 369.91L239.07 369.99V400.75H238.81L180.51 400.65L163.42 400.58H158.84H157.66C157.53 400.587 157.4 400.587 157.27 400.58H157.68H158.87H163.48L180.59 400.51L238.81 400.41L238.56 400.66C238.56 393.61 238.56 386.23 238.56 378.66V370.28L238.66 370.48L235.5 367.93H235.75C196.19 382.65 164.05 394.55 154.14 398.13V398.02L156.5 399.97L157.08 400.45H157.27Z" fill="#558EB4"/>
<path d="M235.64 367.53H154.1V397.91H235.64V367.53Z" fill="white"/>
<path d="M235.65 397.91C235.65 397.91 235.65 397.72 235.65 397.36C235.65 397 235.65 396.47 235.65 395.79C235.65 394.4 235.65 392.37 235.65 389.79C235.65 384.56 235.59 376.99 235.55 367.56L235.73 367.74L154.19 367.82L154.45 367.56C154.45 378.16 154.45 388.42 154.45 397.94L154.2 397.69L212.57 397.81L229.57 397.88H234.14H235.33H235.74H235.36H234.2H229.69L212.74 397.95L154.19 398.07H153.94V397.82C153.94 388.3 153.94 378.04 153.94 367.44V367.18H154.21L235.75 367.26H235.93V367.44C235.93 376.91 235.85 384.52 235.83 389.78C235.83 392.37 235.83 394.38 235.83 395.78C235.83 396.44 235.83 396.95 235.83 397.32C235.83 397.69 235.65 397.91 235.65 397.91Z" fill="#558EB4"/>
<path d="M176.45 380.57H179.63C180.15 380.532 180.671 380.602 181.163 380.775C181.654 380.947 182.105 381.22 182.486 381.574C182.867 381.929 183.172 382.359 183.38 382.836C183.588 383.314 183.695 383.829 183.695 384.35C183.695 384.871 183.588 385.386 183.38 385.864C183.172 386.341 182.867 386.771 182.486 387.125C182.105 387.48 181.654 387.752 181.163 387.925C180.671 388.098 180.15 388.168 179.63 388.13H176.45V380.57ZM179.57 387.19C179.963 387.223 180.359 387.174 180.732 387.046C181.105 386.919 181.447 386.715 181.738 386.448C182.028 386.181 182.26 385.857 182.418 385.496C182.577 385.134 182.659 384.744 182.659 384.35C182.659 383.956 182.577 383.565 182.418 383.204C182.26 382.843 182.028 382.519 181.738 382.252C181.447 381.985 181.105 381.781 180.732 381.654C180.359 381.526 179.963 381.477 179.57 381.51H177.57V387.19H179.57Z" fill="#558EB4"/>
<path d="M190.35 385.61H185.71C185.777 386.101 186.031 386.549 186.417 386.859C186.804 387.17 187.295 387.32 187.79 387.28C188.099 387.293 188.407 387.238 188.692 387.118C188.977 386.999 189.232 386.819 189.44 386.59L190.01 387.26C189.587 387.687 189.049 387.983 188.461 388.112C187.873 388.24 187.261 388.196 186.698 387.985C186.134 387.774 185.644 387.404 185.286 386.92C184.928 386.437 184.718 385.86 184.68 385.26C184.663 384.876 184.726 384.493 184.864 384.135C185.001 383.776 185.211 383.45 185.48 383.176C185.75 382.902 186.072 382.687 186.428 382.543C186.784 382.399 187.166 382.33 187.55 382.34C187.935 382.329 188.318 382.399 188.674 382.545C189.03 382.691 189.352 382.91 189.618 383.188C189.885 383.466 190.09 383.797 190.221 384.159C190.353 384.52 190.407 384.906 190.38 385.29C190.38 385.39 190.36 385.51 190.35 385.61ZM185.71 384.87H189.38C189.323 384.424 189.105 384.013 188.767 383.716C188.429 383.419 187.995 383.255 187.545 383.255C187.095 383.255 186.661 383.419 186.323 383.716C185.985 384.013 185.767 384.424 185.71 384.87V384.87Z" fill="#558EB4"/>
<path d="M191.28 385.27C191.271 384.877 191.344 384.487 191.492 384.123C191.641 383.76 191.863 383.431 192.144 383.157C192.426 382.883 192.761 382.67 193.128 382.531C193.496 382.392 193.888 382.331 194.28 382.35C194.743 382.322 195.204 382.421 195.614 382.636C196.025 382.851 196.369 383.174 196.61 383.57L195.82 384.08C195.654 383.822 195.424 383.611 195.152 383.467C194.881 383.324 194.577 383.252 194.27 383.26C193.74 383.26 193.231 383.471 192.856 383.846C192.481 384.221 192.27 384.73 192.27 385.26C192.27 385.79 192.481 386.299 192.856 386.674C193.231 387.049 193.74 387.26 194.27 387.26C194.577 387.268 194.881 387.196 195.152 387.053C195.424 386.909 195.654 386.698 195.82 386.44L196.61 386.94C196.37 387.337 196.026 387.661 195.615 387.878C195.205 388.094 194.743 388.195 194.28 388.17C193.889 388.189 193.499 388.128 193.133 387.99C192.767 387.853 192.433 387.642 192.152 387.37C191.871 387.098 191.648 386.771 191.498 386.41C191.348 386.049 191.274 385.661 191.28 385.27V385.27Z" fill="#558EB4"/>
<path d="M197.89 380.12H198.89V388.12H197.89V380.12Z" fill="#558EB4"/>
<path d="M200.71 380.64C200.711 380.549 200.73 380.46 200.766 380.377C200.802 380.294 200.854 380.218 200.919 380.155C200.984 380.092 201.061 380.042 201.145 380.009C201.229 379.975 201.319 379.959 201.41 379.96C201.544 379.964 201.673 380.007 201.782 380.084C201.891 380.161 201.975 380.269 202.024 380.393C202.072 380.518 202.083 380.654 202.054 380.785C202.026 380.915 201.96 381.034 201.864 381.127C201.768 381.221 201.647 381.283 201.515 381.308C201.384 381.333 201.248 381.318 201.125 381.266C201.002 381.214 200.897 381.127 200.823 381.016C200.75 380.904 200.71 380.774 200.71 380.64V380.64ZM200.9 382.41H201.9V388.13H200.9V382.41Z" fill="#558EB4"/>
<path d="M209.33 384.84V388.13H208.33V385C208.33 383.88 207.76 383.33 206.78 383.33C206.53 383.312 206.279 383.349 206.045 383.44C205.811 383.53 205.6 383.671 205.427 383.853C205.254 384.035 205.123 384.252 205.044 384.49C204.965 384.728 204.94 384.981 204.97 385.23V388.18H203.97V382.46H204.97V383.32C205.215 383.013 205.529 382.769 205.888 382.609C206.246 382.449 206.638 382.377 207.03 382.4C207.348 382.387 207.664 382.442 207.959 382.562C208.253 382.682 208.518 382.864 208.737 383.095C208.955 383.327 209.12 383.602 209.223 383.903C209.325 384.204 209.362 384.524 209.33 384.84V384.84Z" fill="#558EB4"/>
<path d="M216.43 385.61H211.79C211.857 386.1 212.109 386.545 212.494 386.855C212.878 387.166 213.367 387.318 213.86 387.28C214.169 387.293 214.477 387.238 214.762 387.118C215.047 386.999 215.302 386.819 215.51 386.59L216.08 387.26C215.657 387.687 215.119 387.983 214.531 388.112C213.943 388.24 213.331 388.196 212.768 387.985C212.204 387.774 211.714 387.404 211.356 386.92C210.998 386.437 210.788 385.86 210.75 385.26C210.733 384.876 210.796 384.493 210.934 384.135C211.071 383.776 211.281 383.45 211.55 383.176C211.82 382.902 212.142 382.687 212.498 382.543C212.854 382.399 213.236 382.33 213.62 382.34C214.005 382.329 214.388 382.399 214.744 382.545C215.1 382.691 215.422 382.91 215.688 383.188C215.955 383.466 216.16 383.797 216.291 384.159C216.423 384.52 216.477 384.906 216.45 385.29C216.45 385.39 216.44 385.51 216.43 385.61ZM211.79 384.87H215.45C215.403 384.418 215.189 383.999 214.851 383.694C214.514 383.39 214.075 383.221 213.62 383.221C213.165 383.221 212.726 383.39 212.389 383.694C212.051 383.999 211.837 384.418 211.79 384.87Z" fill="#558EB4"/>
<path d="M238.81 400.45C238.71 400.56 237.92 399.96 237.05 399.12C236.18 398.28 235.55 397.52 235.65 397.41C235.75 397.3 236.54 397.91 237.41 398.75C238.28 399.59 238.91 400.35 238.81 400.45Z" fill="#558EB4"/>
<path d="M355.3 392.86L366.94 387.26L360.54 368.34L346.48 365.09C345.17 364.79 343.71 364.44 342.09 363.99C340.185 363.459 338.383 362.61 336.76 361.48C334.692 360.166 332.815 358.575 331.18 356.75C329.85 354.94 327.03 355.62 327.03 357.63C327.03 359.64 330.58 364.71 336.89 368.3C343.2 371.89 332.04 373.62 328 374.3C323.96 374.98 311.54 377.77 310.8 379.18C309.72 381.24 311.8 382.82 315.8 382.03C319.8 381.24 332.09 379.68 332.41 381.82V381.88C331.423 383.423 330.944 385.236 331.039 387.065C331.134 388.894 331.799 390.648 332.94 392.08C335.2 394.91 338.59 398.46 341.08 397.92C345.76 396.93 355.3 392.86 355.3 392.86Z" fill="#B78876"/>
<path d="M354.59 359.57L365.5 396.46L450.21 370.72C454.534 369.399 458.551 367.229 462.026 364.336C465.502 361.444 468.365 357.887 470.449 353.875C472.533 349.862 473.796 345.475 474.163 340.968C474.531 336.462 473.996 331.927 472.59 327.63L451.82 263L406.71 274.2L431.47 334L354.59 359.57Z" fill="#558EB4"/>
<path d="M452.12 370.07L451.71 370.22L450.49 370.61L445.75 372.08L428 377.52L366.34 396.23L366.11 396.29L366.03 396.07C362.26 384.79 358.6 372.39 354.37 359.65L354.29 359.41L354.54 359.32L356.67 358.62L431.43 333.79L431.31 334.06C425.31 319.56 420.45 307.68 417.05 299.4C415.37 295.28 414.05 292.06 413.15 289.85C412.72 288.76 412.38 287.92 412.15 287.34C411.92 286.76 411.83 286.48 411.83 286.48C411.83 286.48 411.97 286.76 412.21 287.32L413.27 289.8C414.19 292 415.54 295.21 417.27 299.31C420.71 307.57 425.65 319.43 431.69 333.91L431.77 334.11L431.56 334.18L356.8 359.11L354.67 359.82L354.83 359.49C359.07 372.24 362.71 384.64 366.47 395.91L366.17 395.75L427.88 377.23L445.7 371.92L450.46 370.53L451.7 370.18L452.12 370.07Z" fill="#263238"/>
<path d="M447.13 344.75C447.05 344.75 446.49 343.82 445.36 342.41C442.393 338.725 438.359 336.05 433.81 334.75C432.07 334.25 430.95 334.11 430.96 334.02C431.225 333.972 431.495 333.972 431.76 334.02C432.481 334.087 433.196 334.208 433.9 334.38C436.236 334.946 438.456 335.914 440.46 337.24C442.466 338.566 444.223 340.235 445.65 342.17C446.083 342.753 446.47 343.368 446.81 344.01C446.961 344.235 447.069 344.486 447.13 344.75V344.75Z" fill="#263238"/>
<path d="M426.6 277.34C426.337 275.529 426.25 273.697 426.34 271.87C426.25 270.042 426.337 268.211 426.6 266.4C426.947 270.038 426.947 273.701 426.6 277.34V277.34Z" fill="#FAFAFA"/>
<path d="M443.61 278.21C442.832 276.526 442.216 274.771 441.77 272.97C441.155 271.22 440.706 269.415 440.43 267.58C441.821 271.016 442.886 274.575 443.61 278.21V278.21Z" fill="#FAFAFA"/>
<path d="M433.06 293.56C429.558 293.533 426.132 292.529 423.17 290.66C423.24 290.52 425.33 291.51 428.06 292.3C430.79 293.09 433.07 293.41 433.06 293.56Z" fill="#FAFAFA"/>
<path d="M452.3 302C452.34 300.243 452.554 298.494 452.94 296.78C453.154 295.033 453.539 293.311 454.09 291.64C454.045 293.4 453.83 295.151 453.45 296.87C453.239 298.614 452.853 300.333 452.3 302Z" fill="#FAFAFA"/>
<path d="M445.42 315.78C443.606 312.661 442.102 309.372 440.93 305.96C442.738 309.082 444.241 312.37 445.42 315.78V315.78Z" fill="#FAFAFA"/>
<path d="M442.6 327.84C440.953 327.336 439.361 326.666 437.85 325.84C436.265 325.171 434.754 324.34 433.34 323.36C434.98 323.875 436.567 324.545 438.08 325.36C439.667 326.031 441.182 326.862 442.6 327.84Z" fill="#FAFAFA"/>
<path d="M464.24 324.63C463.7 326.199 463.063 327.732 462.33 329.22C461.759 330.774 461.091 332.29 460.33 333.76C461.042 330.496 462.369 327.398 464.24 324.63Z" fill="#FAFAFA"/>
<path d="M458.22 353.68C457.498 349.98 457.126 346.22 457.11 342.45C457.545 344.286 457.816 346.156 457.92 348.04C458.191 349.907 458.292 351.795 458.22 353.68V353.68Z" fill="#FAFAFA"/>
<path d="M442.94 362.85C441.497 361.89 440.157 360.784 438.94 359.55C437.614 358.447 436.401 357.214 435.32 355.87C436.763 356.83 438.103 357.936 439.32 359.17C440.646 360.273 441.859 361.506 442.94 362.85Z" fill="#FAFAFA"/>
<path d="M416.54 365.48C414.649 368.655 412.459 371.641 410 374.4C410.868 372.768 411.893 371.224 413.06 369.79C414.082 368.248 415.248 366.805 416.54 365.48Z" fill="#FAFAFA"/>
<path d="M424.91 353.11C423.392 352.129 422.027 350.93 420.86 349.55C419.568 348.289 418.475 346.839 417.62 345.25C417.74 345.16 419.23 347.04 421.24 349.2C423.25 351.36 425 353 424.91 353.11Z" fill="#FAFAFA"/>
<path d="M405 355.92C403.732 356.43 402.353 356.599 401 356.41C399.637 356.393 398.302 356.028 397.12 355.35C397.18 355.2 398.87 355.74 401.03 355.89C403.19 356.04 405 355.77 405 355.92Z" fill="#FAFAFA"/>
<path d="M392.39 377.8C391.891 376.41 391.555 374.967 391.39 373.5C391.052 372.061 390.887 370.588 390.9 369.11C391.735 371.938 392.235 374.855 392.39 377.8V377.8Z" fill="#FAFAFA"/>
<path d="M377.51 385.34C374.06 383.577 370.777 381.505 367.7 379.15C369.466 379.958 371.156 380.922 372.75 382.03C374.431 382.992 376.023 384.099 377.51 385.34V385.34Z" fill="#FAFAFA"/>
<path d="M382.82 358.72C382.93 358.82 381.48 360.54 379.87 362.78C378.26 365.02 377.06 366.93 376.93 366.86C377.534 365.275 378.381 363.794 379.44 362.47C380.361 361.049 381.502 359.783 382.82 358.72Z" fill="#FAFAFA"/>
<path d="M371.32 363.77C370.286 363.542 369.297 363.147 368.39 362.6C367.412 362.206 366.506 361.652 365.71 360.96C367.723 361.578 369.619 362.528 371.32 363.77Z" fill="#FAFAFA"/>
<g opacity="0.2">
<path opacity="0.2" d="M430.76 332.47C435.28 332.93 439.81 333.4 444.32 333.97C445.893 334.085 447.442 334.421 448.92 334.97C449.655 335.256 450.324 335.688 450.888 336.24C451.452 336.792 451.898 337.451 452.2 338.18C452.482 338.919 452.512 339.73 452.286 340.487C452.06 341.245 451.591 341.907 450.95 342.37C450.31 342.698 449.595 342.854 448.876 342.822C448.157 342.791 447.459 342.573 446.85 342.19C445.639 341.42 444.507 340.532 443.47 339.54C441.436 337.858 439.072 336.621 436.53 335.91C435.372 335.69 434.253 335.299 433.21 334.75C432.689 334.46 432.271 334.016 432.013 333.479C431.755 332.942 431.67 332.338 431.77 331.75" fill="black"/>
</g>
</svg>
