<svg width="500" height="500" viewBox="0 0 500 500" fill="none" xmlns="http://www.w3.org/2000/svg">
<path d="M300.65 135.2C300.286 135.229 299.937 135.357 299.641 135.571C299.345 135.784 299.113 136.074 298.97 136.41L295.35 145.33C295.237 145.607 295.189 145.906 295.212 146.205C295.234 146.503 295.325 146.792 295.479 147.049C295.632 147.306 295.843 147.524 296.095 147.686C296.346 147.847 296.632 147.948 296.93 147.98C297.744 148.085 298.528 148.355 299.233 148.775C299.938 149.195 300.55 149.755 301.03 150.42C301.484 151.001 301.815 151.669 302.002 152.383C302.19 153.096 302.23 153.841 302.12 154.57C301.96 155.296 301.657 155.982 301.227 156.588C300.798 157.194 300.251 157.708 299.62 158.1C298.258 158.996 296.598 159.319 295 159C293.428 158.536 292.061 157.553 291.121 156.21C290.182 154.867 289.727 153.245 289.83 151.61C289.833 151.119 289.65 150.644 289.317 150.283C288.983 149.921 288.526 149.7 288.035 149.663C287.545 149.626 287.059 149.777 286.676 150.084C286.293 150.392 286.04 150.834 285.97 151.32C285.809 153.875 286.532 156.408 288.018 158.493C289.504 160.578 291.662 162.089 294.13 162.77C295.442 163.051 296.798 163.064 298.115 162.81C299.433 162.556 300.686 162.039 301.8 161.29C302.866 160.609 303.784 159.721 304.501 158.678C305.217 157.635 305.717 156.459 305.97 155.22C306.175 153.969 306.122 152.69 305.814 151.46C305.507 150.23 304.95 149.077 304.18 148.07C303.068 146.563 301.558 145.396 299.82 144.7L302.61 137.82C302.801 137.344 302.796 136.811 302.595 136.339C302.395 135.867 302.015 135.493 301.54 135.3C301.254 135.202 300.95 135.168 300.65 135.2Z" fill="#E0E0E0"/>
<path d="M304.64 132.45C304.763 132.164 304.799 131.847 304.743 131.54C304.687 131.234 304.541 130.95 304.324 130.726C304.107 130.502 303.829 130.347 303.524 130.281C303.22 130.215 302.902 130.24 302.612 130.354C302.321 130.468 302.071 130.665 301.893 130.921C301.715 131.177 301.616 131.48 301.609 131.791C301.603 132.103 301.688 132.41 301.856 132.673C302.023 132.936 302.265 133.144 302.55 133.27C302.936 133.438 303.373 133.446 303.764 133.292C304.156 133.138 304.471 132.835 304.64 132.45V132.45Z" fill="#E0E0E0"/>
<path d="M244.67 65.07C244.813 64.7422 244.861 64.3806 244.808 64.0268C244.755 63.6729 244.603 63.3413 244.37 63.07L238.16 55.8C237.963 55.5781 237.719 55.4028 237.446 55.2869C237.172 55.171 236.877 55.1174 236.58 55.13C236.285 55.1549 235.999 55.2449 235.743 55.3937C235.487 55.5424 235.268 55.7461 235.1 55.99C234.639 56.6563 234.046 57.2211 233.358 57.6493C232.67 58.0776 231.902 58.3603 231.1 58.48C230.38 58.6189 229.639 58.6081 228.923 58.4481C228.207 58.2881 227.532 57.9824 226.94 57.55C226.366 57.0831 225.893 56.5048 225.55 55.8499C225.206 55.1951 224.999 54.4773 224.94 53.74C224.843 52.9332 224.908 52.1153 225.132 51.334C225.355 50.5528 225.732 49.8239 226.24 49.19C227.365 48.0128 228.857 47.2535 230.471 47.0372C232.085 46.821 233.725 47.1605 235.12 48C235.335 48.1497 235.578 48.2539 235.834 48.3062C236.091 48.3585 236.355 48.3578 236.612 48.3041C236.868 48.2504 237.111 48.1448 237.324 47.994C237.538 47.8431 237.719 47.65 237.856 47.4267C237.992 47.2033 238.082 46.9544 238.119 46.6952C238.156 46.436 238.139 46.172 238.07 45.9194C238.001 45.6669 237.881 45.4311 237.718 45.2265C237.555 45.022 237.351 44.853 237.12 44.73C234.936 43.4245 232.369 42.9107 229.85 43.2749C227.331 43.6391 225.015 44.8592 223.29 46.73C222.443 47.7586 221.812 48.9478 221.435 50.2264C221.059 51.5049 220.945 52.8463 221.1 54.17C221.211 55.421 221.573 56.6369 222.164 57.7451C222.755 58.8533 223.563 59.831 224.54 60.62C225.551 61.3718 226.705 61.9087 227.931 62.1976C229.157 62.4865 230.43 62.5214 231.67 62.3C233.519 62.0161 235.251 61.2192 236.67 60L241.46 65.6C241.791 65.9847 242.261 66.2228 242.767 66.2621C243.273 66.3015 243.774 66.1389 244.16 65.81C244.387 65.6082 244.562 65.3543 244.67 65.07V65.07Z" fill="#E0E0E0"/>
<path d="M245.28 69.85C245.545 70.1736 245.928 70.3785 246.345 70.4198C246.761 70.461 247.177 70.3352 247.5 70.07C247.824 69.8048 248.029 69.4219 248.07 69.0056C248.111 68.5892 247.985 68.1736 247.72 67.85C247.589 67.6898 247.427 67.557 247.245 67.4592C247.062 67.3615 246.862 67.3006 246.656 67.2802C246.449 67.2598 246.241 67.2802 246.043 67.3402C245.845 67.4002 245.66 67.4987 245.5 67.63C245.34 67.7613 245.207 67.9229 245.109 68.1055C245.012 68.2882 244.951 68.4883 244.93 68.6944C244.91 68.9006 244.93 69.1087 244.99 69.307C245.05 69.5053 245.149 69.6898 245.28 69.85V69.85Z" fill="#E0E0E0"/>
<path d="M461.82 70.36H372.99V199.12H461.82V70.36Z" fill="#E0E0E0"/>
<path d="M457.37 70.36H368.54V199.12H457.37V70.36Z" fill="#F5F5F5"/>
<path d="M446.34 84.3H379.58V185.17H446.34V84.3Z" fill="white"/>
<path d="M446.34 185.17C446.34 185.17 446.34 185 446.34 184.68C446.34 184.36 446.34 183.87 446.34 183.25C446.34 181.98 446.34 180.13 446.34 177.72C446.34 172.88 446.34 165.84 446.28 156.94C446.28 139.15 446.22 113.94 446.18 84.3L446.4 84.53H379.64L379.88 84.28C379.88 122.34 379.88 157.42 379.83 185.15L379.64 184.96L428.23 185.06H441.65H445.18H446.4C446.4 185.06 446 185.06 445.22 185.06H441.73H428.35L379.64 185.17H379.44V184.97C379.44 157.24 379.44 122.16 379.44 84.1V83.86H379.68H446.44H446.66V84.08C446.61 113.8 446.58 139.08 446.55 156.86C446.55 165.74 446.5 172.77 446.49 177.59C446.49 179.98 446.49 181.82 446.49 183.08C446.49 183.69 446.49 184.16 446.49 184.49C446.49 184.82 446.34 185.17 446.34 185.17Z" fill="#E0E0E0"/>
<path d="M457.62 70.36C457.163 71.1724 456.634 71.9421 456.04 72.66C455.04 74.04 453.54 75.92 451.87 77.95C450.2 79.98 448.64 81.77 447.48 83.05C446.879 83.7793 446.209 84.449 445.48 85.05C445.981 84.2675 446.546 83.5283 447.17 82.84L451.45 77.65L455.72 72.46C456.293 71.7077 456.929 71.0052 457.62 70.36V70.36Z" fill="#E0E0E0"/>
<path d="M446.68 184.85C449.997 190.128 453.902 195.012 458.32 199.41Z" fill="white"/>
<path d="M458.32 199.41C457.589 198.867 456.918 198.247 456.32 197.56C454.774 195.986 453.308 194.333 451.93 192.61C450.546 190.886 449.254 189.09 448.06 187.23C447.524 186.489 447.071 185.69 446.71 184.85C447.309 185.537 447.854 186.269 448.34 187.04C449.34 188.42 450.7 190.3 452.34 192.31C453.98 194.32 455.47 196.07 456.6 197.31C457.222 197.969 457.797 198.671 458.32 199.41V199.41Z" fill="#E0E0E0"/>
<path d="M368.53 199L380.16 184.64Z" fill="white"/>
<path d="M380.16 184.66C378.418 187.204 376.538 189.65 374.53 191.99C372.652 194.425 370.649 196.761 368.53 198.99C370.27 196.444 372.149 193.997 374.16 191.66C376.039 189.225 378.041 186.889 380.16 184.66V184.66Z" fill="#E0E0E0"/>
<path d="M368.54 70.36C370.541 72.5086 372.427 74.7618 374.19 77.11C376.068 79.3491 377.828 81.6857 379.46 84.11C377.452 81.9674 375.566 79.7138 373.81 77.36C371.928 75.1239 370.169 72.7871 368.54 70.36Z" fill="#E0E0E0"/>
<path d="M425.53 104.78H403.18V168.25H425.53V104.78Z" fill="#E0E0E0"/>
<path d="M119.4 76.0124L112.29 76.0509L112.481 111.41L119.591 111.372L119.4 76.0124Z" fill="#E0E0E0"/>
<path d="M69.121 76.1046L50.7213 76.2042L50.8269 95.7239L69.2267 95.6244L69.121 76.1046Z" fill="#EBEBEB"/>
<path d="M87.4403 76.0055L69.0405 76.1051L69.1461 95.6248L87.5459 95.5252L87.4403 76.0055Z" fill="#F5F5F5"/>
<path d="M50.75 81.6C62.9833 81.7 75.2233 81.6433 87.47 81.43C87.5141 81.4199 87.5536 81.3952 87.5819 81.3597C87.6101 81.3243 87.6255 81.2803 87.6255 81.235C87.6255 81.1897 87.6101 81.1457 87.5819 81.1103C87.5536 81.0749 87.5141 81.0501 87.47 81.04C75.23 81 63 81 50.75 81.27C50.7062 81.27 50.6642 81.2874 50.6333 81.3183C50.6023 81.3493 50.585 81.3912 50.585 81.435C50.585 81.4788 50.6023 81.5207 50.6333 81.5517C50.6642 81.5826 50.7062 81.6 50.75 81.6Z" fill="#E0E0E0"/>
<path d="M72.6951 95.3051L39.2556 95.486L39.3417 111.396L72.7812 111.215L72.6951 95.3051Z" fill="#EBEBEB"/>
<path d="M105.964 95.1251L72.5242 95.306L72.6103 111.216L106.05 111.035L105.964 95.1251Z" fill="#F5F5F5"/>
<path d="M39.27 99.91C61.48 100.16 83.77 99.91 105.98 99.58C106.024 99.5699 106.064 99.5451 106.092 99.5097C106.12 99.4743 106.136 99.4303 106.136 99.385C106.136 99.3397 106.12 99.2957 106.092 99.2603C106.064 99.2248 106.024 99.2001 105.98 99.19C83.77 99.07 61.47 99.09 39.27 99.58C39.2262 99.58 39.1843 99.5974 39.1533 99.6283C39.1224 99.6593 39.105 99.7012 39.105 99.745C39.105 99.7887 39.1224 99.8307 39.1533 99.8617C39.1843 99.8926 39.2262 99.91 39.27 99.91V99.91Z" fill="#E0E0E0"/>
<path d="M156.3 111.4H26.76V117.1H156.3V111.4Z" fill="#E0E0E0"/>
<path d="M53.23 114.14H47.97V133.59H53.23V114.14Z" fill="#E0E0E0"/>
<path d="M131.73 114.14H126.47V133.59H131.73V114.14Z" fill="#E0E0E0"/>
<path d="M126.328 62.8249L119.218 62.8633L119.481 111.503L126.591 111.464L126.328 62.8249Z" fill="#EBEBEB"/>
<path d="M137.427 71.8848L126.387 71.9446L126.601 111.354L137.64 111.294L137.427 71.8848Z" fill="#F5F5F5"/>
<path d="M137.35 79.48C135.517 79.6727 133.672 79.7362 131.83 79.67C129.988 79.7362 128.143 79.6727 126.31 79.48C128.143 79.2873 129.988 79.2238 131.83 79.29C133.672 79.2238 135.517 79.2873 137.35 79.48V79.48Z" fill="#E0E0E0"/>
<path d="M137.35 77.82C135.517 78.0193 133.672 78.0862 131.83 78.02C129.988 78.0862 128.143 78.0193 126.31 77.82C128.144 77.6333 129.988 77.5698 131.83 77.63C133.672 77.5698 135.516 77.6333 137.35 77.82V77.82Z" fill="#E0E0E0"/>
<path d="M137.35 105.37C135.517 105.563 133.672 105.626 131.83 105.56C129.988 105.626 128.143 105.563 126.31 105.37C128.143 105.177 129.988 105.114 131.83 105.18C133.672 105.114 135.517 105.177 137.35 105.37V105.37Z" fill="#E0E0E0"/>
<path d="M137.35 103.71C135.517 103.909 133.672 103.976 131.83 103.91C129.988 103.976 128.143 103.909 126.31 103.71C128.144 103.523 129.988 103.46 131.83 103.52C133.672 103.46 135.516 103.523 137.35 103.71V103.71Z" fill="#E0E0E0"/>
<path d="M132 100.1C131.9 100.1 131.81 96.1 131.81 91.22C131.81 86.34 131.9 82.34 132 82.34C132.1 82.34 132.19 86.34 132.19 91.22C132.19 96.1 132.12 100.1 132 100.1Z" fill="#E0E0E0"/>
<path d="M149.49 81.57H137.47V111.32H149.49V81.57Z" fill="#EBEBEB"/>
<path d="M124.71 71.14C124.71 71.5356 124.593 71.9222 124.373 72.2511C124.153 72.58 123.841 72.8364 123.475 72.9878C123.11 73.1391 122.708 73.1787 122.32 73.1016C121.932 73.0244 121.575 72.8339 121.296 72.5542C121.016 72.2745 120.826 71.9181 120.748 71.5302C120.671 71.1422 120.711 70.7401 120.862 70.3746C121.014 70.0092 121.27 69.6968 121.599 69.4771C121.928 69.2573 122.314 69.14 122.71 69.14C123.24 69.14 123.749 69.3507 124.124 69.7258C124.499 70.1009 124.71 70.6096 124.71 71.14Z" fill="#E0E0E0"/>
<path d="M123.3 76.76H122.04V105.69H123.3V76.76Z" fill="#E0E0E0"/>
<path d="M464 478.81C464 478.96 368.18 479.07 250 479.07C131.82 479.07 36 479 36 478.81C36 478.62 131.8 478.55 250 478.55C368.2 478.55 464 478.67 464 478.81Z" fill="#263238"/>
<path d="M374.48 239.3H84.27V248.59H374.48V239.3Z" fill="#E0E0E0"/>
<path d="M110.6 479.29L101.18 479.25V247.37H110.6V479.29Z" fill="#E0E0E0"/>
<path d="M360.68 479.27H351.17L351.26 247.37H360.68V479.27Z" fill="#E0E0E0"/>
<path d="M196.73 153.86C196.73 153.86 248.53 208.13 247.62 220.18C246.71 232.23 235.11 234.83 231.33 234.36C227.55 233.89 199.06 202.18 199.06 202.18L196.73 153.86Z" fill="#558EB4"/>
<g opacity="0.4">
<path opacity="0.4" d="M196.73 153.86C196.73 153.86 248.53 208.13 247.62 220.18C246.71 232.23 235.11 234.83 231.33 234.36C227.55 233.89 199.06 202.18 199.06 202.18L196.73 153.86Z" fill="black"/>
</g>
<path d="M224.33 421.98L238.38 468.97L254.16 460.4L245.19 417.38L224.33 421.98Z" fill="#FFBE9D"/>
<path d="M252.23 439.72L257.06 462C257.06 462 281.3 464.56 282.59 468.58L239.8 479.47L230.8 445.12L252.23 439.72Z" fill="#558EB4"/>
<path d="M243.36 463.49C242.98 463.72 242.699 464.081 242.57 464.506C242.44 464.93 242.473 465.388 242.66 465.79C242.874 466.178 243.23 466.468 243.652 466.601C244.075 466.733 244.533 466.697 244.93 466.5C245.332 466.256 245.629 465.871 245.764 465.42C245.899 464.97 245.862 464.485 245.66 464.06C245.393 463.679 244.989 463.416 244.532 463.326C244.075 463.237 243.601 463.328 243.21 463.58" fill="#E0E0E0"/>
<g opacity="0.4">
<path opacity="0.4" d="M239.8 479.47L239 476L280.32 466.83C280.32 466.83 282.43 467.18 282.56 468.57L239.8 479.47Z" fill="black"/>
</g>
<path d="M257.7 461.57C257.75 461.78 256.7 462.14 255.87 463.08C255.04 464.02 254.69 465.03 254.48 464.99C254.27 464.95 254.27 463.67 255.32 462.56C256.37 461.45 257.7 461.37 257.7 461.57Z" fill="#263238"/>
<path d="M262.66 462.28C262.76 462.47 261.95 463.06 261.46 464.12C260.97 465.18 261.01 466.17 260.8 466.22C260.59 466.27 260.16 465.11 260.8 463.8C261.44 462.49 262.61 462.08 262.66 462.28Z" fill="#263238"/>
<path d="M266.58 467C266.4 467.09 265.85 466.12 266.09 464.84C266.33 463.56 267.2 462.84 267.33 463.01C267.46 463.18 267.01 463.93 266.83 465.01C266.65 466.09 266.79 466.93 266.58 467Z" fill="#263238"/>
<path d="M256 456.62C256 456.84 254.92 456.79 253.76 457.17C252.6 457.55 251.76 458.17 251.62 458.01C251.48 457.85 252.16 456.89 253.54 456.46C254.92 456.03 256.1 456.43 256 456.62Z" fill="#263238"/>
<path d="M255 452.15C254.346 452.524 253.603 452.711 252.85 452.69C252.041 452.75 251.229 452.709 250.43 452.57C249.958 452.497 249.493 452.383 249.04 452.23C248.764 452.163 248.5 452.051 248.26 451.9C248.084 451.786 247.952 451.618 247.883 451.42C247.814 451.223 247.813 451.008 247.88 450.81C247.946 450.638 248.052 450.484 248.19 450.36C248.327 450.237 248.492 450.148 248.67 450.1C248.944 450.026 249.227 449.993 249.51 450C249.993 449.998 250.474 450.038 250.95 450.12C251.757 450.257 252.537 450.524 253.26 450.91C254.49 451.58 255.03 452.27 254.97 452.33C254.91 452.39 254.24 451.89 253.04 451.39C252.337 451.103 251.602 450.905 250.85 450.8C250.409 450.744 249.964 450.724 249.52 450.74C249.04 450.74 248.65 450.83 248.59 451.06C248.53 451.29 248.59 451.18 248.7 451.29C248.876 451.402 249.068 451.486 249.27 451.54C249.693 451.682 250.123 451.799 250.56 451.89C251.31 452.049 252.073 452.139 252.84 452.16C253.559 452.111 254.281 452.107 255 452.15Z" fill="#263238"/>
<path d="M254.78 452.52C254.72 452.57 254.11 451.93 253.69 450.6C253.448 449.817 253.343 448.998 253.38 448.18C253.403 447.691 253.473 447.205 253.59 446.73C253.637 446.418 253.763 446.123 253.955 445.873C254.147 445.623 254.4 445.425 254.69 445.3C254.875 445.261 255.066 445.275 255.243 445.341C255.42 445.406 255.575 445.52 255.69 445.67C255.864 445.892 256.006 446.138 256.11 446.4C256.312 446.86 256.437 447.35 256.48 447.85C256.569 448.68 256.448 449.519 256.13 450.29C255.58 451.62 254.77 452.09 254.74 452.02C255.074 451.405 255.371 450.77 255.63 450.12C255.844 449.411 255.902 448.664 255.8 447.93C255.737 447.505 255.616 447.091 255.44 446.7C255.26 446.26 254.99 445.94 254.84 446.03C254.69 446.12 254.35 446.52 254.27 446.92C254.148 447.345 254.068 447.78 254.03 448.22C253.967 448.969 254.011 449.723 254.16 450.46C254.46 451.74 254.89 452.46 254.78 452.52Z" fill="#263238"/>
<path d="M186.2 288C186.72 290.08 223.4 439.75 223.4 439.75L256.71 429.69L225.26 278.09L186.2 288Z" fill="#263238"/>
<path d="M181.29 96.75L175.47 141.47C175.237 143.272 175.372 145.102 175.867 146.85C176.362 148.599 177.207 150.228 178.35 151.64C179.494 153.052 180.912 154.217 182.519 155.064C184.127 155.912 185.889 156.424 187.7 156.57V156.57C191.136 156.845 194.545 155.787 197.223 153.617C199.9 151.446 201.639 148.328 202.08 144.91C202.51 141.54 202.88 138.74 202.95 138.39C202.95 138.39 214.48 138.81 216.76 127.65C217.87 122.25 219.24 110.96 220.37 100.73C220.95 95.4285 219.513 90.1028 216.344 85.8129C213.176 81.5231 208.508 78.5838 203.27 77.58L202.19 77.37C190.42 75.81 182.53 84.94 181.29 96.75Z" fill="#FFBE9D"/>
<path d="M203 138.24C197.811 137.326 193.011 134.89 189.21 131.24C189.21 131.24 191.11 139.95 202.47 141.09L203 138.24Z" fill="#EB996E"/>
<path d="M217.17 107.05C217.092 107.466 216.855 107.835 216.51 108.079C216.165 108.324 215.738 108.424 215.32 108.36C214.912 108.301 214.544 108.082 214.297 107.752C214.05 107.423 213.943 107.008 214 106.6C214.076 106.183 214.312 105.812 214.658 105.568C215.004 105.323 215.432 105.223 215.85 105.29C216.258 105.349 216.626 105.568 216.873 105.898C217.12 106.227 217.227 106.642 217.17 107.05V107.05Z" fill="#263238"/>
<path d="M217.26 105.12C217.03 105.29 215.99 104.12 214.26 103.84C212.53 103.56 211.11 104.13 210.97 103.84C210.83 103.55 211.17 103.39 211.79 103.1C212.636 102.732 213.575 102.63 214.48 102.81C215.375 102.974 216.192 103.423 216.81 104.09C217.27 104.64 217.38 105.05 217.26 105.12Z" fill="#263238"/>
<path d="M199.88 104.59C199.802 105.008 199.564 105.38 199.217 105.626C198.87 105.873 198.441 105.974 198.02 105.91C197.814 105.887 197.614 105.822 197.433 105.721C197.252 105.619 197.092 105.482 196.965 105.318C196.837 105.154 196.744 104.966 196.69 104.766C196.636 104.565 196.622 104.356 196.65 104.15C196.728 103.734 196.965 103.365 197.31 103.121C197.655 102.876 198.082 102.776 198.5 102.84C198.706 102.862 198.906 102.925 199.088 103.026C199.269 103.126 199.429 103.262 199.558 103.425C199.686 103.588 199.781 103.775 199.836 103.975C199.892 104.175 199.907 104.384 199.88 104.59V104.59Z" fill="#263238"/>
<path d="M200.07 102.42C199.83 102.59 198.79 101.42 197.07 101.14C195.35 100.86 193.92 101.43 193.77 101.14C193.62 100.85 193.97 100.7 194.6 100.4C195.443 100.031 196.378 99.9299 197.28 100.11C198.176 100.279 198.995 100.727 199.62 101.39C200.08 101.94 200.19 102.35 200.07 102.42Z" fill="#263238"/>
<path d="M203.74 116.78C204.699 116.659 205.67 116.659 206.63 116.78C207.07 116.78 207.51 116.78 207.63 116.52C207.764 116.08 207.764 115.61 207.63 115.17L206.97 111.57C206.08 106.47 205.53 102.3 205.73 102.27C205.93 102.24 206.83 106.35 207.73 111.45C207.93 112.71 208.13 113.91 208.32 115.06C208.495 115.64 208.46 116.263 208.22 116.82C208.126 116.964 208 117.084 207.853 117.172C207.706 117.261 207.541 117.314 207.37 117.33C207.117 117.357 206.863 117.357 206.61 117.33C205.635 117.259 204.672 117.075 203.74 116.78V116.78Z" fill="#263238"/>
<path d="M201.25 98.92C200.99 99.36 199.32 98.81 197.25 98.66C195.18 98.51 193.45 98.75 193.25 98.28C193.16 98.06 193.53 97.67 194.25 97.35C195.231 96.9496 196.295 96.7918 197.35 96.89C198.411 96.9598 199.439 97.2821 200.35 97.83C201.06 98.28 201.37 98.71 201.25 98.92Z" fill="#263238"/>
<path d="M218.06 98.87C217.68 99.2 216.57 98.56 215.15 98.27C213.73 97.98 212.47 98.03 212.27 97.57C212.19 97.35 212.45 96.99 213.05 96.72C213.839 96.4099 214.702 96.3394 215.531 96.5173C216.36 96.6951 217.118 97.1135 217.71 97.72C218.14 98.27 218.23 98.7 218.06 98.87Z" fill="#263238"/>
<path d="M180.62 105.21C180.44 105.09 173.37 101.46 172.14 109.15C170.91 116.84 178.89 116.49 178.94 116.27C178.99 116.05 180.62 105.21 180.62 105.21Z" fill="#FFBE9D"/>
<path d="M177.05 113C177.05 113 176.91 113.07 176.66 113.14C176.492 113.185 176.318 113.195 176.146 113.171C175.974 113.147 175.809 113.089 175.66 113C174.89 112.58 174.41 111.18 174.6 109.78C174.684 109.117 174.917 108.481 175.28 107.92C175.389 107.691 175.553 107.493 175.757 107.343C175.961 107.193 176.199 107.096 176.45 107.06C176.61 107.044 176.77 107.084 176.903 107.174C177.036 107.263 177.134 107.396 177.18 107.55C177.25 107.78 177.18 107.93 177.18 107.95C177.18 107.97 177.36 107.84 177.35 107.52C177.336 107.319 177.255 107.129 177.12 106.98C176.929 106.793 176.677 106.683 176.41 106.67C176.082 106.687 175.763 106.787 175.484 106.962C175.206 107.137 174.977 107.381 174.82 107.67C174.388 108.284 174.113 108.995 174.02 109.74C173.82 111.3 174.38 112.88 175.44 113.38C175.638 113.471 175.852 113.519 176.07 113.519C176.288 113.519 176.503 113.471 176.7 113.38C177 113.17 177.08 113 177.05 113Z" fill="#EB996E"/>
<path d="M176.41 104.13C177.147 104.222 177.845 104.513 178.43 104.97C179.015 105.428 179.464 106.037 179.73 106.73C180.02 107.91 179.89 109.17 180.17 110.36C180.45 111.55 181.39 112.75 182.61 112.7C183.03 112.65 183.429 112.491 183.768 112.238C184.107 111.986 184.373 111.648 184.54 111.26C184.862 110.479 185.032 109.644 185.04 108.8C185.27 105.14 185.2 101.45 185.75 97.8C186.151 94.119 187.633 90.6393 190.01 87.8C192.49 85.1 196.39 83.52 199.92 84.5C202.26 85.14 204.2 86.8 206.5 87.59C207.87 88.0457 209.326 88.1834 210.757 87.9928C212.188 87.8023 213.557 87.2883 214.76 86.49C214.893 86.4038 215.034 86.3302 215.18 86.27C215.598 86.0783 215.942 85.7539 216.157 85.347C216.372 84.9402 216.447 84.4737 216.37 84.02C216.331 83.7264 216.225 83.4458 216.06 83.2C212.21 78 204 75.2 197.52 75.57C191.04 75.94 184.39 79.19 180.61 84.48C176.83 89.77 176.07 97.98 176.41 104.13" fill="#263238"/>
<path d="M207.2 122C205.53 121.756 203.929 121.167 202.5 120.27C203.348 120.304 204.179 120.516 204.94 120.89C205.762 121.1 206.531 121.478 207.2 122V122Z" fill="#263238"/>
<path d="M215.56 130.62C215.412 131.379 215.087 132.091 214.61 132.7C213.524 134.217 212.091 135.451 210.43 136.3C208.785 137.134 207.032 137.733 205.22 138.08C204.485 138.285 203.723 138.383 202.96 138.37C203.664 138.093 204.39 137.876 205.13 137.72C206.878 137.274 208.575 136.644 210.19 135.84C211.783 135.021 213.187 133.876 214.31 132.48C215.16 131.39 215.48 130.58 215.56 130.62Z" fill="#EB996E"/>
<path d="M210.14 136.33C207.43 137.68 205.44 141.33 203.72 143.75C203.135 144.443 202.718 145.26 202.5 146.14C202.419 147.097 202.588 148.058 202.99 148.93C203.48 150.26 203.99 151.57 204.59 152.87C204.75 153.25 204.96 153.66 205.36 153.75C205.76 153.84 206.28 153.37 206.49 152.9C206.873 151.682 207.085 150.416 207.12 149.14C207.153 148.503 207.342 147.884 207.67 147.336C207.998 146.789 208.454 146.33 209 146" fill="#EB996E"/>
<path d="M214.42 146.31L211.79 144.31C211.631 144.178 211.427 144.114 211.222 144.131C211.016 144.148 210.825 144.244 210.69 144.4L209.29 146.02L210.03 150.11C210.89 155.36 207.03 154.54 207.03 154.54L206.72 153.54L205.01 147.14C204.67 144.08 204.91 143.72 206.4 141.51L209.66 136.85C209.988 136.36 210.471 135.995 211.031 135.813C211.592 135.632 212.198 135.645 212.75 135.85C217.43 137.58 227.52 140.7 228.66 144.67C230.73 151.89 232.4 170.32 232.43 170.67L218.14 172L218.21 159.71C216.953 158.927 216.006 157.732 215.53 156.33C214.93 154.16 214.42 146.33 214.42 146.33" fill="#FFBE9D"/>
<path d="M224.29 148.72C224.29 148.72 224.14 148.97 223.75 149.3C223.194 149.785 222.528 150.128 221.81 150.3C221.3 150.415 220.77 150.415 220.26 150.3C219.655 150.147 219.12 149.795 218.74 149.3C217.9 148.3 217.74 146.88 217.04 145.85C216.61 145.379 216.115 144.971 215.57 144.64C215.056 144.309 214.522 144.012 213.97 143.75C213.529 143.485 213.025 143.344 212.51 143.34C212.076 143.479 211.679 143.715 211.35 144.03C210.06 145.22 209.35 146.12 209.28 146.03C209.21 145.94 209.41 145.78 209.71 145.37C210.132 144.793 210.597 144.248 211.1 143.74C211.466 143.36 211.919 143.075 212.42 142.91C212.579 142.879 212.741 142.879 212.9 142.91C213.049 142.936 213.196 142.973 213.34 143.02C213.625 143.103 213.903 143.21 214.17 143.34C214.75 143.591 215.308 143.889 215.84 144.23C216.447 144.585 216.994 145.034 217.46 145.56C218.3 146.78 218.4 148.17 219.11 149.02C219.428 149.392 219.839 149.671 220.302 149.83C220.765 149.988 221.261 150.019 221.74 149.92C222.417 149.793 223.06 149.527 223.63 149.14C224 148.86 224.26 148.69 224.29 148.72Z" fill="#EB996E"/>
<path d="M222.71 153.06C219.978 152.899 217.317 152.131 214.92 150.81C216.254 151.052 217.566 151.407 218.84 151.87C220.161 152.16 221.455 152.558 222.71 153.06V153.06Z" fill="#EB996E"/>
<path d="M217.64 146.37C213.9 146.37 213.46 146.2 209.23 146.43C208.598 146.434 207.971 146.535 207.37 146.73C207.069 146.83 206.796 147 206.573 147.226C206.351 147.452 206.185 147.727 206.09 148.03C205.8 149.19 206.97 150.24 208.09 150.51C209.21 150.78 210.49 150.57 211.65 150.84C213.492 151.166 215.156 152.142 216.34 153.59C218.78 157.04 221.34 155.38 223 156.59L227.36 153.83L225.82 147.39L217.6 146.39" fill="#FFBE9D"/>
<path d="M223.42 156.62C223.041 156.445 222.641 156.321 222.23 156.25C221.051 156.235 219.883 156.029 218.77 155.64C218.028 155.265 217.378 154.728 216.87 154.07C216.36 153.331 215.703 152.704 214.94 152.23C214.087 151.727 213.163 151.357 212.2 151.13C211.131 150.964 210.052 150.871 208.97 150.85C208.371 150.815 207.794 150.607 207.31 150.252C206.826 149.898 206.454 149.411 206.24 148.85C206.159 148.558 206.155 148.249 206.229 147.955C206.303 147.66 206.451 147.39 206.66 147.17C207.033 146.768 207.516 146.486 208.05 146.36C208.976 146.21 209.912 146.133 210.85 146.13C211.71 146.13 212.52 146.13 213.26 146.13C214.74 146.13 215.92 146.23 216.74 146.27C217.169 146.262 217.598 146.296 218.02 146.37C217.599 146.457 217.169 146.491 216.74 146.47C215.92 146.47 214.74 146.47 213.26 146.47C212.53 146.47 211.73 146.47 210.87 146.56C209.964 146.574 209.061 146.661 208.17 146.82C207.32 147 206.45 147.82 206.73 148.7C206.924 149.158 207.245 149.551 207.653 149.834C208.062 150.118 208.543 150.279 209.04 150.3C210.139 150.321 211.235 150.422 212.32 150.6C213.337 150.847 214.309 151.252 215.2 151.8C216.001 152.317 216.683 152.999 217.2 153.8C217.659 154.424 218.25 154.94 218.93 155.31C220.001 155.709 221.121 155.958 222.26 156.05C222.583 156.108 222.891 156.227 223.17 156.4C223.35 156.53 223.43 156.6 223.42 156.62Z" fill="#EB996E"/>
<path d="M217.22 143.45C217.22 143.39 217.49 143.34 217.88 143.51C218.132 143.632 218.351 143.814 218.516 144.041C218.682 144.267 218.789 144.531 218.829 144.808C218.868 145.086 218.839 145.369 218.743 145.633C218.647 145.896 218.488 146.132 218.28 146.32C217.96 146.6 217.69 146.62 217.66 146.56C217.63 146.5 217.82 146.36 218.01 146.08C218.252 145.729 218.362 145.304 218.32 144.88C218.236 144.482 218.013 144.127 217.69 143.88C217.43 143.61 217.21 143.53 217.22 143.45Z" fill="#EB996E"/>
<path d="M225.59 311.08L207.35 356.61L225.05 359.72L244.79 320.45L225.59 311.08Z" fill="#FFBE9D"/>
<path d="M236.39 342.32L226.39 362.75C226.39 362.75 243.77 379.82 242.28 383.75L201.98 365.68L216.33 333.22L236.39 342.32Z" fill="#558EB4"/>
<path d="M214.67 355.42C214.227 355.356 213.776 355.459 213.406 355.711C213.035 355.963 212.773 356.344 212.67 356.78C212.59 357.221 212.683 357.675 212.931 358.048C213.179 358.421 213.563 358.684 214 358.78C214.467 358.839 214.94 358.722 215.326 358.453C215.712 358.183 215.985 357.779 216.09 357.32C216.121 356.855 215.969 356.396 215.666 356.041C215.363 355.686 214.934 355.463 214.47 355.42" fill="#E0E0E0"/>
<g opacity="0.4">
<path opacity="0.4" d="M201.94 365.71L203.39 362.44L241.57 381C241.57 381 243.01 382.58 242.24 383.76L201.94 365.71Z" fill="black"/>
</g>
<path d="M227.09 362.83C227 363.03 225.97 362.68 224.72 362.88C223.47 363.08 222.58 363.67 222.44 363.51C222.3 363.35 223.09 362.35 224.61 362.13C226.13 361.91 227.21 362.67 227.09 362.83Z" fill="#263238"/>
<path d="M230.53 366.48C230.53 366.69 229.53 366.64 228.45 367.17C227.37 367.7 226.82 368.5 226.63 368.4C226.44 368.3 226.81 367.14 228.12 366.5C229.43 365.86 230.61 366.29 230.53 366.48Z" fill="#263238"/>
<path d="M230.67 372.61C230.47 372.61 230.67 371.47 231.67 370.61C232.67 369.75 233.78 369.74 233.79 369.94C233.8 370.14 232.97 370.46 232.17 371.17C231.37 371.88 230.87 372.68 230.67 372.61Z" fill="#263238"/>
<path d="M228.86 357.93C228.7 358.07 227.92 357.39 226.77 356.93C225.62 356.47 224.6 356.47 224.58 356.25C224.56 356.03 225.7 355.71 227.04 356.25C228.38 356.79 229 357.81 228.86 357.93Z" fill="#263238"/>
<path d="M230.82 353.77C230.084 353.646 229.394 353.328 228.82 352.85C228.15 352.398 227.538 351.864 227 351.26C226.678 350.903 226.384 350.522 226.12 350.12C225.945 349.895 225.81 349.641 225.72 349.37C225.652 349.174 225.653 348.96 225.722 348.764C225.791 348.568 225.924 348.401 226.1 348.29C226.259 348.196 226.438 348.141 226.622 348.129C226.806 348.117 226.99 348.148 227.16 348.22C227.416 348.337 227.655 348.489 227.87 348.67C228.255 348.972 228.613 349.307 228.94 349.67C229.482 350.284 229.924 350.979 230.25 351.73C230.625 352.388 230.783 353.147 230.7 353.9C230.58 353.9 230.4 353.1 229.77 351.96C229.407 351.296 228.956 350.684 228.43 350.14C228.117 349.824 227.783 349.53 227.43 349.26C227.05 348.96 226.69 348.79 226.5 348.94C226.31 349.09 226.41 349.02 226.44 349.18C226.509 349.377 226.607 349.562 226.73 349.73C226.975 350.106 227.238 350.47 227.52 350.82C228.011 351.407 228.553 351.949 229.14 352.44C230.13 353.27 230.87 353.66 230.82 353.77Z" fill="#263238"/>
<path d="M230.43 353.93C230.306 353.186 230.425 352.421 230.77 351.75C231.069 350.985 231.499 350.278 232.04 349.66C232.359 349.292 232.714 348.957 233.1 348.66C233.33 348.443 233.611 348.289 233.918 348.212C234.224 348.135 234.545 348.138 234.85 348.22C235.025 348.308 235.172 348.442 235.276 348.608C235.38 348.773 235.437 348.964 235.44 349.16C235.437 349.445 235.393 349.728 235.31 350C235.18 350.481 234.978 350.94 234.71 351.36C234.253 352.061 233.636 352.643 232.91 353.06C232.598 353.28 232.246 353.436 231.873 353.519C231.501 353.601 231.115 353.608 230.74 353.54C231.386 353.264 232.017 352.954 232.63 352.61C233.236 352.182 233.744 351.629 234.12 350.99C234.332 350.62 234.493 350.223 234.6 349.81C234.73 349.36 234.72 348.94 234.54 348.91C234.359 348.894 234.176 348.916 234.004 348.975C233.832 349.033 233.674 349.127 233.54 349.25C233.182 349.511 232.848 349.802 232.54 350.12C232.026 350.67 231.592 351.289 231.25 351.96C230.67 353.12 230.55 354 230.43 353.93Z" fill="#263238"/>
<path d="M190.68 256.48L246.84 229C251.653 226.642 257.099 225.901 262.367 226.886C267.635 227.872 272.445 230.532 276.08 234.47V234.47C279.475 238.151 281.681 242.77 282.411 247.724C283.141 252.678 282.36 257.737 280.17 262.24L242.91 338.86L211.74 329L239.15 270.6L208.31 294.1C199.982 300.44 189.826 303.913 179.36 304L171.28 304.07C164.627 303.793 158.158 301.808 152.495 298.305C146.833 294.802 142.168 289.899 138.95 284.07V284.07L190.68 256.48Z" fill="#263238"/>
<path d="M242.91 338.84C242.91 338.84 242.71 338.84 242.33 338.69L240.68 338.2L234.39 336.28L211.67 329.21L211.45 329.14L211.55 328.92C217.05 317.16 223.91 302.51 231.32 286.66C233.95 281.08 236.5 275.66 238.92 270.5L239.3 270.81C225.16 281.35 212.5 290.1 203.16 295.86C199.533 298.166 195.758 300.23 191.86 302.04C190.806 302.517 189.707 302.888 188.58 303.15C188.288 303.218 187.99 303.258 187.69 303.27H187.39C187.39 303.27 187.8 303.27 188.56 303.05C189.669 302.751 190.75 302.356 191.79 301.87C195.649 300.001 199.389 297.897 202.99 295.57C212.27 289.74 224.88 280.94 238.99 270.4L239.81 269.79L239.38 270.71C236.96 275.86 234.38 281.29 231.8 286.87C224.35 302.71 217.46 317.34 211.93 329.09L211.8 328.8L234.46 336.04L240.72 338.04L242.35 338.59L242.91 338.84Z" fill="#455A64"/>
<path d="M249.71 257.92C247.32 259.488 245.145 261.36 243.24 263.49C241.472 265.737 240.009 268.209 238.89 270.84C239.011 269.997 239.26 269.177 239.63 268.41C241.247 264.592 243.966 261.343 247.44 259.08C248.132 258.577 248.897 258.186 249.71 257.92V257.92Z" fill="#455A64"/>
<path d="M130.65 366.34H211.43C211.969 366.337 212.488 366.544 212.876 366.918C213.264 367.291 213.492 367.801 213.51 368.34C213.517 368.618 213.468 368.894 213.366 369.153C213.265 369.412 213.113 369.647 212.919 369.847C212.726 370.046 212.494 370.205 212.239 370.313C211.983 370.422 211.708 370.479 211.43 370.48H130.65C130.1 370.477 129.574 370.257 129.186 369.867C128.798 369.477 128.58 368.95 128.58 368.4V368.4C128.583 367.853 128.802 367.329 129.19 366.943C129.578 366.557 130.103 366.34 130.65 366.34V366.34Z" fill="#E0E0E0"/>
<path d="M200.81 314.91H137.62C137.62 313.303 137.937 311.711 138.552 310.226C139.167 308.741 140.068 307.392 141.205 306.255C142.342 305.118 143.691 304.217 145.176 303.602C146.661 302.987 148.253 302.67 149.86 302.67H188.56C190.168 302.669 191.761 302.984 193.247 303.599C194.733 304.213 196.084 305.115 197.221 306.251C198.359 307.388 199.262 308.738 199.877 310.224C200.493 311.709 200.81 313.302 200.81 314.91Z" fill="#455A64"/>
<path d="M202.79 314.91H136.13V318.62H202.79V314.91Z" fill="#E0E0E0"/>
<path d="M142.06 318.63L125.76 479.29H129.6L149.49 318.63H142.06Z" fill="#E0E0E0"/>
<path d="M196.36 318.63L212.65 479.21L208.82 479.23L188.94 318.69L196.36 318.63Z" fill="#E0E0E0"/>
<path d="M173.66 317.21L170.91 479.28H166.98L165.26 316.77L173.66 317.21Z" fill="#E0E0E0"/>
<path d="M172.38 141.07L176.34 129.05L202.47 141.14L201.27 153.86L188.25 157.56L175.47 149.73L172.38 141.07Z" fill="#558EB4"/>
<path d="M139 284.1C137.839 283.278 136.899 282.183 136.26 280.912C135.622 279.641 135.306 278.232 135.34 276.81C135.34 271.99 139.64 271.59 139.78 268.92C141.21 241.37 144.33 184.3 146.39 166.29C148.98 143.59 175.58 138.8 175.58 138.8L197.53 144.19V145.85C205.13 155.62 208.42 170.35 208.43 182.73L207.43 248.31L139 284.1Z" fill="#558EB4"/>
<path d="M163.63 247.37C163.392 247.768 163.118 248.143 162.81 248.49C162.27 249.19 161.44 250.18 160.4 251.38C158.32 253.79 155.33 257.02 151.81 260.38C148.29 263.74 144.93 266.58 142.43 268.54C141.17 269.54 140.15 270.3 139.43 270.82C139.072 271.114 138.683 271.369 138.27 271.58C138.572 271.241 138.907 270.932 139.27 270.66L142.16 268.26C144.6 266.26 147.92 263.35 151.42 260C154.92 256.65 157.95 253.48 160.1 251.14L162.63 248.35C162.928 247.989 163.263 247.661 163.63 247.37V247.37Z" fill="#263238"/>
<g opacity="0.2">
<path opacity="0.2" d="M142 268.83C142.08 264.68 145.19 261.26 148.27 258.47C151.869 255.199 155.699 252.191 159.73 249.47C159.93 251.47 158.55 253.3 157.21 254.84C152.706 259.983 147.723 264.688 142.33 268.89" fill="black"/>
</g>
<path d="M180.43 139.08C180.527 137.883 180.8 136.707 181.24 135.59C181.51 134.423 181.948 133.301 182.54 132.26C182.443 133.457 182.17 134.633 181.73 135.75C181.455 136.915 181.017 138.036 180.43 139.08Z" fill="#263238"/>
<path d="M190.62 135.67C190.619 136.847 190.44 138.017 190.09 139.14C189.921 140.299 189.584 141.428 189.09 142.49C189.092 141.313 189.27 140.144 189.62 139.02C189.789 137.861 190.126 136.732 190.62 135.67V135.67Z" fill="#263238"/>
<path d="M198.21 139.46C198.242 140.517 198.152 141.574 197.94 142.61C197.906 143.671 197.752 144.724 197.48 145.75C197.254 144.695 197.254 143.605 197.48 142.55C197.508 141.481 197.756 140.429 198.21 139.46V139.46Z" fill="#263238"/>
<path d="M171.83 203.64C171.468 203.713 171.099 203.74 170.73 203.72C170.01 203.72 168.98 203.72 167.73 203.72C165.18 203.72 161.66 203.72 157.73 203.61C153.8 203.5 150.31 203.44 147.73 203.34C146.45 203.34 145.42 203.25 144.73 203.2C144.356 203.209 143.983 203.169 143.62 203.08C143.986 203.015 144.358 202.988 144.73 203C145.45 203 146.48 203 147.73 203C150.28 203 153.8 203 157.73 203.11C161.66 203.22 165.15 203.27 167.73 203.37L170.73 203.51C171.101 203.503 171.471 203.547 171.83 203.64V203.64Z" fill="#FAFAFA"/>
<path d="M166.26 195.25C166.26 195.4 161.26 195.4 155.06 195.25C148.86 195.1 143.88 194.9 143.88 194.75C143.88 194.6 148.88 194.6 155.07 194.75C161.26 194.9 166.26 195.11 166.26 195.25Z" fill="#FAFAFA"/>
<g opacity="0.2">
<path opacity="0.2" d="M156.75 182.32C164.75 199.74 174.53 215.38 185.9 230.8C188.83 234.8 191.97 238.8 196.2 241.29C200.43 243.78 203.2 243.12 207.47 240.57C202.74 239.06 201.47 238.57 197.47 235.68C193.57 232.634 190.166 229 187.38 224.91C177.38 211.15 167.62 196.98 157.6 183.22" fill="black"/>
</g>
<path d="M239.92 207.09C240.029 205.933 240.344 204.806 240.85 203.76C241.107 203.237 241.497 202.791 241.982 202.468C242.467 202.145 243.029 201.956 243.61 201.92C243.897 201.917 244.181 201.977 244.443 202.093C244.705 202.21 244.939 202.382 245.129 202.598C245.319 202.813 245.46 203.067 245.543 203.342C245.626 203.616 245.649 203.906 245.61 204.19C245.36 204.827 244.982 205.405 244.5 205.89C243.23 207.63 243.35 209.98 243.36 212.13C243.37 214.28 243.1 216.74 241.36 218.03" fill="#FFBE9D"/>
<path d="M160.58 156.89C158.576 158.291 156.874 160.082 155.579 162.156C154.284 164.23 153.42 166.545 153.041 168.96C152.662 171.376 152.775 173.844 153.373 176.215C153.97 178.586 155.041 180.813 156.52 182.76L193.06 230.88C196.91 235.888 202.374 239.412 208.525 240.853C214.675 242.295 221.135 241.566 226.81 238.79V238.79C231.636 236.424 235.66 232.691 238.38 228.056C241.101 223.42 242.398 218.087 242.11 212.72L234.06 162.12L214.4 163.34L216.26 204.55L185.84 161.32C183.072 157.391 178.859 154.718 174.125 153.888C169.391 153.058 164.52 154.137 160.58 156.89V156.89Z" fill="#558EB4"/>
<path d="M239.34 227.07C234.5 225.94 233.68 225.07 228.85 223.98C227.41 223.64 225.56 222.71 226.2 221.18C226.378 220.792 226.671 220.468 227.04 220.254C227.409 220.039 227.835 219.943 228.26 219.98C230.14 220.14 233.17 221.26 234.99 221.43C235.44 221.43 235.43 221.02 235.23 220.71C232.287 219.822 229.277 219.173 226.23 218.77C225.801 218.713 225.398 218.531 225.071 218.248C224.743 217.964 224.506 217.591 224.388 217.174C224.27 216.758 224.277 216.316 224.407 215.903C224.537 215.49 224.785 215.124 225.12 214.85C225.522 214.644 225.96 214.518 226.41 214.48C228.35 214.76 228.35 214.76 230.41 215.12C236.2 216.12 235.41 214.98 235.41 214.98C235.41 214.54 228.82 213.9 225.41 213.49C224.672 213.497 223.958 213.226 223.41 212.73C223.166 212.363 223.055 211.923 223.097 211.484C223.139 211.045 223.331 210.634 223.64 210.32C223.932 209.98 224.288 209.702 224.688 209.501C225.088 209.3 225.524 209.181 225.97 209.15C229.74 209.08 242.12 210.46 242.12 210.46C242.12 210.46 243.74 212.66 243.24 217.17C242.73 222.11 239.34 227.07 239.34 227.07Z" fill="#FFBE9D"/>
<path d="M221.83 240.57C221.83 240.57 221.65 240.57 221.31 240.65L219.77 240.81C218.41 240.93 216.41 241.12 213.77 241.15C210.614 241.231 207.465 240.796 204.45 239.86C200.509 238.385 196.98 235.984 194.16 232.86C190.731 229.161 187.509 225.275 184.51 221.22C181.22 216.89 177.78 212.22 174.2 207.27C170.62 202.32 166.92 197.09 163.11 191.64L157.34 183.31C156.85 182.6 156.34 181.89 155.88 181.17L155.18 180.06C154.945 179.688 154.734 179.3 154.55 178.9C153.752 177.309 153.199 175.606 152.91 173.85C152.602 172.096 152.568 170.304 152.81 168.54C152.922 167.667 153.089 166.802 153.31 165.95C153.556 165.112 153.853 164.291 154.2 163.49C154.548 162.697 154.949 161.929 155.4 161.19C155.861 160.462 156.372 159.767 156.93 159.11C158.018 157.803 159.288 156.658 160.7 155.71C162.091 154.782 163.597 154.039 165.18 153.5C166.741 152.999 168.362 152.706 170 152.63C173.185 152.485 176.353 153.175 179.19 154.63C181.873 156.031 184.176 158.062 185.9 160.55C187.553 162.923 189.15 165.23 190.69 167.47L199.29 179.89L211.71 197.89L215.07 202.8C215.44 203.35 215.72 203.8 215.93 204.08L216.21 204.53C216.093 204.396 215.983 204.256 215.88 204.11L214.98 202.86L211.6 198L199 180.11L190.35 167.72L185.53 160.82C183.843 158.402 181.596 156.43 178.98 155.07C174.748 152.946 169.847 152.586 165.35 154.07C163.813 154.599 162.35 155.325 161 156.23C159.622 157.144 158.385 158.256 157.33 159.53C156.792 160.162 156.298 160.831 155.85 161.53C155.41 162.248 155.023 162.997 154.69 163.77C154.345 164.546 154.055 165.344 153.82 166.16C153.601 166.988 153.437 167.83 153.33 168.68C152.908 172.108 153.499 175.584 155.03 178.68C155.84 180.193 156.756 181.646 157.77 183.03L163.54 191.37C167.34 196.82 171.04 202.05 174.6 207C178.16 211.95 181.6 216.64 184.86 221C187.841 225.053 191.039 228.943 194.44 232.65C197.207 235.753 200.672 238.152 204.55 239.65C207.534 240.596 210.65 241.055 213.78 241.01C216.36 241.01 218.36 240.85 219.72 240.76L221.26 240.66C221.65 240.57 221.83 240.57 221.83 240.57Z" fill="#263238"/>
<path d="M218.35 219.65C219.607 214.25 218.703 208.572 215.83 203.83C216.411 204.411 216.887 205.088 217.24 205.83C218.197 207.568 218.843 209.46 219.15 211.42C219.462 213.377 219.435 215.373 219.07 217.32C218.964 218.132 218.72 218.92 218.35 219.65Z" fill="#263238"/>
<path d="M218.84 168.71C218.373 167.887 218.132 166.956 218.14 166.01C217.977 165.078 218.059 164.12 218.38 163.23C218.575 164.13 218.669 165.049 218.66 165.97C218.823 166.874 218.884 167.793 218.84 168.71V168.71Z" fill="#263238"/>
<path d="M224.26 168.21C223.419 166.553 223.172 164.657 223.56 162.84C223.797 163.715 223.931 164.614 223.96 165.52C224.161 166.403 224.261 167.305 224.26 168.21V168.21Z" fill="#263238"/>
<path d="M229.63 167C229.33 166.307 229.2 165.553 229.25 164.8C229.126 164.056 229.174 163.293 229.39 162.57C229.684 163.264 229.814 164.017 229.77 164.77C229.888 165.515 229.841 166.276 229.63 167V167Z" fill="#263238"/>
<path d="M196.52 178.19C196.6 178.3 190.4 182.74 182.67 188.1C174.94 193.46 168.61 197.71 168.52 197.59C168.43 197.47 174.64 193.03 182.37 187.67C190.1 182.31 196.44 178.07 196.52 178.19Z" fill="#FAFAFA"/>
<path d="M191.68 170.93C191.346 171.246 190.981 171.527 190.59 171.77L187.54 173.91C184.95 175.71 181.4 178.23 177.54 181.08C173.68 183.93 170.24 186.61 167.76 188.55C166.58 189.48 165.6 190.25 164.82 190.85C164.476 191.155 164.1 191.423 163.7 191.65C163.997 191.282 164.332 190.946 164.7 190.65C165.36 190.06 166.33 189.23 167.54 188.22C169.96 186.22 173.37 183.48 177.24 180.62C181.11 177.76 184.7 175.28 187.34 173.55C188.66 172.69 189.73 172 190.49 171.55C190.865 171.304 191.264 171.097 191.68 170.93V170.93Z" fill="#FAFAFA"/>
<path d="M431.81 421.65H363.77V431H431.81V421.65Z" fill="#263238"/>
<path d="M431.92 431.11H363.65V421.53H431.92V431.11ZM363.92 430.88H431.73V421.76H363.88L363.92 430.88Z" fill="#263238"/>
<path d="M370.07 427.88L379.87 476.2H416.11L425.57 431L370.07 427.88Z" fill="#263238"/>
<path d="M370.07 471.63L375.3 478.81H419.35L425.57 471.63H370.07Z" fill="#455A64"/>
<path d="M395.23 429.3C395.1 429.3 394.93 406.91 394.85 379.3C394.77 351.69 394.85 329.3 394.95 329.3C395.05 329.3 395.26 351.68 395.33 379.3C395.4 406.92 395.37 429.29 395.23 429.3Z" fill="#263238"/>
<path d="M410.39 373.28C410.345 373.458 410.285 373.632 410.21 373.8L409.6 375.25C409.46 375.57 409.31 375.91 409.15 376.25L408.7 377.52C408.54 377.98 408.36 378.47 408.18 378.98C408 379.49 407.85 380.06 407.67 380.64C406.865 383.375 406.23 386.157 405.77 388.97C405.257 392.424 404.923 395.902 404.77 399.39C404.523 405.728 404.7 412.076 405.3 418.39C405.52 420.82 405.74 422.78 405.91 424.14C405.98 424.77 406.03 425.29 406.08 425.7C406.104 425.883 406.104 426.068 406.08 426.25C406.028 426.076 405.988 425.899 405.96 425.72C405.89 425.31 405.81 424.79 405.7 424.16C405.48 422.81 405.21 420.85 404.94 418.42C404.233 412.086 404.005 405.708 404.26 399.34C404.435 395.833 404.802 392.337 405.36 388.87C405.837 386.041 406.505 383.248 407.36 380.51C407.55 379.93 407.7 379.37 407.9 378.85C408.1 378.33 408.28 377.85 408.46 377.4L408.95 376.13C409.12 375.75 409.29 375.41 409.44 375.13L410.13 373.72C410.198 373.563 410.285 373.415 410.39 373.28Z" fill="#263238"/>
<path d="M408.65 355.17C408.595 355.422 408.521 355.669 408.43 355.91L407.72 357.99C407.57 358.45 407.39 358.99 407.2 359.49C407.01 359.99 406.85 360.65 406.66 361.3C406.26 362.6 405.8 364.07 405.39 365.72L404.7 368.31C404.5 369.22 404.29 370.16 404.07 371.14C403.59 373.09 403.25 375.21 402.81 377.42C402.06 381.86 401.4 386.78 400.94 391.96C400.48 397.14 400.33 402.11 400.26 406.62C400.19 411.13 400.26 415.19 400.49 418.62C400.55 420.33 400.66 421.87 400.75 423.22C400.84 424.57 400.91 425.74 401 426.69C401.09 427.64 401.12 428.33 401.16 428.88C401.187 429.136 401.187 429.394 401.16 429.65C401.095 429.401 401.055 429.147 401.04 428.89C400.97 428.35 400.89 427.62 400.78 426.71C400.67 425.8 400.55 424.59 400.45 423.24C400.35 421.89 400.2 420.35 400.12 418.64C399.89 415.23 399.8 411.16 399.78 406.64C399.76 402.12 400 397.14 400.43 391.94C400.86 386.74 401.56 381.81 402.34 377.36C402.79 375.14 403.15 373.02 403.64 371.07C403.87 370.07 404.1 369.15 404.31 368.24L405.03 365.65C405.46 364 405.94 362.53 406.37 361.24C406.58 360.6 406.77 360 406.95 359.44L407.52 357.95L408.31 355.9C408.403 355.648 408.516 355.403 408.65 355.17V355.17Z" fill="#263238"/>
<path d="M390.93 433.26C390.919 433.17 390.919 433.08 390.93 432.99C390.93 432.79 390.93 432.54 390.86 432.22C390.86 431.51 390.75 430.52 390.66 429.22C390.5 426.61 390.27 422.89 389.98 418.32C389.39 409.11 388.54 396.39 386.98 382.41C386.19 375.41 385.27 368.78 384.32 362.76C383.81 359.76 383.32 356.89 382.83 354.23C382.34 351.57 381.83 349.09 381.36 346.84C380.89 344.59 380.41 342.55 380.01 340.76C379.61 338.97 379.23 337.44 378.92 336.19L378.21 333.31C378.14 333 378.08 332.75 378.04 332.56C378.017 332.471 378 332.381 377.99 332.29C378.031 332.37 378.064 332.454 378.09 332.54C378.14 332.74 378.21 332.98 378.3 333.28L379.1 336.15C379.45 337.39 379.85 338.92 380.27 340.7C380.69 342.48 381.22 344.5 381.69 346.76C382.16 349.02 382.69 351.49 383.22 354.16C383.75 356.83 384.22 359.68 384.76 362.69C385.76 368.69 386.67 375.36 387.46 382.36C389.01 396.36 389.81 409.08 390.31 418.3C390.56 422.9 390.74 426.63 390.84 429.21C390.89 430.47 390.93 431.46 390.95 432.21V432.98C390.955 433.074 390.948 433.168 390.93 433.26V433.26Z" fill="#263238"/>
<path d="M394.68 340.07C394.38 336.9 391.18 334.5 387.99 334.47C386.395 334.542 384.837 334.975 383.434 335.738C382.03 336.5 380.819 337.571 379.89 338.87C378.056 341.485 376.733 344.423 375.99 347.53C373.84 355 372.67 362.85 373.59 370.53C374.51 378.21 377.64 385.84 383.18 391.3C384.08 392.18 385.24 393.07 386.48 392.81C387.144 392.607 387.744 392.235 388.22 391.73C393.649 386.775 397.955 380.717 400.849 373.961C403.743 367.205 405.158 359.908 405 352.56C404.92 349.63 404.53 346.56 402.91 344.13C401.29 341.7 397.49 339.13 394.73 340.07" fill="#558EB4"/>
<path d="M370.89 314.67L366.41 322.79C366.3 322.98 366.17 323.19 365.95 323.21C365.73 323.23 365.54 323.01 365.41 322.81L353.55 304.61L356.28 303.06L370.89 314.67Z" fill="#558EB4"/>
<g opacity="0.2">
<path opacity="0.2" d="M370.89 314.67L366.41 322.79C366.3 322.98 366.17 323.19 365.95 323.21C365.73 323.23 365.54 323.01 365.41 322.81L353.55 304.61L356.28 303.06L370.89 314.67Z" fill="black"/>
</g>
<path d="M395 329.31L354.5 305.44C354.052 305.245 353.695 304.888 353.5 304.44C353.34 303.84 353.79 303.27 354.22 302.82C357.001 299.933 360.372 297.681 364.103 296.215C367.835 294.75 371.838 294.107 375.84 294.33C379.839 294.617 383.708 295.873 387.112 297.99C390.516 300.107 393.354 303.021 395.38 306.48C399.29 313.48 399.38 322.68 394.94 329.31" fill="#558EB4"/>
<path d="M360.33 297.82C360.503 297.773 360.681 297.75 360.86 297.75C361.21 297.75 361.72 297.67 362.39 297.68C364.27 297.649 366.148 297.797 368 298.12C374.169 299.16 379.912 301.943 384.551 306.14C389.19 310.338 392.531 315.775 394.18 321.81C394.687 323.624 395.022 325.483 395.18 327.36C395.225 327.748 395.248 328.139 395.25 328.53C395.214 328.847 395.104 329.152 394.93 329.42C395.056 328.761 395.079 328.086 395 327.42C394.765 325.569 394.38 323.739 393.85 321.95C392.159 316.008 388.835 310.659 384.254 306.514C379.673 302.368 374.021 299.592 367.94 298.5C366.106 298.153 364.246 297.952 362.38 297.9C361.06 297.84 360.33 297.86 360.33 297.82Z" fill="#263238"/>
<path d="M389.47 312.83C388.842 313.216 388.17 313.528 387.47 313.76C386.18 314.27 384.38 314.92 382.36 315.56C380.34 316.2 378.5 316.71 377.16 317.04C376.44 317.257 375.699 317.398 374.95 317.46C375.629 317.134 376.339 316.879 377.07 316.7L382.22 315.1L387.35 313.44C388.035 313.167 388.745 312.963 389.47 312.83Z" fill="#263238"/>
<path d="M383.1 295.72C383.659 298.688 383.736 301.727 383.33 304.72C383.135 303.222 383.058 301.71 383.1 300.2C382.988 298.709 382.988 297.211 383.1 295.72V295.72Z" fill="#263238"/>
<path d="M354.14 305C355.091 304.587 356.074 304.253 357.08 304C358.92 303.43 361.48 302.72 364.33 302C367.18 301.28 369.79 300.78 371.69 300.45C372.704 300.227 373.734 300.086 374.77 300.03C373.791 300.359 372.788 300.613 371.77 300.79C369.9 301.2 367.31 301.79 364.47 302.47C361.63 303.15 359.05 303.82 357.2 304.3C356.199 304.61 355.176 304.844 354.14 305V305Z" fill="#263238"/>
<path d="M377.89 333.19C374.41 330.55 370.73 330.03 366.36 330.19C361.994 330.483 357.721 331.589 353.76 333.45C346.93 336.45 340.52 340.84 336.45 347.07C332.38 353.3 331 361.56 334 368.36C334.238 369.071 334.734 369.667 335.39 370.03C336.146 370.248 336.955 370.187 337.67 369.86C345.43 367.33 353.24 364.77 360.37 360.81C367.5 356.85 374 351.34 377.83 344.13C378.818 342.43 379.444 340.544 379.67 338.59C379.776 337.615 379.672 336.629 379.365 335.697C379.058 334.766 378.555 333.911 377.89 333.19" fill="#558EB4"/>
<path d="M378 332.37C377.827 332.468 377.642 332.546 377.45 332.6L375.82 333.15L374.64 333.55C374.22 333.7 373.76 333.89 373.27 334.08C372.27 334.48 371.15 334.88 369.95 335.46L368.04 336.33C367.39 336.63 366.73 337 366.04 337.33C364.63 338.02 363.21 338.9 361.7 339.8C355.191 343.827 349.404 348.918 344.58 354.86C343.5 356.25 342.44 357.54 341.58 358.86C341.14 359.51 340.68 360.11 340.3 360.73C339.92 361.35 339.55 361.94 339.19 362.5C338.46 363.62 337.92 364.7 337.41 365.62C337.15 366.09 336.91 366.52 336.7 366.92L336.16 368.04L335.4 369.58C335.324 369.766 335.223 369.941 335.1 370.1C335.156 369.908 335.226 369.721 335.31 369.54L335.99 367.96L336.49 366.82C336.69 366.41 336.92 365.97 337.17 365.5C337.66 364.56 338.17 363.5 338.9 362.33C339.24 361.75 339.61 361.15 339.98 360.53C340.35 359.91 340.81 359.29 341.25 358.63C342.1 357.31 343.15 355.99 344.25 354.63C346.693 351.65 349.368 348.868 352.25 346.31C355.151 343.788 358.251 341.504 361.52 339.48C363.05 338.59 364.52 337.71 365.91 337.03C366.62 336.68 367.29 336.32 367.91 336.03L369.84 335.19C371.06 334.62 372.21 334.24 373.2 333.87C373.7 333.69 374.2 333.51 374.6 333.37L375.79 333.02L377.45 332.54C377.627 332.463 377.811 332.406 378 332.37V332.37Z" fill="#263238"/>
<path d="M350.77 347.09C348.003 348.153 345.178 349.061 342.31 349.81C339.485 350.717 336.615 351.474 333.71 352.08C336.478 351.016 339.302 350.105 342.17 349.35C344.993 348.44 347.864 347.686 350.77 347.09V347.09Z" fill="#263238"/>
<path d="M350.43 365.76C350.274 364.893 350.21 364.011 350.24 363.13C350.19 361.5 350.19 359.24 350.24 356.75C350.29 354.26 350.44 352.02 350.58 350.39C350.599 349.508 350.709 348.63 350.91 347.77C350.99 348.648 350.99 349.532 350.91 350.41C350.85 352.2 350.79 354.41 350.71 356.77C350.63 359.13 350.6 361.34 350.55 363.13C350.581 364.009 350.541 364.888 350.43 365.76V365.76Z" fill="#263238"/>
<path d="M366.42 357.61C366.29 357.61 365.86 353.04 365.47 347.39C365.08 341.74 364.87 337.13 365.01 337.12C365.15 337.11 365.57 341.69 365.96 347.35C366.35 353.01 366.56 357.6 366.42 357.61Z" fill="#263238"/>
<path d="M346.51 336.68C347.409 336.572 348.316 336.545 349.22 336.6C350.89 336.6 353.22 336.66 355.75 336.74C358.28 336.82 360.61 336.93 362.28 337.03C363.186 337.034 364.09 337.121 364.98 337.29C364.081 337.399 363.174 337.426 362.27 337.37C360.6 337.37 358.27 337.31 355.74 337.23C353.21 337.15 350.88 337.04 349.21 336.94C348.304 336.936 347.4 336.849 346.51 336.68Z" fill="#263238"/>
<path d="M384.91 392.4C384.87 392.223 384.85 392.042 384.85 391.86C384.85 391.45 384.85 390.94 384.78 390.3C384.72 388.95 384.71 386.99 384.78 384.57C384.85 382.15 384.99 379.28 385.28 376.09C385.57 372.9 386.05 369.41 386.7 365.77C387.35 362.13 388.18 358.7 389 355.61C389.82 352.52 390.72 349.76 391.53 347.47C392.34 345.18 393.04 343.35 393.53 342.11L394.15 340.67C394.213 340.499 394.294 340.335 394.39 340.18C394.362 340.362 394.312 340.54 394.24 340.71C394.1 341.09 393.92 341.57 393.71 342.17C393.23 343.44 392.58 345.29 391.81 347.58C391.04 349.87 390.22 352.63 389.4 355.72C388.58 358.81 387.81 362.23 387.14 365.86C386.47 369.49 386 373 385.7 376.13C385.4 379.26 385.19 382.13 385.1 384.59C385.01 387.05 385 389 385 390.3C385 390.93 385 391.45 385 391.86C384.994 392.043 384.963 392.225 384.91 392.4V392.4Z" fill="#263238"/>
<path d="M387.05 365.91C386.574 366.558 386.031 367.155 385.43 367.69C384.38 368.69 382.9 370.13 381.2 371.62C379.5 373.11 377.92 374.39 376.75 375.3C376.138 375.829 375.467 376.286 374.75 376.66C375.284 376.066 375.87 375.521 376.5 375.03L380.85 371.25L385.17 367.44C385.748 366.873 386.377 366.361 387.05 365.91V365.91Z" fill="#263238"/>
<path d="M399.85 376.23C399.214 375.484 398.639 374.688 398.13 373.85C397.03 372.23 395.65 370.23 394.13 368.01L390.05 362.24C389.442 361.471 388.897 360.656 388.42 359.8C389.122 360.485 389.761 361.232 390.33 362.03C391.45 363.46 392.95 365.47 394.53 367.74C396.11 370.01 397.47 372.12 398.42 373.66C398.978 374.469 399.457 375.329 399.85 376.23V376.23Z" fill="#263238"/>
<path d="M393.14 343.79C393.21 343.9 388.96 346.79 383.64 350.19C378.32 353.59 373.95 356.29 373.88 356.19C373.81 356.09 378.06 353.19 383.38 349.8C388.7 346.41 393.07 343.68 393.14 343.79Z" fill="#263238"/>
<path d="M405.14 356.74C400.739 352.896 396.556 348.809 392.61 344.5C397.011 348.344 401.194 352.43 405.14 356.74V356.74Z" fill="#263238"/>
<path d="M408.15 356.48L411.8 356.17C414.393 355.958 416.91 355.191 419.18 353.92C420.285 353.27 421.431 352.692 422.61 352.19C427.13 350.38 432.16 350.7 437.02 350.46C444.995 350.063 452.809 348.07 460 344.6C460.419 344.407 460.768 344.089 461 343.69C461.76 342.32 460.36 341.11 459.16 340.37C453.01 336.58 446.75 332.74 439.77 330.86C432.79 328.98 424.88 329.29 418.93 333.39C411.93 338.2 409.39 348.08 408.21 356.48" fill="#558EB4"/>
<path d="M461 343.24C460.782 343.17 460.574 343.072 460.38 342.95L458.65 342.05C457.15 341.26 454.99 340.05 452.26 338.78C449.077 337.225 445.764 335.95 442.36 334.97C438.195 333.791 433.837 333.451 429.54 333.97C425.233 334.448 421.162 336.187 417.84 338.97C415.253 341.377 413.185 344.286 411.76 347.52C410.762 349.693 409.877 351.916 409.11 354.18L408.46 356.02C408.4 356.24 408.313 356.452 408.2 356.65C408.238 356.426 408.295 356.205 408.37 355.99C408.51 355.52 408.7 354.9 408.93 354.12C409.634 351.825 410.475 349.574 411.45 347.38C412.849 344.072 414.927 341.094 417.55 338.64C420.918 335.765 425.07 333.965 429.47 333.47C433.833 332.954 438.254 333.324 442.47 334.56C445.895 335.562 449.22 336.881 452.4 338.5C455.12 339.85 457.25 341.06 458.73 341.9L460.42 342.9C460.622 342.998 460.816 343.111 461 343.24Z" fill="#263238"/>
<path d="M452.26 348C452.18 348.11 447.41 345 441.59 341.1C435.77 337.2 431.12 333.91 431.2 333.8C431.28 333.69 436.05 336.8 441.86 340.7C447.67 344.6 452.33 347.84 452.26 348Z" fill="#263238"/>
<path d="M447.16 333.5C446.043 333.89 444.873 334.102 443.69 334.13C442.511 334.293 441.314 334.276 440.14 334.08C441.299 333.866 442.472 333.746 443.65 333.72C444.813 333.563 445.986 333.489 447.16 333.5V333.5Z" fill="#263238"/>
<path d="M426.26 330.78C425.865 331.669 425.336 332.492 424.69 333.22C424.132 334.063 423.459 334.824 422.69 335.48C423.077 334.584 423.607 333.756 424.26 333.03C424.809 332.183 425.484 331.425 426.26 330.78V330.78Z" fill="#263238"/>
<path d="M430.54 350.77C429.734 350.431 428.963 350.012 428.24 349.52C426.86 348.68 425 347.46 423 346.01C421 344.56 419.26 343.19 418 342.19C417.279 341.69 416.61 341.121 416 340.49C416.772 340.899 417.505 341.377 418.19 341.92L423.28 345.62C425.28 347.06 427.09 348.32 428.42 349.23C429.166 349.686 429.875 350.201 430.54 350.77V350.77Z" fill="#263238"/>
<path d="M413.53 372C410.05 371.08 405.89 374.47 405.18 378C404.47 381.53 405.78 385.14 407.33 388.39C410.646 395.677 415.569 402.118 421.73 407.23C427.939 412.337 435.692 415.195 443.73 415.34C442.25 408.5 444.12 401.34 443.29 394.41C442.566 388.289 439.787 382.595 435.408 378.257C431.029 373.92 425.308 371.196 419.18 370.53C416.96 370.29 414.39 369.95 413.5 372" fill="#558EB4"/>
<path d="M443.76 415.33C443.587 415.268 443.42 415.191 443.26 415.1C442.801 414.846 442.366 414.552 441.96 414.22C440.498 412.954 439.325 411.389 438.52 409.63C437.96 408.55 437.34 407.38 436.74 406.08L434.86 401.94C434.189 400.416 433.42 398.936 432.56 397.51C431.616 395.994 430.556 394.553 429.39 393.2C427.01 390.4 424.45 387.98 422.23 385.66C420.222 383.64 418.395 381.448 416.77 379.11C415.677 377.521 414.781 375.805 414.1 374C413.88 373.35 413.72 372.85 413.64 372.5C413.579 372.329 413.542 372.151 413.53 371.97C413.53 371.97 413.77 372.68 414.28 373.97C415.018 375.733 415.947 377.409 417.05 378.97C418.705 381.259 420.545 383.41 422.55 385.4C424.78 387.69 427.35 390.11 429.76 392.94C430.941 394.312 432.014 395.773 432.97 397.31C433.827 398.759 434.595 400.258 435.27 401.8C435.91 403.27 436.53 404.66 437.1 405.96C437.67 407.26 438.29 408.43 438.82 409.52C439.584 411.261 440.693 412.83 442.08 414.13C443.1 415 443.78 415.28 443.76 415.33Z" fill="#263238"/>
<path d="M425.75 409.65C425.759 408.856 425.866 408.067 426.07 407.3C426.34 405.87 426.79 403.9 427.39 401.75C427.99 399.6 428.64 397.7 429.16 396.33C429.391 395.572 429.71 394.844 430.11 394.16C429.967 394.937 429.757 395.7 429.48 396.44C429.05 397.83 428.48 399.75 427.86 401.89C427.24 404.03 426.76 405.97 426.4 407.38C426.246 408.153 426.029 408.913 425.75 409.65Z" fill="#263238"/>
<path d="M443.1 392.86C442.265 392.749 441.441 392.561 440.64 392.3C439.14 391.9 437.07 391.37 434.76 390.85C432.45 390.33 430.36 389.92 428.83 389.64C427.995 389.531 427.172 389.347 426.37 389.09C427.215 389.07 428.06 389.141 428.89 389.3C430.43 389.5 432.55 389.85 434.89 390.37C437.23 390.89 439.28 391.49 440.76 391.97C441.57 392.181 442.355 392.479 443.1 392.86V392.86Z" fill="#263238"/>
<path d="M412.82 397.74C412.86 396.823 412.987 395.912 413.2 395.02C413.51 393.36 413.99 391.08 414.64 388.58C415.29 386.08 415.99 383.85 416.53 382.25C416.783 381.371 417.117 380.517 417.53 379.7C417.382 380.601 417.158 381.487 416.86 382.35C416.4 383.97 415.76 386.21 415.11 388.7C414.46 391.19 413.93 393.45 413.53 395.09C413.368 395.992 413.13 396.878 412.82 397.74V397.74Z" fill="#263238"/>
<path d="M435.11 378.23C435.11 378.36 430.74 378.01 425.4 377.44C420.06 376.87 415.72 376.31 415.74 376.18C418.988 376.277 422.229 376.538 425.45 376.96C430.8 377.53 435.12 378.1 435.11 378.23Z" fill="#263238"/>
<path d="M431.92 431C431.92 431.13 416.64 431.24 397.79 431.24C378.94 431.24 363.65 431.13 363.65 431C363.65 430.87 378.93 430.75 397.79 430.75C416.65 430.75 431.92 430.82 431.92 431Z" fill="#455A64"/>
<path d="M421.29 450.62C421.29 450.76 410.99 450.87 398.29 450.87C385.59 450.87 375.29 450.76 375.29 450.62C375.29 450.48 385.59 450.38 398.29 450.38C410.99 450.38 421.29 450.49 421.29 450.62Z" fill="#455A64"/>
<path d="M420.89 453.44C420.89 453.57 410.77 453.68 398.29 453.68C385.81 453.68 375.69 453.57 375.69 453.44C375.69 453.31 385.81 453.19 398.29 453.19C410.77 453.19 420.89 453.3 420.89 453.44Z" fill="#455A64"/>
<path d="M421.69 448.31C421.69 448.44 411.04 448.55 397.9 448.55C384.76 448.55 374.11 448.44 374.11 448.31C374.11 448.18 384.76 448.06 397.9 448.06C411.04 448.06 421.69 448.17 421.69 448.31Z" fill="#455A64"/>
<path d="M285 47.2C276.08 45.2 264.63 51.4 261.55 59.74C258.47 68.08 261.81 78.4 268.55 84.23C263.31 90.97 263.09 100.99 267.55 108.29C272.01 115.59 280.55 119.97 289.1 119.92C293.378 119.804 297.584 118.783 301.439 116.925C305.295 115.067 308.713 112.414 311.47 109.14C315.109 110.933 319.175 111.678 323.213 111.293C327.251 110.908 331.103 109.407 334.337 106.958C337.571 104.509 340.061 101.209 341.527 97.4268C342.993 93.6444 343.378 89.5288 342.64 85.54C352.72 81.85 358.28 68.92 354 59C349.72 49.08 336.48 44.33 326.87 49.19C327.08 38.42 317.69 28.37 306.93 27.85C296.17 27.33 285.85 36.46 285 47.2Z" fill="#FAFAFA"/>
<path d="M285 47.2H284.85C284.85 47.15 284.85 47.2 284.85 47.2H284.91H285.05H285.21C285.21 47.28 285.1 47.2 285.04 47.27C285.182 45.1113 285.686 42.9918 286.53 41C287.322 39.2039 288.351 37.5222 289.59 36C291.174 34.03 293.077 32.3398 295.22 31C297.792 29.3602 300.695 28.3085 303.72 27.92L304.95 27.78H306.22C307.087 27.7847 307.952 27.8481 308.81 27.97C310.6 28.232 312.346 28.7366 314 29.47C314.438 29.6442 314.863 29.8514 315.27 30.09C315.68 30.32 316.11 30.54 316.52 30.79C317.344 31.3149 318.136 31.8893 318.89 32.51C319.665 33.137 320.406 33.8046 321.11 34.51C321.799 35.2745 322.447 36.0757 323.05 36.91C325.655 40.4702 327.056 44.7686 327.05 49.18L326.75 48.99C331.206 46.8906 336.28 46.5096 341 47.92C346.137 49.2893 350.547 52.5886 353.31 57.13C354.661 59.5924 355.462 62.3188 355.658 65.1209C355.853 67.923 355.437 70.7341 354.44 73.36C353.467 76.1062 351.957 78.6318 350 80.79C347.999 83.0131 345.496 84.7272 342.7 85.79L342.87 85.5C343.608 89.7488 343.104 94.1201 341.42 98.09C339.721 102.193 336.812 105.682 333.08 108.09C329.85 110.105 326.165 111.275 322.365 111.493C318.564 111.712 314.77 110.971 311.33 109.34L311.64 109.28C306.946 114.782 300.489 118.486 293.37 119.76C286.636 120.896 279.724 119.364 274.1 115.49C271.462 113.682 269.216 111.359 267.5 108.66C265.888 106.056 264.839 103.144 264.42 100.11C264 97.2266 264.143 94.2892 264.84 91.46C265.512 88.7853 266.72 86.2747 268.39 84.08V84.35C265.317 81.6026 262.985 78.1257 261.61 74.24C260.967 72.4656 260.547 70.6181 260.36 68.74C260.154 66.9739 260.184 65.1881 260.45 63.43C260.871 60.2405 262.216 57.244 264.32 54.81C266.078 52.7758 268.18 51.0664 270.53 49.76C272.401 48.7076 274.401 47.9041 276.48 47.37C278.005 46.9858 279.568 46.7778 281.14 46.75C282.108 46.7347 283.076 46.8117 284.03 46.98C284.67 47.09 285.03 47.17 285.03 47.17L284.03 47.04C283.077 46.8979 282.113 46.841 281.15 46.87C279.59 46.9182 278.04 47.1429 276.53 47.54C274.475 48.1025 272.502 48.9294 270.66 50C268.348 51.2988 266.281 52.9909 264.55 55C262.496 57.4028 261.189 60.3539 260.79 63.49C260.532 65.2188 260.506 66.9741 260.71 68.71C260.918 70.5688 261.352 72.3955 262 74.15C263.362 77.9709 265.667 81.3864 268.7 84.08L268.84 84.2L268.73 84.35C267.099 86.5048 265.922 88.9677 265.27 91.59C264.594 94.3683 264.459 97.2505 264.87 100.08C265.279 103.048 266.301 105.898 267.87 108.45C269.558 111.09 271.762 113.363 274.35 115.13C279.877 118.921 286.661 120.416 293.27 119.3C300.285 118.044 306.647 114.393 311.27 108.97L311.4 108.82L311.58 108.91C314.941 110.498 318.646 111.217 322.357 111.002C326.068 110.787 329.665 109.645 332.82 107.68C336.468 105.314 339.307 101.892 340.96 97.87C342.615 93.9976 343.108 89.7277 342.38 85.58V85.37L342.59 85.3C345.251 84.2232 347.648 82.5847 349.617 80.4964C351.586 78.4081 353.081 75.9193 354 73.2C354.98 70.6433 355.392 67.904 355.207 65.1722C355.023 62.4403 354.245 59.7814 352.93 57.38C350.235 52.9496 345.938 49.7267 340.93 48.38C336.319 46.9924 331.357 47.3593 327 49.41L326.69 49.56V49.22C326.692 44.9081 325.327 40.7067 322.79 37.22C322.197 36.3958 321.559 35.6046 320.88 34.85C320.196 34.1421 319.471 33.4743 318.71 32.85C317.969 32.2361 317.191 31.6683 316.38 31.15C315.97 30.9 315.56 30.68 315.15 30.45C314.749 30.2136 314.331 30.0064 313.9 29.83C312.274 29.0858 310.555 28.5644 308.79 28.28C307.948 28.1631 307.1 28.0997 306.25 28.09H305L303.78 28.22C300.796 28.5866 297.93 29.6113 295.39 31.22C291.575 33.5399 288.539 36.9451 286.67 41C285.789 42.9654 285.226 45.0581 285 47.2V47.2C285.07 47.2 285.16 47.13 285.19 47.2H285.02H284.89H284.82H285Z" fill="#263238"/>
<path d="M316.434 59.5279C314.807 57.7732 312.659 56.588 310.307 56.1469C308.883 55.933 307.43 56.007 306.035 56.3645C304.64 56.722 303.33 57.3557 302.184 58.2282C301.086 59.0207 300.159 60.0265 299.458 61.1853C298.757 62.3442 298.297 63.6324 298.105 64.973C297.965 66.323 298.103 67.6872 298.512 68.9814C298.921 70.2755 299.59 71.4721 300.48 72.497C301.898 74.2014 303.807 75.4267 305.947 76.0055L303.067 84.5339C302.966 84.9245 303.017 85.3387 303.209 85.6935C303.401 86.0482 303.719 86.3175 304.101 86.4473C304.483 86.5771 304.9 86.5579 305.268 86.3936C305.637 86.2292 305.929 85.9318 306.088 85.5609L309.594 75.2166C309.672 74.9819 309.695 74.7324 309.661 74.4873C309.628 74.2422 309.539 74.0081 309.401 73.8029C309.263 73.5984 309.079 73.4291 308.864 73.3084C308.649 73.1878 308.409 73.1191 308.162 73.1079C307.152 73.042 306.166 72.7682 305.266 72.3037C304.366 71.8392 303.572 71.194 302.932 70.4084C302.327 69.7197 301.868 68.9147 301.584 68.0426C301.301 67.1705 301.198 66.2497 301.283 65.3365C301.421 64.4234 301.743 63.5477 302.229 62.7622C302.715 61.9766 303.355 61.2975 304.11 60.7655C304.912 60.1452 305.831 59.6942 306.813 59.4398C307.795 59.1855 308.818 59.133 309.82 59.2858C313.603 59.9242 316.76 63.8777 316.666 67.8958C316.658 68.3203 316.82 68.7305 317.115 69.0359C317.41 69.3414 317.814 69.5172 318.238 69.5247C318.663 69.5322 319.073 69.3707 319.378 69.0758C319.684 68.7808 319.86 68.3766 319.867 67.9521C319.857 64.8054 318.626 61.7854 316.434 59.5279Z" fill="#558EB4"/>
<path d="M300.501 90.6351C300.378 90.9691 300.356 91.3324 300.439 91.6789C300.522 92.0254 300.705 92.3395 300.967 92.5815C301.228 92.8234 301.556 92.9823 301.908 93.0381C302.26 93.0939 302.62 93.0439 302.944 92.8947C303.267 92.7454 303.539 92.5035 303.725 92.1996C303.911 91.8957 304.002 91.5434 303.988 91.1875C303.973 90.8315 303.854 90.4878 303.644 90.1999C303.434 89.912 303.143 89.6929 302.809 89.5703C302.362 89.4063 301.868 89.4263 301.435 89.6259C301.003 89.8255 300.667 90.1884 300.501 90.6351Z" fill="#558EB4"/>
<path d="M248.24 97.22C246.524 97.0299 244.789 97.3525 243.256 98.147C241.723 98.9416 240.46 100.173 239.625 101.685C238.791 103.197 238.423 104.922 238.569 106.642C238.714 108.363 239.366 110.002 240.442 111.353C241.518 112.704 242.97 113.705 244.615 114.231C246.259 114.757 248.023 114.785 249.683 114.309C251.344 113.834 252.826 112.878 253.943 111.561C255.06 110.244 255.762 108.625 255.96 106.91C256.137 104.618 255.439 102.344 254.006 100.546C252.574 98.7481 250.514 97.5597 248.24 97.22" fill="#FAFAFA"/>
<path d="M248.29 97.23C249.011 97.2548 249.722 97.4072 250.39 97.68C251.95 98.313 253.31 99.3532 254.331 100.692C255.351 102.03 255.993 103.618 256.19 105.29C256.333 106.878 256.01 108.473 255.26 109.88C254.861 110.638 254.356 111.335 253.76 111.95C253.148 112.602 252.444 113.161 251.67 113.61C250.061 114.629 248.152 115.066 246.26 114.85C244.368 114.633 242.607 113.776 241.27 112.42C240.612 111.813 240.052 111.108 239.61 110.33C239.16 109.602 238.823 108.809 238.61 107.98C238.189 106.442 238.235 104.813 238.74 103.3C239.305 101.714 240.286 100.31 241.582 99.235C242.877 98.1599 244.438 97.4535 246.1 97.19C246.807 97.0604 247.533 97.0604 248.24 97.19C248.24 97.26 247.47 97.13 246.13 97.36C244.238 97.7244 242.507 98.672 241.18 100.07C240.272 101.016 239.589 102.154 239.18 103.4C238.722 104.834 238.694 106.371 239.1 107.82C239.55 109.427 240.432 110.879 241.65 112.02C242.912 113.292 244.569 114.095 246.348 114.299C248.128 114.503 249.924 114.094 251.44 113.14C252.181 112.72 252.856 112.19 253.44 111.57C254.009 110.993 254.49 110.336 254.87 109.62C255.6 108.303 255.923 106.8 255.8 105.3C255.667 103.988 255.247 102.722 254.57 101.59C253.589 99.9341 252.118 98.6237 250.36 97.84C249.683 97.5945 248.992 97.3908 248.29 97.23V97.23Z" fill="#263238"/>
<path d="M231.22 116.24C230.48 116.158 229.732 116.297 229.07 116.64C228.409 116.983 227.864 117.514 227.504 118.166C227.144 118.818 226.986 119.562 227.048 120.304C227.111 121.047 227.392 121.754 227.856 122.336C228.32 122.919 228.947 123.351 229.656 123.578C230.366 123.805 231.126 123.816 231.842 123.611C232.559 123.407 233.198 122.994 233.68 122.426C234.162 121.858 234.464 121.16 234.55 120.42C234.627 119.431 234.326 118.45 233.708 117.675C233.09 116.899 232.201 116.386 231.22 116.24" fill="#FAFAFA"/>
<path d="M231.24 116.25C231.557 116.205 231.88 116.254 232.17 116.39C232.865 116.654 233.474 117.103 233.932 117.688C234.39 118.273 234.68 118.972 234.77 119.71C234.839 120.422 234.696 121.139 234.36 121.77C233.987 122.491 233.405 123.081 232.689 123.463C231.973 123.845 231.158 124 230.352 123.908C229.546 123.815 228.787 123.48 228.176 122.947C227.564 122.413 227.13 121.706 226.93 120.92C226.746 120.228 226.771 119.498 227 118.82C227.216 118.245 227.558 117.726 228 117.3C228.622 116.681 229.43 116.284 230.3 116.17C230.614 116.111 230.938 116.135 231.24 116.24C231.24 116.29 230.9 116.24 230.34 116.37C229.547 116.551 228.826 116.966 228.27 117.56C227.856 117.975 227.559 118.493 227.409 119.06C227.26 119.628 227.264 120.225 227.42 120.79C227.581 121.494 227.956 122.131 228.495 122.613C229.033 123.094 229.707 123.397 230.425 123.479C231.142 123.562 231.867 123.419 232.501 123.072C233.134 122.725 233.644 122.189 233.96 121.54C234.24 121.024 234.378 120.443 234.361 119.856C234.343 119.27 234.17 118.698 233.86 118.2C233.461 117.49 232.849 116.923 232.11 116.58C231.57 116.33 231.23 116.29 231.24 116.25Z" fill="#263238"/>
</svg>
