<svg xmlns="http://www.w3.org/2000/svg" viewBox="0 0 500 500"><g id="freepik--background-complete--inject-157"><path d="M80.41,95.55A16,16,0,0,1,92.75,97.8a28.09,28.09,0,0,1,8.75,9.32c4.38,7.07,5.86,16.53,6,24.84-9.23-.46-17-7.79-20.78-11.75C80.8,113.93,74,99,80.41,95.55" style="fill:#f5f5f5"></path><path d="M122.28,137.67a13.66,13.66,0,0,1-4.58-12.94,18.18,18.18,0,0,1,7.92-11.57c1.85-1.23,4.12-2.21,6.25-1.56a5.86,5.86,0,0,1,3.74,4.59,12,12,0,0,1-.77,6.11c-2.4,6.7-5.94,12.75-12.56,15.37" style="fill:#f5f5f5"></path><path d="M127.64,157.78a27.18,27.18,0,0,1-2.61-4.84,25,25,0,0,1-1.84-5.72A55.5,55.5,0,0,1,122,140a27.52,27.52,0,0,1,2.08-13.13,20.23,20.23,0,0,1,2-3.5c.6-.75,1-1.13,1-1.09s-1.2,1.74-2.45,4.85a29.37,29.37,0,0,0-1.76,12.8,64.9,64.9,0,0,0,1.06,7.14,28.08,28.08,0,0,0,1.6,5.63C126.92,155.79,127.78,157.72,127.64,157.78Z" style="fill:#e0e0e0"></path><path d="M86.63,106.45a15.54,15.54,0,0,1,1.94,2c1.19,1.33,2.9,3.28,5,5.7,4.17,4.85,9.86,11.61,16,19.22S121,148.05,124.7,153.23c1.87,2.6,3.36,4.71,4.36,6.19a16.36,16.36,0,0,1,1.49,2.36,16.57,16.57,0,0,1-1.78-2.14l-4.6-6c-3.88-5.08-9.28-12.06-15.38-19.67L93.05,114.57l-4.76-5.88A17.54,17.54,0,0,1,86.63,106.45Z" style="fill:#e0e0e0"></path><path d="M116,146.66A32,32,0,0,0,87,143c-2.42.9-5,2.59-5.12,5.17s2.46,4.42,4.85,5.42a27.31,27.31,0,0,0,29.62-6.37" style="fill:#f5f5f5"></path><path d="M93.47,147a4.66,4.66,0,0,1,1.39-.48c.9-.25,2.23-.54,3.88-.85a36.28,36.28,0,0,1,13.15-.11,22.68,22.68,0,0,1,6.82,2.61,21.87,21.87,0,0,1,7.12,6.87,4.58,4.58,0,0,1,.71,1.28c-.15.11-1.29-1.64-3.65-4a22.21,22.21,0,0,0-11.19-5.9,40.69,40.69,0,0,0-12.86-.15C95.54,146.7,93.5,147.1,93.47,147Z" style="fill:#e0e0e0"></path><path d="M129.53,349.67c29.82-14.48,41.45-48.31,45.36-79.76.66-5.25,2.11-10.66.35-15.64s-7.05-9-12.08-7.57c-4.16,1.2-6.57,5.45-9.33,8.83a31,31,0,0,1-14.11,9.75c-3.6,1.19-7.88,1.59-10.88-.74-4.11-3.2-3.65-9.51-2.79-14.7l4.8-29c.86-5.19,1.72-10.49.89-15.68s-3.67-10.33-8.39-12.5-11.28-.29-13.13,4.62c-.78,2.05-.69,4.31-1.18,6.45s-1.87,4.35-4,4.63-4-1.52-5.32-3.29c-4.52-6.1-7.09-13.43-9.42-20.69s-4.53-14.66-8.49-21.15-10-12.1-17.33-13.71-16,1.73-19.06,8.73,0,15.13,3.74,21.8a117.35,117.35,0,0,0,20.48,26.84c1.45,1.43,3,3,3.34,5,.58,3.64-3.25,6.56-6.85,7.15-4.07.67-8.21-.4-12.34-.56s-8.79.92-10.93,4.5c-3,5,.58,11.24,4.37,15.58A100.39,100.39,0,0,0,73.9,260.19c3.59,2,7.42,3.87,10.07,7.05s3.77,8.14,1.33,11.5-7.41,3.77-11.29,2.39S66.89,277,63.3,275c-6.7-3.83-16-4.81-21.55.63-3.65,3.58-4.81,9.18-4.06,14.26s3.17,9.72,5.83,14.08c9.3,15.24,22.22,28.38,37.87,36.75s30.73,12.38,48.14,9" style="fill:#ebebeb"></path><path d="M125.3,351.33c.84-12.57,1.4-6.05-.72-22.56s-5.89-34.43-10.5-53L110.61,262c-1.15-4.51-2.28-9-3.67-13.3a234.42,234.42,0,0,0-9.37-24.31c-3.35-7.59-6.81-14.67-10.1-21.26S81,190.42,77.84,185a187.14,187.14,0,0,0-16.73-24.46c-2.19-2.72-4-4.77-5.18-6.15l-1.4-1.56a3.43,3.43,0,0,0-.5-.51,3.81,3.81,0,0,0,.43.58c.33.4.77.93,1.32,1.62,1.17,1.41,2.89,3.51,5,6.26a198,198,0,0,1,16.43,24.57c3.1,5.43,6.24,11.52,9.51,18.11s6.67,13.69,10,21.27A235.51,235.51,0,0,1,106,249c1.37,4.29,2.49,8.73,3.64,13.26s2.29,9.11,3.46,13.75c4.61,18.59,8.42,36.46,10.56,52.92s1.67,9.87.92,22.4" style="fill:#e0e0e0"></path><path d="M106.68,248.59a11.27,11.27,0,0,0,.86-2.14c.5-1.39,1.16-3.42,1.93-5.95,1.56-5.06,3.47-12.11,5.55-19.89s4.09-14.8,5.72-19.81c.8-2.51,1.48-4.54,2-5.93a10.42,10.42,0,0,0,.65-2.21,11,11,0,0,0-1,2.07c-.59,1.36-1.37,3.35-2.26,5.85-1.8,5-3.92,12-6,19.77s-3.87,14.64-5.28,20c-.64,2.39-1.19,4.41-1.63,6A9.56,9.56,0,0,0,106.68,248.59Z" style="fill:#e0e0e0"></path><path d="M41.89,225.48a14.26,14.26,0,0,0,2.62.75c1.68.42,4.13,1,7.13,1.86,6,1.64,14.23,4.18,23.18,7.39s16.92,6.49,22.62,9c2.86,1.25,5.15,2.32,6.73,3a13.92,13.92,0,0,0,2.51,1.06,14.57,14.57,0,0,0-2.34-1.4c-1.54-.83-3.79-2-6.62-3.33-5.64-2.69-13.6-6.07-22.57-9.3a238.37,238.37,0,0,0-23.34-7.14c-3-.75-5.51-1.26-7.23-1.57A15.19,15.19,0,0,0,41.89,225.48Z" style="fill:#e0e0e0"></path><path d="M124,327.41s.23-.23.59-.74l1.53-2.23c1.31-1.95,3.14-4.81,5.36-8.38,4.44-7.14,10.26-17.19,16.53-28.37s12-21.27,16.28-28.49c2.1-3.5,3.82-6.39,5.1-8.53.55-.93,1-1.7,1.38-2.33a3.52,3.52,0,0,0,.42-.85s-.23.23-.59.74L169,250.46c-1.32,1.95-3.15,4.81-5.37,8.38C159.22,266,153.4,276,147.13,287.21s-12,21.27-16.28,28.49c-2.1,3.5-3.82,6.39-5.1,8.53l-1.37,2.33A3.39,3.39,0,0,0,124,327.41Z" style="fill:#e0e0e0"></path><path d="M39.78,284.7a3.55,3.55,0,0,0,.82.5L43,286.47l9,4.59c7.61,3.88,18.06,9.36,29.59,15.43s22,11.45,29.74,15.18c3.84,1.86,7,3.33,9.15,4.31l2.52,1.11a3.65,3.65,0,0,0,.9.32,3.55,3.55,0,0,0-.82-.5l-2.44-1.27-9-4.59c-7.61-3.88-18.06-9.36-29.59-15.43s-22-11.46-29.73-15.18c-3.85-1.86-7-3.33-9.16-4.31L40.68,285A3.65,3.65,0,0,0,39.78,284.7Z" style="fill:#e0e0e0"></path></g><g id="freepik--Floor--inject-157"><path d="M465.36,435c0,.14-94.67.26-211.42.26S42.5,435.15,42.5,435s94.65-.26,211.44-.26S465.36,434.86,465.36,435Z" style="fill:#263238"></path></g><g id="freepik--Plant--inject-157"><path d="M65.73,269.39s6.9-4.66,15.52,11.87,11.92,26.08,11.92,26.08,2.27,3.46,4.64,1.16,5.58-8.78,9.66-7.65,5.66,5.85,4.92,12.77-1.8,22.14-1.89,23.51.7,3.33,2.56,2,12.55-13.43,18-8,.23,24.35-.3,26.43-.12,3,.87,3.47,4.2-3.91,7.38-7.23,7.45-6.63,10.33-3.24,3.93,17.55-9.34,40.69l-6.85,10.32L120.72,401c-26.53-2.85-37.38-12-38.42-16.33s4.12-5.84,8.68-6.46,10-.63,10.19-1.73-.3-1.95-2.3-2.74-20.39-7.68-21.57-15.27,14.9-9.12,17.06-9.87,1-2.54-.14-3.26-14.11-8.81-20.14-12.28-9-7.37-7.45-11.48c1.48-4,8.61-2.75,11.87-3.32s1.78-4.44,1.78-4.44-5.8-8.27-14.11-25-.29-19.57-.29-19.57" style="fill:#FF725E"></path><path d="M73.48,284.18a3,3,0,0,1,.17.29l.47.89,1.75,3.41,6.4,12.58c5.45,10.62,13,25.25,21.25,41.42s15.82,30.83,21.14,41.49c2.64,5.32,4.77,9.64,6.26,12.65l1.67,3.45.43.91c.09.2.13.31.13.31s-.07-.09-.18-.29l-.46-.88c-.42-.81-1-2-1.75-3.42-1.53-3-3.71-7.28-6.4-12.58C119,373.79,111.43,359.15,103.1,343S87.29,312.16,82,301.5L75.7,288.85c-.71-1.48-1.27-2.64-1.67-3.45-.18-.38-.32-.68-.42-.91A1.17,1.17,0,0,1,73.48,284.18Z" style="fill:#263238"></path><path d="M103.34,310.1a24.67,24.67,0,0,1-.69,3.26c-.48,2.13-1.1,4.83-1.79,7.83S99.52,327,99,329c-.27,1-.5,1.79-.68,2.34a3,3,0,0,1-.33.83,31.94,31.94,0,0,1,.68-3.26l1.73-7.84c.7-3.06,1.38-5.82,1.93-7.81.28-1,.52-1.79.7-2.33A3.05,3.05,0,0,1,103.34,310.1Z" style="fill:#263238"></path><path d="M96.85,332.42c0,.12-5.72-1.34-12.7-3.28s-12.6-3.6-12.56-3.73,5.71,1.34,12.69,3.27S96.88,332.29,96.85,332.42Z" style="fill:#263238"></path><path d="M112.89,360.24a3.43,3.43,0,0,1-.91.13c-.58.06-1.43.12-2.48.17-2.1.1-5,.17-8.22.08s-6.1-.32-8.19-.54c-1-.11-1.89-.22-2.48-.31a3.29,3.29,0,0,1-.89-.19,27.13,27.13,0,0,1,3.39.16c2.1.14,5,.31,8.19.4s6.09.08,8.19.06A26.43,26.43,0,0,1,112.89,360.24Z" style="fill:#263238"></path><path d="M123.21,341.34a20.4,20.4,0,0,1-1.39,2.82c-.92,1.71-2.21,4.06-3.66,6.64s-2.79,4.91-3.78,6.58a20,20,0,0,1-1.69,2.65,20.4,20.4,0,0,1,1.39-2.82c.92-1.71,2.21-4.06,3.66-6.64s2.79-4.91,3.78-6.57A20.64,20.64,0,0,1,123.21,341.34Z" style="fill:#263238"></path><path d="M140.49,364.1a4.35,4.35,0,0,1-.45,1l-1.41,2.59c-1.2,2.17-2.89,5.16-4.78,8.45s-3.63,6.26-4.91,8.39c-.6,1-1.12,1.83-1.53,2.52a4.43,4.43,0,0,1-.62.88,4.67,4.67,0,0,1,.45-1l1.41-2.59c1.2-2.18,2.89-5.17,4.78-8.46s3.63-6.25,4.91-8.38l1.53-2.52A5.44,5.44,0,0,1,140.49,364.1Z" style="fill:#263238"></path><path d="M127,387.26a4.65,4.65,0,0,1-1.15.1c-.75,0-1.83.05-3.16.06-2.66,0-6.35,0-10.41-.27s-7.74-.57-10.38-.88c-1.33-.15-2.4-.3-3.13-.41a5,5,0,0,1-1.14-.23,6.35,6.35,0,0,1,1.16,0l3.14.26c2.65.23,6.32.52,10.37.74s7.73.34,10.39.41l3.16.09A5.93,5.93,0,0,1,127,387.26Z" style="fill:#263238"></path></g><g id="freepik--Character--inject-157"><path d="M452.12,263.89l-33.47,32.59-30.84,58.85-34.68,66.55-42.61-20-46.06-23.58,29.46-56.28,18.31-63c-12.94,8.58-37,20.27-65.7,14.17-31.14-6.6-16.19-124-16.19-124l34.22-.88L268,231.08,306.65,214l.06.14c2.33-1,4.37-2,5.45-2.55,21.39-11.67,35.43-13.08,58.38-4.89h0l33.11,11c8.51,4,39.88,19.45,48.47,46.19" style="fill:#FF725E"></path><path d="M335,204.24s-.77.44-2.07,1.37a22.93,22.93,0,0,0-4.8,4.71,34,34,0,0,0-4.72,8.79,119.81,119.81,0,0,0-3.53,11.79L314,252.53c-.77,2.71-1.39,4.93-1.85,6.53-.21.73-.39,1.32-.52,1.77a2.71,2.71,0,0,1-.22.61,2.52,2.52,0,0,1,.12-.63c.11-.47.25-1.06.43-1.8.41-1.62,1-3.85,1.68-6.58,1.48-5.6,3.5-13.23,5.74-21.67a114.7,114.7,0,0,1,3.58-11.82,33.41,33.41,0,0,1,4.88-8.84,21.61,21.61,0,0,1,5-4.66,14.52,14.52,0,0,1,1.6-.94A4.32,4.32,0,0,1,335,204.24Z" style="fill:#263238"></path><g style="opacity:0.30000000000000004"><path d="M322.51,220.83c-9.57,25.91-26.78,40.39-51.15,53.37a89.75,89.75,0,0,0,40.19-14.72"></path></g><g style="opacity:0.30000000000000004"><path d="M353,202.39q6.08,97.38,12.16,194.75l-12,24.74Z"></path></g><path d="M390.68,269.74c-.14.06-1.36-3-3.07-6.69s-3.23-6.62-3.1-6.69a8.6,8.6,0,0,1,1.19,1.81c.67,1.16,1.53,2.8,2.38,4.66s1.55,3.57,2,4.83A7.92,7.92,0,0,1,390.68,269.74Z" style="fill:#fafafa"></path><path d="M417.92,256.05a55.89,55.89,0,0,1-6.5,4.36,58.65,58.65,0,0,1-6.78,3.92,61.08,61.08,0,0,1,6.51-4.36A59.05,59.05,0,0,1,417.92,256.05Z" style="fill:#fafafa"></path><path d="M406.1,246.19a28.36,28.36,0,0,1-.54-5.31,28.46,28.46,0,0,1,0-5.35,26.53,26.53,0,0,1,.54,5.32A27.36,27.36,0,0,1,406.1,246.19Z" style="fill:#fafafa"></path><path d="M433.29,244.29a60.62,60.62,0,0,1-9.54-5.89,30.56,30.56,0,0,1,4.91,2.72A30,30,0,0,1,433.29,244.29Z" style="fill:#fafafa"></path><path d="M391.72,298.23a53.57,53.57,0,0,1,2.7-6.92,54.4,54.4,0,0,1,3.18-6.71,52.46,52.46,0,0,1-2.7,6.92A53.56,53.56,0,0,1,391.72,298.23Z" style="fill:#fafafa"></path><path d="M379.61,310.49a23.76,23.76,0,0,1-2.44-4.3,24.11,24.11,0,0,1-2-4.54,24.13,24.13,0,0,1,2.45,4.3A23.36,23.36,0,0,1,379.61,310.49Z" style="fill:#fafafa"></path><path d="M389.74,327a16.77,16.77,0,0,1-5.14,1.31,16.56,16.56,0,0,1-5.3.16c0-.15,2.35-.26,5.23-.67S389.7,326.84,389.74,327Z" style="fill:#fafafa"></path><path d="M402.73,308.94a26.58,26.58,0,0,1,1.78-4.85,25.55,25.55,0,0,1,2.25-4.65,26.06,26.06,0,0,1-1.77,4.85A24.45,24.45,0,0,1,402.73,308.94Z" style="fill:#fafafa"></path><path d="M371.14,347.08c-.13.08-1.6-1.95-3.62-4.28s-3.82-4.08-3.71-4.19a27.29,27.29,0,0,1,7.33,8.47Z" style="fill:#fafafa"></path><path d="M365.41,306.07a29.5,29.5,0,0,1-2.61,5,30.58,30.58,0,0,1-3.07,4.76,31.6,31.6,0,0,1,2.62-5A30.81,30.81,0,0,1,365.41,306.07Z" style="fill:#fafafa"></path><path d="M369.49,292a32.53,32.53,0,0,1-5.59-1.18,31.47,31.47,0,0,1-5.46-1.68,31.42,31.42,0,0,1,5.59,1.18A30.81,30.81,0,0,1,369.49,292Z" style="fill:#fafafa"></path><path d="M369.25,263a34.21,34.21,0,0,1,3,4.08,33.69,33.69,0,0,1,2.78,4.2,19.63,19.63,0,0,1-3.2-3.91A19.11,19.11,0,0,1,369.25,263Z" style="fill:#fafafa"></path><path d="M360,261.55a44.26,44.26,0,0,1-7.26,6.32,22,22,0,0,1,3.46-3.36A22.74,22.74,0,0,1,360,261.55Z" style="fill:#fafafa"></path><path d="M367.31,246.38a32.47,32.47,0,0,1-8.28-9.73c.13-.08,1.77,2.26,4.06,4.94S367.42,246.27,367.31,246.38Z" style="fill:#fafafa"></path><path d="M392.89,241.71a33.85,33.85,0,0,1-5.61,2,33.34,33.34,0,0,1-5.76,1.48,35.57,35.57,0,0,1,5.61-2A33.74,33.74,0,0,1,392.89,241.71Z" style="fill:#fafafa"></path><path d="M356.88,217.35c-.15,0-.08-2.29-.44-5.07s-1-5-.82-5a18.48,18.48,0,0,1,1.26,10.1Z" style="fill:#fafafa"></path><path d="M334.12,289.86a18.93,18.93,0,0,1-2.35,1.74c-1.48,1-3.5,2.49-5.66,4.19s-4.06,3.31-5.42,4.49a20.27,20.27,0,0,1-2.25,1.88,13.82,13.82,0,0,1,2-2.15,68,68,0,0,1,5.35-4.63,70.69,70.69,0,0,1,5.77-4.09A15.53,15.53,0,0,1,334.12,289.86Z" style="fill:#fafafa"></path><path d="M332.81,281.84c-.13.07-1.81-2.54-4.14-5.59s-4.39-5.37-4.28-5.48a7,7,0,0,1,1.51,1.39,48.81,48.81,0,0,1,3.19,3.77c1.16,1.54,2.13,3,2.78,4.08A7.38,7.38,0,0,1,332.81,281.84Z" style="fill:#fafafa"></path><path d="M338.9,250.23a60.42,60.42,0,0,1-9.8,5.41,30.59,30.59,0,0,1,4.78-2.93A29.73,29.73,0,0,1,338.9,250.23Z" style="fill:#fafafa"></path><path d="M332.87,236.43a7.87,7.87,0,0,1-1.71-1.35,35.67,35.67,0,0,1-3.61-3.82,36.55,36.55,0,0,1-3.05-4.3,7.88,7.88,0,0,1-1-1.94c.14-.08,1.85,2.76,4.44,5.91S333,236.31,332.87,236.43Z" style="fill:#fafafa"></path><path d="M343.25,236.14a22.16,22.16,0,0,1,1.84-4.37,21.92,21.92,0,0,1,2.31-4.15,21.45,21.45,0,0,1-1.84,4.37A21.29,21.29,0,0,1,343.25,236.14Z" style="fill:#fafafa"></path><path d="M340.48,220.35c-.16,0,0-3.11-.58-6.86s-1.69-6.65-1.54-6.71a6.65,6.65,0,0,1,.85,1.86,26.2,26.2,0,0,1,1.21,4.77,27.69,27.69,0,0,1,.31,4.91A6.39,6.39,0,0,1,340.48,220.35Z" style="fill:#fafafa"></path><path d="M343,300a21.44,21.44,0,0,1,0-2.93c.07-1.8.12-4.29.05-7s-.25-5.23-.4-7a18.79,18.79,0,0,1-.18-2.92,15,15,0,0,1,.55,2.88,65,65,0,0,1,.55,7.06,64.26,64.26,0,0,1-.2,7.07A13.77,13.77,0,0,1,343,300Z" style="fill:#fafafa"></path><path d="M341.52,324.89a43.33,43.33,0,0,0-4.43-3.57A44,44,0,0,0,332,318.8a14.53,14.53,0,0,1,9.54,6.09Z" style="fill:#fafafa"></path><path d="M354,340.29a59.18,59.18,0,0,1-6.87,3.85,57.86,57.86,0,0,1-7.11,3.38,61.18,61.18,0,0,1,6.87-3.84A58.92,58.92,0,0,1,354,340.29Z" style="fill:#fafafa"></path><path d="M318.82,347.12a62.79,62.79,0,0,1-5.06-6.43,64.47,64.47,0,0,1-4.64-6.75,65.09,65.09,0,0,1,5.06,6.44A66.28,66.28,0,0,1,318.82,347.12Z" style="fill:#fafafa"></path><path d="M308,318.68a7.35,7.35,0,0,1-.23-2.05c-.05-1.27-.07-3,0-5s.27-3.69.44-5a7.74,7.74,0,0,1,.41-2c.15,0-.15,3.14-.33,7S308.1,318.68,308,318.68Z" style="fill:#fafafa"></path><path d="M296.22,367.23a53.48,53.48,0,0,1-5.84-4.52,52.69,52.69,0,0,1-5.51-4.92,53.07,53.07,0,0,1,5.84,4.52A52.62,52.62,0,0,1,296.22,367.23Z" style="fill:#fafafa"></path><path d="M303.26,365.74a59.29,59.29,0,0,1-.45-7.84,60.1,60.1,0,0,1,.08-7.85,59.29,59.29,0,0,1,.45,7.84A60.1,60.1,0,0,1,303.26,365.74Z" style="fill:#fafafa"></path><path d="M317.16,395.85c0,.08-1.25-.41-3.26-1.06a46.76,46.76,0,0,0-16.22-2.21c-2.11.08-3.41.23-3.42.14a3.21,3.21,0,0,1,.9-.21c.58-.11,1.44-.21,2.5-.3A39.25,39.25,0,0,1,314,394.45a21.68,21.68,0,0,1,2.33,1A3,3,0,0,1,317.16,395.85Z" style="fill:#fafafa"></path><path d="M328.61,401.35a11.48,11.48,0,0,1,2.26,1.55,57.18,57.18,0,0,1,9.33,9.33,11.48,11.48,0,0,1,1.55,2.26,18.56,18.56,0,0,1-1.84-2c-1.1-1.27-2.66-3-4.47-4.81s-3.54-3.36-4.81-4.47A18.56,18.56,0,0,1,328.61,401.35Z" style="fill:#fafafa"></path><path d="M333.6,349.25a40.47,40.47,0,0,1-2.59-5.83,39.52,39.52,0,0,1-2.11-6,40.47,40.47,0,0,1,2.59,5.83A39.52,39.52,0,0,1,333.6,349.25Z" style="fill:#fafafa"></path><path d="M293.43,247.9a7.77,7.77,0,0,1-1.53,1.67,33.83,33.83,0,0,1-4.28,3.38,33.12,33.12,0,0,1-4.78,2.66,8,8,0,0,1-2.13.77c-.06-.15,3.11-1.51,6.62-3.86S293.32,247.78,293.43,247.9Z" style="fill:#fafafa"></path><path d="M296,237.3a38.27,38.27,0,0,1,.42-8.9,38.27,38.27,0,0,1-.42,8.9Z" style="fill:#fafafa"></path><path d="M276.05,246.2a29.92,29.92,0,0,1-5.19-2.09,30.52,30.52,0,0,1-5-2.57,30.92,30.92,0,0,1,5.19,2.09A30.52,30.52,0,0,1,276.05,246.2Z" style="fill:#fafafa"></path><path d="M311.64,232.64a29.62,29.62,0,0,1,.17-5.53,28.43,28.43,0,0,1,.68-5.49,30.08,30.08,0,0,1-.16,5.53A29.2,29.2,0,0,1,311.64,232.64Z" style="fill:#fafafa"></path><path d="M265.45,267.4a18.82,18.82,0,0,1-5.7-2.5,18.29,18.29,0,0,1-4.89-3.86c.1-.12,2.23,1.67,5.15,3.42S265.51,267.25,265.45,267.4Z" style="fill:#fafafa"></path><path d="M250.62,247.05a42.2,42.2,0,0,1-4.26,5,43,43,0,0,1-4.64,4.7,84.46,84.46,0,0,1,8.9-9.75Z" style="fill:#fafafa"></path><path d="M249.35,228.82a14.65,14.65,0,0,1-4.67-2.61,15.13,15.13,0,0,1-3.81-3.74c.11-.11,1.79,1.58,4.13,3.32S249.42,228.69,249.35,228.82Z" style="fill:#fafafa"></path><path d="M240,232.64a12.63,12.63,0,0,1-2.13,2.92,13,13,0,0,1-2.53,2.59,25.24,25.24,0,0,1,4.66-5.51Z" style="fill:#fafafa"></path><path d="M260,198.8a40.94,40.94,0,0,1-3.91,5.18,39.55,39.55,0,0,1-4.31,4.86,41.42,41.42,0,0,1,3.91-5.19A40.88,40.88,0,0,1,260,198.8Z" style="fill:#fafafa"></path><path d="M242.87,202.65a37,37,0,0,1-4.26-4.47,37.06,37.06,0,0,1-3.86-4.8,36.35,36.35,0,0,1,4.26,4.46A37,37,0,0,1,242.87,202.65Z" style="fill:#fafafa"></path><path d="M251.45,180.93a29.76,29.76,0,0,1-3-4.74,31.37,31.37,0,0,1-2.53-5,30.17,30.17,0,0,1,3,4.75A31.06,31.06,0,0,1,251.45,180.93Z" style="fill:#fafafa"></path><path d="M251,166.92c-.12-.1,1.38-2,2.57-4.69s1.62-5.06,1.78-5a15.41,15.41,0,0,1-4.35,9.72Z" style="fill:#fafafa"></path><path d="M234.51,166.09a11.63,11.63,0,0,1,1.23-6.12,14.76,14.76,0,0,1,2.44-3.72,4.84,4.84,0,0,1,1.39-1.21,29.1,29.1,0,0,0-3.36,5.14A28.65,28.65,0,0,0,234.51,166.09Z" style="fill:#fafafa"></path><path d="M378.69,142.3a63.51,63.51,0,0,1-.15-12.48,21.29,21.29,0,0,1,4.6-11.43c2.73-3.16,6.93-5.19,11.06-4.66,2.56.33,5,1.59,7.55,1.52,3-.09,5.57-1.93,8.28-3.16a21.69,21.69,0,0,1,13.64-1.43,13,13,0,0,1,6.45,3.26,7.22,7.22,0,0,1,2.09,6.68,34.47,34.47,0,0,1,9,.79,11.63,11.63,0,0,1,7.19,5c1.49,2.61,1.39,6.24-.75,8.35a5.76,5.76,0,0,1,6.36,4.34,7.42,7.42,0,0,1-3,7.44,13.87,13.87,0,0,1-9.35,1.88c-2.78-.53-6-1.31-8.23-3" style="fill:#263238"></path><path d="M376.52,236.5h0a21.58,21.58,0,0,0,26.23-15.38c1.69-6.41,3.07-11.78,3.07-11.78s16.71,2.87,22.24-13,15-53.21,15-53.21h0a58.25,58.25,0,0,0-57.81-11.65l-3,1-21.23,77.33A21.58,21.58,0,0,0,376.52,236.5Z" style="fill:#b78876"></path><path d="M405.92,209.12a39,39,0,0,1-18.73-12.83s1.06,13.07,17.39,17Z" style="fill:#aa6550"></path><path d="M378.74,149.66c-.23-.21-9.83-6.89-13.12,4.09s8.4,12,8.51,11.71S378.74,149.66,378.74,149.66Z" style="fill:#b78876"></path><path d="M372,160.29s-.23.08-.6.13A2,2,0,0,1,370,160c-1-.77-1.45-2.91-.91-4.9a6.55,6.55,0,0,1,1.35-2.58,2.32,2.32,0,0,1,1.88-1,1,1,0,0,1,1,.86c.06.35-.08.55,0,.59s.29-.12.33-.6a1.26,1.26,0,0,0-.22-.81,1.49,1.49,0,0,0-1-.6,2.79,2.79,0,0,0-2.51,1.1,6.7,6.7,0,0,0-1.58,2.86c-.6,2.23-.09,4.64,1.36,5.58a2.15,2.15,0,0,0,1.84.23C371.93,160.55,372.06,160.33,372,160.29Z" style="fill:#aa6550"></path><path d="M429.61,166.05a2.4,2.4,0,0,1-3,1.55,2.29,2.29,0,0,1-1.65-2.83,2.4,2.4,0,0,1,2.95-1.56A2.3,2.3,0,0,1,429.61,166.05Z" style="fill:#263238"></path><path d="M432.57,164.51c-.38.2-1.67-1.64-4.11-2.46s-4.65-.19-4.81-.58c-.09-.17.38-.61,1.35-.92a6.52,6.52,0,0,1,4,.1,6.28,6.28,0,0,1,3.15,2.33C432.68,163.81,432.75,164.43,432.57,164.51Z" style="fill:#263238"></path><path d="M405.61,158a2.4,2.4,0,0,1-2.95,1.56,2.29,2.29,0,0,1-1.65-2.83,2.39,2.39,0,0,1,2.95-1.56A2.29,2.29,0,0,1,405.61,158Z" style="fill:#263238"></path><path d="M408.43,156.91c-.38.21-1.68-1.64-4.12-2.46s-4.64-.19-4.81-.58c-.08-.17.38-.61,1.36-.91a6.56,6.56,0,0,1,4,.09,6.36,6.36,0,0,1,3.16,2.33C408.53,156.21,408.61,156.83,408.43,156.91Z" style="fill:#263238"></path><path d="M411.21,178c0-.14,1.64.1,4.2.61.65.15,1.28.22,1.53-.17a3.39,3.39,0,0,0,.2-2c-.08-1.71-.16-3.5-.25-5.37-.29-7.61-.28-13.79,0-13.8s.79,6.16,1.08,13.77c.06,1.87.11,3.66.16,5.37a3.77,3.77,0,0,1-.49,2.55,1.65,1.65,0,0,1-1.33.57,4.14,4.14,0,0,1-1.11-.21C412.71,178.63,411.17,178.13,411.21,178Z" style="fill:#263238"></path><path d="M403.46,177.27c.4.11-.48,2.76,1.16,5.4s4.55,3.3,4.45,3.67c0,.18-.81.31-2-.06a6.93,6.93,0,0,1-3.76-2.92,6,6,0,0,1-.8-4.47C402.77,177.75,403.28,177.19,403.46,177.27Z" style="fill:#263238"></path><path d="M433.11,159.92c-.61.41-2.1-.73-4.11-1.44s-3.86-.88-4.06-1.59c-.08-.34.38-.81,1.3-1.08a6.31,6.31,0,0,1,6.59,2.44C433.35,159.06,433.39,159.71,433.11,159.92Z" style="fill:#263238"></path><path d="M408.21,147c-.37.2-1-.13-1.71-.56a19.38,19.38,0,0,0-2.88-1.41,18.34,18.34,0,0,0-3.11-.82c-.85-.17-1.51-.3-1.66-.7s.33-1,1.41-1.4a6.77,6.77,0,0,1,7.8,2.9C408.61,146.06,408.56,146.84,408.21,147Z" style="fill:#263238"></path><path d="M442.23,148.32a39.35,39.35,0,0,1-22.78-8.95c-7.18-5.88-16.17-10-18.62-8.84s-4.78,9.4-13.36,10c0,0-3.06,16.05-9.28,14s3.35-25.77,3.35-25.77l17.25-4.06,17.67.65,15.87,3.6,13.73,7.89Z" style="fill:#263238"></path><rect x="128.6" y="85.37" width="224.53" height="349.64" style="fill:#fafafa"></rect><path d="M353.13,435c0-2.15-.1-144.15-.24-349.64l.24.24-224.5,0h0l.27-.26c0,132.28,0,254.08-.06,349.64l-.21-.21,224.53.21-224.53.2h-.2V435c0-95.56,0-217.36-.06-349.64v-.26h.29l224.5,0h.24v.24C353.23,290.86,353.13,432.86,353.13,435Z" style="fill:#263238"></path><path d="M188.78,163.23H160.05a3.6,3.6,0,0,1-3.6-3.59V119.87a3.6,3.6,0,0,1,3.6-3.59h18.22l14.1,14.53v28.83A3.59,3.59,0,0,1,188.78,163.23Z" style="fill:#FF725E"></path><path d="M178.27,116.28v11.19a3.35,3.35,0,0,0,3.34,3.34h10.76Z" style="fill:#FF725E"></path><g style="opacity:0.2"><path d="M178.42,128.45a3.71,3.71,0,0,0,2.94,3.61l.36.08c1.4.25,10.65,1.89,10.65,1.68v-3H181.61S178.93,130.72,178.42,128.45Z"></path></g><g style="opacity:0.30000000000000004"><path d="M178.27,116.28v11.19a3.35,3.35,0,0,0,3.34,3.34h10.76Z" style="fill:#fff"></path></g><path d="M175.86,127a43.32,43.32,0,0,1-6.65.26,43.13,43.13,0,0,1-6.64-.26,43.13,43.13,0,0,1,6.64-.26A43.32,43.32,0,0,1,175.86,127Z" style="fill:#fafafa"></path><path d="M184.44,133.34c0,.14-4.89.26-10.93.26s-10.94-.12-10.94-.26,4.9-.26,10.94-.26S184.44,133.19,184.44,133.34Z" style="fill:#fafafa"></path><path d="M186.41,138.62c0,.15-5.33.26-11.92.26s-11.92-.11-11.92-.26,5.34-.26,11.92-.26S186.41,138.48,186.41,138.62Z" style="fill:#fafafa"></path><path d="M186.41,143.61c0,.14-5.33.26-11.92.26s-11.92-.12-11.92-.26,5.34-.26,11.92-.26S186.41,143.46,186.41,143.61Z" style="fill:#fafafa"></path><path d="M186.41,148.59c0,.15-5.33.26-11.92.26s-11.92-.11-11.92-.26,5.34-.26,11.92-.26S186.41,148.45,186.41,148.59Z" style="fill:#fafafa"></path><path d="M186.41,153.58c0,.14-5.33.26-11.92.26s-11.92-.12-11.92-.26,5.34-.26,11.92-.26S186.41,153.43,186.41,153.58Z" style="fill:#fafafa"></path><path d="M202.42,136.71h-3v-1.1h7.31v1.1h-3v7.74h-1.25Z" style="fill:#263238"></path><path d="M214.49,143.35v1.1h-6.41v-8.84h6.23v1.1h-5v2.71h4.43v1.08h-4.43v2.85Z" style="fill:#263238"></path><path d="M222.44,144.45l-1.91-2.72a4.8,4.8,0,0,1-.55,0H217.8v2.69h-1.27v-8.84H220c2.3,0,3.68,1.16,3.68,3.08a2.78,2.78,0,0,1-1.94,2.79l2.1,3Zm0-5.76c0-1.26-.84-2-2.46-2H217.8v4h2.14C221.56,140.69,222.4,140,222.4,138.69Z" style="fill:#263238"></path><path d="M233.9,144.45V138l-3.2,5.36h-.58l-3.19-5.32v6.4h-1.21v-8.84h1l3.68,6.21,3.63-6.21h1v8.84Z" style="fill:#263238"></path><path d="M237,143.44l.46-1a4.53,4.53,0,0,0,2.92,1c1.53,0,2.18-.6,2.18-1.37,0-2.16-5.35-.79-5.35-4.07,0-1.37,1.06-2.53,3.38-2.53a5.14,5.14,0,0,1,2.84.79l-.41,1a4.57,4.57,0,0,0-2.43-.71c-1.5,0-2.14.63-2.14,1.4,0,2.15,5.35.8,5.35,4,0,1.35-1.09,2.51-3.42,2.51A5.26,5.26,0,0,1,237,143.44Z" style="fill:#263238"></path><path d="M248.28,140a4.7,4.7,0,1,1,4.7,4.52A4.49,4.49,0,0,1,248.28,140Zm8.12,0a3.43,3.43,0,1,0-3.42,3.4A3.31,3.31,0,0,0,256.4,140Z" style="fill:#263238"></path><path d="M260.86,136.71v3.08h4.43v1.09h-4.43v3.57H259.6v-8.84h6.23v1.1Z" style="fill:#263238"></path><path d="M270.2,143.44l.47-1a4.52,4.52,0,0,0,2.91,1c1.53,0,2.19-.6,2.19-1.37,0-2.16-5.35-.79-5.35-4.07,0-1.37,1.06-2.53,3.38-2.53a5.17,5.17,0,0,1,2.84.79l-.42,1a4.56,4.56,0,0,0-2.42-.71c-1.5,0-2.15.63-2.15,1.4,0,2.15,5.35.8,5.35,4,0,1.35-1.08,2.51-3.42,2.51A5.28,5.28,0,0,1,270.2,143.44Z" style="fill:#263238"></path><path d="M285.26,143.35v1.1h-6.41v-8.84h6.23v1.1h-5v2.71h4.43v1.08h-4.43v2.85Z" style="fill:#263238"></path><path d="M293.21,144.45l-1.9-2.72a5.12,5.12,0,0,1-.56,0h-2.18v2.69h-1.26v-8.84h3.44c2.3,0,3.69,1.16,3.69,3.08a2.78,2.78,0,0,1-1.95,2.79l2.1,3Zm0-5.76c0-1.26-.84-2-2.46-2h-2.14v4h2.14C292.33,140.69,293.17,140,293.17,138.69Z" style="fill:#263238"></path><path d="M304.15,135.61l-3.87,8.84H299l-3.89-8.84h1.37l3.18,7.26,3.2-7.26Z" style="fill:#263238"></path><path d="M305.28,135.61h1.26v8.84h-1.26Z" style="fill:#263238"></path><path d="M308.47,140a4.47,4.47,0,0,1,4.68-4.52,4.36,4.36,0,0,1,3.36,1.38l-.82.79a3.26,3.26,0,0,0-2.49-1,3.4,3.4,0,1,0,2.49,5.73l.82.79a4.38,4.38,0,0,1-3.37,1.39A4.47,4.47,0,0,1,308.47,140Z" style="fill:#263238"></path><path d="M324.73,143.35v1.1h-6.41v-8.84h6.23v1.1h-5v2.71H324v1.08h-4.43v2.85Z" style="fill:#263238"></path><path d="M210.35,153.52l-2.36,7h-1.05L205,154.94l-1.93,5.62H202l-2.35-7h1l1.9,5.73,2-5.73h.93l1.94,5.76,1.94-5.76Z" style="fill:#e0e0e0"></path><path d="M215.83,158.22H211.5a1.82,1.82,0,0,0,1.94,1.56,2,2,0,0,0,1.53-.64l.54.62a2.7,2.7,0,0,1-2.11.86,2.66,2.66,0,0,1-2.86-2.72,2.61,2.61,0,0,1,2.67-2.72,2.58,2.58,0,0,1,2.64,2.75C215.85,158,215.84,158.13,215.83,158.22Zm-4.33-.69h3.42a1.72,1.72,0,0,0-3.42,0Z" style="fill:#e0e0e0"></path><path d="M217.19,153.1h1v7.46h-1Z" style="fill:#e0e0e0"></path><path d="M219.5,157.9a2.67,2.67,0,0,1,2.82-2.72,2.39,2.39,0,0,1,2.17,1.14l-.74.47a1.65,1.65,0,0,0-1.44-.76,1.88,1.88,0,0,0,0,3.75,1.65,1.65,0,0,0,1.44-.76l.74.46a2.39,2.39,0,0,1-2.17,1.14A2.67,2.67,0,0,1,219.5,157.9Z" style="fill:#e0e0e0"></path><path d="M225.16,157.9a2.77,2.77,0,1,1,2.78,2.72A2.66,2.66,0,0,1,225.16,157.9Zm4.57,0a1.8,1.8,0,1,0-1.79,1.88A1.75,1.75,0,0,0,229.73,157.9Z" style="fill:#e0e0e0"></path><path d="M240.89,157.5v3.06h-1v-2.95c0-1.05-.51-1.56-1.38-1.56s-1.6.61-1.6,1.77v2.74h-1v-2.95c0-1.05-.51-1.56-1.38-1.56s-1.6.61-1.6,1.77v2.74h-1v-5.33H233v.8a2.17,2.17,0,0,1,1.84-.85,2,2,0,0,1,1.85,1,2.41,2.41,0,0,1,2.05-1A2,2,0,0,1,240.89,157.5Z" style="fill:#e0e0e0"></path><path d="M247.5,158.22h-4.32a1.8,1.8,0,0,0,1.93,1.56,2,2,0,0,0,1.54-.64l.53.62a2.91,2.91,0,0,1-5-1.86,2.62,2.62,0,0,1,2.68-2.72,2.57,2.57,0,0,1,2.63,2.75C247.52,158,247.51,158.13,247.5,158.22Zm-4.32-.69h3.42a1.72,1.72,0,0,0-3.42,0Z" style="fill:#e0e0e0"></path><path d="M248.64,160a.64.64,0,0,1,.66-.64.64.64,0,1,1,0,1.28A.64.64,0,0,1,248.64,160Zm.09-6.46h1.14l-.19,4.82h-.77Z" style="fill:#e0e0e0"></path><rect x="336.21" y="106.89" width="3.84" height="293.57" rx="1.33" style="fill:#e0e0e0"></rect><rect x="336.21" y="106.89" width="3.84" height="151.35" rx="1.33" style="fill:#FF725E"></rect><path d="M163.75,194.52v7h-1V195.4h-1.59v-.88Z" style="fill:#263238"></path><path d="M165.27,200.93a.68.68,0,1,1,.68.69A.67.67,0,0,1,165.27,200.93Z" style="fill:#263238"></path><path d="M172.25,195.4h-2.42v-.88h5.83v.88h-2.42v6.16h-1Z" style="fill:#263238"></path><path d="M180.86,199.22h-4.33a1.81,1.81,0,0,0,1.93,1.56,2,2,0,0,0,1.54-.65l.53.63a2.9,2.9,0,0,1-5-1.86,2.61,2.61,0,0,1,2.67-2.72,2.58,2.58,0,0,1,2.64,2.75C180.88,199,180.87,199.13,180.86,199.22Zm-4.33-.7H180a1.72,1.72,0,0,0-3.42,0Z" style="fill:#263238"></path><path d="M185.08,196.18v.94h-.22a1.59,1.59,0,0,0-1.68,1.8v2.65h-1v-5.33h.92v.9A2,2,0,0,1,185.08,196.18Z" style="fill:#263238"></path><path d="M195.12,198.49v3.07h-1v-3c0-1-.5-1.55-1.38-1.55s-1.59.61-1.59,1.77v2.74h-1v-3c0-1-.5-1.55-1.38-1.55a1.55,1.55,0,0,0-1.6,1.77v2.74h-1v-5.33h.92v.8a2.16,2.16,0,0,1,1.84-.85,2,2,0,0,1,1.85,1,2.41,2.41,0,0,1,2.06-1A2,2,0,0,1,195.12,198.49Z" style="fill:#263238"></path><path d="M166.51,309.92v.87h-5v-.68l2.86-2.77c.75-.72.89-1.16.89-1.61,0-.72-.52-1.16-1.5-1.16a2.21,2.21,0,0,0-1.8.76l-.69-.59a3.25,3.25,0,0,1,2.58-1.07c1.47,0,2.41.76,2.41,2a2.84,2.84,0,0,1-1.15,2.21l-2.16,2.08Z" style="fill:#263238"></path><path d="M167.42,310.16a.67.67,0,0,1,.68-.69.69.69,0,0,1,0,1.38A.68.68,0,0,1,167.42,310.16Z" style="fill:#263238"></path><path d="M173,303.75h1v6.17h3.81v.87H173Z" style="fill:#263238"></path><path d="M178.67,303.81a.63.63,0,0,1,.65-.63.63.63,0,1,1-.65.63Zm.17,1.65h1v5.33h-1Z" style="fill:#263238"></path><path d="M181.15,308.13a2.67,2.67,0,0,1,2.81-2.72,2.38,2.38,0,0,1,2.18,1.14l-.74.47a1.65,1.65,0,0,0-1.44-.76,1.88,1.88,0,0,0,0,3.75,1.66,1.66,0,0,0,1.44-.77l.74.46a2.39,2.39,0,0,1-2.18,1.15A2.67,2.67,0,0,1,181.15,308.13Z" style="fill:#263238"></path><path d="M192.1,308.45h-4.32a1.81,1.81,0,0,0,1.93,1.56,2,2,0,0,0,1.54-.65l.53.63a2.91,2.91,0,0,1-5-1.86,2.62,2.62,0,0,1,2.68-2.72,2.57,2.57,0,0,1,2.63,2.75C192.12,308.24,192.11,308.36,192.1,308.45Zm-4.32-.7h3.42a1.72,1.72,0,0,0-3.42,0Z" style="fill:#263238"></path><path d="M198.52,307.72v3.07h-1v-3c0-1-.52-1.55-1.43-1.55a1.58,1.58,0,0,0-1.69,1.77v2.74h-1v-5.33h.93v.8a2.28,2.28,0,0,1,1.92-.85A2.06,2.06,0,0,1,198.52,307.72Z" style="fill:#263238"></path><path d="M199.85,308.13a2.66,2.66,0,0,1,2.81-2.72,2.38,2.38,0,0,1,2.18,1.14l-.74.47a1.66,1.66,0,0,0-1.45-.76,1.88,1.88,0,0,0,0,3.75,1.67,1.67,0,0,0,1.45-.77l.74.46a2.39,2.39,0,0,1-2.18,1.15A2.67,2.67,0,0,1,199.85,308.13Z" style="fill:#263238"></path><path d="M210.8,308.45h-4.32a1.81,1.81,0,0,0,1.93,1.56,2,2,0,0,0,1.54-.65l.53.63a2.91,2.91,0,0,1-5-1.86,2.62,2.62,0,0,1,2.68-2.72,2.57,2.57,0,0,1,2.63,2.75C210.82,308.24,210.81,308.36,210.8,308.45Zm-4.32-.7h3.42a1.72,1.72,0,0,0-3.42,0Z" style="fill:#263238"></path><path d="M315.23,217.39c0,.15-34.51.26-77.07.26s-77.08-.11-77.08-.26,34.51-.26,77.08-.26S315.23,217.25,315.23,217.39Z" style="fill:#263238"></path><path d="M315.23,229.06c0,.14-34.51.26-77.07.26s-77.08-.12-77.08-.26,34.51-.26,77.08-.26S315.23,228.91,315.23,229.06Z" style="fill:#263238"></path><path d="M315.23,240.72c0,.15-34.51.26-77.07.26s-77.08-.11-77.08-.26,34.51-.26,77.08-.26S315.23,240.58,315.23,240.72Z" style="fill:#263238"></path><path d="M315.23,252.39c0,.14-34.51.26-77.07.26s-77.08-.12-77.08-.26,34.51-.26,77.08-.26S315.23,252.24,315.23,252.39Z" style="fill:#263238"></path><path d="M315.23,264.05c0,.15-34.51.26-77.07.26s-77.08-.11-77.08-.26,34.51-.26,77.08-.26S315.23,263.91,315.23,264.05Z" style="fill:#263238"></path><path d="M315.23,275.72c0,.14-34.51.26-77.07.26s-77.08-.12-77.08-.26,34.51-.26,77.08-.26S315.23,275.57,315.23,275.72Z" style="fill:#263238"></path><path d="M315.23,320c0,.14-34.51.26-77.07.26s-77.08-.12-77.08-.26,34.51-.26,77.08-.26S315.23,319.88,315.23,320Z" style="fill:#263238"></path><path d="M315.23,330c0,.15-34.51.26-77.07.26s-77.08-.11-77.08-.26,34.51-.26,77.08-.26S315.23,329.86,315.23,330Z" style="fill:#e0e0e0"></path><path d="M315.23,340c0,.14-34.51.26-77.07.26s-77.08-.12-77.08-.26,34.51-.26,77.08-.26S315.23,339.84,315.23,340Z" style="fill:#ebebeb"></path><rect x="244.94" y="369.83" width="81.54" height="30.38" style="fill:#FF725E"></rect><path d="M272.1,386.59h-4l-.83,1.89h-1.11l3.42-7.55h1.06l3.43,7.55h-1.13Zm-.38-.86-1.63-3.7-1.62,3.7Z" style="fill:#fff"></path><path d="M274.45,385.62a2.86,2.86,0,0,1,3-2.91,2.55,2.55,0,0,1,2.33,1.22l-.79.5a1.78,1.78,0,0,0-1.55-.82,2,2,0,0,0,0,4,1.78,1.78,0,0,0,1.55-.82l.79.49a2.56,2.56,0,0,1-2.33,1.23A2.86,2.86,0,0,1,274.45,385.62Z" style="fill:#fff"></path><path d="M280.52,385.62a2.86,2.86,0,0,1,3-2.91,2.54,2.54,0,0,1,2.33,1.22l-.79.5a1.78,1.78,0,0,0-1.55-.82,2,2,0,0,0,0,4,1.78,1.78,0,0,0,1.55-.82l.79.49a2.55,2.55,0,0,1-2.33,1.23A2.86,2.86,0,0,1,280.52,385.62Z" style="fill:#fff"></path><path d="M292.27,386h-4.64a1.94,1.94,0,0,0,2.07,1.67,2.14,2.14,0,0,0,1.65-.69l.57.67a2.89,2.89,0,0,1-2.26.92,2.86,2.86,0,0,1-3.07-2.92,2.8,2.8,0,0,1,2.87-2.91,2.75,2.75,0,0,1,2.83,2.94C292.29,385.74,292.28,385.87,292.27,386Zm-4.64-.75h3.66a1.84,1.84,0,0,0-3.66,0Z" style="fill:#fff"></path><path d="M299.64,385.62a2.77,2.77,0,0,1-2.89,2.92,2.46,2.46,0,0,1-2-.92v2.95h-1v-7.81h1v.91a2.42,2.42,0,0,1,2-1A2.77,2.77,0,0,1,299.64,385.62Zm-1.05,0a1.93,1.93,0,1,0-1.93,2A1.89,1.89,0,0,0,298.59,385.62Z" style="fill:#fff"></path><path d="M304.29,388.14a2,2,0,0,1-1.26.4,1.63,1.63,0,0,1-1.81-1.79v-3.14h-1v-.85h1v-1.25h1v1.25h1.64v.85h-1.64v3.1a.84.84,0,0,0,.89,1,1.29,1.29,0,0,0,.81-.27Z" style="fill:#fff"></path><path d="M157.27,400.45s-.07,0-.2-.13l-.58-.45L154.06,398l-.09-.07.11-.05c9.84-3.77,41.93-15.81,81.48-30.55l.14-.05.11.09,3.16,2.54.1.08v30.76h-.26l-58.3-.1-17.09-.07-4.58,0-1.18,0a3.85,3.85,0,0,1-.39,0l.41,0,1.19,0,4.61,0,17.11-.07,58.22-.1-.25.25c0-7.05,0-14.43,0-22v-8.38l.1.2-3.16-2.55.25,0c-39.56,14.72-71.7,26.62-81.61,30.2l0-.11,2.36,1.95.58.48Z" style="fill:#FF725E"></path><rect x="154.1" y="367.53" width="81.54" height="30.38" style="fill:#fff"></rect><path d="M235.65,397.91s0-.19,0-.55,0-.89,0-1.57c0-1.39,0-3.42,0-6,0-5.23-.06-12.8-.1-22.23l.18.18-81.54.08h0l.26-.26c0,10.6,0,20.86,0,30.38l-.25-.25,58.37.12,17,.07,4.57,0h1.19l.41,0-.38,0h-1.16l-4.51,0-16.95.07-58.55.12h-.25v-.25c0-9.52,0-19.78,0-30.38v-.26h.27l81.54.08h.18v.18c0,9.47-.08,17.08-.1,22.34,0,2.59,0,4.6,0,6,0,.66,0,1.17,0,1.54S235.65,397.91,235.65,397.91Z" style="fill:#FF725E"></path><path d="M176.45,380.57h3.18a3.79,3.79,0,1,1,0,7.56h-3.18Zm3.12,6.62a2.85,2.85,0,1,0,0-5.68h-2v5.68Z" style="fill:#FF725E"></path><path d="M190.35,385.61h-4.64a1.94,1.94,0,0,0,2.08,1.67,2.11,2.11,0,0,0,1.65-.69l.57.67a3.12,3.12,0,0,1-5.33-2,2.8,2.8,0,0,1,2.87-2.92,2.76,2.76,0,0,1,2.83,2.95C190.38,385.39,190.36,385.51,190.35,385.61Zm-4.64-.74h3.67a1.85,1.85,0,0,0-3.67,0Z" style="fill:#FF725E"></path><path d="M191.28,385.27a2.86,2.86,0,0,1,3-2.92,2.55,2.55,0,0,1,2.33,1.22l-.79.51a1.79,1.79,0,0,0-1.55-.82,2,2,0,0,0,0,4,1.79,1.79,0,0,0,1.55-.82l.79.5a2.56,2.56,0,0,1-2.33,1.23A2.86,2.86,0,0,1,191.28,385.27Z" style="fill:#FF725E"></path><path d="M197.89,380.12h1v8h-1Z" style="fill:#FF725E"></path><path d="M200.71,380.64a.69.69,0,0,1,.7-.68.68.68,0,1,1-.7.68Zm.19,1.77h1v5.72h-1Z" style="fill:#FF725E"></path><path d="M209.33,384.84v3.29h-1V385c0-1.12-.57-1.67-1.55-1.67a1.7,1.7,0,0,0-1.81,1.9v2.95h-1v-5.72h1v.86a2.45,2.45,0,0,1,2.06-.92A2.22,2.22,0,0,1,209.33,384.84Z" style="fill:#FF725E"></path><path d="M216.43,385.61h-4.64a1.94,1.94,0,0,0,2.07,1.67,2.11,2.11,0,0,0,1.65-.69l.57.67a3.12,3.12,0,0,1-5.33-2,2.8,2.8,0,0,1,2.87-2.92,2.76,2.76,0,0,1,2.83,2.95C216.45,385.39,216.44,385.51,216.43,385.61Zm-4.64-.74h3.66a1.84,1.84,0,0,0-3.66,0Z" style="fill:#FF725E"></path><line x1="235.65" y1="397.41" x2="238.81" y2="400.45" style="fill:#fff"></line><path d="M238.81,400.45c-.1.11-.89-.49-1.76-1.33s-1.5-1.6-1.4-1.71.89.5,1.76,1.34S238.91,400.35,238.81,400.45Z" style="fill:#FF725E"></path><path d="M355.3,392.86l11.64-5.6-6.4-18.92-14.06-3.25c-1.31-.3-2.77-.65-4.39-1.1a17.6,17.6,0,0,1-5.33-2.51,26.76,26.76,0,0,1-5.58-4.73c-1.33-1.81-4.15-1.13-4.15.88s3.55,7.08,9.86,10.67-4.85,5.32-8.89,6-16.46,3.47-17.2,4.88c-1.08,2.06,1,3.64,5,2.85s16.29-2.35,16.61-.21l0,.06a8.78,8.78,0,0,0,.53,10.2c2.26,2.83,5.65,6.38,8.14,5.84C345.76,396.93,355.3,392.86,355.3,392.86Z" style="fill:#b78876"></path><path d="M354.59,359.57l10.91,36.89,84.71-25.74a34,34,0,0,0,22.38-43.09L451.82,263l-45.11,11.2L431.47,334Z" style="fill:#FF725E"></path><path d="M452.12,370.07l-.41.15-1.22.39-4.74,1.47L428,377.52l-61.66,18.71-.23.06-.08-.22c-3.77-11.28-7.43-23.68-11.66-36.42l-.08-.24.25-.09,2.13-.7,74.76-24.83-.12.27c-6-14.5-10.86-26.38-14.26-34.66-1.68-4.12-3-7.34-3.9-9.55-.43-1.09-.77-1.93-1-2.51s-.32-.86-.32-.86.14.28.38.84l1.06,2.48c.92,2.2,2.27,5.41,4,9.51,3.44,8.26,8.38,20.12,14.42,34.6l.08.2-.21.07L356.8,359.11l-2.13.71.16-.33c4.24,12.75,7.88,25.15,11.64,36.42l-.3-.16,61.71-18.52,17.82-5.31,4.76-1.39,1.24-.35Z" style="fill:#263238"></path><path d="M447.13,344.75c-.08,0-.64-.93-1.77-2.34a22.91,22.91,0,0,0-11.55-7.66c-1.74-.5-2.86-.64-2.85-.73a2.26,2.26,0,0,1,.8,0,14.74,14.74,0,0,1,2.14.36,20.73,20.73,0,0,1,6.56,2.86,20.5,20.5,0,0,1,5.19,4.93,14.39,14.39,0,0,1,1.16,1.84A2.23,2.23,0,0,1,447.13,344.75Z" style="fill:#263238"></path><path d="M426.6,277.34a28.38,28.38,0,0,1-.26-5.47,28.38,28.38,0,0,1,.26-5.47,57.67,57.67,0,0,1,0,10.94Z" style="fill:#fafafa"></path><path d="M443.61,278.21a29.21,29.21,0,0,1-1.84-5.24,29.46,29.46,0,0,1-1.34-5.39,59.09,59.09,0,0,1,3.18,10.63Z" style="fill:#fafafa"></path><path d="M433.06,293.56a18.81,18.81,0,0,1-9.89-2.9c.07-.14,2.16.85,4.89,1.64S433.07,293.41,433.06,293.56Z" style="fill:#fafafa"></path><path d="M452.3,302a26.48,26.48,0,0,1,.64-5.22,26.83,26.83,0,0,1,1.15-5.14,27.47,27.47,0,0,1-.64,5.23A26.36,26.36,0,0,1,452.3,302Z" style="fill:#fafafa"></path><path d="M445.42,315.78a55.25,55.25,0,0,1-4.49-9.82,56.3,56.3,0,0,1,4.49,9.82Z" style="fill:#fafafa"></path><path d="M442.6,327.84a25.37,25.37,0,0,1-4.75-2,24.92,24.92,0,0,1-4.51-2.48,27.17,27.17,0,0,1,4.74,2A25.31,25.31,0,0,1,442.6,327.84Z" style="fill:#fafafa"></path><path d="M464.24,324.63a39.44,39.44,0,0,1-1.91,4.59,39.71,39.71,0,0,1-2,4.54,26.32,26.32,0,0,1,3.91-9.13Z" style="fill:#fafafa"></path><path d="M458.22,353.68a59.94,59.94,0,0,1-1.11-11.23,31.87,31.87,0,0,1,.81,5.59A31,31,0,0,1,458.22,353.68Z" style="fill:#fafafa"></path><path d="M442.94,362.85a25.25,25.25,0,0,1-4-3.3,25.9,25.9,0,0,1-3.62-3.68,25.25,25.25,0,0,1,4,3.3A25.9,25.9,0,0,1,442.94,362.85Z" style="fill:#fafafa"></path><path d="M416.54,365.48A58.07,58.07,0,0,1,410,374.4a28.57,28.57,0,0,1,3.06-4.61A29.55,29.55,0,0,1,416.54,365.48Z" style="fill:#fafafa"></path><path d="M424.91,353.11a18.35,18.35,0,0,1-4.05-3.56,17.78,17.78,0,0,1-3.24-4.3c.12-.09,1.61,1.79,3.62,3.95S425,353,424.91,353.11Z" style="fill:#fafafa"></path><path d="M405,355.92a7.81,7.81,0,0,1-4,.49,8,8,0,0,1-3.88-1.06c.06-.15,1.75.39,3.91.54S405,355.77,405,355.92Z" style="fill:#fafafa"></path><path d="M392.39,377.8a19,19,0,0,1-1-4.3,18.5,18.5,0,0,1-.49-4.39,37.66,37.66,0,0,1,1.49,8.69Z" style="fill:#fafafa"></path><path d="M377.51,385.34a64.25,64.25,0,0,1-9.81-6.19,32.7,32.7,0,0,1,5.05,2.88A33.07,33.07,0,0,1,377.51,385.34Z" style="fill:#fafafa"></path><path d="M382.82,358.72c.11.1-1.34,1.82-2.95,4.06s-2.81,4.15-2.94,4.08a16.34,16.34,0,0,1,2.51-4.39A16,16,0,0,1,382.82,358.72Z" style="fill:#fafafa"></path><path d="M371.32,363.77a9.73,9.73,0,0,1-2.93-1.17,9.47,9.47,0,0,1-2.68-1.64,18.94,18.94,0,0,1,5.61,2.81Z" style="fill:#fafafa"></path><g style="opacity:0.2"><path d="M430.76,332.47c4.52.46,9.05.93,13.56,1.5a16.71,16.71,0,0,1,4.6,1,5.85,5.85,0,0,1,3.28,3.21,3.59,3.59,0,0,1-1.25,4.19,4.15,4.15,0,0,1-4.1-.18,21.9,21.9,0,0,1-3.38-2.65,18.86,18.86,0,0,0-6.94-3.63,11.9,11.9,0,0,1-3.32-1.16,2.88,2.88,0,0,1-1.44-3"></path></g></g></svg>