<?xml version="1.0"?>
<svg xmlns="http://www.w3.org/2000/svg" xmlns:xlink="http://www.w3.org/1999/xlink" xmlns:svgjs="http://svgjs.com/svgjs" version="1.1" width="512" height="512" x="0" y="0" viewBox="0 0 480 480" style="enable-background:new 0 0 512 512" xml:space="preserve" class=""><g>
<g xmlns="http://www.w3.org/2000/svg">
	<g>
		<path d="M424,184H296V56c0-30.928-25.072-56-56-56c-30.928,0-56,25.072-56,56v128H56c-30.928,0-56,25.072-56,56    c0,30.928,25.072,56,56,56h128v128c0,30.928,25.072,56,56,56c30.928,0,56-25.072,56-56V296h128c30.928,0,56-25.072,56-56    C480,209.072,454.928,184,424,184z M424,280H288c-4.418,0-8,3.582-8,8v136c0,22.091-17.909,40-40,40c-22.091,0-40-17.909-40-40    V288c0-4.418-3.582-8-8-8H56c-22.091,0-40-17.909-40-40s17.909-40,40-40h136c4.418,0,8-3.582,8-8V56c0-22.091,17.909-40,40-40    c22.091,0,40,17.909,40,40v136c0,4.418,3.582,8,8,8h136c22.091,0,40,17.909,40,40S446.091,280,424,280z" fill="#397ba7" data-original="#000000" style="" class=""/>
	</g>
</g>
<g xmlns="http://www.w3.org/2000/svg">
</g>
<g xmlns="http://www.w3.org/2000/svg">
</g>
<g xmlns="http://www.w3.org/2000/svg">
</g>
<g xmlns="http://www.w3.org/2000/svg">
</g>
<g xmlns="http://www.w3.org/2000/svg">
</g>
<g xmlns="http://www.w3.org/2000/svg">
</g>
<g xmlns="http://www.w3.org/2000/svg">
</g>
<g xmlns="http://www.w3.org/2000/svg">
</g>
<g xmlns="http://www.w3.org/2000/svg">
</g>
<g xmlns="http://www.w3.org/2000/svg">
</g>
<g xmlns="http://www.w3.org/2000/svg">
</g>
<g xmlns="http://www.w3.org/2000/svg">
</g>
<g xmlns="http://www.w3.org/2000/svg">
</g>
<g xmlns="http://www.w3.org/2000/svg">
</g>
<g xmlns="http://www.w3.org/2000/svg">
</g>
</g></svg>
