<svg width="21" height="16" viewBox="0 0 21 16" fill="none" xmlns="http://www.w3.org/2000/svg">
<path d="M20.5788 16.948L13.9832 23.5767C13.4216 24.1411 12.4999 24.1411 11.9383 23.5767C11.3766 23.0122 11.3766 22.0859 11.9383 21.5215L16.0857 17.3677H1.44008C0.648037 17.3677 0 16.7164 0 15.9204V1.44731C0 0.651289 0.648037 0 1.44008 0C2.23213 0 2.88016 0.651289 2.88016 1.44731V14.4731H16.0857L11.9383 10.3193C11.3766 9.75486 11.3766 8.82858 11.9383 8.26413C12.4999 7.69968 13.4216 7.69968 13.9832 8.26413L20.5788 14.8928C21.1404 15.4573 21.1404 16.3835 20.5788 16.948V16.948Z" fill="#F0F0F0"/>
</svg>
