<svg width="32" height="32" viewBox="0 0 32 32" fill="none" xmlns="http://www.w3.org/2000/svg">
<path d="M30.2223 32H1.77777C1.30628 32 0.854097 31.8315 0.520699 31.5313C0.187301 31.2313 0 30.8244 0 30.4V1.6C0 1.17565 0.187301 0.768687 0.520699 0.468629C0.854097 0.168571 1.30628 0 1.77777 0H30.2223C30.6937 0 31.1459 0.168571 31.4793 0.468629C31.8127 0.768687 32 1.17565 32 1.6V30.4C32 30.8244 31.8127 31.2313 31.4793 31.5313C31.1459 31.8315 30.6937 32 30.2223 32ZM7.11111 6.4V12.8H14.2223V6.4H7.11111ZM7.11111 16V19.2H24.8889V16H7.11111ZM7.11111 22.4V25.6H24.8889V22.4H7.11111ZM17.7777 8V11.2H24.8889V8H17.7777Z" fill="#397BA7"/>
</svg>
