<svg width="24" height="24" viewBox="0 0 24 24" fill="none" xmlns="http://www.w3.org/2000/svg">
<path d="M22.6667 24H1.33333C0.979711 24 0.640573 23.8736 0.390524 23.6485C0.140476 23.4235 0 23.1183 0 22.8V1.2C0 0.88174 0.140476 0.576515 0.390524 0.351472C0.640573 0.126428 0.979711 0 1.33333 0H22.6667C23.0203 0 23.3594 0.126428 23.6095 0.351472C23.8595 0.576515 24 0.88174 24 1.2V22.8C24 23.1183 23.8595 23.4235 23.6095 23.6485C23.3594 23.8736 23.0203 24 22.6667 24ZM5.33333 4.8V9.6H10.6667V4.8H5.33333ZM5.33333 12V14.4H18.6667V12H5.33333ZM5.33333 16.8V19.2H18.6667V16.8H5.33333ZM13.3333 6V8.4H18.6667V6H13.3333Z" fill="#397BA7"/>
</svg>
