<svg width="32" height="32" viewBox="0 0 32 32" fill="none" xmlns="http://www.w3.org/2000/svg">
<path d="M13.7264 0.805035L7.46112 11.0021C6.7706 12.1091 7.57901 13.5515 8.89271 13.5515H21.4064C22.7201 13.5515 23.5285 12.1091 22.838 11.0021L16.5896 0.805035C15.9327 -0.268345 14.3832 -0.268345 13.7264 0.805035Z" fill="#397BA7"/>
<path d="M24.4211 32C28.6068 32 32 28.6211 32 24.4528C32 20.2847 28.6068 16.9056 24.4211 16.9056C20.2353 16.9056 16.8421 20.2847 16.8421 24.4528C16.8421 28.6211 20.2353 32 24.4211 32Z" fill="#397BA7"/>
<path d="M1.68421 31.1615H11.7895C12.7158 31.1615 13.4737 30.4068 13.4737 29.4843V19.4213C13.4737 18.4989 12.7158 17.7443 11.7895 17.7443H1.68421C0.757896 17.7443 0 18.4989 0 19.4213V29.4843C0 30.4068 0.757896 31.1615 1.68421 31.1615Z" fill="#397BA7"/>
</svg>
