<svg width="24" height="24" viewBox="0 0 24 24" fill="none" xmlns="http://www.w3.org/2000/svg">
<path d="M10.2948 0.603776L5.59584 8.2516C5.07795 9.08179 5.68426 10.1636 6.66953 10.1636H16.0548C17.0401 10.1636 17.6464 9.08179 17.1285 8.2516L12.4422 0.603776C11.9495 -0.201259 10.7874 -0.201259 10.2948 0.603776Z" fill="#397BA7"/>
<path d="M18.3158 24C21.4551 24 24 21.4658 24 18.3396C24 15.2135 21.4551 12.6792 18.3158 12.6792C15.1765 12.6792 12.6316 15.2135 12.6316 18.3396C12.6316 21.4658 15.1765 24 18.3158 24Z" fill="#397BA7"/>
<path d="M1.26316 23.3711H8.84212C9.53686 23.3711 10.1053 22.8051 10.1053 22.1132V14.566C10.1053 13.8742 9.53686 13.3082 8.84212 13.3082H1.26316C0.568422 13.3082 0 13.8742 0 14.566V22.1132C0 22.8051 0.568422 23.3711 1.26316 23.3711Z" fill="#397BA7"/>
</svg>
