<svg width="17" height="24" viewBox="0 0 17 24" fill="none" xmlns="http://www.w3.org/2000/svg">
<path d="M1.21429 21.3333C1.21429 22.8 2.30714 24 3.64286 24H13.3571C14.6929 24 15.7857 22.8 15.7857 21.3333V8C15.7857 6.53333 14.6929 5.33333 13.3571 5.33333H3.64286C2.30714 5.33333 1.21429 6.53333 1.21429 8V21.3333ZM15.7857 1.33333H12.75L11.8879 0.386667C11.6693 0.146667 11.3536 0 11.0379 0H5.96214C5.64643 0 5.33071 0.146667 5.11214 0.386667L4.25 1.33333H1.21429C0.546429 1.33333 0 1.93333 0 2.66667C0 3.4 0.546429 4 1.21429 4H15.7857C16.4536 4 17 3.4 17 2.66667C17 1.93333 16.4536 1.33333 15.7857 1.33333Z" fill="#323232"/>
</svg>
