<svg width="18" height="24" viewBox="0 0 18 24" fill="none" xmlns="http://www.w3.org/2000/svg">
<path d="M4.5 16.3955C1.81098 14.8768 0 12.0375 0 8.78571C0 3.93482 4.03079 0 9 0C13.9692 0 18 3.93482 18 8.78571C18 12.0375 16.189 14.8768 13.5 16.3955V19.5C13.5 19.9741 13.1076 20.3571 12.622 20.3571H5.37805C4.89238 20.3571 4.5 19.9741 4.5 19.5V16.3955ZM5.70732 22.0714H12.2927C12.4134 22.0714 12.5122 22.1679 12.5122 22.2857V23.1429C12.5122 23.617 12.1198 24 11.6341 24H6.36585C5.88018 24 5.4878 23.617 5.4878 23.1429V22.2857C5.4878 22.1679 5.58659 22.0714 5.70732 22.0714Z" fill="#397BA7"/>
</svg>
