<svg width="24" height="32" viewBox="0 0 24 32" fill="none" xmlns="http://www.w3.org/2000/svg">
<path d="M6 21.8607C2.41463 19.8357 0 16.05 0 11.7143C0 5.24643 5.37439 0 12 0C18.6256 0 24 5.24643 24 11.7143C24 16.05 21.5854 19.8357 18 21.8607V26C18 26.6321 17.4768 27.1429 16.8293 27.1429H7.17073C6.52317 27.1429 6 26.6321 6 26V21.8607ZM7.60976 29.4286H16.3902C16.5512 29.4286 16.6829 29.5571 16.6829 29.7143V30.8571C16.6829 31.4893 16.1598 32 15.5122 32H8.48781C7.84024 32 7.31707 31.4893 7.31707 30.8571V29.7143C7.31707 29.5571 7.44878 29.4286 7.60976 29.4286Z" fill="#397BA7"/>
</svg>
