<svg width="33" height="32" viewBox="0 0 33 32" fill="none" xmlns="http://www.w3.org/2000/svg">
<path d="M19.305 8.35556C19.9485 9.04889 19.9485 10.1511 19.305 10.8444L16.17 14.2222H31.35C32.2575 14.2222 33 15.0222 33 16C33 16.9778 32.2575 17.7778 31.35 17.7778H16.17L19.305 21.1556C19.9485 21.8489 19.9485 22.9511 19.305 23.6444C18.6615 24.3378 17.6385 24.3378 16.995 23.6444L11.0715 17.2622C10.428 16.5689 10.428 15.4489 11.0715 14.7556L16.995 8.35556C17.6385 7.66222 18.6615 7.66222 19.305 8.35556ZM3.3 28.4444H14.85C15.7575 28.4444 16.5 29.2444 16.5 30.2222C16.5 31.2 15.7575 32 14.85 32H3.3C1.485 32 4.76837e-07 30.4 4.76837e-07 28.4444V3.55556C4.76837e-07 1.6 1.485 0 3.3 0H14.85C15.7575 0 16.5 0.8 16.5 1.77778C16.5 2.75556 15.7575 3.55556 14.85 3.55556H3.3V28.4444Z" fill="#397BA7"/>
</svg>
