<svg width="36" height="32" viewBox="0 0 36 32" fill="none" xmlns="http://www.w3.org/2000/svg">
<path d="M26.1 16.8128C26.1 19.8645 25.5671 22.5455 24.5012 24.8556C23.4353 27.1515 21.9084 28.9198 19.9207 30.1604C17.9474 31.3868 15.6715 32 13.0932 32C10.5437 32 8.26788 31.3868 6.26573 30.1604C4.27798 28.9198 2.73675 27.1586 1.64205 24.877C0.561755 22.5954 0.014404 19.9644 0 16.984V15.2299C0 12.1925 0.540149 9.51159 1.62045 7.18717C2.71515 4.86275 4.24917 3.08734 6.22252 1.86096C8.21026 0.620321 10.4861 0 13.05 0C15.6139 0 17.8825 0.613191 19.8559 1.83957C21.8436 3.05169 23.3776 4.8057 24.4579 7.1016C25.5382 9.38324 26.0856 12.0428 26.1 15.0802V16.8128ZM20.6337 15.1872C20.6337 11.7362 19.9711 9.09091 18.6459 7.25134C17.3352 5.41176 15.4699 4.49198 13.05 4.49198C10.6877 4.49198 8.83684 5.41176 7.49727 7.25134C6.1721 9.07665 5.49512 11.6649 5.46631 15.016V16.8128C5.46631 20.2353 6.13609 22.8806 7.47566 24.7487C8.82964 26.6168 10.7022 27.5508 13.0932 27.5508C15.5131 27.5508 17.3712 26.6381 18.6675 24.8128C19.9783 22.9875 20.6337 20.3209 20.6337 16.8128V15.1872Z" fill="black"/>
<path d="M36 32H27.9V30.6513C27.9 30.0281 28.031 29.4713 28.2931 28.9808C28.5645 28.4904 28.8967 28.0409 29.2898 27.6322C29.6922 27.2235 30.1227 26.8404 30.5813 26.4828C31.0492 26.1149 31.4797 25.7471 31.8728 25.3793C32.2752 25.0013 32.6075 24.6079 32.8695 24.1992C33.1409 23.7803 33.2766 23.3103 33.2766 22.7893C33.2766 22.2682 33.1175 21.8442 32.7993 21.5172C32.4905 21.1903 32.0787 21.0268 31.5639 21.0268C30.469 21.0268 29.4676 21.5479 28.5598 22.59V19.8467C29.3834 19.06 30.5158 18.6667 31.957 18.6667C32.5466 18.6667 33.0754 18.7586 33.5433 18.9425C34.0206 19.1162 34.4231 19.3665 34.7506 19.6935C35.0875 20.0204 35.3449 20.4189 35.5227 20.8889C35.7005 21.3589 35.7894 21.8902 35.7894 22.4828C35.7894 23.1877 35.6584 23.8365 35.3964 24.4291C35.1437 25.0217 34.8255 25.5632 34.4418 26.0536C34.0674 26.5338 33.6556 26.9681 33.2064 27.3563C32.7572 27.7344 32.3407 28.0715 31.957 28.3678C31.5827 28.6539 31.2645 28.9042 31.0024 29.1188C30.7497 29.3231 30.6234 29.4968 30.6234 29.6398V29.7471H36V32Z" fill="black"/>
</svg>
