<svg width="30" height="30" viewBox="0 0 32 32" fill="none" xmlns="http://www.w3.org/2000/svg">
<path d="M23.4641 20.6365H21.9813L21.4557 20.13C23.7081 17.5037 24.872 13.9207 24.2337 10.1125C23.3516 4.89737 18.9968 0.732789 13.7411 0.0949704C5.80123 -0.880517 -0.881035 5.79783 0.0950263 13.7331C0.73322 18.9857 4.90025 23.3379 10.1184 24.2196C13.9288 24.8573 17.514 23.6943 20.1419 21.4432L20.6487 21.9684V23.4504L28.626 31.4232C29.3956 32.1923 30.6532 32.1923 31.4228 31.4232C32.1924 30.654 32.1924 29.3972 31.4228 28.628L23.4641 20.6365ZM12.2019 20.6365C7.52811 20.6365 3.75525 16.8659 3.75525 12.1948C3.75525 7.52369 7.52811 3.75305 12.2019 3.75305C16.8757 3.75305 20.6487 7.52369 20.6487 12.1948C20.6487 16.8659 16.8757 20.6365 12.2019 20.6365Z" fill="#397BA7"/>
</svg>
