<svg width="32" height="36" viewBox="0 0 32 36" fill="none" xmlns="http://www.w3.org/2000/svg">
<path d="M26.6667 25.4458C25.3156 25.4458 24.1067 25.988 23.1822 26.8374L10.5067 19.3373C10.5956 18.9217 10.6667 18.506 10.6667 18.0723C10.6667 17.6386 10.5956 17.2229 10.5067 16.8072L23.04 9.37952C24 10.2831 25.2622 10.8434 26.6667 10.8434C29.6178 10.8434 32 8.42169 32 5.42169C32 2.42169 29.6178 0 26.6667 0C23.7156 0 21.3333 2.42169 21.3333 5.42169C21.3333 5.85542 21.4044 6.27108 21.4933 6.68675L8.96 14.1145C8 13.2108 6.73778 12.6506 5.33333 12.6506C2.38222 12.6506 0 15.0723 0 18.0723C0 21.0723 2.38222 23.494 5.33333 23.494C6.73778 23.494 8 22.9337 8.96 22.0301L21.6178 29.5482C21.5289 29.9277 21.4756 30.3253 21.4756 30.7229C21.4756 33.6325 23.8044 36 26.6667 36C29.5289 36 31.8578 33.6325 31.8578 30.7229C31.8578 27.8133 29.5289 25.4458 26.6667 25.4458Z" fill="#323232"/>
</svg>
