<svg viewBox="0 0 630 630" fill="none" style="width: 100%; height:100%;" xmlns="http://www.w3.org/2000/svg">
<path d="M101.316 120.393C103.965 119.794 106.708 119.736 109.38 120.223C112.052 120.71 114.598 121.733 116.865 123.228C121.393 126.243 125.166 130.261 127.89 134.971C133.409 143.879 135.273 155.799 135.45 166.27C123.82 165.69 114.03 156.454 109.267 151.465C101.808 143.552 93.2397 124.74 101.316 120.393Z" fill="#F5F5F5"/>
<path d="M154.073 173.464C151.758 171.498 150.004 168.953 148.991 166.09C147.977 163.226 147.74 160.145 148.302 157.16C148.918 154.19 150.117 151.372 151.83 148.87C153.543 146.367 155.736 144.23 158.281 142.582C160.612 141.032 163.472 139.797 166.156 140.616C167.384 141.075 168.468 141.852 169.297 142.869C170.125 143.885 170.667 145.104 170.869 146.399C171.22 149.006 170.886 151.66 169.898 154.098C166.874 162.54 162.414 170.163 154.073 173.464Z" fill="#F5F5F5"/>
<path d="M160.826 198.803C159.527 196.886 158.425 194.843 157.538 192.704C156.478 190.404 155.7 187.984 155.219 185.497C154.52 182.501 154.019 179.462 153.72 176.4C153.229 170.754 154.128 165.074 156.341 159.856C157.032 158.306 157.876 156.829 158.861 155.446C159.617 154.501 160.121 154.022 160.121 154.073C160.121 154.123 158.609 156.265 157.034 160.184C155.107 165.329 154.349 170.838 154.816 176.312C155.094 179.333 155.54 182.337 156.152 185.308C156.575 187.737 157.251 190.114 158.168 192.402C159.919 196.295 161.003 198.727 160.826 198.803Z" fill="#E0E0E0"/>
<path d="M109.154 134.127C110.042 134.892 110.861 135.736 111.598 136.647C113.098 138.323 115.252 140.78 117.898 143.829C123.152 149.94 130.322 158.458 138.058 168.046C145.795 177.635 152.46 186.543 157.122 193.07C159.478 196.346 161.356 199.004 162.616 200.869C163.325 201.805 163.953 202.8 164.493 203.843C163.671 203.009 162.921 202.107 162.25 201.146L156.454 193.586C151.565 187.186 144.761 178.391 137.075 168.802L117.243 144.358L111.245 136.949C110.474 136.066 109.775 135.122 109.154 134.127Z" fill="#E0E0E0"/>
<path d="M146.16 184.792C140.873 181.176 134.801 178.872 128.447 178.07C122.093 177.268 115.639 177.991 109.62 180.18C106.571 181.314 103.32 183.443 103.169 186.694C103.017 189.945 106.268 192.263 109.28 193.523C115.598 196.019 122.514 196.589 129.155 195.16C135.797 193.732 141.867 190.37 146.601 185.497" fill="#F5F5F5"/>
<path d="M117.772 185.22C118.32 184.927 118.911 184.723 119.523 184.615C120.657 184.3 122.333 183.935 124.412 183.544C129.881 182.489 135.496 182.442 140.981 183.406C144.004 184.03 146.906 185.141 149.574 186.694C153.187 188.856 156.256 191.818 158.546 195.35C158.928 195.837 159.23 196.381 159.44 196.963C159.251 197.102 157.815 194.897 154.841 191.923C150.961 188.131 146.063 185.548 140.742 184.489C135.385 183.568 129.915 183.504 124.538 184.3C120.38 184.842 117.81 185.346 117.772 185.22Z" fill="#E0E0E0"/>
<path d="M163.208 440.584C200.781 422.339 215.435 379.714 220.361 340.087C221.193 333.472 223.02 326.655 220.802 320.38C218.585 314.105 211.919 309.04 205.582 310.842C200.34 312.354 197.303 317.709 193.826 321.968C189.173 327.653 183.011 331.911 176.047 334.253C171.511 335.752 166.118 336.256 162.338 333.32C157.16 329.288 157.739 321.338 158.823 314.798L164.871 278.258C165.955 271.719 167.038 265.041 165.992 258.502C164.947 251.962 161.368 245.486 155.421 242.752C149.474 240.017 141.208 242.386 138.877 248.573C137.894 251.156 138.008 254.003 137.39 256.7C136.773 259.396 135.034 262.181 132.35 262.534C129.667 262.886 127.31 260.618 125.647 258.388C119.952 250.702 116.714 241.466 113.778 232.319C110.842 223.171 108.07 213.847 103.081 205.67C98.0909 197.492 90.4805 190.424 81.2447 188.395C72.0089 186.367 61.0847 190.575 57.2291 199.395C53.3735 208.215 57.2291 218.459 61.9415 226.863C68.8681 239.321 77.5596 250.711 87.7463 260.681C89.5733 262.483 91.5263 264.461 91.9547 266.981C92.6855 271.568 87.8597 275.247 83.3237 275.99C78.1955 276.835 72.9791 275.486 67.7753 275.285C62.5715 275.083 56.6999 276.444 54.0035 280.955C50.2235 287.255 54.7343 295.117 59.5097 300.586C69.0627 311.533 80.4304 320.752 93.1139 327.839C97.6373 330.359 102.463 332.716 105.802 336.722C109.141 340.729 110.552 346.979 107.478 351.212C104.404 355.446 98.1413 355.963 93.2525 354.224C88.3637 352.485 84.2813 349.02 79.7579 346.5C71.3159 341.674 59.5979 340.439 52.6049 347.294C48.0059 351.805 46.5443 358.861 47.4893 365.261C48.4343 371.662 51.4835 377.509 54.8351 383.002C66.5531 402.205 82.8323 418.761 102.551 429.307C122.27 439.853 141.271 444.906 163.208 440.647" fill="#EBEBEB"/>
<path d="M157.878 442.676C158.936 426.838 159.642 435.053 156.971 414.25C154.299 393.448 149.549 370.868 143.741 347.47L139.368 330.12C137.919 324.437 136.496 318.78 134.744 313.362C131.38 302.941 127.438 292.715 122.938 282.731C118.717 273.168 114.357 264.247 110.212 255.944C106.067 247.64 102.06 239.929 98.0782 233.1C91.8774 222.286 84.8287 211.98 76.9984 202.28C74.239 198.853 71.9584 196.27 70.4716 194.531L68.7076 192.566C68.5206 192.33 68.3094 192.115 68.0776 191.923C68.2347 192.183 68.4161 192.428 68.6194 192.654C69.0352 193.158 69.5896 193.826 70.2826 194.695C71.7568 196.472 73.924 199.118 76.5826 202.583C84.2449 212.372 91.1648 222.72 97.2844 233.541C101.19 240.383 105.147 248.056 109.267 256.36C113.387 264.663 117.671 273.609 121.867 283.16C126.324 293.13 130.228 303.339 133.56 313.74C135.286 319.145 136.697 324.74 138.146 330.448C139.595 336.155 141.032 341.926 142.506 347.773C148.314 371.196 153.115 393.712 155.811 414.452C158.508 435.191 157.916 426.888 156.971 442.676" fill="#E0E0E0"/>
<path d="M134.417 313.223C134.869 312.364 135.232 311.46 135.5 310.527C136.13 308.776 136.962 306.218 137.932 303.03C139.898 296.654 142.304 287.771 144.925 277.969C147.546 268.166 150.078 259.321 152.132 253.008C153.14 249.845 153.997 247.288 154.652 245.536C155.027 244.641 155.302 243.707 155.471 242.752C154.961 243.575 154.539 244.449 154.211 245.36C153.468 247.073 152.485 249.581 151.363 252.731C149.095 259.031 146.424 267.851 143.803 277.641C141.183 287.431 138.927 296.087 137.151 302.841C136.344 305.852 135.651 308.398 135.097 310.401C134.757 311.311 134.529 312.259 134.417 313.223Z" fill="#E0E0E0"/>
<path d="M52.7812 284.105C53.849 284.524 54.9544 284.841 56.0824 285.05C58.1992 285.579 61.2862 286.31 65.0662 287.393C72.6262 289.46 82.996 292.66 94.273 296.705C105.55 300.749 115.592 304.882 122.774 308.045C126.378 309.62 129.263 310.968 131.254 311.825C132.262 312.372 133.321 312.82 134.417 313.16C133.491 312.482 132.504 311.891 131.468 311.396C129.528 310.351 126.693 308.876 123.127 307.201C116.021 303.811 105.991 299.552 94.6888 295.483C85.0461 291.984 75.2304 288.981 65.2805 286.486C61.5005 285.541 58.3379 284.899 56.1707 284.508C55.0551 284.273 53.9208 284.138 52.7812 284.105Z" fill="#E0E0E0"/>
<path d="M156.24 412.537C156.24 412.537 156.53 412.247 156.983 411.604L158.911 408.794C160.562 406.337 162.867 402.734 165.665 398.236C171.259 389.239 178.592 376.576 186.492 362.489C194.393 348.403 201.612 335.689 207.005 326.592C209.651 322.182 211.818 318.541 213.431 315.844C214.124 314.672 214.691 313.702 215.17 312.908C215.394 312.577 215.572 312.217 215.699 311.837C215.699 311.837 215.409 312.127 214.956 312.77L212.94 315.58C211.277 318.037 208.971 321.64 206.174 326.138C200.617 335.16 193.284 347.76 185.384 361.885C177.483 376.009 170.264 388.685 164.871 397.782C162.225 402.192 160.058 405.833 158.445 408.53L156.719 411.466C156.51 411.799 156.349 412.159 156.24 412.537Z" fill="#E0E0E0"/>
<path d="M50.1226 358.722C50.4368 358.978 50.7844 359.19 51.1558 359.352L54.1798 360.952L65.5198 366.736C75.1084 371.624 88.2754 378.529 102.803 386.177C117.331 393.826 130.523 400.604 140.276 405.304C145.114 407.648 149.096 409.5 151.805 410.735L154.98 412.133C155.338 412.317 155.72 412.453 156.114 412.537C155.799 412.281 155.452 412.069 155.081 411.907L152.006 410.306L140.666 404.523C131.078 399.634 117.911 392.729 103.383 385.081C88.855 377.433 75.6628 370.642 65.923 365.954C61.072 363.611 57.103 361.759 54.3814 360.524L51.2566 359.1C50.8966 358.925 50.5154 358.798 50.1226 358.722Z" fill="#E0E0E0"/>
<path d="M586.353 548.1C586.353 548.276 467.069 548.428 319.964 548.428C172.859 548.428 53.5498 548.289 53.5498 548.1C53.5498 547.911 172.809 547.772 319.964 547.772C467.12 547.772 586.353 547.924 586.353 548.1Z" fill="#263238"/>
<path d="M82.8199 339.431C82.8199 339.431 91.5139 333.56 102.375 354.388C113.236 375.215 117.394 387.248 117.394 387.248C117.394 387.248 120.254 391.608 123.241 388.71C126.227 385.812 130.271 377.647 135.412 379.071C140.553 380.495 142.544 386.442 141.611 395.161C140.679 403.88 139.343 423.058 139.23 424.784C139.117 426.51 140.112 428.98 142.456 427.304C144.799 425.628 158.269 410.382 165.136 417.224C172.003 424.066 165.425 447.905 164.758 450.526C164.09 453.146 164.606 454.306 165.854 454.898C167.101 455.49 171.146 449.971 175.153 445.788C179.159 441.605 184.54 437.434 188.168 441.706C191.797 445.977 193.12 463.819 176.4 492.975L167.769 505.978L152.107 505.26C118.679 501.669 105.008 490.14 103.698 484.684C102.388 479.228 108.889 477.326 114.635 476.545C120.38 475.763 127.235 475.751 127.474 474.365C127.714 472.979 127.096 471.908 124.576 470.912C122.056 469.917 98.8849 461.236 97.3981 451.672C95.9113 442.109 116.172 440.181 118.894 439.236C121.615 438.291 120.154 436.036 118.717 435.128C117.281 434.221 100.939 424.028 93.3409 419.656C85.7431 415.283 82.0009 410.369 83.9539 405.191C85.8187 400.151 94.8025 401.726 98.9101 401.008C103.018 400.289 101.153 395.413 101.153 395.413C101.153 395.413 93.8449 384.993 83.3743 363.913C72.9037 342.833 83.0089 339.255 83.0089 339.255" fill="#558EB4"/>
<path d="M92.585 358.067C92.6631 358.184 92.7346 358.306 92.7992 358.432L93.3914 359.554L95.5964 363.85L103.66 379.701C110.527 393.082 120.04 411.516 130.435 431.89C140.83 452.264 150.369 470.736 157.072 484.168C160.398 490.871 163.082 496.314 164.959 500.107L167.064 504.454L167.605 505.6C167.719 505.852 167.769 505.991 167.769 505.991C167.769 505.991 167.681 505.877 167.542 505.625L166.963 504.517C166.434 503.496 165.703 501.997 164.758 500.207C162.83 496.427 160.083 491.035 156.694 484.357C149.94 470.975 140.402 452.529 129.906 432.18C119.41 411.831 109.986 393.322 103.32 379.89L95.3822 363.951C94.4876 362.086 93.782 360.625 93.278 359.604C93.0512 359.125 92.8748 358.747 92.7488 358.457C92.6756 358.336 92.6205 358.204 92.585 358.067Z" fill="#263238"/>
<path d="M130.208 390.726C130.011 392.113 129.721 393.486 129.339 394.834C128.734 397.517 127.953 400.919 127.083 404.699C126.214 408.479 125.395 412.02 124.74 414.54C124.4 415.8 124.11 416.795 123.883 417.488C123.797 417.856 123.657 418.208 123.467 418.534C123.681 417.151 123.967 415.78 124.324 414.427L126.504 404.548C127.386 400.693 128.243 397.215 128.936 394.708C129.289 393.448 129.591 392.452 129.818 391.772C129.896 391.406 130.028 391.054 130.208 390.726Z" fill="#263238"/>
<path d="M122.031 418.849C122.031 419 114.824 417.161 106.029 414.716C97.2342 412.272 90.153 410.18 90.2034 410.017C90.2538 409.853 97.398 411.705 106.193 414.137C114.988 416.569 122.069 418.685 122.031 418.849Z" fill="#263238"/>
<path d="M142.242 453.902C141.868 454.008 141.483 454.063 141.095 454.066C140.364 454.142 139.293 454.217 137.97 454.28C135.324 454.406 131.67 454.495 127.613 454.381C123.556 454.268 119.927 453.978 117.294 453.701C116.034 453.562 114.912 453.424 114.169 453.31C113.786 453.283 113.408 453.202 113.047 453.071C114.474 453.049 115.901 453.116 117.319 453.272C119.965 453.449 123.619 453.663 127.638 453.776C131.658 453.89 135.312 453.877 137.958 453.852C139.385 453.777 140.816 453.794 142.242 453.902Z" fill="#263238"/>
<path d="M155.244 430.088C154.753 431.316 154.167 432.504 153.493 433.642C152.334 435.796 150.708 438.757 148.881 442.008C147.054 445.259 145.366 448.195 144.119 450.299C143.498 451.466 142.786 452.582 141.989 453.638C142.481 452.41 143.066 451.222 143.741 450.085C144.9 447.93 146.525 444.969 148.352 441.718C150.179 438.467 151.868 435.532 153.115 433.44C153.738 432.27 154.45 431.15 155.244 430.088Z" fill="#263238"/>
<path d="M177.017 458.766C176.882 459.208 176.692 459.632 176.45 460.026L174.674 463.289C173.162 466.024 171.032 469.791 168.651 473.936C166.27 478.082 164.077 481.824 162.464 484.508C161.708 485.768 161.053 486.814 160.537 487.683C160.322 488.083 160.06 488.455 159.755 488.792C159.894 488.351 160.085 487.928 160.322 487.532L162.099 484.268C163.611 481.522 165.74 477.754 168.122 473.609C170.503 469.463 172.696 465.734 174.308 463.05L176.236 459.875C176.459 459.48 176.721 459.109 177.017 458.766Z" fill="#263238"/>
<path d="M160.02 487.948C159.544 488.05 159.057 488.092 158.571 488.074C157.626 488.074 156.265 488.137 154.589 488.149C151.238 488.149 146.588 488.149 141.473 487.809C136.357 487.469 131.72 487.091 128.394 486.7C126.718 486.511 125.37 486.322 124.45 486.184C123.962 486.143 123.48 486.046 123.014 485.894C123.5 485.849 123.989 485.849 124.475 485.894L128.432 486.221C131.771 486.511 136.395 486.877 141.498 487.154C146.601 487.431 151.238 487.582 154.589 487.67L158.571 487.784C159.058 487.791 159.543 487.846 160.02 487.948Z" fill="#263238"/>
<path d="M569.671 332.501L527.499 373.565L488.641 447.716L444.944 531.569L391.255 506.369L333.22 476.658L370.339 405.745L393.41 326.365C377.105 337.176 346.79 351.905 310.628 344.219C271.391 335.903 290.228 187.979 290.228 187.979L333.346 186.871L337.68 291.161L386.379 269.64L386.455 269.816C389.39 268.556 391.961 267.296 393.322 266.603C420.273 251.899 437.963 250.123 466.88 260.442L508.599 274.302C519.322 279.342 558.848 298.809 569.671 332.501Z" fill="#558EB4"/>
<path d="M422.1 257.342C422.1 257.342 421.13 257.897 419.492 259.069C417.195 260.739 415.157 262.739 413.444 265.003C410.927 268.382 408.923 272.114 407.496 276.079C405.76 280.951 404.276 285.909 403.049 290.934L395.64 318.188C394.67 321.602 393.888 324.4 393.309 326.416C393.044 327.335 392.817 328.079 392.654 328.646C392.592 328.912 392.499 329.17 392.376 329.414C392.393 329.144 392.444 328.878 392.528 328.621C392.666 328.028 392.843 327.285 393.069 326.353C393.586 324.311 394.329 321.502 395.186 318.062C397.051 311.006 399.596 301.392 402.419 290.758C403.654 285.716 405.159 280.744 406.929 275.864C408.403 271.862 410.476 268.106 413.078 264.726C414.853 262.447 416.98 260.465 419.378 258.854C420.024 258.417 420.698 258.021 421.394 257.67C421.621 257.544 421.857 257.435 422.1 257.342Z" fill="#263238"/>
<g opacity="0.3">
<path opacity="0.3" d="M406.363 278.246C394.304 310.892 372.62 329.137 341.914 345.492C360.042 343.484 377.416 337.121 392.553 326.945" fill="black"/>
</g>
<g opacity="0.3">
<path opacity="0.3" d="M444.78 255.011C449.887 336.811 454.994 418.606 460.101 500.396L444.981 531.569L444.78 255.011Z" fill="black"/>
</g>
<path d="M492.257 339.872C492.08 339.948 490.543 336.092 488.388 331.443C486.234 326.794 484.319 323.102 484.482 323.014C485.076 323.708 485.58 324.474 485.982 325.294C486.826 326.756 487.91 328.822 488.981 331.166C490.052 333.509 490.934 335.664 491.501 337.252C491.871 338.087 492.126 338.968 492.257 339.872Z" fill="#FAFAFA"/>
<path d="M526.579 322.623C523.981 324.643 521.244 326.479 518.389 328.117C515.655 329.952 512.801 331.602 509.846 333.056C512.46 331.051 515.2 329.216 518.049 327.562C520.78 325.729 523.63 324.079 526.579 322.623Z" fill="#FAFAFA"/>
<path d="M511.686 310.199C511.249 307.996 511.021 305.755 511.005 303.509C510.794 301.267 510.794 299.01 511.005 296.768C511.457 298.974 511.685 301.219 511.686 303.471C511.905 305.708 511.905 307.962 511.686 310.199Z" fill="#FAFAFA"/>
<path d="M545.945 307.805C541.718 305.708 537.694 303.224 533.925 300.384C536.088 301.334 538.159 302.481 540.111 303.811C542.177 304.957 544.13 306.295 545.945 307.805Z" fill="#FAFAFA"/>
<path d="M493.567 375.77C494.498 372.788 495.635 369.875 496.969 367.051C498.11 364.144 499.449 361.32 500.976 358.596C500.049 361.579 498.912 364.493 497.574 367.315C496.435 370.223 495.096 373.048 493.567 375.77Z" fill="#FAFAFA"/>
<path d="M478.308 391.217C477.098 389.523 476.067 387.707 475.234 385.799C474.199 383.984 473.355 382.067 472.714 380.079C473.926 381.774 474.96 383.59 475.801 385.497C476.837 387.309 477.678 389.227 478.308 391.217Z" fill="#FAFAFA"/>
<path d="M491.072 412.02C489.015 412.91 486.829 413.467 484.596 413.671C482.395 414.096 480.14 414.164 477.918 413.872C477.918 413.683 480.879 413.545 484.508 413.028C488.137 412.511 491.022 411.818 491.072 412.02Z" fill="#FAFAFA"/>
<path d="M507.439 389.264C507.987 387.159 508.738 385.113 509.682 383.153C510.427 381.11 511.377 379.147 512.517 377.294C511.978 379.4 511.231 381.447 510.287 383.405C509.548 385.454 508.593 387.418 507.439 389.264Z" fill="#FAFAFA"/>
<path d="M467.636 437.321C467.473 437.422 465.62 434.864 463.075 431.928C460.53 428.992 458.262 426.787 458.401 426.649C462.184 429.529 465.329 433.163 467.636 437.321Z" fill="#FAFAFA"/>
<path d="M460.417 385.648C459.524 387.848 458.423 389.958 457.128 391.948C456.027 394.063 454.732 396.071 453.26 397.946C454.17 395.752 455.275 393.643 456.561 391.646C457.659 389.533 458.95 387.525 460.417 385.648Z" fill="#FAFAFA"/>
<path d="M465.557 367.92C463.17 367.632 460.814 367.134 458.514 366.433C456.161 365.938 453.859 365.229 451.634 364.316C454.022 364.597 456.38 365.095 458.678 365.803C461.031 366.294 463.335 367.003 465.557 367.92Z" fill="#FAFAFA"/>
<path d="M465.255 331.38C466.64 332.998 467.904 334.716 469.035 336.521C470.333 338.195 471.504 339.964 472.538 341.813C470.987 340.351 469.632 338.695 468.506 336.886C467.182 335.203 466.089 333.352 465.255 331.38Z" fill="#FAFAFA"/>
<path d="M453.6 329.553C450.849 332.532 447.782 335.202 444.452 337.516C445.746 335.949 447.208 334.53 448.812 333.283C450.271 331.873 451.876 330.623 453.6 329.553Z" fill="#FAFAFA"/>
<path d="M462.811 310.439C458.556 307.083 455.009 302.916 452.378 298.179C452.542 298.078 454.608 301.027 457.494 304.403C460.379 307.78 462.949 310.3 462.811 310.439Z" fill="#FAFAFA"/>
<path d="M495.041 304.555C492.763 305.601 490.398 306.444 487.972 307.075C485.614 307.911 483.185 308.535 480.715 308.939C482.996 307.903 485.361 307.06 487.783 306.419C490.143 305.585 492.572 304.961 495.041 304.555Z" fill="#FAFAFA"/>
<path d="M449.669 273.861C449.48 273.861 449.568 270.976 449.114 267.473C448.661 263.97 447.854 261.173 448.081 261.173C449.791 265.183 450.341 269.592 449.669 273.899V273.861Z" fill="#FAFAFA"/>
<path d="M420.991 365.224C420.062 366.03 419.072 366.763 418.03 367.416C416.165 368.676 413.62 370.553 410.899 372.695C408.177 374.837 405.783 376.866 404.069 378.353C403.183 379.21 402.235 380.001 401.234 380.722C401.976 379.732 402.821 378.824 403.754 378.013C405.899 375.952 408.149 374.005 410.495 372.179C412.831 370.341 415.258 368.621 417.766 367.025C418.782 366.324 419.862 365.721 420.991 365.224Z" fill="#FAFAFA"/>
<path d="M419.341 355.118C419.177 355.207 417.06 351.918 414.124 348.075C411.188 344.232 408.593 341.309 408.731 341.17C409.448 341.657 410.089 342.248 410.634 342.922C412.053 344.436 413.395 346.022 414.653 347.672C416.115 349.612 417.337 351.452 418.156 352.813C418.657 353.522 419.055 354.298 419.341 355.118Z" fill="#FAFAFA"/>
<path d="M427.014 315.29C423.118 317.939 418.984 320.221 414.666 322.106C416.556 320.694 418.572 319.458 420.689 318.415C422.694 317.176 424.812 316.13 427.014 315.29Z" fill="#FAFAFA"/>
<path d="M419.416 297.902C418.622 297.437 417.897 296.865 417.261 296.201C415.629 294.71 414.109 293.102 412.713 291.388C411.303 289.676 410.019 287.866 408.87 285.97C408.339 285.217 407.914 284.395 407.61 283.525C407.786 283.424 409.941 287.003 413.204 290.972C416.468 294.941 419.58 297.751 419.416 297.902Z" fill="#FAFAFA"/>
<path d="M432.495 297.536C433.069 295.623 433.846 293.777 434.814 292.03C435.591 290.187 436.567 288.434 437.724 286.801C437.157 288.717 436.38 290.563 435.406 292.307C434.634 294.154 433.657 295.907 432.495 297.536Z" fill="#FAFAFA"/>
<path d="M429.005 277.641C428.803 277.641 429.005 273.722 428.274 268.997C427.543 264.272 426.144 260.618 426.333 260.543C426.809 261.264 427.17 262.055 427.404 262.886C428.1 264.838 428.61 266.85 428.929 268.897C429.242 270.943 429.373 273.014 429.32 275.083C429.353 275.947 429.246 276.811 429.005 277.641Z" fill="#FAFAFA"/>
<path d="M432.18 378C432.096 376.771 432.096 375.537 432.18 374.308C432.268 372.04 432.331 368.903 432.243 365.488C432.155 362.074 431.928 358.898 431.739 356.668C431.568 355.45 431.492 354.219 431.512 352.989C431.861 354.173 432.093 355.388 432.205 356.618C432.597 359.568 432.829 362.538 432.898 365.513C432.978 368.485 432.893 371.459 432.646 374.422C432.615 375.627 432.459 376.827 432.18 378Z" fill="#FAFAFA"/>
<path d="M430.315 409.361C428.555 407.741 426.69 406.239 424.733 404.863C422.666 403.668 420.524 402.607 418.32 401.688C420.735 402.098 423.043 402.988 425.108 404.306C427.173 405.624 428.952 407.343 430.34 409.361H430.315Z" fill="#FAFAFA"/>
<path d="M446.04 428.765C443.266 430.573 440.374 432.193 437.384 433.616C434.498 435.238 431.505 436.661 428.425 437.875C431.204 436.078 434.095 434.462 437.082 433.037C439.969 431.415 442.962 429.988 446.04 428.765Z" fill="#FAFAFA"/>
<path d="M401.713 437.371C399.414 434.812 397.284 432.106 395.338 429.269C393.211 426.561 391.258 423.72 389.491 420.764C391.785 423.333 393.914 426.043 395.867 428.879C397.989 431.586 399.941 434.423 401.713 437.371Z" fill="#FAFAFA"/>
<path d="M388.08 401.537C387.862 400.694 387.765 399.824 387.79 398.954C387.727 397.354 387.702 395.174 387.79 392.654C387.878 390.134 388.13 388.004 388.344 386.354C388.405 385.495 388.578 384.647 388.861 383.834C389.05 383.834 388.672 387.79 388.445 392.654C388.218 397.517 388.206 401.537 388.08 401.537Z" fill="#FAFAFA"/>
<path d="M373.237 462.71C370.656 460.983 368.197 459.08 365.879 457.015C363.422 455.113 361.102 453.042 358.936 450.815C361.518 452.541 363.977 454.444 366.294 456.511C368.751 458.412 371.071 460.483 373.237 462.71Z" fill="#FAFAFA"/>
<path d="M382.107 460.832C381.7 457.556 381.511 454.256 381.54 450.954C381.358 447.658 381.392 444.354 381.641 441.063C382.048 444.34 382.238 447.64 382.208 450.941C382.39 454.237 382.357 457.541 382.107 460.832Z" fill="#FAFAFA"/>
<path d="M399.622 498.771C399.622 498.872 398.047 498.254 395.514 497.435C388.918 495.313 382 494.37 375.077 494.651C372.418 494.752 370.78 494.941 370.768 494.827C371.131 494.685 371.513 494.596 371.902 494.563C372.632 494.424 373.716 494.298 375.052 494.185C382.037 493.657 389.054 494.619 395.64 497.007C396.642 497.369 397.623 497.79 398.576 498.267C398.948 498.38 399.301 498.55 399.622 498.771Z" fill="#FAFAFA"/>
<path d="M414.048 505.701C415.072 506.236 416.028 506.892 416.896 507.654C421.255 511.106 425.2 515.051 428.652 519.41C429.414 520.278 430.07 521.234 430.605 522.257C429.771 521.475 428.997 520.633 428.286 519.737C426.9 518.137 424.935 515.957 422.654 513.677C420.374 511.396 418.194 509.443 416.594 508.045C415.688 507.327 414.838 506.544 414.048 505.701Z" fill="#FAFAFA"/>
<path d="M420.336 440.055C419.056 437.696 417.965 435.24 417.072 432.709C415.984 430.265 415.095 427.737 414.414 425.149C415.693 427.508 416.784 429.964 417.677 432.495C418.765 434.939 419.654 437.468 420.336 440.055Z" fill="#FAFAFA"/>
<path d="M369.722 312.354C369.185 313.146 368.536 313.855 367.794 314.458C366.114 316.021 364.31 317.445 362.401 318.717C360.489 319.998 358.475 321.119 356.378 322.069C355.534 322.518 354.63 322.844 353.694 323.039C353.619 322.85 357.613 321.136 362.036 318.175C366.458 315.214 369.583 312.203 369.722 312.354Z" fill="#FAFAFA"/>
<path d="M372.96 298.998C372.699 295.252 372.877 291.489 373.489 287.784C373.75 291.53 373.572 295.293 372.96 298.998Z" fill="#FAFAFA"/>
<path d="M347.823 310.212C345.566 309.54 343.376 308.659 341.283 307.579C339.088 306.695 336.979 305.611 334.983 304.34C337.238 305.019 339.427 305.9 341.523 306.974C343.718 307.857 345.827 308.941 347.823 310.212Z" fill="#FAFAFA"/>
<path d="M392.666 293.126C392.52 290.802 392.592 288.469 392.881 286.159C392.941 283.83 393.228 281.514 393.737 279.241C393.884 281.565 393.817 283.898 393.536 286.209C393.466 288.537 393.174 290.853 392.666 293.126Z" fill="#FAFAFA"/>
<path d="M334.467 336.924C331.915 336.28 329.488 335.215 327.285 333.774C324.968 332.517 322.884 330.872 321.124 328.91C321.25 328.759 323.933 331.015 327.613 333.22C331.292 335.425 334.543 336.735 334.467 336.924Z" fill="#FAFAFA"/>
<path d="M315.781 311.283C314.158 313.519 312.363 315.626 310.413 317.583C308.619 319.704 306.665 321.684 304.567 323.505C307.979 319.124 311.728 315.016 315.781 311.22V311.283Z" fill="#FAFAFA"/>
<path d="M314.181 288.313C312.034 287.587 310.04 286.473 308.297 285.025C306.43 283.751 304.804 282.155 303.496 280.312C303.635 280.174 305.752 282.303 308.7 284.495C311.648 286.688 314.269 288.149 314.181 288.313Z" fill="#FAFAFA"/>
<path d="M302.4 293.126C301.686 294.475 300.782 295.714 299.716 296.806C298.811 298.037 297.738 299.135 296.528 300.069C298.143 297.486 300.12 295.147 302.4 293.126Z" fill="#FAFAFA"/>
<path d="M327.6 250.488C326.133 252.791 324.486 254.973 322.673 257.015C321.034 259.201 319.218 261.25 317.243 263.138C318.711 260.833 320.358 258.646 322.169 256.599C323.815 254.421 325.631 252.378 327.6 250.488Z" fill="#FAFAFA"/>
<path d="M306.016 255.339C304.073 253.614 302.277 251.73 300.648 249.707C298.862 247.829 297.235 245.806 295.785 243.659C297.73 245.377 299.525 247.257 301.152 249.278C302.939 251.16 304.566 253.187 306.016 255.339Z" fill="#FAFAFA"/>
<path d="M316.827 227.972C315.381 226.104 314.116 224.105 313.047 221.999C311.798 219.999 310.731 217.89 309.859 215.699C311.302 217.573 312.568 219.576 313.639 221.684C314.888 223.68 315.955 225.784 316.827 227.972Z" fill="#FAFAFA"/>
<path d="M316.26 210.319C316.109 210.193 317.999 207.799 319.498 204.41C320.998 201.02 321.539 198.034 321.741 198.11C321.427 202.714 319.484 207.056 316.26 210.357V210.319Z" fill="#FAFAFA"/>
<path d="M295.482 209.273C295.287 206.61 295.822 203.943 297.032 201.562C297.814 199.853 298.851 198.273 300.106 196.875C300.587 196.259 301.182 195.742 301.858 195.35C300.222 197.354 298.803 199.525 297.624 201.827C296.645 204.225 295.927 206.722 295.482 209.273Z" fill="#FAFAFA"/>
<path d="M477.149 179.298C476.57 174.075 476.507 168.808 476.96 163.573C477.43 158.306 479.447 153.296 482.756 149.171C486.196 145.19 491.488 142.632 496.692 143.3C499.917 143.716 502.992 145.303 506.205 145.215C509.985 145.102 513.223 142.783 516.638 141.233C522.021 138.79 528.051 138.158 533.824 139.432C536.867 140.005 539.685 141.429 541.951 143.539C543.068 144.604 543.895 145.935 544.356 147.407C544.816 148.88 544.895 150.445 544.584 151.956C548.392 151.789 552.204 152.124 555.924 152.951C559.65 153.791 562.9 156.051 564.984 159.251C566.861 162.54 566.735 167.114 564.039 169.772C565.814 169.535 567.614 169.961 569.093 170.971C570.573 171.98 571.627 173.501 572.052 175.241C572.387 177.001 572.209 178.821 571.538 180.483C570.868 182.145 569.735 183.579 568.272 184.615C564.749 186.773 560.575 187.612 556.491 186.984C552.989 186.316 548.931 185.333 546.121 183.204" fill="#263238"/>
<path d="M474.415 297.99C481.367 299.775 488.742 298.74 494.933 295.11C501.124 291.48 505.629 285.549 507.465 278.611C509.595 270.535 511.333 263.768 511.333 263.768C511.333 263.768 532.388 267.385 539.356 247.388C546.324 227.392 558.256 180.344 558.256 180.344C548.519 171.637 536.635 165.686 523.83 163.105C511.026 160.525 497.764 161.409 485.415 165.665L481.635 166.925L454.885 264.361C453.917 267.852 453.656 271.501 454.117 275.094C454.579 278.688 455.754 282.153 457.573 285.285C459.392 288.418 461.82 291.156 464.712 293.338C467.604 295.519 470.903 297.101 474.415 297.99Z" fill="#B78876"/>
<path d="M511.459 263.491C502.164 260.562 493.949 254.935 487.859 247.325C487.859 247.325 489.195 263.794 509.771 268.745L511.459 263.491Z" fill="#AA6550"/>
<path d="M477.212 188.572C476.922 188.307 464.826 179.89 460.681 193.725C456.536 207.56 471.265 208.845 471.404 208.48C471.542 208.114 477.212 188.572 477.212 188.572Z" fill="#B78876"/>
<path d="M468.72 201.965C468.72 201.965 468.43 202.066 467.964 202.129C467.33 202.182 466.7 201.993 466.2 201.6C464.94 200.63 464.373 197.933 465.053 195.426C465.369 194.229 465.95 193.117 466.754 192.175C467.02 191.791 467.373 191.477 467.786 191.257C468.198 191.038 468.656 190.921 469.123 190.915C469.429 190.912 469.725 191.02 469.957 191.22C470.189 191.419 470.34 191.696 470.383 191.999C470.459 192.44 470.282 192.692 470.383 192.742C470.484 192.793 470.748 192.591 470.799 191.986C470.826 191.624 470.728 191.264 470.522 190.966C470.373 190.761 470.185 190.589 469.969 190.459C469.752 190.329 469.512 190.244 469.262 190.21C468.66 190.149 468.052 190.245 467.498 190.488C466.944 190.73 466.462 191.112 466.099 191.596C465.148 192.614 464.464 193.852 464.108 195.199C463.352 198.009 463.995 201.046 465.822 202.23C466.162 202.448 466.547 202.588 466.948 202.638C467.349 202.688 467.757 202.648 468.14 202.52C468.632 202.293 468.795 202.016 468.72 201.965Z" fill="#AA6550"/>
<path d="M541.309 209.223C541.063 209.981 540.528 210.611 539.82 210.977C539.112 211.342 538.289 211.414 537.529 211.176C537.156 211.082 536.805 210.915 536.498 210.684C536.19 210.453 535.932 210.163 535.738 209.831C535.545 209.499 535.419 209.131 535.37 208.75C535.32 208.368 535.347 207.981 535.45 207.61C535.693 206.864 536.217 206.242 536.911 205.876C537.604 205.509 538.413 205.426 539.167 205.645C539.546 205.733 539.903 205.896 540.218 206.126C540.532 206.355 540.797 206.645 540.997 206.979C541.197 207.313 541.328 207.684 541.381 208.069C541.435 208.455 541.41 208.847 541.309 209.223Z" fill="#263238"/>
<path d="M545.038 207.283C544.559 207.535 542.934 205.216 539.859 204.183C536.785 203.15 534 203.944 533.799 203.452C533.685 203.238 534.278 202.684 535.5 202.293C537.152 201.806 538.915 201.85 540.54 202.419C542.142 202.949 543.533 203.978 544.509 205.355C545.177 206.401 545.265 207.182 545.038 207.283Z" fill="#263238"/>
<path d="M511.068 199.08C510.825 199.826 510.301 200.448 509.607 200.815C508.914 201.181 508.105 201.264 507.351 201.046C506.978 200.952 506.628 200.785 506.32 200.554C506.013 200.323 505.755 200.033 505.561 199.7C505.368 199.368 505.242 199.001 505.193 198.619C505.143 198.238 505.17 197.851 505.272 197.48C505.513 196.732 506.037 196.108 506.731 195.741C507.425 195.374 508.236 195.292 508.989 195.514C509.362 195.608 509.713 195.775 510.02 196.006C510.328 196.237 510.586 196.527 510.779 196.859C510.973 197.192 511.099 197.559 511.148 197.941C511.198 198.322 511.171 198.709 511.068 199.08Z" fill="#263238"/>
<path d="M514.622 197.707C514.143 197.971 512.505 195.64 509.431 194.607C506.356 193.574 503.584 194.368 503.37 193.876C503.269 193.662 503.849 193.108 505.084 192.73C506.734 192.242 508.496 192.281 510.124 192.843C511.727 193.377 513.121 194.405 514.105 195.779C514.748 196.825 514.849 197.606 514.622 197.707Z" fill="#263238"/>
<path d="M518.124 224.28C518.124 224.104 520.191 224.406 523.417 225.049C524.236 225.238 525.029 225.326 525.344 224.834C525.681 224.039 525.769 223.161 525.596 222.314C525.496 220.16 525.395 217.904 525.281 215.548C524.916 205.96 524.929 198.173 525.281 198.16C525.634 198.148 526.277 205.922 526.642 215.51C526.718 217.867 526.781 220.122 526.844 222.277C527.025 223.387 526.806 224.526 526.226 225.49C526.02 225.729 525.762 225.918 525.471 226.042C525.181 226.167 524.866 226.223 524.551 226.208C524.074 226.184 523.604 226.095 523.152 225.943C520.015 225.074 518.074 224.444 518.124 224.28Z" fill="#263238"/>
<path d="M508.359 223.36C508.863 223.499 507.754 226.838 509.821 230.164C511.887 233.491 515.554 234.322 515.428 234.788C515.428 235.015 514.407 235.179 512.908 234.713C510.944 234.084 509.265 232.781 508.17 231.034C507.109 229.361 506.747 227.338 507.162 225.401C507.49 223.965 508.132 223.259 508.359 223.36Z" fill="#263238"/>
<path d="M545.719 201.499C544.95 202.016 543.073 200.579 540.54 199.685C538.007 198.79 535.676 198.576 535.424 197.681C535.324 197.253 535.903 196.661 537.062 196.321C538.595 195.952 540.203 196.048 541.682 196.595C543.16 197.142 544.442 198.117 545.366 199.395C546.021 200.416 546.071 201.235 545.719 201.499Z" fill="#263238"/>
<path d="M514.345 185.22C513.878 185.472 513.085 185.056 512.19 184.514C511.031 183.823 509.818 183.229 508.561 182.738C507.288 182.279 505.976 181.934 504.643 181.705C503.572 181.49 502.74 181.327 502.551 180.823C502.362 180.319 502.967 179.563 504.328 179.059C506.139 178.487 508.089 178.535 509.869 179.197C511.649 179.859 513.158 181.096 514.156 182.713C514.849 184.036 514.786 185.018 514.345 185.22Z" fill="#263238"/>
<path d="M557.21 186.883C546.687 186.271 536.632 182.321 528.507 175.606C519.46 168.197 508.133 163.006 505.046 164.468C501.959 165.929 499.023 176.312 488.212 177.068C488.212 177.068 484.356 197.291 476.519 194.708C468.682 192.125 480.74 162.238 480.74 162.238L502.475 157.122L524.739 157.941L544.736 162.477L562.035 172.418L557.21 186.883Z" fill="#263238"/>
<path d="M444.944 107.566H162.036V548.113H444.944V107.566Z" fill="#FAFAFA"/>
<path d="M444.944 548.1C444.944 545.391 444.818 366.471 444.641 107.554L444.944 107.856H162.074L162.414 107.528C162.414 274.201 162.414 427.669 162.338 548.075L162.074 547.81L444.981 548.075L162.074 548.327H161.822V548.1C161.822 427.694 161.822 274.226 161.746 107.554V107.226H162.112H444.981H445.284V107.528C445.07 366.484 444.944 545.404 444.944 548.1Z" fill="#263238"/>
<path d="M237.863 205.67H201.663C200.462 205.67 199.31 205.194 198.46 204.346C197.61 203.498 197.13 202.347 197.127 201.146V151.036C197.13 149.835 197.61 148.685 198.46 147.837C199.31 146.989 200.462 146.513 201.663 146.513H224.62L242.386 164.821V201.146C242.386 202.346 241.91 203.497 241.061 204.345C240.213 205.193 239.062 205.67 237.863 205.67Z" fill="#558EB4"/>
<path d="M224.62 146.513V160.612C224.623 161.727 225.068 162.796 225.856 163.584C226.645 164.373 227.713 164.817 228.829 164.821H242.386L224.62 146.513Z" fill="#558EB4"/>
<g opacity="0.2">
<path opacity="0.2" d="M224.809 161.847C224.815 162.914 225.185 163.947 225.859 164.775C226.533 165.602 227.47 166.174 228.513 166.396L228.967 166.496C230.731 166.811 242.386 168.878 242.386 168.613V164.833H228.828C228.828 164.833 225.452 164.707 224.809 161.847Z" fill="black"/>
</g>
<g opacity="0.3">
<path opacity="0.3" d="M224.62 146.513V160.612C224.623 161.727 225.068 162.796 225.856 163.584C226.645 164.373 227.713 164.817 228.829 164.821H242.386L224.62 146.513Z" fill="white"/>
</g>
<path d="M221.584 160.02C218.803 160.344 216.002 160.453 213.205 160.348C210.412 160.454 207.615 160.344 204.838 160.02C207.615 159.696 210.412 159.586 213.205 159.692C216.002 159.587 218.803 159.696 221.584 160.02Z" fill="#FAFAFA"/>
<path d="M232.395 168.008C232.395 168.185 226.233 168.336 218.623 168.336C211.012 168.336 204.838 168.185 204.838 168.008C204.838 167.832 211.012 167.681 218.623 167.681C226.233 167.681 232.395 167.819 232.395 168.008Z" fill="#FAFAFA"/>
<path d="M234.877 174.661C234.877 174.85 228.161 174.989 219.858 174.989C211.554 174.989 204.838 174.85 204.838 174.661C204.838 174.472 211.567 174.334 219.858 174.334C228.148 174.334 234.877 174.485 234.877 174.661Z" fill="#FAFAFA"/>
<path d="M234.877 180.949C234.877 181.125 228.161 181.276 219.858 181.276C211.554 181.276 204.838 181.125 204.838 180.949C204.838 180.772 211.567 180.621 219.858 180.621C228.148 180.621 234.877 180.76 234.877 180.949Z" fill="#FAFAFA"/>
<path d="M234.877 187.223C234.877 187.412 228.161 187.551 219.858 187.551C211.554 187.551 204.838 187.412 204.838 187.223C204.838 187.034 211.567 186.896 219.858 186.896C228.148 186.896 234.877 187.047 234.877 187.223Z" fill="#FAFAFA"/>
<path d="M234.877 193.511C234.877 193.687 228.161 193.838 219.858 193.838C211.554 193.838 204.838 193.687 204.838 193.511C204.838 193.334 211.567 193.183 219.858 193.183C228.148 193.183 234.877 193.322 234.877 193.511Z" fill="#FAFAFA"/>
<path d="M255.049 172.255H251.269V170.869H260.48V172.255H256.7V182.007H255.125L255.049 172.255Z" fill="#263238"/>
<path d="M270.257 180.621V182.007H262.181V170.869H270.03V172.255H263.73V175.669H269.312V177.03H263.73V180.621H270.257Z" fill="#263238"/>
<path d="M280.274 182.007L277.868 178.58C277.637 178.593 277.405 178.593 277.175 178.58H274.428V181.969H272.828V170.831H277.2C280.098 170.831 281.837 172.292 281.837 174.712C281.875 175.485 281.656 176.25 281.214 176.886C280.772 177.522 280.131 177.994 279.392 178.227L282.038 182.007H280.274ZM280.274 174.749C280.274 173.162 279.216 172.229 277.175 172.229H274.428V177.269H277.124C279.165 177.269 280.224 176.4 280.224 174.749H280.274Z" fill="#263238"/>
<path d="M294.714 182.007V173.88L290.682 180.634H289.951L285.932 173.93V181.994H284.407V170.856H285.667L290.304 178.681L294.878 170.856H296.138V181.994L294.714 182.007Z" fill="#263238"/>
<path d="M298.62 180.734L299.199 179.474C300.24 180.312 301.542 180.758 302.878 180.734C304.806 180.734 305.625 179.978 305.625 179.008C305.625 176.287 298.884 178.013 298.884 173.88C298.884 172.154 300.22 170.692 303.143 170.692C304.407 170.668 305.651 171.014 306.721 171.688L306.205 172.948C305.289 172.367 304.227 172.057 303.143 172.053C301.253 172.053 300.447 172.847 300.447 173.817C300.447 176.526 307.188 174.825 307.188 178.857C307.188 180.558 305.814 182.02 302.878 182.02C301.353 182.095 299.849 181.641 298.62 180.734Z" fill="#263238"/>
<path d="M312.833 176.4C312.788 175.22 313.096 174.054 313.719 173.05C314.341 172.047 315.25 171.253 316.327 170.77C317.404 170.287 318.602 170.136 319.765 170.339C320.928 170.541 322.004 171.086 322.856 171.905C323.707 172.723 324.294 173.777 324.541 174.932C324.789 176.086 324.685 177.289 324.244 178.384C323.804 179.479 323.046 180.418 322.067 181.079C321.089 181.741 319.936 182.094 318.755 182.095C317.987 182.131 317.219 182.01 316.5 181.74C315.78 181.469 315.123 181.055 314.569 180.522C314.014 179.989 313.575 179.348 313.276 178.64C312.978 177.931 312.827 177.169 312.833 176.4ZM323.064 176.4C323.072 175.543 322.824 174.703 322.353 173.987C321.882 173.271 321.209 172.712 320.42 172.379C319.63 172.047 318.759 171.956 317.918 172.12C317.077 172.283 316.303 172.693 315.696 173.297C315.088 173.901 314.673 174.673 314.505 175.513C314.337 176.353 314.422 177.224 314.75 178.016C315.078 178.808 315.633 179.484 316.347 179.959C317.06 180.434 317.898 180.686 318.755 180.684C319.324 180.703 319.891 180.606 320.42 180.397C320.95 180.189 321.432 179.875 321.836 179.473C322.239 179.072 322.556 178.592 322.768 178.064C322.979 177.535 323.08 176.969 323.064 176.4Z" fill="#263238"/>
<path d="M328.683 172.255V176.135H334.265V177.509H328.683V182.007H327.096V170.869H334.945V172.255H328.683Z" fill="#263238"/>
<path d="M340.452 180.734L341.044 179.474C342.082 180.31 343.379 180.756 344.711 180.734C346.639 180.734 347.47 179.978 347.47 179.008C347.47 176.287 340.729 178.013 340.729 173.88C340.729 172.154 342.065 170.692 344.988 170.692C346.252 170.67 347.496 171.016 348.567 171.688L348.037 172.948C347.125 172.369 346.068 172.059 344.988 172.053C343.098 172.053 342.279 172.847 342.279 173.817C342.279 176.526 349.02 174.825 349.02 178.857C349.02 180.558 347.659 182.02 344.711 182.02C343.186 182.093 341.682 181.639 340.452 180.734Z" fill="#263238"/>
<path d="M359.428 180.621V182.007H351.351V170.869H359.201V172.255H352.901V175.669H358.483V177.03H352.901V180.621H359.428Z" fill="#263238"/>
<path d="M369.444 182.007L367.05 178.58C366.815 178.593 366.58 178.593 366.345 178.58H363.598V181.969H362.01V170.831H366.345C369.243 170.831 370.994 172.292 370.994 174.712C371.032 175.487 370.811 176.253 370.366 176.889C369.922 177.526 369.278 177.996 368.537 178.227L371.183 182.007H369.444ZM369.444 174.749C369.444 173.162 368.386 172.229 366.345 172.229H363.648V177.269H366.345C368.335 177.269 369.394 176.4 369.394 174.749H369.444Z" fill="#263238"/>
<path d="M383.229 170.869L378.353 182.007H376.74L371.838 170.869H373.565L377.571 180.016L381.603 170.869H383.229Z" fill="#263238"/>
<path d="M384.653 170.869H386.24V182.007H384.653V170.869Z" fill="#263238"/>
<path d="M388.672 176.4C388.663 175.632 388.81 174.871 389.106 174.162C389.402 173.454 389.839 172.813 390.391 172.28C390.943 171.746 391.599 171.331 392.317 171.061C393.036 170.79 393.802 170.669 394.569 170.705C395.358 170.673 396.145 170.812 396.875 171.112C397.606 171.412 398.263 171.866 398.803 172.444L397.769 173.439C397.366 173.018 396.877 172.688 396.336 172.471C395.795 172.254 395.214 172.154 394.632 172.179C393.923 172.182 393.225 172.361 392.602 172.7C391.979 173.039 391.45 173.527 391.062 174.121C390.675 174.715 390.44 175.396 390.381 176.103C390.321 176.809 390.438 177.52 390.72 178.17C391.003 178.821 391.443 179.391 392 179.83C392.558 180.268 393.215 180.562 393.914 180.683C394.613 180.805 395.331 180.751 396.004 180.527C396.677 180.303 397.283 179.915 397.769 179.399L398.803 180.394C398.262 180.974 397.603 181.43 396.87 181.733C396.138 182.035 395.348 182.176 394.556 182.146C393.786 182.18 393.017 182.056 392.297 181.782C391.576 181.507 390.92 181.087 390.368 180.549C389.817 180.01 389.382 179.364 389.09 178.65C388.798 177.937 388.656 177.171 388.672 176.4Z" fill="#263238"/>
<path d="M409.16 180.621V182.007H401.083V170.869H408.933V172.255H402.633V175.669H408.24V177.03H402.658V180.621H409.16Z" fill="#263238"/>
<path d="M265.041 193.435L262.067 202.255H260.744L258.3 195.224L255.868 202.306H254.52L251.559 193.486H252.819L255.213 200.705L257.733 193.486H258.904L261.349 200.743L263.793 193.486L265.041 193.435Z" fill="#E0E0E0"/>
<path d="M271.946 199.357H266.49C266.571 199.934 266.87 200.458 267.324 200.823C267.778 201.188 268.353 201.367 268.934 201.323C269.295 201.334 269.653 201.268 269.986 201.129C270.318 200.99 270.617 200.781 270.862 200.516L271.543 201.298C271.205 201.661 270.792 201.946 270.333 202.134C269.874 202.321 269.379 202.405 268.884 202.381C268.417 202.417 267.947 202.354 267.506 202.196C267.064 202.039 266.661 201.791 266.321 201.468C265.982 201.145 265.713 200.754 265.534 200.321C265.355 199.888 265.268 199.422 265.28 198.954C265.261 198.504 265.335 198.055 265.496 197.635C265.658 197.215 265.904 196.832 266.219 196.511C266.534 196.189 266.912 195.936 267.33 195.767C267.747 195.598 268.194 195.516 268.645 195.527C269.096 195.515 269.546 195.598 269.964 195.77C270.382 195.942 270.759 196.199 271.072 196.525C271.385 196.851 271.627 197.239 271.782 197.664C271.936 198.089 272.001 198.541 271.971 198.992C271.971 199.08 271.958 199.244 271.946 199.357ZM266.49 198.488H270.799C270.742 197.957 270.49 197.465 270.092 197.108C269.694 196.751 269.179 196.554 268.645 196.554C268.11 196.554 267.595 196.751 267.197 197.108C266.799 197.465 266.547 197.957 266.49 198.488Z" fill="#E0E0E0"/>
<path d="M273.659 192.906H274.919V202.306H273.659V192.906Z" fill="#E0E0E0"/>
<path d="M276.57 198.954C276.561 198.491 276.647 198.03 276.824 197.602C277.001 197.173 277.264 196.786 277.598 196.464C277.932 196.142 278.328 195.893 278.763 195.732C279.197 195.57 279.66 195.501 280.123 195.527C280.666 195.497 281.207 195.615 281.688 195.868C282.17 196.121 282.574 196.499 282.857 196.963L281.925 197.555C281.731 197.253 281.462 197.005 281.144 196.837C280.826 196.669 280.47 196.587 280.111 196.598C279.514 196.641 278.956 196.909 278.548 197.348C278.141 197.786 277.914 198.362 277.914 198.96C277.914 199.559 278.141 200.135 278.548 200.573C278.956 201.011 279.514 201.279 280.111 201.323C280.47 201.334 280.826 201.251 281.144 201.083C281.462 200.916 281.731 200.668 281.925 200.365L282.857 200.945C282.574 201.409 282.17 201.787 281.688 202.04C281.207 202.293 280.666 202.411 280.123 202.381C279.66 202.407 279.197 202.338 278.763 202.176C278.328 202.015 277.932 201.766 277.598 201.444C277.264 201.122 277.001 200.735 276.824 200.306C276.647 199.878 276.561 199.417 276.57 198.954Z" fill="#E0E0E0"/>
<path d="M283.702 198.954C283.689 198.262 283.883 197.581 284.258 196.999C284.633 196.418 285.173 195.96 285.809 195.686C286.445 195.412 287.148 195.333 287.829 195.46C288.509 195.586 289.137 195.912 289.632 196.396C290.127 196.881 290.467 197.501 290.608 198.179C290.749 198.857 290.686 199.561 290.426 200.203C290.165 200.845 289.72 201.394 289.146 201.782C288.573 202.17 287.897 202.379 287.204 202.381C286.745 202.402 286.287 202.328 285.857 202.164C285.428 202.001 285.037 201.75 284.708 201.429C284.38 201.107 284.121 200.722 283.948 200.296C283.775 199.87 283.691 199.413 283.702 198.954ZM289.46 198.954C289.44 198.51 289.29 198.081 289.029 197.721C288.767 197.362 288.406 197.087 287.989 196.931C287.573 196.775 287.12 196.745 286.686 196.844C286.253 196.944 285.858 197.169 285.552 197.491C285.245 197.813 285.04 198.218 284.961 198.656C284.883 199.094 284.935 199.545 285.112 199.953C285.288 200.362 285.58 200.709 285.952 200.953C286.324 201.196 286.76 201.325 287.204 201.323C287.513 201.331 287.819 201.274 288.104 201.156C288.388 201.038 288.645 200.862 288.858 200.639C289.07 200.416 289.234 200.151 289.337 199.86C289.441 199.57 289.483 199.261 289.46 198.954Z" fill="#E0E0E0"/>
<path d="M303.522 198.45V202.306H302.262V198.589C302.262 197.266 301.619 196.623 300.523 196.623C299.427 196.623 298.507 197.392 298.507 198.853V202.306H297.247V198.589C297.247 197.266 296.604 196.623 295.508 196.623C294.412 196.623 293.492 197.392 293.492 198.853V202.306H292.232V195.59H293.58V196.598C293.85 196.244 294.203 195.962 294.607 195.775C295.011 195.588 295.454 195.503 295.899 195.527C296.366 195.5 296.831 195.603 297.243 195.826C297.655 196.048 297.996 196.381 298.23 196.787C298.523 196.38 298.912 196.052 299.363 195.832C299.813 195.612 300.311 195.507 300.813 195.527C301.196 195.493 301.582 195.547 301.941 195.685C302.3 195.823 302.622 196.042 302.884 196.324C303.145 196.606 303.339 196.945 303.449 197.313C303.56 197.682 303.585 198.07 303.522 198.45Z" fill="#E0E0E0"/>
<path d="M311.85 199.357H306.406C306.482 199.934 306.777 200.46 307.23 200.826C307.682 201.192 308.258 201.37 308.838 201.323C309.201 201.336 309.562 201.271 309.897 201.132C310.231 200.992 310.532 200.783 310.779 200.516L311.446 201.298C310.951 201.811 310.317 202.169 309.621 202.327C308.925 202.486 308.198 202.437 307.529 202.189C306.86 201.94 306.279 201.501 305.855 200.927C305.432 200.352 305.186 199.667 305.146 198.954C305.129 198.504 305.204 198.054 305.367 197.634C305.53 197.214 305.777 196.831 306.094 196.51C306.41 196.189 306.789 195.936 307.207 195.767C307.625 195.598 308.073 195.516 308.523 195.527C308.975 195.515 309.423 195.598 309.841 195.77C310.258 195.942 310.635 196.2 310.947 196.526C311.259 196.852 311.5 197.24 311.653 197.665C311.806 198.089 311.869 198.541 311.837 198.992C311.875 199.08 311.862 199.244 311.85 199.357ZM306.406 198.488H310.716C310.658 197.957 310.406 197.465 310.009 197.108C309.611 196.751 309.095 196.554 308.561 196.554C308.027 196.554 307.511 196.751 307.113 197.108C306.716 197.465 306.464 197.957 306.406 198.488Z" fill="#E0E0E0"/>
<path d="M313.286 201.6C313.286 201.492 313.308 201.385 313.35 201.285C313.392 201.186 313.454 201.096 313.531 201.021C313.609 200.946 313.701 200.887 313.801 200.848C313.902 200.809 314.01 200.79 314.118 200.794C314.332 200.794 314.537 200.879 314.688 201.03C314.839 201.181 314.924 201.386 314.924 201.6C314.924 201.814 314.839 202.019 314.688 202.17C314.537 202.321 314.332 202.406 314.118 202.406C314.01 202.41 313.902 202.391 313.801 202.352C313.701 202.313 313.609 202.255 313.531 202.179C313.454 202.104 313.392 202.014 313.35 201.915C313.308 201.815 313.286 201.708 313.286 201.6ZM313.4 193.46H314.836L314.597 199.534H313.626L313.4 193.46Z" fill="#E0E0E0"/>
<path d="M426.787 134.681H425.3C424.375 134.681 423.625 135.432 423.625 136.357V502.904C423.625 503.829 424.375 504.58 425.3 504.58H426.787C427.713 504.58 428.463 503.829 428.463 502.904V136.357C428.463 135.432 427.713 134.681 426.787 134.681Z" fill="#E0E0E0"/>
<path d="M426.787 134.681H425.3C424.375 134.681 423.625 135.432 423.625 136.357V323.707C423.625 324.632 424.375 325.382 425.3 325.382H426.787C427.713 325.382 428.463 324.632 428.463 323.707V136.357C428.463 135.432 427.713 134.681 426.787 134.681Z" fill="#558EB4"/>
<path d="M206.325 245.095V253.915H205.065V246.204H203.062V245.095H206.325Z" fill="#263238"/>
<path d="M208.24 253.172C208.243 253.003 208.295 252.839 208.391 252.699C208.486 252.56 208.621 252.452 208.778 252.389C208.934 252.326 209.106 252.311 209.272 252.346C209.437 252.38 209.589 252.463 209.707 252.583C209.826 252.703 209.906 252.856 209.938 253.022C209.97 253.188 209.952 253.359 209.887 253.515C209.822 253.671 209.712 253.804 209.572 253.898C209.431 253.991 209.266 254.041 209.097 254.041C208.983 254.043 208.87 254.022 208.764 253.978C208.658 253.935 208.563 253.871 208.483 253.79C208.403 253.708 208.34 253.612 208.298 253.506C208.256 253.399 208.237 253.286 208.24 253.172Z" fill="#263238"/>
<path d="M217.035 246.204H213.986V245.095H221.332V246.204H218.282V253.966H217.022L217.035 246.204Z" fill="#263238"/>
<path d="M227.883 251.017H222.428C222.506 251.593 222.802 252.117 223.254 252.482C223.705 252.848 224.28 253.027 224.859 252.983C225.223 252.994 225.584 252.927 225.919 252.786C226.254 252.644 226.555 252.432 226.8 252.164L227.468 252.958C226.974 253.477 226.34 253.84 225.642 254.002C224.944 254.163 224.215 254.116 223.543 253.867C222.872 253.617 222.289 253.175 221.867 252.597C221.444 252.019 221.201 251.329 221.168 250.614C221.148 250.164 221.222 249.715 221.383 249.295C221.545 248.875 221.791 248.492 222.106 248.171C222.422 247.849 222.8 247.596 223.217 247.427C223.634 247.258 224.082 247.176 224.532 247.187C224.984 247.175 225.433 247.258 225.851 247.43C226.269 247.602 226.647 247.859 226.96 248.185C227.273 248.511 227.514 248.899 227.669 249.324C227.824 249.748 227.888 250.201 227.858 250.652C227.909 250.74 227.896 250.904 227.883 251.017ZM222.428 250.135H226.8C226.742 249.604 226.49 249.113 226.093 248.756C225.695 248.399 225.179 248.201 224.645 248.201C224.111 248.201 223.595 248.399 223.198 248.756C222.8 249.113 222.548 249.604 222.491 250.135H222.428Z" fill="#263238"/>
<path d="M233.201 247.187V248.371H232.924C232.627 248.352 232.331 248.398 232.054 248.508C231.778 248.617 231.53 248.786 231.328 249.003C231.125 249.22 230.973 249.48 230.883 249.763C230.793 250.046 230.767 250.345 230.807 250.639V253.978H229.547V247.262H230.706V248.396C230.958 247.973 231.329 247.633 231.772 247.418C232.216 247.203 232.712 247.122 233.201 247.187Z" fill="#263238"/>
<path d="M245.851 250.097V253.966H244.591V250.186C244.591 248.926 243.961 248.233 242.852 248.233C241.744 248.233 240.849 249.001 240.849 250.463V253.915H239.589V250.135C239.589 248.875 238.959 248.182 237.85 248.182C237.563 248.17 237.277 248.221 237.013 248.332C236.748 248.443 236.511 248.611 236.318 248.824C236.126 249.037 235.983 249.289 235.899 249.564C235.815 249.839 235.793 250.128 235.834 250.412V253.865H234.574V247.149H235.733V248.157C236.003 247.802 236.355 247.519 236.759 247.333C237.163 247.146 237.607 247.061 238.052 247.086C238.519 247.059 238.985 247.162 239.396 247.385C239.808 247.607 240.15 247.94 240.383 248.346C240.677 247.937 241.068 247.608 241.521 247.388C241.975 247.168 242.475 247.064 242.978 247.086C243.383 247.02 243.798 247.053 244.187 247.183C244.576 247.313 244.927 247.537 245.21 247.833C245.493 248.13 245.699 248.491 245.811 248.886C245.923 249.28 245.937 249.696 245.851 250.097Z" fill="#263238"/>
<path d="M209.803 390.499V391.595H203.503V390.739L207.106 387.248C208.051 386.341 208.228 385.787 208.228 385.22C208.228 384.313 207.572 383.758 206.338 383.758C205.911 383.733 205.485 383.807 205.092 383.973C204.699 384.139 204.349 384.393 204.07 384.716L203.2 383.972C203.608 383.52 204.111 383.164 204.673 382.931C205.236 382.698 205.843 382.593 206.451 382.624C208.303 382.624 209.488 383.582 209.488 385.144C209.474 385.688 209.336 386.221 209.085 386.704C208.834 387.186 208.476 387.605 208.039 387.929L205.317 390.55L209.803 390.499Z" fill="#263238"/>
<path d="M210.949 390.802C210.946 390.688 210.965 390.574 211.007 390.468C211.049 390.362 211.112 390.265 211.192 390.184C211.272 390.102 211.367 390.038 211.473 389.995C211.579 389.952 211.692 389.93 211.806 389.932C212.036 389.932 212.258 390.024 212.421 390.187C212.584 390.35 212.675 390.571 212.675 390.802C212.675 391.032 212.584 391.253 212.421 391.416C212.258 391.579 212.036 391.671 211.806 391.671C211.692 391.671 211.58 391.648 211.475 391.605C211.37 391.561 211.275 391.496 211.196 391.416C211.116 391.335 211.053 391.239 211.011 391.133C210.968 391.028 210.947 390.915 210.949 390.802Z" fill="#263238"/>
<path d="M217.98 382.725H219.24V390.499H224.041V391.595H217.98V382.725Z" fill="#263238"/>
<path d="M225.124 382.801C225.124 382.694 225.145 382.589 225.187 382.491C225.228 382.393 225.289 382.304 225.365 382.23C225.442 382.156 225.532 382.098 225.632 382.06C225.731 382.021 225.837 382.003 225.943 382.007C226.099 382.012 226.25 382.062 226.377 382.153C226.504 382.243 226.602 382.369 226.658 382.514C226.714 382.659 226.727 382.818 226.693 382.97C226.66 383.123 226.582 383.262 226.47 383.37C226.358 383.479 226.217 383.552 226.064 383.58C225.91 383.609 225.752 383.592 225.609 383.531C225.465 383.471 225.342 383.369 225.256 383.239C225.17 383.109 225.124 382.957 225.124 382.801ZM225.338 384.88H226.598V391.595H225.338V384.88Z" fill="#263238"/>
<path d="M228.249 388.244C228.239 387.781 228.326 387.322 228.502 386.895C228.678 386.467 228.94 386.08 229.272 385.759C229.605 385.437 230 385.188 230.433 385.026C230.866 384.863 231.328 384.792 231.789 384.817C232.335 384.783 232.879 384.899 233.363 385.152C233.847 385.406 234.253 385.786 234.536 386.253L233.604 386.845C233.41 386.542 233.141 386.295 232.823 386.127C232.505 385.959 232.149 385.877 231.789 385.888C231.193 385.931 230.634 386.199 230.227 386.637C229.82 387.076 229.593 387.652 229.593 388.25C229.593 388.848 229.82 389.425 230.227 389.863C230.634 390.301 231.193 390.569 231.789 390.613C232.15 390.621 232.506 390.536 232.824 390.366C233.142 390.196 233.411 389.947 233.604 389.642L234.536 390.222C234.253 390.69 233.848 391.073 233.364 391.328C232.88 391.583 232.336 391.702 231.789 391.671C231.328 391.695 230.866 391.624 230.433 391.462C230 391.3 229.605 391.05 229.272 390.729C228.94 390.407 228.678 390.02 228.502 389.593C228.326 389.165 228.239 388.706 228.249 388.244Z" fill="#263238"/>
<path d="M242.046 388.647H236.603C236.681 389.223 236.977 389.747 237.429 390.112C237.881 390.477 238.455 390.656 239.035 390.613C239.398 390.624 239.759 390.557 240.094 390.416C240.429 390.274 240.73 390.062 240.975 389.794L241.643 390.587C241.147 391.101 240.513 391.459 239.817 391.617C239.121 391.775 238.394 391.727 237.725 391.478C237.057 391.23 236.475 390.791 236.052 390.216C235.628 389.642 235.382 388.956 235.343 388.244C235.325 387.793 235.401 387.344 235.563 386.924C235.726 386.504 235.974 386.121 236.29 385.8C236.606 385.479 236.985 385.226 237.403 385.057C237.821 384.888 238.269 384.806 238.72 384.817C239.171 384.805 239.62 384.888 240.037 385.06C240.455 385.232 240.831 385.489 241.143 385.816C241.455 386.142 241.696 386.53 241.849 386.955C242.002 387.379 242.065 387.831 242.033 388.282C242.071 388.382 242.059 388.534 242.046 388.647ZM236.603 387.765H240.912C240.854 387.234 240.603 386.742 240.205 386.386C239.807 386.029 239.292 385.831 238.757 385.831C238.223 385.831 237.707 386.029 237.31 386.386C236.912 386.742 236.66 387.234 236.603 387.765Z" fill="#263238"/>
<path d="M250.135 387.727V391.595H248.875V387.815C248.875 386.555 248.22 385.862 247.073 385.862C246.779 385.84 246.483 385.883 246.207 385.988C245.932 386.094 245.683 386.259 245.479 386.472C245.276 386.686 245.122 386.942 245.029 387.222C244.936 387.502 244.907 387.8 244.944 388.093V391.545H243.684V384.829H244.855V385.837C245.143 385.478 245.513 385.193 245.934 385.007C246.355 384.82 246.815 384.738 247.275 384.766C247.67 384.721 248.07 384.768 248.445 384.902C248.819 385.037 249.158 385.256 249.434 385.542C249.711 385.828 249.918 386.174 250.039 386.553C250.161 386.932 250.193 387.334 250.135 387.727Z" fill="#263238"/>
<path d="M251.811 388.244C251.8 387.781 251.885 387.321 252.06 386.892C252.236 386.464 252.498 386.077 252.831 385.755C253.163 385.433 253.559 385.183 253.993 385.022C254.427 384.86 254.889 384.79 255.352 384.817C255.897 384.783 256.441 384.899 256.925 385.152C257.409 385.406 257.815 385.786 258.098 386.253L257.166 386.845C256.97 386.541 256.699 386.293 256.379 386.126C256.059 385.958 255.7 385.876 255.339 385.888C254.742 385.931 254.184 386.199 253.777 386.637C253.369 387.076 253.143 387.652 253.143 388.25C253.143 388.848 253.369 389.425 253.777 389.863C254.184 390.301 254.742 390.569 255.339 390.613C255.701 390.622 256.06 390.537 256.38 390.367C256.7 390.198 256.971 389.948 257.166 389.642L258.098 390.222C257.815 390.69 257.41 391.073 256.926 391.328C256.442 391.583 255.898 391.702 255.352 391.671C254.89 391.695 254.428 391.624 253.995 391.462C253.562 391.3 253.167 391.05 252.835 390.729C252.502 390.407 252.24 390.02 252.064 389.593C251.888 389.165 251.802 388.706 251.811 388.244Z" fill="#263238"/>
<path d="M265.608 388.647H260.165C260.243 389.223 260.539 389.747 260.991 390.112C261.443 390.477 262.017 390.656 262.597 390.613C262.96 390.624 263.322 390.557 263.656 390.416C263.991 390.274 264.292 390.062 264.537 389.794L265.205 390.587C264.709 391.101 264.075 391.459 263.379 391.617C262.683 391.775 261.956 391.727 261.287 391.478C260.619 391.23 260.037 390.791 259.614 390.216C259.19 389.642 258.944 388.956 258.905 388.244C258.887 387.793 258.963 387.344 259.125 386.924C259.288 386.504 259.536 386.121 259.852 385.8C260.168 385.479 260.547 385.226 260.965 385.057C261.383 384.888 261.831 384.806 262.282 384.817C262.733 384.805 263.182 384.888 263.599 385.06C264.017 385.232 264.393 385.489 264.705 385.816C265.018 386.142 265.258 386.53 265.411 386.955C265.564 387.379 265.627 387.831 265.595 388.282C265.633 388.382 265.621 388.534 265.608 388.647ZM260.165 387.765H264.474C264.416 387.234 264.165 386.742 263.767 386.386C263.369 386.029 262.854 385.831 262.319 385.831C261.785 385.831 261.269 386.029 260.872 386.386C260.474 386.742 260.222 387.234 260.165 387.765Z" fill="#263238"/>
<path d="M397.189 273.911C397.189 274.1 353.707 274.239 300.081 274.239C246.456 274.239 202.96 274.1 202.96 273.911C202.96 273.722 246.443 273.584 300.081 273.584C353.719 273.584 397.189 273.735 397.189 273.911Z" fill="#263238"/>
<path d="M397.189 288.616C397.189 288.792 353.707 288.943 300.081 288.943C246.456 288.943 202.96 288.792 202.96 288.616C202.96 288.439 246.443 288.288 300.081 288.288C353.719 288.288 397.189 288.427 397.189 288.616Z" fill="#263238"/>
<path d="M397.189 303.307C397.189 303.496 353.707 303.635 300.081 303.635C246.456 303.635 202.96 303.496 202.96 303.307C202.96 303.118 246.443 302.98 300.081 302.98C353.719 302.98 397.189 303.131 397.189 303.307Z" fill="#263238"/>
<path d="M397.189 318.011C397.189 318.188 353.707 318.339 300.081 318.339C246.456 318.339 202.96 318.188 202.96 318.011C202.96 317.835 246.443 317.684 300.081 317.684C353.719 317.684 397.189 317.822 397.189 318.011Z" fill="#263238"/>
<path d="M397.189 332.703C397.189 332.892 353.707 333.031 300.081 333.031C246.456 333.031 202.96 332.892 202.96 332.703C202.96 332.514 246.443 332.375 300.081 332.375C353.719 332.375 397.189 332.527 397.189 332.703Z" fill="#263238"/>
<path d="M397.189 347.407C397.189 347.584 353.707 347.735 300.081 347.735C246.456 347.735 202.96 347.584 202.96 347.407C202.96 347.231 246.443 347.08 300.081 347.08C353.719 347.08 397.189 347.218 397.189 347.407Z" fill="#263238"/>
<path d="M397.189 403.2C397.189 403.376 353.707 403.528 300.081 403.528C246.456 403.528 202.96 403.376 202.96 403.2C202.96 403.024 246.443 402.872 300.081 402.872C353.719 402.872 397.189 403.049 397.189 403.2Z" fill="#263238"/>
<path d="M397.189 415.8C397.189 415.989 353.707 416.128 300.081 416.128C246.456 416.128 202.96 415.989 202.96 415.8C202.96 415.611 246.443 415.472 300.081 415.472C353.719 415.472 397.189 415.624 397.189 415.8Z" fill="#E0E0E0"/>
<path d="M397.189 428.4C397.189 428.576 353.707 428.728 300.081 428.728C246.456 428.728 202.96 428.576 202.96 428.4C202.96 428.224 246.443 428.072 300.081 428.072C353.719 428.072 397.189 428.198 397.189 428.4Z" fill="#EBEBEB"/>
<path d="M411.364 465.986H308.624V504.265H411.364V465.986Z" fill="#558EB4"/>
<path d="M342.846 487.103H337.806L336.76 489.485H335.361L339.671 479.972H341.006L345.328 489.485H343.904L342.846 487.103ZM342.367 486.02L340.313 481.358L338.272 486.02H342.367Z" fill="white"/>
<path d="M345.807 485.881C345.798 485.387 345.89 484.897 346.078 484.441C346.266 483.984 346.546 483.571 346.901 483.227C347.255 482.883 347.676 482.616 348.139 482.442C348.601 482.268 349.094 482.19 349.587 482.215C350.17 482.18 350.751 482.305 351.268 482.576C351.785 482.846 352.219 483.253 352.523 483.752L351.527 484.382C351.318 484.056 351.029 483.789 350.687 483.608C350.344 483.427 349.961 483.338 349.574 483.349C348.906 483.349 348.265 483.614 347.792 484.087C347.32 484.559 347.054 485.2 347.054 485.869C347.054 486.537 347.32 487.178 347.792 487.651C348.265 488.123 348.906 488.389 349.574 488.389C349.961 488.4 350.344 488.31 350.687 488.129C351.029 487.948 351.318 487.682 351.527 487.355L352.523 487.973C352.22 488.473 351.786 488.881 351.269 489.154C350.752 489.427 350.171 489.555 349.587 489.523C349.096 489.547 348.605 489.47 348.145 489.297C347.684 489.125 347.264 488.86 346.91 488.519C346.556 488.178 346.275 487.768 346.086 487.314C345.896 486.86 345.801 486.373 345.807 485.881Z" fill="white"/>
<path d="M353.455 485.881C353.446 485.387 353.538 484.897 353.727 484.441C353.915 483.984 354.195 483.571 354.549 483.227C354.904 482.883 355.325 482.616 355.787 482.442C356.249 482.268 356.742 482.19 357.235 482.215C357.818 482.179 358.4 482.303 358.918 482.574C359.435 482.845 359.869 483.252 360.171 483.752L359.176 484.382C358.967 484.056 358.677 483.789 358.335 483.608C357.993 483.427 357.61 483.338 357.223 483.349C356.554 483.349 355.913 483.614 355.441 484.087C354.968 484.559 354.703 485.2 354.703 485.869C354.703 486.537 354.968 487.178 355.441 487.65C355.913 488.123 356.554 488.389 357.223 488.389C357.61 488.4 357.993 488.31 358.335 488.129C358.677 487.948 358.967 487.682 359.176 487.355L360.171 487.973C359.869 488.474 359.436 488.883 358.919 489.156C358.401 489.429 357.819 489.556 357.235 489.523C356.744 489.547 356.253 489.47 355.793 489.297C355.333 489.125 354.913 488.86 354.558 488.519C354.204 488.177 353.924 487.768 353.734 487.314C353.544 486.86 353.449 486.373 353.455 485.881Z" fill="white"/>
<path d="M368.26 486.36H362.414C362.499 486.977 362.816 487.538 363.301 487.929C363.785 488.32 364.401 488.512 365.022 488.464C365.411 488.478 365.798 488.407 366.157 488.257C366.515 488.107 366.838 487.881 367.101 487.595L367.819 488.439C367.458 488.828 367.016 489.134 366.524 489.334C366.032 489.534 365.502 489.624 364.972 489.598C364.47 489.635 363.966 489.567 363.493 489.398C363.02 489.228 362.587 488.962 362.222 488.616C361.858 488.269 361.57 487.85 361.378 487.386C361.185 486.921 361.091 486.422 361.103 485.919C361.084 485.437 361.164 484.956 361.339 484.505C361.513 484.055 361.778 483.646 362.117 483.302C362.456 482.958 362.862 482.688 363.309 482.507C363.757 482.327 364.237 482.24 364.72 482.252C365.204 482.237 365.686 482.324 366.135 482.506C366.584 482.689 366.989 482.964 367.325 483.313C367.661 483.662 367.92 484.077 368.086 484.533C368.251 484.988 368.319 485.473 368.285 485.957C368.285 486.032 368.273 486.196 368.26 486.36ZM362.414 485.415H367.025C366.966 484.845 366.697 484.317 366.271 483.934C365.845 483.55 365.293 483.338 364.72 483.338C364.146 483.338 363.594 483.55 363.168 483.934C362.742 484.317 362.473 484.845 362.414 485.415Z" fill="white"/>
<path d="M377.546 485.881C377.573 486.368 377.498 486.855 377.325 487.312C377.152 487.768 376.885 488.182 376.542 488.529C376.199 488.876 375.787 489.146 375.333 489.324C374.879 489.502 374.392 489.582 373.905 489.56C373.424 489.576 372.946 489.48 372.508 489.278C372.071 489.077 371.686 488.777 371.385 488.401V492.118H370.125V482.278H371.385V483.424C371.673 483.027 372.052 482.705 372.491 482.486C372.929 482.266 373.415 482.156 373.905 482.164C374.396 482.142 374.885 482.223 375.342 482.403C375.799 482.583 376.213 482.858 376.557 483.208C376.901 483.559 377.166 483.979 377.337 484.439C377.507 484.9 377.579 485.391 377.546 485.881ZM376.223 485.881C376.206 485.404 376.049 484.943 375.771 484.555C375.494 484.167 375.108 483.869 374.663 483.698C374.217 483.528 373.731 483.492 373.265 483.596C372.8 483.699 372.375 483.937 372.043 484.281C371.712 484.624 371.489 485.057 371.402 485.527C371.315 485.996 371.368 486.48 371.555 486.919C371.741 487.359 372.052 487.733 372.45 487.997C372.848 488.26 373.314 488.401 373.792 488.401C374.121 488.409 374.448 488.348 374.752 488.223C375.056 488.098 375.331 487.911 375.56 487.674C375.788 487.437 375.965 487.156 376.079 486.847C376.194 486.539 376.243 486.21 376.223 485.881Z" fill="white"/>
<path d="M383.406 489.056C382.949 489.4 382.389 489.577 381.818 489.56C381.512 489.596 381.202 489.563 380.911 489.462C380.62 489.362 380.355 489.197 380.136 488.981C379.917 488.764 379.749 488.501 379.646 488.211C379.542 487.921 379.505 487.611 379.537 487.305V483.349H378.277V482.278H379.537V480.703H380.797V482.278H382.864V483.349H380.797V487.255C380.766 487.415 380.772 487.58 380.815 487.738C380.858 487.896 380.936 488.041 381.045 488.163C381.154 488.285 381.289 488.38 381.441 488.441C381.592 488.502 381.756 488.527 381.919 488.515C382.288 488.52 382.648 488.4 382.939 488.174L383.406 489.056Z" fill="white"/>
<path d="M198.16 504.567C198.16 504.567 198.072 504.567 197.908 504.403L197.177 503.836L194.115 501.48L194.002 501.392L194.141 501.329C206.539 496.579 246.972 481.408 296.805 462.836L296.982 462.773L297.12 462.886L301.102 466.087L301.228 466.187V504.945H300.9L227.442 504.819L205.909 504.731H200.138H198.651C198.488 504.739 198.324 504.739 198.16 504.731H198.677H200.176H205.985L227.543 504.643L300.9 504.517L300.585 504.832C300.585 495.949 300.585 486.65 300.585 477.112V466.553L300.711 466.805L296.73 463.592H297.045C247.199 482.139 206.703 497.133 194.216 501.644V501.505L197.19 503.962L197.921 504.567H198.16Z" fill="#558EB4"/>
<path d="M296.906 463.088H194.166V501.367H296.906V463.088Z" fill="white"/>
<path d="M296.919 501.367C296.919 501.367 296.919 501.127 296.919 500.674C296.919 500.22 296.919 499.552 296.919 498.695C296.919 496.944 296.919 494.386 296.919 491.135C296.919 484.546 296.843 475.007 296.793 463.126L297.02 463.352L194.279 463.453L194.607 463.126C194.607 476.482 194.607 489.409 194.607 501.404L194.292 501.089L267.838 501.241L289.258 501.329H295.016H296.516H297.032H296.554H295.092H289.409L268.052 501.417L194.279 501.568H193.964V501.253C193.964 489.258 193.964 476.33 193.964 462.974V462.647H194.305L297.045 462.748H297.272V462.974C297.272 474.907 297.171 484.495 297.146 491.123C297.146 494.386 297.146 496.919 297.146 498.683C297.146 499.514 297.146 500.157 297.146 500.623C297.146 501.089 296.919 501.367 296.919 501.367Z" fill="#558EB4"/>
<path d="M222.327 479.518H226.334C226.989 479.471 227.646 479.558 228.265 479.776C228.884 479.994 229.452 480.337 229.932 480.784C230.413 481.231 230.796 481.772 231.059 482.374C231.321 482.975 231.456 483.625 231.456 484.281C231.456 484.937 231.321 485.587 231.059 486.188C230.796 486.79 230.413 487.331 229.932 487.778C229.452 488.225 228.884 488.568 228.265 488.786C227.646 489.004 226.989 489.091 226.334 489.044H222.327V479.518ZM226.258 487.859C226.754 487.901 227.252 487.839 227.722 487.678C228.192 487.517 228.624 487.261 228.99 486.924C229.355 486.588 229.647 486.179 229.847 485.724C230.047 485.269 230.15 484.778 230.15 484.281C230.15 483.784 230.047 483.293 229.847 482.838C229.647 482.383 229.355 481.974 228.99 481.638C228.624 481.301 228.192 481.045 227.722 480.884C227.252 480.723 226.754 480.661 226.258 480.703H223.738V487.859H226.258Z" fill="#558EB4"/>
<path d="M239.841 485.869H233.994C234.079 486.488 234.398 487.051 234.886 487.443C235.373 487.834 235.992 488.024 236.615 487.973C237.004 487.989 237.392 487.919 237.751 487.769C238.111 487.619 238.433 487.392 238.694 487.103L239.412 487.948C238.879 488.486 238.201 488.859 237.461 489.021C236.72 489.183 235.949 489.127 235.239 488.861C234.529 488.595 233.912 488.129 233.461 487.52C233.01 486.911 232.744 486.184 232.697 485.428C232.676 484.944 232.755 484.462 232.928 484.01C233.102 483.558 233.366 483.147 233.705 482.802C234.044 482.457 234.451 482.186 234.899 482.004C235.348 481.823 235.829 481.736 236.313 481.748C236.798 481.735 237.28 481.823 237.729 482.007C238.178 482.191 238.583 482.467 238.919 482.817C239.255 483.167 239.514 483.584 239.679 484.04C239.844 484.496 239.912 484.981 239.879 485.465C239.879 485.591 239.853 485.743 239.841 485.869ZM233.994 484.936H238.619C238.547 484.374 238.272 483.857 237.847 483.483C237.421 483.108 236.873 482.901 236.307 482.901C235.74 482.901 235.192 483.108 234.767 483.483C234.341 483.857 234.067 484.374 233.994 484.936Z" fill="#558EB4"/>
<path d="M241.013 485.44C241.002 484.945 241.093 484.454 241.28 483.996C241.467 483.538 241.747 483.123 242.102 482.778C242.457 482.433 242.878 482.164 243.341 481.989C243.804 481.814 244.298 481.737 244.793 481.761C245.375 481.726 245.957 481.851 246.474 482.122C246.991 482.393 247.425 482.799 247.728 483.298L246.733 483.941C246.523 483.615 246.234 483.35 245.892 483.169C245.55 482.988 245.167 482.898 244.78 482.908C244.112 482.908 243.471 483.173 242.998 483.646C242.526 484.118 242.26 484.759 242.26 485.428C242.26 486.096 242.526 486.737 242.998 487.209C243.471 487.682 244.112 487.948 244.78 487.948C245.167 487.957 245.55 487.867 245.892 487.686C246.234 487.506 246.523 487.24 246.733 486.914L247.728 487.544C247.426 488.045 246.992 488.453 246.475 488.726C245.958 488.999 245.376 489.126 244.793 489.094C244.3 489.118 243.809 489.041 243.347 488.868C242.886 488.694 242.465 488.428 242.111 488.086C241.757 487.743 241.477 487.332 241.288 486.877C241.099 486.422 241.005 485.933 241.013 485.44Z" fill="#558EB4"/>
<path d="M249.341 478.951H250.601V489.031H249.341V478.951Z" fill="#558EB4"/>
<path d="M252.895 479.606C252.896 479.492 252.92 479.38 252.965 479.275C253.011 479.17 253.076 479.075 253.158 478.995C253.24 478.916 253.337 478.853 253.443 478.811C253.549 478.769 253.662 478.748 253.777 478.75C253.945 478.755 254.108 478.809 254.245 478.906C254.383 479.003 254.489 479.139 254.55 479.296C254.611 479.453 254.624 479.624 254.588 479.789C254.553 479.953 254.469 480.103 254.348 480.221C254.228 480.338 254.075 480.417 253.909 480.448C253.744 480.479 253.573 480.461 253.418 480.395C253.263 480.33 253.13 480.22 253.037 480.08C252.944 479.939 252.895 479.775 252.895 479.606ZM253.134 481.837H254.394V489.044H253.134V481.837Z" fill="#558EB4"/>
<path d="M263.756 484.898V489.044H262.496V485.1C262.496 483.689 261.777 482.996 260.543 482.996C260.227 482.973 259.911 483.02 259.616 483.134C259.321 483.248 259.055 483.426 258.838 483.655C258.62 483.884 258.455 484.158 258.355 484.458C258.256 484.758 258.224 485.076 258.262 485.39V489.107H257.002V481.9H258.262V482.983C258.57 482.596 258.967 482.289 259.418 482.087C259.87 481.885 260.364 481.795 260.858 481.824C261.258 481.808 261.657 481.877 262.028 482.028C262.399 482.18 262.733 482.409 263.008 482.7C263.283 482.992 263.492 483.339 263.621 483.718C263.75 484.097 263.796 484.5 263.756 484.898Z" fill="#558EB4"/>
<path d="M272.702 485.869H266.855C266.94 486.486 267.257 487.047 267.742 487.438C268.227 487.829 268.842 488.02 269.463 487.973C269.852 487.989 270.24 487.919 270.6 487.769C270.959 487.619 271.281 487.392 271.542 487.103L272.261 487.948C271.727 488.486 271.049 488.859 270.309 489.021C269.568 489.183 268.797 489.127 268.087 488.861C267.377 488.595 266.76 488.129 266.309 487.52C265.858 486.911 265.592 486.184 265.545 485.428C265.524 484.944 265.603 484.462 265.776 484.01C265.95 483.558 266.214 483.147 266.553 482.802C266.893 482.457 267.299 482.186 267.748 482.004C268.196 481.823 268.677 481.736 269.161 481.748C269.646 481.735 270.128 481.823 270.577 482.007C271.026 482.191 271.431 482.467 271.767 482.817C272.103 483.167 272.362 483.584 272.527 484.04C272.692 484.496 272.76 484.981 272.727 485.465C272.727 485.591 272.714 485.743 272.702 485.869ZM266.855 484.936H271.467C271.407 484.366 271.139 483.839 270.713 483.455C270.287 483.071 269.734 482.859 269.161 482.859C268.588 482.859 268.035 483.071 267.609 483.455C267.184 483.839 266.915 484.366 266.855 484.936Z" fill="#558EB4"/>
<path d="M300.901 504.567C300.775 504.706 299.779 503.95 298.683 502.891C297.587 501.833 296.793 500.875 296.919 500.737C297.045 500.598 298.04 501.367 299.137 502.425C300.233 503.483 301.027 504.441 300.901 504.567Z" fill="#558EB4"/>
<path d="M447.678 495.004L462.344 487.948L454.28 464.108L436.565 460.013C434.914 459.635 433.075 459.194 431.033 458.627C428.633 457.958 426.363 456.889 424.318 455.465C421.712 453.809 419.347 451.804 417.287 449.505C415.611 447.224 412.058 448.081 412.058 450.614C412.058 453.146 416.531 459.535 424.481 464.058C432.432 468.581 418.37 470.761 413.28 471.618C408.19 472.475 392.54 475.99 391.608 477.767C390.247 480.362 392.868 482.353 397.908 481.358C402.948 480.362 418.433 478.397 418.837 481.093V481.169C417.594 483.113 416.99 485.397 417.109 487.702C417.229 490.006 418.067 492.216 419.504 494.021C422.352 497.587 426.623 502.06 429.761 501.379C435.658 500.132 447.678 495.004 447.678 495.004Z" fill="#B78876"/>
<path d="M446.783 453.058L460.53 499.54L567.264 467.107C572.713 465.443 577.774 462.708 582.153 459.064C586.532 455.419 590.14 450.938 592.766 445.882C595.391 440.827 596.982 435.298 597.446 429.62C597.909 423.942 597.235 418.228 595.463 412.814L569.293 331.38L512.454 345.492L543.652 420.84L446.783 453.058Z" fill="#558EB4"/>
<path d="M569.671 466.288L569.155 466.477L567.617 466.969L561.645 468.821L539.28 475.675L461.588 499.25L461.298 499.325L461.198 499.048C456.447 484.835 451.836 469.211 446.506 453.159L446.405 452.857L446.72 452.743L449.404 451.861L543.602 420.575L543.451 420.916C535.891 402.646 529.767 387.677 525.483 377.244C523.366 372.053 521.703 367.996 520.569 365.211C520.027 363.838 519.599 362.779 519.309 362.048C519.019 361.318 518.906 360.965 518.906 360.965C518.906 360.965 519.082 361.318 519.384 362.023L520.72 365.148C521.879 367.92 523.58 371.965 525.76 377.131C530.094 387.538 536.319 402.482 543.929 420.727L544.03 420.979L543.766 421.067L449.568 452.479L446.884 453.373L447.086 452.957C452.428 469.022 457.014 484.646 461.752 498.847L461.374 498.645L539.129 475.31L561.582 468.619L567.58 466.868L569.142 466.427L569.671 466.288Z" fill="#263238"/>
<path d="M563.384 434.385C563.283 434.385 562.577 433.213 561.153 431.437C557.415 426.794 552.331 423.423 546.6 421.785C544.408 421.155 542.997 420.979 543.009 420.865C543.343 420.805 543.684 420.805 544.017 420.865C544.926 420.95 545.827 421.102 546.714 421.319C549.657 422.032 552.454 423.251 554.979 424.922C557.507 426.593 559.72 428.696 561.519 431.134C562.064 431.869 562.552 432.644 562.98 433.453C563.17 433.736 563.307 434.052 563.384 434.385Z" fill="#263238"/>
<path d="M537.516 349.448C537.185 347.167 537.075 344.859 537.188 342.556C537.075 340.254 537.185 337.946 537.516 335.664C537.953 340.248 537.953 344.864 537.516 349.448Z" fill="#FAFAFA"/>
<path d="M558.949 350.545C557.968 348.422 557.192 346.212 556.63 343.942C555.855 341.737 555.29 339.463 554.942 337.151C556.695 341.48 558.036 345.964 558.949 350.545Z" fill="#FAFAFA"/>
<path d="M545.656 369.886C541.243 369.852 536.927 368.586 533.194 366.232C533.283 366.055 535.916 367.303 539.356 368.298C542.796 369.293 545.668 369.697 545.656 369.886Z" fill="#FAFAFA"/>
<path d="M569.898 380.52C569.948 378.306 570.218 376.103 570.704 373.943C570.974 371.742 571.459 369.572 572.153 367.466C572.096 369.684 571.826 371.891 571.347 374.056C571.081 376.254 570.595 378.419 569.898 380.52Z" fill="#FAFAFA"/>
<path d="M561.229 397.883C558.944 393.953 557.049 389.809 555.572 385.51C557.85 389.443 559.744 393.587 561.229 397.883Z" fill="#FAFAFA"/>
<path d="M557.676 413.078C555.601 412.444 553.595 411.599 551.691 410.558C549.694 409.716 547.79 408.669 546.008 407.434C548.074 408.083 550.074 408.927 551.981 409.954C553.98 410.799 555.889 411.846 557.676 413.078Z" fill="#FAFAFA"/>
<path d="M584.942 409.034C584.262 411.01 583.459 412.942 582.536 414.817C581.816 416.775 580.974 418.685 580.016 420.538C580.913 416.425 582.585 412.521 584.942 409.034Z" fill="#FAFAFA"/>
<path d="M577.357 445.637C576.447 440.975 575.979 436.237 575.958 431.487C576.506 433.8 576.848 436.157 576.979 438.53C577.321 440.883 577.448 443.261 577.357 445.637Z" fill="#FAFAFA"/>
<path d="M558.104 457.191C556.286 455.982 554.597 454.588 553.064 453.033C551.393 451.643 549.865 450.09 548.503 448.396C550.321 449.606 552.01 450.999 553.543 452.554C555.214 453.944 556.742 455.497 558.104 457.191Z" fill="#FAFAFA"/>
<path d="M524.84 460.505C522.457 464.505 519.698 468.268 516.6 471.744C517.694 469.688 518.985 467.742 520.455 465.935C521.744 463.992 523.212 462.174 524.84 460.505Z" fill="#FAFAFA"/>
<path d="M535.387 444.919C533.474 443.683 531.754 442.171 530.284 440.433C528.656 438.845 527.279 437.018 526.201 435.015C526.352 434.902 528.23 437.27 530.762 439.992C533.295 442.714 535.5 444.78 535.387 444.919Z" fill="#FAFAFA"/>
<path d="M510.3 448.459C508.703 449.102 506.965 449.315 505.26 449.077C503.543 449.055 501.86 448.595 500.371 447.741C500.447 447.552 502.576 448.232 505.298 448.421C508.019 448.61 510.3 448.27 510.3 448.459Z" fill="#FAFAFA"/>
<path d="M494.411 476.028C493.782 474.277 493.36 472.459 493.151 470.61C492.725 468.798 492.518 466.94 492.534 465.079C493.586 468.642 494.217 472.317 494.411 476.028Z" fill="#FAFAFA"/>
<path d="M475.662 485.528C471.315 483.307 467.178 480.696 463.302 477.729C465.526 478.747 467.656 479.962 469.665 481.358C471.782 482.57 473.789 483.965 475.662 485.528Z" fill="#FAFAFA"/>
<path d="M482.353 451.987C482.492 452.113 480.665 454.28 478.636 457.103C476.607 459.925 475.095 462.332 474.932 462.244C475.692 460.247 476.759 458.381 478.094 456.712C479.255 454.922 480.692 453.327 482.353 451.987Z" fill="#FAFAFA"/>
<path d="M467.863 458.35C466.56 458.063 465.313 457.565 464.171 456.876C462.938 456.38 461.797 455.682 460.794 454.81C463.331 455.589 465.72 456.785 467.863 458.35Z" fill="#FAFAFA"/>
<g opacity="0.2">
<path opacity="0.2" d="M542.758 418.912C548.453 419.492 554.161 420.084 559.843 420.802C561.825 420.947 563.777 421.371 565.639 422.062C566.565 422.423 567.409 422.967 568.119 423.662C568.829 424.357 569.392 425.189 569.772 426.107C570.128 427.037 570.166 428.059 569.881 429.014C569.596 429.969 569.004 430.802 568.197 431.386C567.39 431.799 566.49 431.996 565.584 431.956C564.678 431.916 563.799 431.642 563.031 431.159C561.506 430.189 560.079 429.07 558.772 427.82C556.21 425.701 553.231 424.143 550.028 423.247C548.569 422.969 547.159 422.477 545.845 421.785C545.188 421.42 544.661 420.861 544.336 420.184C544.011 419.507 543.905 418.745 544.03 418.005" fill="black"/>
</g>
</svg>
