<svg width="30" height="30" viewBox="0 0 24 24" fill="none" xmlns="http://www.w3.org/2000/svg">
<path d="M22.6667 23.301H1.33333C0.979711 23.301 0.640573 23.1782 0.390524 22.9597C0.140476 22.7412 0 22.4449 0 22.1359L0 1.16505C0 0.856058 0.140476 0.559724 0.390524 0.341235C0.640573 0.122746 0.979711 0 1.33333 0L22.6667 0C23.0203 0 23.3594 0.122746 23.6095 0.341235C23.8595 0.559724 24 0.856058 24 1.16505V22.1359C24 22.4449 23.8595 22.7412 23.6095 22.9597C23.3594 23.1782 23.0203 23.301 22.6667 23.301ZM5.33333 4.66019V9.32039H10.6667V4.66019H5.33333ZM5.33333 11.6505V13.9806H18.6667V11.6505H5.33333ZM5.33333 16.3107V18.6408H18.6667V16.3107H5.33333ZM13.3333 5.82524V8.15534H18.6667V5.82524H13.3333Z" fill="#397BA7"/>
</svg>
