<svg width="50" height="54" viewBox="0 0 50 54" fill="none" xmlns="http://www.w3.org/2000/svg">
<path d="M25 0.587891C11.2 0.587891 0 12.3437 0 26.8284C0 41.3132 11.2 53.069 25 53.069C38.8 53.069 50 41.3132 50 26.8284C50 12.3437 38.8 0.587891 25 0.587891ZM25 8.46006C29.15 8.46006 32.5 11.9763 32.5 16.3322C32.5 20.6882 29.15 24.2044 25 24.2044C20.85 24.2044 17.5 20.6882 17.5 16.3322C17.5 11.9763 20.85 8.46006 25 8.46006ZM25 45.7217C18.75 45.7217 13.225 42.3629 10 37.2722C10.075 32.0503 20 29.1901 25 29.1901C29.975 29.1901 39.925 32.0503 40 37.2722C36.775 42.3629 31.25 45.7217 25 45.7217Z" fill="#1E1E24"/>
</svg>
