<svg width="28" height="25" viewBox="0 0 28 25" fill="none" xmlns="http://www.w3.org/2000/svg">
<path d="M2.93968 25H25.0603C27.3223 25 28.7324 22.5452 27.6014 20.5902L16.5411 1.46626C15.4101 -0.488755 12.5899 -0.488755 11.4589 1.46626L0.398599 20.5902C-0.732403 22.5452 0.677677 25 2.93968 25ZM14 14.7104C13.1921 14.7104 12.5312 14.049 12.5312 13.2405V10.3006C12.5312 9.49214 13.1921 8.83066 14 8.83066C14.8079 8.83066 15.4688 9.49214 15.4688 10.3006V13.2405C15.4688 14.049 14.8079 14.7104 14 14.7104ZM15.4688 20.5902H12.5312V17.6503H15.4688V20.5902Z" fill="#C7424A"/>
</svg>
