<svg width="119" height="110" viewBox="0 0 119 110" fill="none" xmlns="http://www.w3.org/2000/svg">
<path d="M45.9874 109.872C72.4834 109.872 91.0594 88.704 91.0594 54.864C91.0594 21.024 72.4834 0.431994 45.9874 0.431994C19.4914 0.431994 0.915439 21.024 0.915439 54.864C0.915439 88.704 19.4914 109.872 45.9874 109.872ZM45.9874 98.208C26.9794 98.208 14.5954 81.216 14.5954 54.864C14.5954 28.368 26.9794 12.096 45.9874 12.096C64.8514 12.096 77.3794 28.368 77.3794 54.864C77.3794 81.216 64.8514 98.208 45.9874 98.208Z" fill="#558EB4"/>
<path d="M109.374 109.872C114.558 109.872 118.878 105.84 118.878 99.936C118.878 93.888 114.558 89.712 109.374 89.712C104.19 89.712 99.8704 93.888 99.8704 99.936C99.8704 105.84 104.19 109.872 109.374 109.872Z" fill="black"/>
</svg>
