<svg width="60" height="55" viewBox="0 0 60 55" fill="none" xmlns="http://www.w3.org/2000/svg">
<path d="M22.9937 54.936C36.2417 54.936 45.5297 44.352 45.5297 27.432C45.5297 10.512 36.2417 0.215997 22.9937 0.215997C9.74572 0.215997 0.457719 10.512 0.457719 27.432C0.457719 44.352 9.74572 54.936 22.9937 54.936ZM22.9937 49.104C13.4897 49.104 7.29772 40.608 7.29772 27.432C7.29772 14.184 13.4897 6.048 22.9937 6.048C32.4257 6.048 38.6897 14.184 38.6897 27.432C38.6897 40.608 32.4257 49.104 22.9937 49.104Z" fill="#558EB4"/>
<path d="M54.6872 54.936C57.2792 54.936 59.4392 52.92 59.4392 49.968C59.4392 46.944 57.2792 44.856 54.6872 44.856C52.0952 44.856 49.9352 46.944 49.9352 49.968C49.9352 52.92 52.0952 54.936 54.6872 54.936Z" fill="black"/>
</svg>
