<svg width="28" height="24" viewBox="0 0 28 24" fill="none" xmlns="http://www.w3.org/2000/svg">
<path d="M10.1791 23.42C16.0591 23.42 20.1091 19.01 20.1091 11.81C20.1091 4.61 16.0591 0.38 10.1791 0.38C4.2991 0.38 0.249102 4.58 0.249102 11.81C0.249102 19.01 4.2991 23.42 10.1791 23.42ZM10.1791 19.58C6.8791 19.58 4.7791 16.55 4.7791 11.81C4.7791 7.04 6.8791 4.19 10.1791 4.19C13.4791 4.19 15.5791 7.04 15.5791 11.81C15.5791 16.55 13.4791 19.58 10.1791 19.58Z" fill="#558EB4"/>
<path d="M24.475 23.42C26.065 23.42 27.235 22.16 27.235 20.54C27.235 18.89 26.065 17.66 24.475 17.66C22.915 17.66 21.745 18.89 21.745 20.54C21.745 22.16 22.915 23.42 24.475 23.42Z" fill="black"/>
</svg>
