<svg width="150" height="27" viewBox="0 0 150 27" fill="none" xmlns="http://www.w3.org/2000/svg">
<path d="M20.691 14.0293C20.691 16.5371 20.2691 18.7285 19.4254 20.6035C18.5816 22.4668 17.3863 23.8906 15.8395 24.875C14.2926 25.8594 12.4879 26.3516 10.4254 26.3516C8.40977 26.3516 6.62266 25.8594 5.06406 24.875C3.50547 23.8789 2.29258 22.4668 1.42539 20.6387C0.569923 18.7988 0.13047 16.6719 0.107033 14.2578V12.4121C0.107033 9.95117 0.534767 7.77734 1.39024 5.89062C2.2457 4.00391 3.45274 2.5625 5.01133 1.56641C6.58164 0.558594 8.37461 0.0546875 10.3902 0.0546875C12.441 0.0546875 14.2457 0.552734 15.8043 1.54883C17.3746 2.5332 18.5816 3.96875 19.4254 5.85547C20.2691 7.73047 20.691 9.91602 20.691 12.4121V14.0293ZM17.3336 12.377C17.3336 9.3418 16.7242 7.01562 15.5055 5.39844C14.2867 3.76953 12.5816 2.95508 10.3902 2.95508C8.25742 2.95508 6.57578 3.76953 5.34531 5.39844C4.12656 7.01562 3.49961 9.26562 3.46445 12.1484V14.0293C3.46445 16.9707 4.07969 19.2852 5.31016 20.9727C6.55235 22.6484 8.25742 23.4863 10.4254 23.4863C12.6051 23.4863 14.2926 22.6953 15.4879 21.1133C16.6832 19.5195 17.2984 17.2402 17.3336 14.2754V12.377Z" fill="#558EB4"/>
<path d="M39.6611 19.0977H35.6533V26H33.3916V8.9375H39.04C40.9619 8.9375 42.4384 9.375 43.4697 10.25C44.5088 11.125 45.0283 12.3984 45.0283 14.0703C45.0283 15.1328 44.7392 16.0586 44.1611 16.8477C43.5908 17.6367 42.7939 18.2266 41.7705 18.6172L45.7783 25.8594V26H43.3642L39.6611 19.0977ZM35.6533 17.2578H39.1103C40.2275 17.2578 41.1142 16.9688 41.7705 16.3906C42.4345 15.8125 42.7666 15.0391 42.7666 14.0703C42.7666 13.0156 42.4502 12.207 41.8173 11.6445C41.1923 11.082 40.2861 10.7969 39.0986 10.7891H35.6533V17.2578ZM64.8039 10.7891H59.3195V26H57.0813V10.7891H51.6086V8.9375H64.8039V10.7891ZM75.5092 26H73.2592V8.9375H75.5092V26ZM97.945 20.5859C97.7341 22.3906 97.0661 23.7852 95.9411 24.7695C94.8239 25.7461 93.3356 26.2344 91.4762 26.2344C89.4606 26.2344 87.8434 25.5117 86.6247 24.0664C85.4137 22.6211 84.8083 20.6875 84.8083 18.2656V16.625C84.8083 15.0391 85.0895 13.6445 85.652 12.4414C86.2223 11.2383 87.027 10.3164 88.0661 9.67578C89.1052 9.02734 90.3083 8.70312 91.6755 8.70312C93.488 8.70312 94.9411 9.21094 96.0348 10.2266C97.1286 11.2344 97.7653 12.6328 97.945 14.4219H95.6833C95.488 13.0625 95.0622 12.0781 94.4059 11.4688C93.7575 10.8594 92.8473 10.5547 91.6755 10.5547C90.238 10.5547 89.1091 11.0859 88.2887 12.1484C87.4762 13.2109 87.07 14.7227 87.07 16.6836V18.3359C87.07 20.1875 87.4567 21.6602 88.2302 22.7539C89.0036 23.8477 90.0856 24.3945 91.4762 24.3945C92.7262 24.3945 93.6833 24.1133 94.3473 23.5508C95.0192 22.9805 95.4645 21.9922 95.6833 20.5859H97.945ZM109.049 24.1602H117.135V26H106.787V8.9375H109.049V24.1602ZM135.106 18.1133H127.711V24.1602H136.301V26H125.461V8.9375H136.184V10.7891H127.711V16.2734H135.106V18.1133ZM144.498 16.9531C144.498 16.2734 144.713 15.7148 145.143 15.2773C145.58 14.8398 146.159 14.6211 146.877 14.6211C147.588 14.6211 148.166 14.8359 148.612 15.2656C149.057 15.6875 149.28 16.2617 149.28 16.9883V17.4219C149.28 18.1016 149.065 18.6562 148.635 19.0859C148.205 19.5156 147.623 19.7305 146.889 19.7305C146.163 19.7305 145.58 19.5156 145.143 19.0859C144.713 18.6484 144.498 18.0859 144.498 17.3984V16.9531Z" fill="#1E1E24"/>
</svg>
