<svg width="500" height="500" viewBox="0 0 500 500" fill="none" xmlns="http://www.w3.org/2000/svg">
<path d="M157.27 62.72H190.56V115.79H153.2V66.79C153.2 65.7105 153.629 64.6753 154.392 63.912C155.155 63.1488 156.191 62.72 157.27 62.72V62.72Z" fill="#E0E0E0"/>
<path d="M204.65 69.3L178.85 69.19L103.5 68.84H94.42L71.84 68.73C66.4692 68.698 61.3053 70.7989 57.4822 74.5714C53.6592 78.3438 51.4897 83.4792 51.45 88.85L50.07 413.59C50.0621 416.252 50.5786 418.889 51.59 421.352C52.6014 423.814 54.0878 426.053 55.9645 427.941C57.8412 429.828 60.0713 431.328 62.5276 432.354C64.9838 433.38 67.6181 433.912 70.28 433.92L203.09 434.53C205.753 434.546 208.393 434.037 210.858 433.032C213.324 432.027 215.568 430.547 217.462 428.674C219.355 426.802 220.861 424.575 221.894 422.121C222.927 419.667 223.466 417.033 223.48 414.37L224.86 89.63C224.873 84.2548 222.752 79.0943 218.963 75.2822C215.173 71.4702 210.025 69.3185 204.65 69.3V69.3Z" fill="#F5F5F5"/>
<path d="M197.79 116.36C197.79 116.68 169.79 116.93 135.15 116.93C100.51 116.93 72.5 116.68 72.5 116.36C72.5 116.04 100.5 115.78 135.15 115.78C169.8 115.78 197.79 116 197.79 116.36Z" fill="#E0E0E0"/>
<path d="M202.48 132.11H71.06V140.9H202.48V132.11Z" fill="#E0E0E0"/>
<path d="M197.79 166.73C197.79 167.04 169.79 167.3 135.15 167.3C100.51 167.3 72.5 167 72.5 166.73C72.5 166.46 100.5 166.15 135.15 166.15C169.8 166.15 197.79 166.41 197.79 166.73Z" fill="#E0E0E0"/>
<path d="M197.79 182.73C197.79 183.05 169.79 183.3 135.15 183.3C100.51 183.3 72.5 183.05 72.5 182.73C72.5 182.41 100.5 182.15 135.15 182.15C169.8 182.15 197.79 182.41 197.79 182.73Z" fill="#E0E0E0"/>
<path d="M197.79 198.73C197.79 199.05 169.79 199.3 135.15 199.3C100.51 199.3 72.5 199.05 72.5 198.73C72.5 198.41 100.5 198.16 135.15 198.16C169.8 198.16 197.79 198.41 197.79 198.73Z" fill="#E0E0E0"/>
<path d="M197.79 214.73C197.79 215.05 169.79 215.31 135.15 215.31C100.51 215.31 72.5 215.05 72.5 214.73C72.5 214.41 100.5 214.16 135.15 214.16C169.8 214.16 197.79 214.42 197.79 214.73Z" fill="#E0E0E0"/>
<path d="M197.79 230.74C197.79 231.05 169.79 231.31 135.15 231.31C100.51 231.31 72.5 231.05 72.5 230.74C72.5 230.43 100.5 230.16 135.15 230.16C169.8 230.16 197.79 230.42 197.79 230.74Z" fill="#E0E0E0"/>
<path d="M199.59 248.88C199.59 249.2 171.53 249.46 136.94 249.46C102.35 249.46 74.29 249.2 74.29 248.88C74.29 248.56 102.34 248.31 136.94 248.31C171.54 248.31 199.59 248.56 199.59 248.88Z" fill="#E0E0E0"/>
<path d="M204.4 278.44H72.65V405.9H204.4V278.44Z" fill="#EBEBEB"/>
<path d="M161.82 316.64C161.82 318.515 161.264 320.348 160.222 321.907C159.181 323.466 157.7 324.681 155.968 325.398C154.236 326.116 152.329 326.304 150.491 325.938C148.652 325.572 146.962 324.669 145.637 323.343C144.311 322.018 143.408 320.328 143.042 318.489C142.676 316.651 142.864 314.744 143.582 313.012C144.299 311.28 145.514 309.799 147.073 308.758C148.632 307.716 150.465 307.16 152.34 307.16C153.585 307.16 154.818 307.405 155.968 307.882C157.118 308.358 158.163 309.056 159.043 309.937C159.924 310.817 160.622 311.862 161.098 313.012C161.575 314.162 161.82 315.395 161.82 316.64V316.64Z" fill="#E0E0E0"/>
<path d="M194.22 288.42L82.91 288.33C83.03 288.19 81.71 289.53 82.27 288.98V303.4C82.27 308.18 82.27 312.91 82.27 317.59C82.27 326.963 82.27 336.12 82.27 345.06C82.27 362.91 82.27 379.79 82.33 395.31V395.86H82.88L163.72 395.58L186.29 395.44L192.21 395.38H193.71C193.873 395.394 194.037 395.394 194.2 395.38L167.2 349.13L149.09 371.39L119.31 329.4L83.45 394.74C83.45 379.37 83.45 362.69 83.51 345.06C83.51 336.127 83.51 326.97 83.51 317.59C83.51 312.923 83.51 308.193 83.51 303.4V289.59L193.66 289.5C193.77 321.09 193.87 347.41 193.93 365.92C193.99 375.2 194.04 382.51 194.07 387.57C194.07 390.03 194.07 391.95 194.14 393.3C194.14 393.92 194.14 394.41 194.14 394.79C194.128 394.963 194.128 395.137 194.14 395.31C194.155 395.157 194.155 395.003 194.14 394.85C194.14 394.48 194.14 394.02 194.14 393.42C194.14 392.09 194.14 390.21 194.2 387.79C194.2 382.79 194.28 375.49 194.34 366.26C194.41 347.56 194.5 320.93 194.62 288.96V288.42H194.22Z" fill="#E0E0E0"/>
<path d="M203.12 68.19C203.121 67.4721 202.981 66.7611 202.707 66.0975C202.433 65.4339 202.031 64.8308 201.524 64.3227C201.017 63.8146 200.415 63.4116 199.752 63.1366C199.089 62.8615 198.378 62.72 197.66 62.72H159.73C160.447 62.7187 161.156 62.8587 161.819 63.132C162.481 63.4053 163.083 63.8065 163.59 64.3127C164.097 64.8189 164.5 65.4202 164.774 66.082C165.049 66.7439 165.19 67.4534 165.19 68.17V121.42L184.19 110.73L203.19 120.47C203.19 120.47 203.06 82.61 203.12 68.19Z" fill="#EBEBEB"/>
<path d="M185.39 82.64L186.71 85.32C186.766 85.4295 186.846 85.5245 186.945 85.5974C187.044 85.6703 187.159 85.7191 187.28 85.74L190.28 86.17C190.419 86.1914 190.549 86.251 190.656 86.342C190.763 86.4331 190.843 86.5521 190.887 86.6858C190.93 86.8195 190.936 86.9626 190.903 87.0993C190.87 87.236 190.8 87.3608 190.7 87.46L188.56 89.54C188.473 89.6261 188.407 89.7318 188.369 89.8483C188.331 89.9648 188.321 90.0888 188.34 90.21L188.85 93.21C188.873 93.3493 188.857 93.4923 188.804 93.6231C188.751 93.7539 188.662 93.8671 188.547 93.9502C188.433 94.0333 188.298 94.0829 188.157 94.0935C188.016 94.104 187.875 94.0751 187.75 94.01L185.1 92.62C184.993 92.5613 184.872 92.5306 184.75 92.5306C184.628 92.5306 184.507 92.5613 184.4 92.62L181.71 94C181.585 94.0664 181.444 94.0963 181.303 94.0862C181.163 94.0761 181.027 94.0264 180.913 93.9428C180.799 93.8592 180.712 93.7451 180.66 93.6137C180.608 93.4823 180.594 93.3388 180.62 93.2L181.12 90.2C181.139 90.0788 181.129 89.9548 181.091 89.8383C181.053 89.7218 180.987 89.616 180.9 89.53L178.76 87.45C178.66 87.3508 178.59 87.226 178.557 87.0893C178.524 86.9526 178.53 86.8095 178.573 86.6758C178.617 86.5421 178.697 86.4231 178.804 86.332C178.911 86.241 179.041 86.1814 179.18 86.16L182.18 85.73C182.301 85.7099 182.416 85.6614 182.515 85.5884C182.614 85.5154 182.695 85.42 182.75 85.31L184 82.64C184.06 82.5053 184.157 82.3909 184.28 82.3106C184.404 82.2303 184.548 82.1875 184.695 82.1875C184.842 82.1875 184.986 82.2303 185.11 82.3106C185.233 82.3909 185.33 82.5053 185.39 82.64V82.64Z" fill="white"/>
<path d="M421.65 66.65L395.85 66.53L320.49 66.19H311.42L288.84 66C286.176 65.9829 283.536 66.4909 281.068 67.495C278.601 68.4991 276.356 69.9797 274.462 71.852C272.567 73.7243 271.06 75.9516 270.027 78.4067C268.994 80.8617 268.454 83.4964 268.44 86.16L267.06 410.9C267.047 416.275 269.168 421.436 272.957 425.248C276.747 429.06 281.895 431.211 287.27 431.23L420.08 431.84C422.744 431.857 425.384 431.349 427.852 430.345C430.319 429.341 432.564 427.86 434.458 425.988C436.353 424.116 437.86 421.888 438.893 419.433C439.926 416.978 440.466 414.344 440.48 411.68L441.85 87C441.862 84.3369 441.349 81.6976 440.339 79.233C439.33 76.7685 437.845 74.5271 435.969 72.637C434.093 70.7469 431.863 69.2453 429.406 68.218C426.949 67.1907 424.313 66.6579 421.65 66.65Z" fill="#F5F5F5"/>
<path d="M414.79 113.71C414.79 114.02 386.74 114.28 352.14 114.28C317.54 114.28 289.49 114.02 289.49 113.71C289.49 113.4 317.54 113.13 352.14 113.13C386.74 113.13 414.79 113.39 414.79 113.71Z" fill="#E0E0E0"/>
<path d="M419.48 129.46H288.06V138.25H419.48V129.46Z" fill="#E0E0E0"/>
<path d="M414.79 164.07C414.79 164.39 386.74 164.65 352.14 164.65C317.54 164.65 289.49 164.39 289.49 164.07C289.49 163.75 317.54 163.5 352.14 163.5C386.74 163.5 414.79 163.75 414.79 164.07Z" fill="#E0E0E0"/>
<path d="M414.79 180.07C414.79 180.39 386.74 180.65 352.14 180.65C317.54 180.65 289.49 180.39 289.49 180.07C289.49 179.75 317.54 179.5 352.14 179.5C386.74 179.5 414.79 179.76 414.79 180.07Z" fill="#E0E0E0"/>
<path d="M414.79 196.08C414.79 196.39 386.74 196.65 352.14 196.65C317.54 196.65 289.49 196.39 289.49 196.08C289.49 195.77 317.54 195.5 352.14 195.5C386.74 195.5 414.79 195.76 414.79 196.08Z" fill="#E0E0E0"/>
<path d="M414.79 212.08C414.79 212.4 386.74 212.65 352.14 212.65C317.54 212.65 289.49 212.4 289.49 212.08C289.49 211.76 317.54 211.5 352.14 211.5C386.74 211.5 414.79 211.76 414.79 212.08Z" fill="#E0E0E0"/>
<path d="M414.79 228.08C414.79 228.4 386.74 228.66 352.14 228.66C317.54 228.66 289.49 228.4 289.49 228.08C289.49 227.76 317.54 227.51 352.14 227.51C386.74 227.51 414.79 227.76 414.79 228.08Z" fill="#E0E0E0"/>
<path d="M416.58 246.23C416.58 246.54 388.53 246.8 353.94 246.8C319.35 246.8 291.28 246.54 291.28 246.23C291.28 245.92 319.33 245.65 353.94 245.65C388.55 245.65 416.58 245.91 416.58 246.23Z" fill="#E0E0E0"/>
<path d="M421.4 275.78H289.65V403.24H421.4V275.78Z" fill="#EBEBEB"/>
<path d="M378.81 314C378.81 315.875 378.254 317.708 377.212 319.267C376.171 320.826 374.69 322.041 372.958 322.758C371.226 323.476 369.319 323.664 367.481 323.298C365.642 322.932 363.952 322.029 362.627 320.703C361.301 319.378 360.398 317.688 360.032 315.849C359.666 314.01 359.854 312.104 360.572 310.372C361.289 308.64 362.504 307.159 364.063 306.118C365.622 305.076 367.455 304.52 369.33 304.52C371.844 304.52 374.256 305.519 376.033 307.297C377.811 309.074 378.81 311.486 378.81 314V314Z" fill="#E0E0E0"/>
<path d="M411.21 285.77L299.9 285.68L299.26 286.32V314.94C299.26 324.3 299.26 333.48 299.26 342.4C299.26 360.26 299.26 377.13 299.32 392.66V393.21H299.86L380.7 392.93L403.28 392.78L409.19 392.72H410.69C410.853 392.735 411.017 392.735 411.18 392.72L384.18 346.46L366.07 368.73L336.3 326.74L300.44 392.08C300.44 376.72 300.44 360.08 300.5 342.4C300.5 333.48 300.5 324.3 300.5 314.94V286.94L410.65 286.85C410.77 318.44 410.86 344.77 410.93 363.28C410.99 372.56 411.04 379.87 411.07 384.92C411.07 387.39 411.12 389.3 411.13 390.66C411.13 391.28 411.13 391.77 411.13 392.15C411.118 392.323 411.118 392.497 411.13 392.67C411.144 392.517 411.144 392.363 411.13 392.21C411.13 391.84 411.13 391.37 411.13 390.78C411.13 389.45 411.13 387.57 411.19 385.15C411.19 380.15 411.28 372.85 411.33 363.62C411.4 344.92 411.5 318.29 411.61 286.32V285.78L411.21 285.77Z" fill="#E0E0E0"/>
<path d="M254.43 36L228.63 35.88L153.27 35.53H144.2L121.62 35.43C118.956 35.4129 116.316 35.9209 113.848 36.925C111.381 37.9291 109.136 39.4097 107.242 41.282C105.347 43.1542 103.84 45.3816 102.807 47.8367C101.774 50.2917 101.234 52.9264 101.22 55.59L99.84 380.27C99.8267 385.645 101.948 390.806 105.737 394.618C109.527 398.43 114.675 400.581 120.05 400.6L252.87 401.22C258.247 401.249 263.415 399.142 267.239 395.362C271.063 391.581 273.228 386.437 273.26 381.06L274.64 56.32C274.651 50.9466 272.528 45.7886 268.739 41.9787C264.95 38.1688 259.803 36.0185 254.43 36V36Z" fill="#FAFAFA"/>
<path d="M254.43 36H255.11H255.95C256.339 36.0103 256.727 36.0504 257.11 36.12L258.59 36.35L260.36 36.81C260.98 37.01 261.65 37.27 262.36 37.54C263.07 37.81 263.81 38.18 264.55 38.65C266.234 39.622 267.77 40.831 269.11 42.24C270.756 43.9491 272.074 45.9454 273 48.13C274.107 50.6531 274.688 53.3749 274.71 56.13C274.71 59.05 274.71 62.13 274.71 65.46C274.62 91.84 274.48 130.01 274.32 177.17C274.16 224.33 273.91 280.49 273.67 342.84C273.67 350.633 273.64 358.523 273.58 366.51C273.58 370.51 273.563 374.51 273.53 378.51C273.53 379.51 273.53 380.51 273.53 381.51L273.44 383.05L273.21 384.57C272.851 386.602 272.176 388.566 271.21 390.39C270.244 392.226 269.014 393.91 267.56 395.39C266.074 396.845 264.391 398.084 262.56 399.07C260.701 400.029 258.709 400.703 256.65 401.07L255.09 401.3L253.52 401.38C252.52 401.43 251.43 401.38 250.39 401.38L225.18 401.26L120.18 400.78C115.595 400.755 111.149 399.207 107.54 396.38C103.954 393.573 101.409 389.649 100.31 385.23C99.796 383.049 99.5874 380.808 99.69 378.57V371.93C99.69 367.523 99.71 363.127 99.75 358.74C99.8167 341.22 99.89 323.967 99.97 306.98C100.12 273.05 100.26 240.32 100.4 209.13C100.54 177.94 100.67 148.32 100.8 120.59C100.86 106.73 100.92 93.3533 100.98 80.46C100.98 74.0266 101.01 67.7233 101.07 61.55C101.07 60.01 101.07 58.48 101.07 56.95C101.07 56.19 101.07 55.43 101.07 54.66L101.14 53.52C101.14 53.14 101.25 52.76 101.3 52.39C101.99 48.0106 104.093 43.9769 107.288 40.904C110.484 37.8311 114.597 35.8876 119 35.37C120.392 35.2274 121.791 35.174 123.19 35.21H127.32H135.4L165.4 35.37L213.45 35.64L243.82 35.83L251.72 35.89H254.41H243.84L213.47 35.8L165.42 35.62L135.42 35.5H127.34H123.22C121.835 35.4582 120.448 35.5117 119.07 35.66C114.735 36.1784 110.689 38.101 107.549 41.1345C104.409 44.1679 102.348 48.1454 101.68 52.46C101.68 52.83 101.55 53.2 101.52 53.57L101.46 54.7C101.46 55.44 101.46 56.21 101.46 56.97C101.46 58.5 101.46 60.03 101.46 61.57C101.46 67.7366 101.437 74.0433 101.39 80.49C101.343 93.3633 101.29 106.737 101.23 120.61C101.12 148.34 101 177.97 100.88 209.16C100.76 240.35 100.62 273.07 100.48 307.01C100.413 323.97 100.34 341.223 100.26 358.77C100.26 363.15 100.26 367.547 100.26 371.96C100.26 374.16 100.26 376.37 100.26 378.59C100.156 380.784 100.361 382.983 100.87 385.12C101.923 389.424 104.388 393.25 107.87 395.99C111.388 398.746 115.721 400.255 120.19 400.28L225.19 400.77L250.4 400.89C251.4 400.89 252.49 400.89 253.51 400.89L255.05 400.81L256.57 400.59C258.582 400.214 260.527 399.539 262.34 398.59C264.131 397.629 265.777 396.42 267.23 395C268.648 393.557 269.851 391.917 270.8 390.13C271.744 388.351 272.402 386.434 272.75 384.45L272.98 382.97L273.06 381.47C273.12 380.47 273.06 379.47 273.06 378.47L273.12 366.42C273.12 358.42 273.153 350.533 273.22 342.76C273.51 280.4 273.76 224.25 273.98 177.09C274.2 129.93 274.4 91.76 274.54 65.38C274.54 62.09 274.54 58.97 274.54 56.05C274.523 53.3212 273.955 50.6239 272.87 48.12C271.931 45.9921 270.621 44.0484 269 42.38C267.67 40.9728 266.144 39.7638 264.47 38.79C263.74 38.32 262.98 38.03 262.3 37.67C261.62 37.31 260.93 37.14 260.3 36.93L258.55 36.47L257.08 36.22C256.697 36.1481 256.309 36.1046 255.92 36.09L255.08 36.04L254.43 36Z" fill="#263238"/>
<path d="M252.26 256.95H120.84V265.74H252.26V256.95Z" fill="#558EB4"/>
<path d="M247.57 291.56C247.57 291.88 219.57 292.14 184.92 292.14C150.27 292.14 122.27 291.88 122.27 291.56C122.27 291.24 150.32 290.99 184.92 290.99C219.52 290.99 247.57 291.24 247.57 291.56Z" fill="#263238"/>
<path d="M247.57 83C247.57 83.32 219.57 83.58 184.92 83.58C150.27 83.58 122.27 83.32 122.27 83C122.27 82.68 150.32 82.43 184.92 82.43C219.52 82.43 247.57 82.72 247.57 83Z" fill="#263238"/>
<path d="M247.57 307.56C247.57 307.88 219.57 308.14 184.92 308.14C150.27 308.14 122.27 307.88 122.27 307.56C122.27 307.24 150.32 306.99 184.92 306.99C219.52 306.99 247.57 307.25 247.57 307.56Z" fill="#263238"/>
<path d="M247.57 323.57C247.57 323.88 219.57 324.14 184.92 324.14C150.27 324.14 122.27 323.88 122.27 323.57C122.27 323.26 150.32 322.99 184.92 322.99C219.52 322.99 247.57 323.25 247.57 323.57Z" fill="#263238"/>
<path d="M247.57 339.57C247.57 339.89 219.57 340.14 184.92 340.14C150.27 340.14 122.27 339.89 122.27 339.57C122.27 339.25 150.32 338.99 184.92 338.99C219.52 338.99 247.57 339.25 247.57 339.57Z" fill="#263238"/>
<path d="M247.57 355.57C247.57 355.89 219.57 356.15 184.92 356.15C150.27 356.15 122.27 355.89 122.27 355.57C122.27 355.25 150.32 355 184.92 355C219.52 355 247.57 355.25 247.57 355.57Z" fill="#263238"/>
<path d="M249.36 373.72C249.36 374.03 221.31 374.29 186.72 374.29C152.13 374.29 124.07 374.03 124.07 373.72C124.07 373.41 152.07 373.14 186.72 373.14C221.37 373.14 249.36 373.4 249.36 373.72Z" fill="#263238"/>
<path d="M254.02 101.29H122.27V228.75H254.02V101.29Z" fill="#455A64"/>
<g opacity="0.3">
<path opacity="0.3" d="M211.44 139.49C211.438 141.366 210.879 143.2 209.835 144.758C208.79 146.317 207.306 147.53 205.572 148.245C203.837 148.96 201.929 149.144 200.09 148.774C198.25 148.403 196.562 147.496 195.239 146.166C193.916 144.835 193.017 143.142 192.657 141.301C192.296 139.46 192.49 137.553 193.214 135.822C193.938 134.091 195.159 132.614 196.723 131.577C198.287 130.541 200.124 129.992 202 130C204.509 130.011 206.912 131.015 208.681 132.794C210.451 134.573 211.443 136.981 211.44 139.49Z" fill="black"/>
</g>
<path d="M323.81 479.11L193.26 479C185.721 478.995 178.492 475.996 173.163 470.663C167.833 465.33 164.84 458.099 164.84 450.56L164.91 123.26C164.91 119.525 165.646 115.826 167.076 112.376C168.506 108.925 170.602 105.79 173.244 103.15C175.886 100.51 179.022 98.416 182.474 96.9884C185.926 95.5609 189.625 94.8275 193.36 94.8301L323.91 94.9101C327.643 94.9114 331.34 95.6481 334.789 97.078C338.238 98.508 341.371 100.603 344.01 103.244C346.649 105.885 348.742 109.02 350.17 112.47C351.597 115.919 352.331 119.617 352.33 123.35L352.27 450.65C352.272 454.388 351.538 458.09 350.109 461.544C348.68 464.998 346.583 468.137 343.94 470.78C341.297 473.423 338.158 475.52 334.704 476.949C331.25 478.378 327.548 479.113 323.81 479.11V479.11Z" fill="#263238"/>
<path d="M323.77 106.51H298.46C297.635 106.528 296.822 106.709 296.067 107.041C295.312 107.374 294.63 107.852 294.06 108.448C293.49 109.044 293.042 109.747 292.744 110.516C292.445 111.285 292.301 112.105 292.32 112.93V117.52C292.338 118.345 292.194 119.165 291.896 119.934C291.597 120.703 291.15 121.406 290.58 122.002C290.01 122.598 289.328 123.076 288.573 123.409C287.818 123.741 287.005 123.922 286.18 123.94H236.84C235.173 123.898 233.591 123.198 232.439 121.994C231.286 120.789 230.658 119.177 230.69 117.51V112.92C230.71 112.095 230.567 111.273 230.269 110.503C229.971 109.733 229.524 109.029 228.954 108.432C228.383 107.834 227.701 107.355 226.945 107.022C226.189 106.689 225.375 106.508 224.55 106.49H193.48C190.864 106.489 188.274 107.003 185.858 108.003C183.441 109.003 181.245 110.469 179.395 112.318C177.545 114.167 176.078 116.362 175.076 118.779C174.075 121.195 173.56 123.785 173.56 126.4L173.49 445.86C173.489 448.476 174.003 451.066 175.003 453.482C176.003 455.899 177.469 458.095 179.318 459.945C181.167 461.795 183.362 463.262 185.778 464.264C188.195 465.265 190.784 465.78 193.4 465.78L323.69 465.86C326.306 465.861 328.896 465.347 331.314 464.348C333.731 463.348 335.928 461.882 337.778 460.033C339.629 458.184 341.097 455.989 342.1 453.572C343.102 451.156 343.619 448.566 343.62 445.95L343.68 126.48C343.685 123.861 343.174 121.267 342.176 118.846C341.178 116.424 339.713 114.223 337.864 112.369C336.015 110.514 333.818 109.042 331.4 108.037C328.982 107.031 326.389 106.513 323.77 106.51V106.51Z" fill="#FAFAFA"/>
<path d="M249 439C249.006 439.497 248.864 439.985 248.592 440.402C248.32 440.818 247.931 441.144 247.474 441.339C247.016 441.534 246.511 441.589 246.022 441.496C245.534 441.404 245.084 441.168 244.729 440.819C244.375 440.47 244.132 440.024 244.032 439.537C243.931 439.05 243.978 438.544 244.165 438.084C244.353 437.623 244.673 437.228 245.085 436.95C245.497 436.672 245.983 436.522 246.48 436.52C246.808 436.517 247.134 436.58 247.438 436.703C247.742 436.826 248.019 437.008 248.253 437.238C248.487 437.468 248.674 437.743 248.802 438.045C248.93 438.347 248.997 438.672 249 439V439Z" fill="#263238"/>
<path d="M263 438.89C263.004 439.385 262.861 439.869 262.59 440.282C262.318 440.696 261.93 441.019 261.475 441.212C261.02 441.405 260.518 441.458 260.032 441.366C259.546 441.273 259.099 441.039 258.746 440.692C258.394 440.345 258.152 439.902 258.052 439.417C257.952 438.933 257.997 438.43 258.183 437.972C258.368 437.514 258.685 437.121 259.094 436.843C259.503 436.565 259.985 436.414 260.48 436.41C261.141 436.41 261.776 436.67 262.248 437.134C262.719 437.598 262.989 438.229 263 438.89V438.89Z" fill="#263238"/>
<path d="M276.308 440.525C277.272 439.537 277.253 437.954 276.265 436.989C275.277 436.025 273.694 436.044 272.73 437.032C271.765 438.02 271.784 439.603 272.772 440.567C273.76 441.532 275.343 441.513 276.308 440.525Z" fill="#263238"/>
<path d="M318.79 318.91H197.74V326.82H318.79V318.91Z" fill="#558EB4"/>
<path d="M317.06 344.92C317.06 345.2 289.88 345.44 256.37 345.44C222.86 345.44 195.67 345.2 195.67 344.92C195.67 344.64 222.84 344.4 256.37 344.4C289.9 344.4 317.06 344.63 317.06 344.92Z" fill="#263238"/>
<path d="M317.06 359.32C317.06 359.6 289.88 359.83 256.37 359.83C222.86 359.83 195.67 359.6 195.67 359.32C195.67 359.04 222.84 358.8 256.37 358.8C289.9 358.8 317.06 359 317.06 359.32Z" fill="#263238"/>
<path d="M317.06 373.71C317.06 374 289.88 374.23 256.37 374.23C222.86 374.23 195.67 374 195.67 373.71C195.67 373.42 222.84 373.2 256.37 373.2C289.9 373.2 317.06 373.43 317.06 373.71Z" fill="#263238"/>
<path d="M317.06 388.11C317.06 388.39 289.88 388.63 256.37 388.63C222.86 388.63 195.67 388.39 195.67 388.11C195.67 387.83 222.84 387.59 256.37 387.59C289.9 387.59 317.06 387.82 317.06 388.11Z" fill="#263238"/>
<path d="M317.06 402.5C317.06 402.79 289.88 403.02 256.37 403.02C222.86 403.02 195.67 402.79 195.67 402.5C195.67 402.21 222.84 401.99 256.37 401.99C289.9 401.99 317.06 402.22 317.06 402.5Z" fill="#263238"/>
<path d="M318.79 418.83C318.79 419.11 291.62 419.34 258.11 419.34C224.6 419.34 197.41 419.11 197.41 418.83C197.41 418.55 224.58 418.31 258.11 418.31C291.64 418.31 318.79 418.54 318.79 418.83Z" fill="#263238"/>
<g opacity="0.3">
<path opacity="0.3" d="M302.43 260.8C302.43 261.591 302.195 262.365 301.756 263.022C301.316 263.68 300.691 264.193 299.961 264.496C299.23 264.798 298.425 264.878 297.649 264.723C296.874 264.569 296.161 264.188 295.601 263.629C295.042 263.069 294.661 262.356 294.507 261.58C294.352 260.805 294.432 260 294.734 259.269C295.037 258.538 295.55 257.914 296.208 257.474C296.865 257.035 297.639 256.8 298.43 256.8C299.491 256.8 300.508 257.222 301.258 257.972C302.008 258.722 302.43 259.739 302.43 260.8Z" fill="black"/>
</g>
<path d="M320.93 149.12C320.133 149.148 319.347 148.937 318.671 148.515C317.995 148.093 317.46 147.478 317.136 146.75C316.812 146.022 316.712 145.214 316.85 144.429C316.989 143.644 317.358 142.918 317.911 142.345C318.465 141.771 319.177 141.376 319.957 141.21C320.736 141.044 321.547 141.115 322.286 141.413C323.026 141.711 323.659 142.223 324.105 142.884C324.551 143.544 324.789 144.323 324.79 145.12C324.795 145.902 324.577 146.669 324.16 147.33L324.78 148.8C324.799 148.832 324.81 148.868 324.81 148.905C324.81 148.942 324.799 148.979 324.78 149.01C324.75 149.03 324.715 149.04 324.68 149.04C324.644 149.04 324.609 149.03 324.58 149.01L323.2 148.37C322.547 148.864 321.749 149.127 320.93 149.12V149.12ZM320.93 141.43C319.959 141.43 319.028 141.816 318.342 142.502C317.655 143.188 317.27 144.119 317.27 145.09C317.27 146.061 317.655 146.992 318.342 147.678C319.028 148.364 319.959 148.75 320.93 148.75C321.684 148.739 322.413 148.475 323 148C323.027 147.983 323.058 147.974 323.09 147.974C323.122 147.974 323.153 147.983 323.18 148L324.24 148.49L323.77 147.35C323.755 147.322 323.747 147.291 323.747 147.26C323.747 147.229 323.755 147.198 323.77 147.17C324.182 146.555 324.402 145.831 324.4 145.09C324.419 144.146 324.065 143.233 323.416 142.548C322.766 141.863 321.873 141.461 320.93 141.43Z" fill="#263238"/>
<path d="M334.79 149.26C334.774 149.267 334.757 149.27 334.74 149.27C334.723 149.27 334.706 149.267 334.69 149.26L331.87 147.26L329.06 149.26C329.031 149.277 328.998 149.286 328.965 149.286C328.931 149.286 328.899 149.277 328.87 149.26C328.843 149.243 328.821 149.219 328.805 149.191C328.79 149.163 328.781 149.132 328.78 149.1V141.63C328.78 141.582 328.799 141.537 328.833 141.503C328.866 141.469 328.912 141.45 328.96 141.45H334.79C334.838 141.45 334.883 141.469 334.917 141.503C334.951 141.537 334.97 141.582 334.97 141.63V149.1C334.969 149.133 334.959 149.165 334.941 149.193C334.924 149.221 334.899 149.244 334.87 149.26H334.79ZM331.87 146.82C331.906 146.81 331.944 146.81 331.98 146.82L334.61 148.7V141.76H329.13V148.7L331.77 146.82C331.803 146.811 331.837 146.811 331.87 146.82V146.82Z" fill="#558EB4"/>
<path d="M182.15 149.76H182.39H183.08L185.6 149.69L185.51 149.78C185.51 149.22 185.51 148.61 185.51 147.95C185.51 147.61 185.51 147.3 185.51 146.89C185.553 146.683 185.66 146.496 185.817 146.354C185.973 146.212 186.17 146.123 186.38 146.1C186.79 146.1 187.14 146.1 187.59 146.1C187.828 146.136 188.046 146.257 188.202 146.441C188.358 146.625 188.443 146.859 188.44 147.1C188.44 147.953 188.44 148.843 188.44 149.77L188.3 149.62H191.48L191.33 149.77C191.33 148.49 191.33 147.17 191.33 145.77C191.33 145.43 191.33 145.09 191.33 144.77C191.315 144.624 191.268 144.482 191.192 144.356C191.115 144.23 191.012 144.122 190.89 144.04L189.5 142.66L188.16 141.34L187.51 140.7C187.28 140.48 187.12 140.26 186.87 140.21C186.748 140.18 186.622 140.177 186.499 140.201C186.376 140.225 186.261 140.276 186.16 140.35C185.97 140.5 185.76 140.74 185.57 140.92L184.38 142C183.66 142.74 182.9 143.43 182.38 144.06C182.216 144.431 182.161 144.84 182.22 145.24V146.36C182.22 147.03 182.22 147.64 182.22 148.16C182.22 148.68 182.22 148.99 182.22 149.32C182.22 149.65 182.22 149.73 182.22 149.74C182.205 149.614 182.205 149.486 182.22 149.36C182.22 149.04 182.22 148.67 182.22 148.23C182.22 147.79 182.22 147.09 182.17 146.4C182.17 146.04 182.17 145.66 182.17 145.26C182.101 144.816 182.16 144.362 182.34 143.95C182.93 143.22 183.63 142.59 184.34 141.81L185.47 140.65C185.68 140.45 185.84 140.25 186.09 140.04C186.225 139.941 186.379 139.872 186.544 139.839C186.708 139.806 186.877 139.81 187.04 139.85C187.347 139.96 187.617 140.154 187.82 140.41L188.47 141.05L189.82 142.37C190.28 142.81 190.74 143.27 191.21 143.73C191.362 143.84 191.488 143.982 191.58 144.146C191.671 144.311 191.726 144.493 191.74 144.68C191.74 145.01 191.74 145.35 191.74 145.68C191.74 147.04 191.74 148.37 191.74 149.68V149.83H188.26V149.68C188.26 148.76 188.26 147.86 188.26 147.01C188.261 146.832 188.199 146.66 188.086 146.523C187.972 146.386 187.815 146.293 187.64 146.26C187.28 146.26 186.84 146.26 186.49 146.26C186.329 146.277 186.178 146.344 186.058 146.452C185.938 146.56 185.855 146.702 185.82 146.86C185.82 147.17 185.82 147.55 185.82 147.86V149.78H185.73H183.16H182.49C182.21 149.77 182.14 149.77 182.15 149.76Z" fill="#263238"/>
<path d="M308.72 138.21H202.75C199.922 138.21 197.63 140.502 197.63 143.33V146.43C197.63 149.258 199.922 151.55 202.75 151.55H308.72C311.548 151.55 313.84 149.258 313.84 146.43V143.33C313.84 140.502 311.548 138.21 308.72 138.21Z" fill="#E0E0E0"/>
<path d="M208.026 146.784L208.114 147.238L208.231 146.76L209.501 142.717H209.999L211.254 146.726L211.391 147.282L211.503 146.77L212.587 142.717H213.192L211.654 148H211.156L209.799 143.811L209.735 143.522L209.672 143.815L208.339 148H207.841L206.308 142.717H206.908L208.026 146.784ZM217.415 146.784L217.503 147.238L217.621 146.76L218.89 142.717H219.388L220.643 146.726L220.78 147.282L220.892 146.77L221.976 142.717H222.581L221.043 148H220.545L219.188 143.811L219.124 143.522L219.061 143.815L217.728 148H217.23L215.697 142.717H216.297L217.415 146.784ZM226.804 146.784L226.892 147.238L227.01 146.76L228.279 142.717H228.777L230.032 146.726L230.169 147.282L230.281 146.77L231.365 142.717H231.971L230.432 148H229.934L228.577 143.811L228.513 143.522L228.45 143.815L227.117 148H226.619L225.086 142.717H225.686L226.804 146.784ZM234.27 147.648C234.27 147.535 234.306 147.438 234.377 147.36C234.452 147.279 234.555 147.238 234.685 147.238C234.815 147.238 234.918 147.279 234.992 147.36C235.067 147.438 235.105 147.535 235.105 147.648C235.105 147.762 235.067 147.857 234.992 147.932C234.918 148.003 234.815 148.039 234.685 148.039C234.555 148.039 234.452 148.003 234.377 147.932C234.306 147.857 234.27 147.762 234.27 147.648ZM238.244 145.28C238.244 144.772 238.341 144.315 238.537 143.908C238.735 143.501 239.014 143.186 239.372 142.961C239.733 142.733 240.142 142.619 240.597 142.619C241.3 142.619 241.87 142.867 242.306 143.361C242.742 143.853 242.961 144.506 242.961 145.319V145.441C242.961 145.952 242.861 146.413 242.663 146.823C242.467 147.23 242.191 147.544 241.833 147.766C241.475 147.987 241.066 148.098 240.607 148.098C239.907 148.098 239.337 147.852 238.898 147.36C238.462 146.866 238.244 146.211 238.244 145.397V145.28ZM238.83 145.441C238.83 146.073 238.992 146.592 239.318 146.999C239.647 147.403 240.076 147.604 240.607 147.604C241.134 147.604 241.561 147.403 241.886 146.999C242.215 146.592 242.379 146.057 242.379 145.393V145.28C242.379 144.877 242.305 144.507 242.155 144.172C242.005 143.837 241.795 143.578 241.525 143.396C241.255 143.21 240.946 143.117 240.597 143.117C240.076 143.117 239.652 143.322 239.323 143.732C238.994 144.139 238.83 144.673 238.83 145.334V145.441ZM248.463 143.215C248.339 143.192 248.207 143.181 248.067 143.181C247.703 143.181 247.394 143.283 247.14 143.488C246.889 143.69 246.71 143.985 246.603 144.372V148H246.021V142.717H246.593L246.603 143.557C246.912 142.932 247.408 142.619 248.092 142.619C248.255 142.619 248.383 142.64 248.478 142.683L248.463 143.215ZM252.393 141.364V142.717H253.487V143.195H252.393V146.716C252.393 147.009 252.445 147.227 252.549 147.37C252.657 147.513 252.834 147.585 253.081 147.585C253.179 147.585 253.337 147.569 253.555 147.536L253.579 148.015C253.426 148.07 253.218 148.098 252.954 148.098C252.554 148.098 252.263 147.982 252.08 147.751C251.898 147.517 251.807 147.173 251.807 146.721V143.195H250.835V142.717H251.807V141.364H252.393ZM257.202 148H256.616V142.717H257.202V148ZM256.513 141.188C256.513 141.078 256.549 140.985 256.621 140.91C256.693 140.832 256.79 140.793 256.914 140.793C257.038 140.793 257.135 140.832 257.207 140.91C257.282 140.985 257.319 141.078 257.319 141.188C257.319 141.299 257.282 141.392 257.207 141.467C257.135 141.542 257.038 141.579 256.914 141.579C256.79 141.579 256.693 141.542 256.621 141.467C256.549 141.392 256.513 141.299 256.513 141.188ZM262.597 147.604C263.004 147.604 263.344 147.491 263.617 147.263C263.894 147.032 264.044 146.734 264.067 146.369H264.628C264.612 146.691 264.511 146.986 264.325 147.253C264.14 147.517 263.892 147.723 263.583 147.873C263.277 148.023 262.948 148.098 262.597 148.098C261.904 148.098 261.353 147.857 260.946 147.375C260.543 146.893 260.341 146.245 260.341 145.432V145.256C260.341 144.735 260.432 144.274 260.614 143.874C260.797 143.474 261.057 143.164 261.396 142.946C261.737 142.728 262.136 142.619 262.592 142.619C263.171 142.619 263.648 142.792 264.023 143.137C264.4 143.482 264.602 143.936 264.628 144.499H264.067C264.041 144.086 263.891 143.752 263.617 143.498C263.347 143.244 263.005 143.117 262.592 143.117C262.065 143.117 261.654 143.308 261.362 143.688C261.072 144.069 260.927 144.603 260.927 145.29V145.461C260.927 146.135 261.072 146.66 261.362 147.038C261.654 147.416 262.066 147.604 262.597 147.604ZM268.304 148H267.718V140.5H268.304V148ZM273.792 148.098C273.343 148.098 272.936 147.987 272.571 147.766C272.21 147.544 271.928 147.237 271.727 146.843C271.525 146.446 271.424 146.001 271.424 145.51V145.3C271.424 144.792 271.521 144.335 271.717 143.928C271.915 143.521 272.19 143.202 272.542 142.971C272.894 142.736 273.274 142.619 273.685 142.619C274.326 142.619 274.834 142.839 275.208 143.278C275.586 143.715 275.774 144.312 275.774 145.07V145.397H272.005V145.51C272.005 146.109 272.176 146.608 272.518 147.009C272.863 147.406 273.296 147.604 273.816 147.604C274.129 147.604 274.404 147.548 274.642 147.434C274.882 147.32 275.101 147.137 275.296 146.887L275.662 147.165C275.232 147.787 274.609 148.098 273.792 148.098ZM273.685 143.117C273.245 143.117 272.874 143.278 272.571 143.601C272.272 143.923 272.09 144.356 272.024 144.899H275.193V144.836C275.177 144.328 275.032 143.915 274.759 143.596C274.485 143.277 274.127 143.117 273.685 143.117ZM278.708 147.648C278.708 147.535 278.744 147.438 278.816 147.36C278.891 147.279 278.993 147.238 279.123 147.238C279.254 147.238 279.356 147.279 279.431 147.36C279.506 147.438 279.543 147.535 279.543 147.648C279.543 147.762 279.506 147.857 279.431 147.932C279.356 148.003 279.254 148.039 279.123 148.039C278.993 148.039 278.891 148.003 278.816 147.932C278.744 147.857 278.708 147.762 278.708 147.648ZM284.958 147.604C285.365 147.604 285.705 147.491 285.978 147.263C286.255 147.032 286.405 146.734 286.428 146.369H286.989C286.973 146.691 286.872 146.986 286.686 147.253C286.501 147.517 286.253 147.723 285.944 147.873C285.638 148.023 285.309 148.098 284.958 148.098C284.264 148.098 283.714 147.857 283.307 147.375C282.904 146.893 282.702 146.245 282.702 145.432V145.256C282.702 144.735 282.793 144.274 282.975 143.874C283.158 143.474 283.418 143.164 283.757 142.946C284.098 142.728 284.497 142.619 284.953 142.619C285.532 142.619 286.009 142.792 286.384 143.137C286.761 143.482 286.963 143.936 286.989 144.499H286.428C286.401 144.086 286.252 143.752 285.978 143.498C285.708 143.244 285.366 143.117 284.953 143.117C284.426 143.117 284.015 143.308 283.722 143.688C283.433 144.069 283.288 144.603 283.288 145.29V145.461C283.288 146.135 283.433 146.66 283.722 147.038C284.015 147.416 284.427 147.604 284.958 147.604ZM289.689 145.28C289.689 144.772 289.786 144.315 289.982 143.908C290.18 143.501 290.459 143.186 290.817 142.961C291.178 142.733 291.586 142.619 292.042 142.619C292.745 142.619 293.315 142.867 293.751 143.361C294.187 143.853 294.405 144.506 294.405 145.319V145.441C294.405 145.952 294.306 146.413 294.108 146.823C293.912 147.23 293.636 147.544 293.278 147.766C292.919 147.987 292.511 148.098 292.052 148.098C291.352 148.098 290.782 147.852 290.343 147.36C289.907 146.866 289.689 146.211 289.689 145.397V145.28ZM290.275 145.441C290.275 146.073 290.437 146.592 290.763 146.999C291.092 147.403 291.521 147.604 292.052 147.604C292.579 147.604 293.006 147.403 293.331 146.999C293.66 146.592 293.824 146.057 293.824 145.393V145.28C293.824 144.877 293.75 144.507 293.6 144.172C293.45 143.837 293.24 143.578 292.97 143.396C292.7 143.21 292.39 143.117 292.042 143.117C291.521 143.117 291.097 143.322 290.768 143.732C290.439 144.139 290.275 144.673 290.275 145.334V145.441ZM297.999 142.717L298.018 143.576C298.213 143.257 298.458 143.018 298.751 142.858C299.044 142.699 299.369 142.619 299.727 142.619C300.56 142.619 301.089 142.961 301.314 143.645C301.503 143.316 301.755 143.063 302.071 142.888C302.387 142.709 302.735 142.619 303.116 142.619C304.249 142.619 304.826 143.238 304.849 144.475V148H304.263V144.519C304.26 144.047 304.157 143.697 303.956 143.469C303.757 143.241 303.432 143.127 302.979 143.127C302.559 143.133 302.204 143.27 301.915 143.537C301.625 143.801 301.464 144.123 301.431 144.504V148H300.845V144.475C300.842 144.022 300.735 143.685 300.523 143.464C300.315 143.239 299.992 143.127 299.556 143.127C299.188 143.127 298.873 143.233 298.609 143.444C298.345 143.653 298.15 143.964 298.023 144.377V148H297.437V142.717H297.999Z" fill="black"/>
<path d="M181.92 385.23C179.195 382.611 175.855 380.719 172.207 379.729C168.56 378.739 164.721 378.682 161.046 379.565C157.371 380.447 153.977 382.24 151.176 384.779C148.375 387.317 146.258 390.519 145.02 394.09L147.69 404.42C148.69 400.9 150.88 397.5 154.24 396.05C157.6 394.6 161.79 395.4 165.37 396.7C168.95 398 172.46 399.75 176.26 399.98C180.06 400.21 184.36 398.41 185.49 394.78C186.56 391.36 184.5 387.72 181.92 385.23Z" fill="#558EB4"/>
<g opacity="0.4">
<path opacity="0.4" d="M181.92 385.23C179.195 382.611 175.855 380.719 172.207 379.729C168.56 378.739 164.721 378.682 161.046 379.565C157.371 380.447 153.977 382.24 151.176 384.779C148.375 387.317 146.258 390.519 145.02 394.09L147.69 404.42C148.69 400.9 150.88 397.5 154.24 396.05C157.6 394.6 161.79 395.4 165.37 396.7C168.95 398 172.46 399.75 176.26 399.98C180.06 400.21 184.36 398.41 185.49 394.78C186.56 391.36 184.5 387.72 181.92 385.23Z" fill="black"/>
</g>
<path d="M117.57 419.69C112 414.39 112.27 405.17 115.06 398C117.85 390.83 123.91 385.32 130.69 381.69C137.312 378.214 144.635 376.282 152.109 376.04C159.584 375.797 167.017 377.25 173.85 380.29C170.506 380.432 167.249 381.392 164.362 383.085C161.475 384.777 159.047 387.152 157.29 390C154.23 395.07 153.55 401.23 151.03 406.59C148.181 412.633 143.126 417.356 136.903 419.789C130.68 422.221 123.762 422.179 117.57 419.67" fill="#558EB4"/>
<path d="M114.89 387.86C108.72 380.57 107.89 368.86 108.8 359.36C109.71 349.86 111.92 340.28 110.42 330.85C109.53 325.26 107.36 319.93 106.63 314.31C105.9 308.69 106.93 302.36 111.28 298.73C116.28 294.57 124.15 295.55 129.35 299.46C134.55 303.37 137.56 309.51 139.76 315.63C144.6 329.08 146.37 343.99 142.4 357.72C138.43 371.45 129.1 383.72 115.4 387.86" fill="#558EB4"/>
<path d="M111.93 447.66C111.904 447.381 111.904 447.099 111.93 446.82C111.93 446.27 111.93 445.46 111.93 444.41C112.01 442.32 112.21 439.3 112.68 435.59C113.226 431.239 114.018 426.922 115.05 422.66C116.331 417.417 118.316 412.371 120.95 407.66C123.595 402.97 126.836 398.64 130.59 394.78C133.647 391.621 137.037 388.801 140.7 386.37C142.24 385.31 143.7 384.5 145.01 383.75C146.32 383 147.48 382.49 148.42 382.03L150.64 381.1C150.893 380.977 151.157 380.88 151.43 380.81C151.188 380.952 150.937 381.078 150.68 381.19C150.15 381.45 149.42 381.78 148.51 382.19C147.6 382.6 146.45 383.26 145.15 383.98C143.85 384.7 142.42 385.57 140.9 386.65C132.856 392.139 126.183 399.407 121.4 407.89C115.72 417.82 114.16 428.27 113.04 435.58C112.52 439.28 112.27 442.29 112.13 444.37C112.07 445.37 112.02 446.18 111.99 446.77C111.994 447.068 111.974 447.365 111.93 447.66V447.66Z" fill="#263238"/>
<path d="M58.67 359.11C47.25 366 47.28 372.27 49.19 378.2C51.1 384.13 58.11 388.2 63.92 386.01C67.21 384.76 69.59 381.91 71.62 379.01C73.65 376.11 75.56 373.01 78.41 371.01C80.3992 369.536 82.8671 368.859 85.33 369.11L58.67 359.11Z" fill="#558EB4"/>
<path d="M85.33 369.13L88.26 370.23C87.3896 369.626 86.3828 369.248 85.33 369.13Z" fill="#558EB4"/>
<g opacity="0.4">
<path opacity="0.4" d="M58.67 359.11C47.25 366 47.28 372.27 49.19 378.2C51.1 384.13 58.11 388.2 63.92 386.01C67.21 384.76 69.59 381.91 71.62 379.01C73.65 376.11 75.56 373.01 78.41 371.01C80.3992 369.536 82.8671 368.859 85.33 369.11L58.67 359.11Z" fill="black"/>
</g>
<path d="M91.65 372L81.06 368L85.4 368.58C86.5323 368.71 87.6146 369.119 88.55 369.77L91.65 372Z" fill="black"/>
<path d="M50.12 366.67C53.12 362.54 60.48 361.34 65.12 363.4C69.76 365.46 73.2 369.55 76.25 373.62C79.3 377.69 82.25 382.01 86.51 384.84C90.77 387.67 96.66 388.71 100.87 385.84C102.215 384.837 103.342 383.571 104.181 382.118C105.02 380.665 105.554 379.056 105.75 377.39C106.132 374.044 105.905 370.656 105.08 367.39C104.08 362.6 102.43 357.6 98.59 354.55C94.32 351.16 88.39 351 82.94 351.18C76.68 351.38 70.33 351.85 64.46 354.02C58.59 356.19 52.59 360.87 50.1 366.62" fill="#558EB4"/>
<path d="M102.43 438.51C102.417 438.427 102.417 438.343 102.43 438.26V437.52C102.43 436.84 102.43 435.89 102.34 434.69C102.26 432.18 102.16 428.63 102.04 424.26C101.92 419.89 101.72 414.62 101.4 408.81C101.08 403 100.64 396.61 99.76 389.96C99.3867 386.721 98.7547 383.518 97.87 380.38C96.9367 377.484 95.7417 374.679 94.3 372C93.0255 369.566 91.5469 367.244 89.88 365.06C88.416 363.172 86.8043 361.403 85.06 359.77C82.5055 357.441 79.6252 355.498 76.51 354C75.95 353.74 75.46 353.49 75.03 353.32L73.91 352.88L73.23 352.61L73 352.5L73.24 352.56L73.95 352.79L75.08 353.18C75.53 353.34 76.02 353.58 76.59 353.82C79.7688 355.279 82.706 357.214 85.3 359.56C87.0801 361.191 88.7254 362.964 90.22 364.86C91.9169 367.059 93.4192 369.401 94.71 371.86C96.16 374.56 97.3551 377.389 98.28 380.31C99.1824 383.469 99.8246 386.696 100.2 389.96C101.08 396.64 101.5 403.03 101.8 408.85C102.1 414.67 102.23 419.92 102.33 424.32C102.43 428.72 102.45 432.32 102.46 434.76C102.46 435.96 102.46 436.9 102.46 437.59C102.46 437.89 102.46 438.13 102.46 438.33C102.458 438.391 102.448 438.452 102.43 438.51Z" fill="#263238"/>
<path d="M106.54 443.68C105.997 442.078 105.579 440.436 105.29 438.77C104.502 434.22 104.327 429.586 104.77 424.99C105.472 418.182 106.931 411.474 109.12 404.99C111.47 397.64 114.65 389.78 117.37 381.33C118.71 377.225 119.805 373.044 120.65 368.81C121.407 364.863 121.948 360.877 122.27 356.87C122.79 350.076 122.91 343.258 122.63 336.45C122.44 330.63 122.13 325.92 121.93 322.67C121.84 321.07 121.77 319.82 121.71 318.93C121.71 318.52 121.71 318.2 121.71 317.93C121.697 317.82 121.697 317.71 121.71 317.6C121.725 317.71 121.725 317.82 121.71 317.93C121.71 318.17 121.77 318.5 121.81 318.93C121.88 319.82 121.99 321.07 122.12 322.67C122.38 325.92 122.74 330.62 122.98 336.44C123.317 343.265 123.234 350.105 122.73 356.92C122.414 360.946 121.88 364.952 121.13 368.92C120.291 373.176 119.196 377.377 117.85 381.5C115.12 389.97 111.92 397.82 109.56 405.14C107.362 411.578 105.877 418.238 105.13 425C104.659 429.566 104.78 434.175 105.49 438.71C105.77 440.31 106.03 441.55 106.25 442.38C106.35 442.77 106.42 443.09 106.48 443.38C106.512 443.477 106.532 443.578 106.54 443.68V443.68Z" fill="#263238"/>
<path d="M134.87 448.84H81.23L80 438.51H134.87V448.84Z" fill="#455A64"/>
<path d="M86.98 447.66L93.69 478.63H122.84L129.11 447.66H86.98Z" fill="#455A64"/>
<path d="M134.87 448.84C134.87 448.98 123.07 449.06 108.53 449.02C93.99 448.98 82.19 448.83 82.19 448.69C82.19 448.55 93.98 448.47 108.53 448.51C123.08 448.55 134.87 448.7 134.87 448.84Z" fill="#455A64"/>
<path d="M125.66 464.13C124.206 463.034 122.62 462.123 120.94 461.42C119.107 460.697 117.16 460.304 115.19 460.26C112.778 460.268 110.387 460.708 108.13 461.56C105.68 462.39 103.4 463.35 101.18 463.88C99.2079 464.307 97.1742 464.368 95.18 464.06C93.8356 463.866 92.5319 463.454 91.32 462.84C90.9952 462.668 90.6842 462.47 90.39 462.25C90.18 462.09 90.08 462.01 90.1 461.99C90.12 461.97 90.55 462.26 91.41 462.66C92.6262 463.182 93.9138 463.52 95.23 463.66C97.1813 463.911 99.1616 463.816 101.08 463.38C103.23 462.84 105.51 461.87 107.98 461.04C110.29 460.167 112.741 459.73 115.21 459.75C117.229 459.819 119.218 460.256 121.08 461.04C122.329 461.551 123.506 462.223 124.58 463.04C124.87 463.264 125.147 463.505 125.41 463.76C125.58 464 125.67 464.11 125.66 464.13Z" fill="#263238"/>
<path d="M125.25 466.19C123.845 465.132 122.326 464.236 120.72 463.52C118.96 462.8 117.081 462.414 115.18 462.38C112.846 462.388 110.531 462.804 108.34 463.61C105.98 464.4 103.76 465.32 101.65 465.89C99.7734 466.429 97.819 466.645 95.87 466.53C94.5548 466.459 93.2682 466.119 92.09 465.53C91.7715 465.365 91.4672 465.175 91.18 464.96C90.99 464.81 90.89 464.73 90.9 464.72C90.91 464.71 91.35 464.97 92.17 465.35C93.3476 465.855 94.6092 466.137 95.89 466.18C97.7944 466.242 99.6962 465.992 101.52 465.44C103.59 464.86 105.79 463.93 108.18 463.13C110.421 462.308 112.793 461.898 115.18 461.92C117.135 461.978 119.06 462.412 120.85 463.2C122.05 463.716 123.177 464.388 124.2 465.2C124.48 465.413 124.744 465.647 124.99 465.9C125.18 466.09 125.26 466.18 125.25 466.19Z" fill="white"/>
<path d="M126.19 462.07C124.683 460.942 123.057 459.983 121.34 459.21C119.471 458.408 117.479 457.932 115.45 457.8C112.96 457.748 110.483 458.182 108.16 459.08C105.812 460.005 103.411 460.79 100.97 461.43C98.9149 461.781 96.8151 461.781 94.76 461.43C93.3703 461.216 92.0214 460.791 90.76 460.17C90.409 460.001 90.0742 459.8 89.76 459.57C89.55 459.42 89.45 459.33 89.46 459.31C89.47 459.29 89.93 459.59 90.81 459.99C92.0889 460.53 93.4341 460.896 94.81 461.08C96.8233 461.366 98.8696 461.326 100.87 460.96C103.285 460.293 105.664 459.505 108 458.6C110.383 457.678 112.927 457.246 115.48 457.33C117.556 457.485 119.588 458.01 121.48 458.88C122.753 459.452 123.952 460.178 125.05 461.04C125.354 461.266 125.642 461.513 125.91 461.78C126.11 462 126.2 462.06 126.19 462.07Z" fill="white"/>
<path d="M135.34 448.88C135.34 449.02 123.27 449.14 108.39 449.14C93.51 449.14 81.44 449.02 81.44 448.88C81.44 448.74 93.51 448.63 108.44 448.63C123.37 448.63 135.34 448.74 135.34 448.88Z" fill="#263238"/>
<path d="M471.42 478.93C471.42 479.08 374.97 479.19 256.01 479.19C137.05 479.19 40.58 479.08 40.58 478.93C40.58 478.78 137.01 478.67 256.01 478.67C375.01 478.67 471.42 478.79 471.42 478.93Z" fill="#263238"/>
<path d="M320 177.5C320 177.769 296.944 178 268.5 178C240.056 178 217 177.769 217 177.5C217 177.231 240.056 177 268.5 177C296.944 177 320 177.231 320 177.5Z" fill="#263238"/>
<path d="M320 195.5C320 195.769 292.911 196 259.506 196C226.101 196 199 195.769 199 195.5C199 195.231 226.089 195 259.506 195C292.924 195 320 195.192 320 195.5Z" fill="#263238"/>
<path d="M320 211.5C320 211.769 292.911 212 259.506 212C226.101 212 199 211.769 199 211.5C199 211.231 226.089 211 259.506 211C292.924 211 320 211.154 320 211.5Z" fill="#263238"/>
<path d="M320 227.5C320 227.769 292.911 228 259.506 228C226.101 228 199 227.769 199 227.5C199 227.231 226.089 227 259.506 227C292.924 227 320 227.231 320 227.5Z" fill="#263238"/>
<path d="M320 244.458C320 244.771 292.911 245 259.506 245C226.101 245 199 244.771 199 244.458C199 244.146 226.051 244 259.506 244C292.962 244 320 244.167 320 244.458Z" fill="#263238"/>
<path d="M320 260.48C320 260.78 292.911 261 259.506 261C226.101 261 199 260.78 199 260.48C199 260.18 226.051 260 259.506 260C292.962 260 320 260.2 320 260.48Z" fill="#263238"/>
<path d="M320 276.509C320 276.774 292.911 277 259.506 277C226.101 277 199 276.774 199 276.509C199 276.245 226.051 276 259.506 276C292.962 276 320 276.226 320 276.509Z" fill="#263238"/>
<path d="M320 292.5C320 292.769 292.911 293 259.506 293C226.101 293 199 292.769 199 292.5C199 292.231 226.089 292 259.506 292C292.924 292 320 292.212 320 292.5Z" fill="#263238"/>
<path d="M260 309.5C260 309.769 246.327 310 229.532 310C212.736 310 199 309.769 199 309.5C199 309.231 212.66 309 229.532 309C246.404 309 260 309.231 260 309.5Z" fill="#263238"/>
<path d="M197.237 162H213.837L214 167.141H213.305C213.168 165.98 212.711 164.884 211.988 163.983C210.98 163.37 209.806 163.113 208.644 163.251H207.017V178.72C207.017 179.895 207.194 180.612 207.549 180.886C208.259 181.273 209.055 181.463 209.857 181.436V182H201.32V181.436C202.134 181.476 202.94 181.258 203.628 180.81C204.036 180.07 204.197 179.213 204.087 178.369V163.251H202.445C201.267 163.103 200.074 163.349 199.042 163.953C198.272 164.824 197.809 165.936 197.725 167.111H197L197.237 162Z" fill="#263238"/>
<path d="M374.57 216.23L372.26 172.59C372.222 169.034 371.724 165.498 370.78 162.07C369.81 158.61 367.533 155.662 364.43 153.85C361.27 152.21 357.01 152.5 354.58 155.09L356.3 157.45C354.887 184.163 354.287 210.903 354.5 237.67C354.5 239.67 354.58 241.82 355.75 243.44C357.75 246.17 361.75 246.14 365.07 245.83C367.94 245.57 371.2 245.09 372.8 242.7C373.407 241.672 373.802 240.533 373.96 239.35C375.38 231.75 375 224 374.57 216.23Z" fill="#263238"/>
<path d="M360.72 160C360.306 158.979 359.688 158.054 358.904 157.28C358.12 156.506 357.186 155.901 356.16 155.5C354.07 154.82 351.44 155.63 350.53 157.63L355.46 163.19C355.947 164.009 356.659 164.672 357.51 165.1C357.939 165.307 358.414 165.401 358.889 165.375C359.365 165.349 359.826 165.203 360.23 164.95C360.592 164.677 360.884 164.324 361.084 163.917C361.284 163.511 361.385 163.063 361.38 162.61C361.361 161.701 361.135 160.809 360.72 160V160Z" fill="#558EB4"/>
<path d="M369 183.21C368.15 173.79 363.17 164.62 355.19 159.54C347.21 154.46 336.32 154 328.34 159C323.311 162.373 319.511 167.285 317.51 173C315.41 178.64 316.32 183.31 316.37 189.32C316.37 192.44 316.79 200.81 319.48 202.38L361.48 209.91C366.82 202.18 369.86 192.63 369 183.21Z" fill="#263238"/>
<path d="M367.54 176C366.54 170.4 361.12 165 356.86 161.21C352 156.93 351.31 157.12 344.86 156.96C338.03 156.78 330.57 156.81 325.24 161.09C322.24 163.46 320.37 166.88 318.83 170.33C315.27 178.33 315.83 187.46 316.9 196.14C317.97 204.82 319.83 213.02 326.9 218.14L356.77 213.52C363.36 211.07 365.56 203.52 367.42 196.77C369.28 190.02 368.7 182.91 367.54 176Z" fill="#263238"/>
<path d="M317.9 181.55C318.32 173.34 327.06 165.04 335.25 165.8L361.84 170.53V174.95L362.14 230.11C352.039 232.43 341.792 234.064 331.47 235L331.24 223.94C331.24 223.94 320.73 222.32 318.39 208.67C317.23 201.84 317.43 190.68 317.9 181.55Z" fill="#FFBE9D"/>
<path d="M322.88 192.43C322.882 192.887 323.062 193.324 323.381 193.651C323.7 193.977 324.134 194.167 324.59 194.18C324.814 194.195 325.039 194.165 325.251 194.091C325.463 194.018 325.658 193.903 325.825 193.753C325.992 193.603 326.127 193.421 326.222 193.218C326.317 193.014 326.371 192.794 326.38 192.57C326.38 192.113 326.201 191.674 325.882 191.347C325.562 191.019 325.127 190.83 324.67 190.82C324.446 190.805 324.221 190.835 324.009 190.909C323.797 190.982 323.602 191.097 323.435 191.247C323.268 191.397 323.133 191.579 323.038 191.782C322.943 191.986 322.889 192.206 322.88 192.43V192.43Z" fill="#263238"/>
<path d="M320.86 187.33C321.08 187.56 322.4 186.56 324.29 186.54C326.18 186.52 327.57 187.45 327.78 187.22C327.99 186.99 327.65 186.7 327.04 186.27C326.217 185.716 325.242 185.43 324.25 185.45C323.267 185.457 322.311 185.776 321.52 186.36C321 186.82 320.75 187.23 320.86 187.33Z" fill="#263238"/>
<path d="M339.68 192.43C339.682 192.888 339.864 193.327 340.185 193.654C340.506 193.981 340.942 194.17 341.4 194.18C341.624 194.195 341.849 194.165 342.061 194.091C342.273 194.018 342.468 193.903 342.635 193.753C342.802 193.603 342.937 193.421 343.032 193.218C343.127 193.014 343.181 192.794 343.19 192.57C343.188 192.114 343.008 191.676 342.689 191.349C342.37 191.023 341.936 190.833 341.48 190.82C341.256 190.805 341.03 190.835 340.818 190.909C340.605 190.982 340.409 191.097 340.242 191.247C340.074 191.397 339.938 191.579 339.841 191.782C339.745 191.985 339.69 192.205 339.68 192.43V192.43Z" fill="#263238"/>
<path d="M339.43 187.46C339.65 187.69 340.97 186.69 342.86 186.67C344.75 186.65 346.14 187.58 346.34 187.35C346.54 187.12 346.22 186.83 345.61 186.4C344.783 185.845 343.806 185.558 342.81 185.58C341.83 185.587 340.877 185.906 340.09 186.49C339.51 186.94 339.32 187.36 339.43 187.46Z" fill="#263238"/>
<path d="M332.74 201.55C331.743 201.245 330.712 201.07 329.67 201.03C329.19 201.03 328.73 200.9 328.67 200.57C328.618 200.074 328.723 199.574 328.97 199.14L330.35 195.45C332.27 190.2 333.65 185.88 333.44 185.8C333.23 185.72 331.5 189.92 329.58 195.18L328.26 198.89C327.968 199.475 327.887 200.142 328.03 200.78C328.104 200.95 328.215 201.101 328.356 201.222C328.496 201.343 328.661 201.431 328.84 201.48C329.108 201.549 329.383 201.582 329.66 201.58C330.684 201.701 331.719 201.691 332.74 201.55V201.55Z" fill="#263238"/>
<path d="M331.24 223.94C337.845 223.967 344.332 222.19 350 218.8C350 218.8 345.49 228.44 331.31 227.35L331.24 223.94Z" fill="#EB996E"/>
<path d="M333.6 206.09C333.951 205.639 334.409 205.283 334.933 205.056C335.458 204.829 336.031 204.737 336.6 204.79C337.017 204.821 337.423 204.937 337.794 205.129C338.166 205.322 338.494 205.587 338.76 205.91C339.013 206.223 339.166 206.606 339.198 207.007C339.23 207.409 339.14 207.81 338.94 208.16C338.641 208.504 338.246 208.751 337.806 208.869C337.366 208.986 336.901 208.969 336.47 208.82C335.576 208.513 334.75 208.034 334.04 207.41C333.823 207.263 333.637 207.077 333.49 206.86C333.419 206.755 333.38 206.632 333.38 206.505C333.38 206.378 333.419 206.255 333.49 206.15" fill="#EB996E"/>
<path d="M338.32 202.79C338.01 202.79 338.03 204.79 336.32 206.3C334.61 207.81 332.4 207.58 332.39 207.86C332.39 207.99 332.88 208.25 333.8 208.27C335.002 208.272 336.167 207.851 337.09 207.08C337.972 206.339 338.531 205.285 338.65 204.14C338.69 203.28 338.46 202.77 338.32 202.79Z" fill="#263238"/>
<path d="M338.94 182.13C339.13 182.64 341.02 182.38 343.23 182.62C345.44 182.86 347.23 183.44 347.54 182.98C347.67 182.76 347.35 182.28 346.62 181.79C345.655 181.179 344.558 180.808 343.42 180.71C342.285 180.589 341.138 180.737 340.07 181.14C339.26 181.48 338.86 181.89 338.94 182.13Z" fill="#263238"/>
<path d="M320.84 180.86C321.18 181.28 322.47 180.86 324.04 180.78C325.61 180.7 326.93 181.03 327.23 180.58C327.36 180.36 327.15 179.93 326.56 179.53C325.782 179.047 324.875 178.813 323.96 178.86C323.04 178.887 322.152 179.202 321.42 179.76C320.87 180.2 320.69 180.65 320.84 180.86Z" fill="#263238"/>
<path d="M327.09 162C322.09 165.41 318.57 171 316.87 177.19L317.71 182.26C318.88 179.81 319.03 177.18 321.45 174.67C323.658 172.657 326.348 171.248 329.26 170.58C338.38 168.26 341.45 164.95 345.48 158.99C339.57 157.5 332.13 158.58 327.09 162Z" fill="#263238"/>
<path d="M366.45 175.36C365.105 170.795 362.488 166.708 358.906 163.575C355.323 160.443 350.923 158.395 346.22 157.67L345.48 158.98L338.55 167.08C337.914 167.701 337.464 168.487 337.25 169.35C337.214 169.943 337.331 170.535 337.588 171.071C337.845 171.606 338.235 172.067 338.72 172.41C340.92 174.21 343.99 174.32 346.83 174.41C349.67 174.5 352.77 174.72 354.83 176.66C357.4 179.08 357.34 183.19 356.48 186.66C355.583 190.749 355.296 194.947 355.63 199.12C355.95 202.27 360.11 194.62 362.85 196.21C363.61 196.65 361.55 209.01 362.35 208.63C363.15 208.25 363.06 203.81 363.35 202.98C364.859 198.534 366.049 193.986 366.91 189.37C367.772 184.722 367.615 179.942 366.45 175.36V175.36Z" fill="#263238"/>
<path d="M358.68 199.13C358.719 198.441 358.932 197.772 359.3 197.188C359.667 196.603 360.177 196.121 360.782 195.788C361.386 195.454 362.066 195.279 362.756 195.279C363.447 195.28 364.126 195.455 364.73 195.79C366.13 196.63 367.18 198.31 366.98 201.47C366.45 209.89 358.1 207.62 358.11 207.38C358.12 207.14 358.43 202.62 358.68 199.13Z" fill="#FFBE9D"/>
<path d="M360.87 204.34C360.87 204.34 361.01 204.46 361.25 204.59C361.588 204.759 361.979 204.791 362.34 204.68C363.25 204.41 364.1 203.05 364.24 201.54C364.308 200.819 364.216 200.091 363.97 199.41C363.911 199.145 363.79 198.897 363.616 198.688C363.442 198.48 363.22 198.316 362.97 198.21C362.805 198.153 362.626 198.156 362.463 198.218C362.3 198.28 362.165 198.398 362.08 198.55C361.95 198.78 361.99 198.95 361.95 198.96C361.91 198.97 361.77 198.81 361.87 198.47C361.924 198.262 362.052 198.08 362.23 197.96C362.476 197.802 362.773 197.745 363.06 197.8C363.401 197.892 363.712 198.07 363.964 198.317C364.216 198.564 364.401 198.871 364.5 199.21C364.812 199.962 364.936 200.779 364.86 201.59C364.69 203.28 363.71 204.81 362.47 205.08C362.241 205.133 362.003 205.133 361.774 205.079C361.545 205.025 361.331 204.92 361.15 204.77C360.87 204.55 360.84 204.36 360.87 204.34Z" fill="#EB996E"/>
<path d="M360.81 164.3C361.942 165.619 362.946 167.042 363.81 168.55C364.771 170.177 365.597 171.879 366.28 173.64C367.12 175.794 367.75 178.024 368.16 180.3C368.924 184.443 368.88 188.694 368.03 192.82C367.96 193.198 367.87 193.572 367.76 193.94C367.66 194.28 367.57 194.61 367.49 194.94C367.353 195.471 367.179 195.993 366.97 196.5L366.61 197.5L366.47 197.83C366.487 197.71 366.517 197.593 366.56 197.48C366.64 197.23 366.75 196.91 366.88 196.48C367.063 195.968 367.22 195.448 367.35 194.92L367.6 193.92C367.703 193.551 367.786 193.177 367.85 192.8C368.647 188.697 368.667 184.481 367.91 180.37C367.498 178.108 366.878 175.889 366.06 173.74C365.386 171.99 364.584 170.292 363.66 168.66L363.09 167.66L362.53 166.81L362.05 166.06C361.9 165.83 361.75 165.64 361.62 165.46L361.01 164.62L360.81 164.3Z" fill="#455A64"/>
<path d="M361.63 166.87C361.618 166.954 361.602 167.038 361.58 167.12C361.511 167.366 361.396 167.597 361.24 167.8C360.643 168.52 359.841 169.04 358.94 169.29C357.82 169.66 356.48 169.99 354.94 170.29C353.293 170.649 351.622 170.89 349.94 171.01C348.273 171.136 346.597 171.089 344.94 170.87C343.575 170.682 342.233 170.346 340.94 169.87C340.076 169.553 339.243 169.158 338.45 168.69C338.231 168.567 338.021 168.43 337.82 168.28C337.68 168.19 337.6 168.13 337.61 168.12C337.62 168.11 337.92 168.3 338.5 168.6C339.302 169.034 340.138 169.402 341 169.7C342.279 170.138 343.599 170.447 344.94 170.62C346.598 170.829 348.273 170.873 349.94 170.75C352.946 170.495 355.917 169.935 358.81 169.08C359.687 168.85 360.479 168.371 361.09 167.7C361.307 167.449 361.489 167.17 361.63 166.87V166.87Z" fill="#455A64"/>
<path d="M360.11 164C360.11 164 360.11 164.06 359.97 164.17C359.83 164.28 359.73 164.44 359.53 164.62C358.959 165.141 358.332 165.597 357.66 165.98C355.409 167.216 352.878 167.853 350.31 167.83C347.762 167.812 345.225 167.476 342.76 166.83C341.82 166.59 341.06 166.38 340.53 166.23C340.257 166.163 339.99 166.076 339.73 165.97C340.011 165.999 340.288 166.053 340.56 166.13L342.8 166.65C345.254 167.265 347.77 167.6 350.3 167.65C352.829 167.662 355.323 167.061 357.57 165.9C358.48 165.356 359.331 164.719 360.11 164Z" fill="#455A64"/>
<path d="M358.38 163C358.191 163.088 357.993 163.155 357.79 163.2C357.4 163.32 356.79 163.47 356.12 163.62C352.397 164.391 348.553 164.367 344.84 163.55C344.13 163.4 343.56 163.24 343.17 163.12C342.967 163.069 342.769 162.999 342.58 162.91C342.79 162.922 342.999 162.959 343.2 163.02C343.59 163.12 344.2 163.24 344.87 163.37C346.719 163.727 348.597 163.911 350.48 163.92C352.357 163.924 354.231 163.764 356.08 163.44C356.8 163.31 357.37 163.2 357.76 163.11C357.962 163.049 358.17 163.012 358.38 163V163Z" fill="#455A64"/>
<path d="M347.14 155.85C347.091 156.056 347.024 156.256 346.94 156.45C346.79 156.83 346.55 157.37 346.23 158.02C344.494 161.434 341.95 164.373 338.82 166.58C338.22 167 337.72 167.31 337.37 167.51C337.189 167.623 336.998 167.72 336.8 167.8C336.955 167.658 337.126 167.533 337.31 167.43C337.65 167.2 338.14 166.87 338.72 166.43C340.231 165.299 341.616 164.008 342.85 162.58C344.085 161.154 345.161 159.599 346.06 157.94C346.41 157.3 346.67 156.77 346.85 156.41C346.922 156.212 347.02 156.023 347.14 155.85Z" fill="#455A64"/>
<path d="M317.21 173.94C317.21 173.94 317.21 173.85 317.35 173.72C317.49 173.59 317.6 173.38 317.81 173.13C318.388 172.412 319.002 171.725 319.65 171.07C320.609 170.095 321.657 169.211 322.78 168.43C323.447 167.974 324.142 167.56 324.86 167.19C325.639 166.801 326.444 166.467 327.27 166.19C330.172 165.252 333.233 164.911 336.27 165.19C337.186 165.274 338.095 165.421 338.99 165.63C339.31 165.7 339.55 165.78 339.71 165.82C339.797 165.838 339.882 165.868 339.96 165.91C339.96 165.91 339.61 165.85 338.96 165.73C338.06 165.561 337.152 165.441 336.24 165.37C333.233 165.125 330.208 165.465 327.33 166.37C324.472 167.344 321.88 168.971 319.76 171.12C318.93 171.93 318.3 172.62 317.87 173.12L317.37 173.68C317.324 173.771 317.27 173.858 317.21 173.94V173.94Z" fill="#455A64"/>
<path d="M323.53 164.88C323.733 164.725 323.947 164.585 324.17 164.46C324.438 164.291 324.715 164.138 325 164C325.32 163.84 325.67 163.64 326.08 163.47C326.49 163.3 326.93 163.09 327.43 162.92C327.951 162.72 328.482 162.546 329.02 162.4C331.486 161.705 334.056 161.451 336.61 161.65C337.19 161.71 337.75 161.76 338.27 161.86C338.79 161.96 339.27 162.04 339.7 162.14C340.092 162.223 340.479 162.326 340.86 162.45C341.151 162.528 341.438 162.622 341.72 162.73C341.964 162.809 342.201 162.906 342.43 163.02C342.174 162.982 341.923 162.918 341.68 162.83C341.399 162.731 341.112 162.651 340.82 162.59C340.48 162.5 340.09 162.39 339.66 162.31C339.23 162.23 338.75 162.13 338.24 162.07C337.73 162.01 337.17 161.94 336.59 161.89C335.328 161.796 334.062 161.796 332.8 161.89C331.544 162.023 330.3 162.254 329.08 162.58C328.52 162.74 327.98 162.88 327.5 163.07C327.02 163.26 326.56 163.42 326.15 163.59C325.74 163.76 325.39 163.93 325.07 164.08C324.75 164.23 324.48 164.36 324.26 164.48C324.035 164.644 323.79 164.779 323.53 164.88Z" fill="#455A64"/>
<path d="M365.35 206.46C365.51 206.38 365.76 206.46 366.04 206.77C366.436 207.215 366.7 207.763 366.8 208.35C366.876 208.787 366.876 209.233 366.8 209.67C366.71 210.215 366.494 210.732 366.17 211.18C365.796 211.693 365.297 212.103 364.72 212.37C364.039 212.69 363.268 212.761 362.54 212.57C361.828 212.376 361.202 211.95 360.76 211.36C360.38 210.862 360.13 210.278 360.03 209.66C359.958 209.171 359.983 208.673 360.105 208.194C360.227 207.715 360.443 207.265 360.74 206.87C361.083 206.386 361.549 206.003 362.09 205.76C362.47 205.61 362.73 205.63 362.84 205.76C362.95 205.89 362.61 206.76 362.34 207.71C362.2 208.18 362.2 208.68 362.34 209.15C362.404 209.36 362.515 209.552 362.664 209.713C362.813 209.874 362.996 210 363.2 210.08C363.373 210.128 363.557 210.128 363.73 210.08C363.952 209.997 364.156 209.871 364.33 209.71C364.669 209.368 364.89 208.926 364.96 208.45C365.17 207.45 365 206.62 365.35 206.46Z" fill="#558EB4"/>
<path d="M311.21 272.89L317.53 301.14L314.54 320.1H383.95L379.42 231.59L362.11 230.12L319.83 237.25L311.21 272.89Z" fill="#558EB4"/>
<path d="M328.87 236.74C328.87 236.74 310.79 235.08 302.18 247.39C296.91 254.91 289.51 272.2 289.51 272.2L313.58 276.35L328.87 236.74Z" fill="#558EB4"/>
<g opacity="0.3">
<path opacity="0.3" d="M353.07 263.48C358.15 269.75 360.54 277.71 363.86 285.07C368.14 294.55 374.07 303.18 379.96 311.75C380.4 312.39 380.96 313.11 381.78 313.02C382.6 312.93 382.99 312.02 383.2 311.23C384.351 306.327 384.003 301.192 382.2 296.49C380.397 291.815 377.975 287.402 375 283.37C370.482 276.893 365.467 270.778 360 265.08C359.099 263.983 357.941 263.124 356.63 262.58C355.967 262.322 355.234 262.308 354.562 262.541C353.89 262.774 353.322 263.238 352.96 263.85" fill="black"/>
</g>
<g opacity="0.3">
<path opacity="0.3" d="M317.29 296.23C318.457 291.61 319.63 286.99 320.81 282.37C320.998 281.436 321.318 280.534 321.76 279.69C322.421 278.689 323.25 277.809 324.21 277.09C325.284 276.065 326.552 275.266 327.94 274.74C329.129 274.548 330.3 274.257 331.44 273.87C332.92 273.13 333.71 271.52 334.32 269.98C334.78 268.8 335.17 267.4 334.5 266.33C334.111 265.869 333.618 265.507 333.062 265.274C332.505 265.041 331.901 264.943 331.3 264.99C328.518 264.953 325.782 265.707 323.412 267.164C321.041 268.621 319.133 270.721 317.91 273.22C316.11 277.08 316.11 281.51 316.14 285.77L316.24 297.16" fill="black"/>
</g>
<path d="M339.49 296.77C339.49 296.71 338.55 296.87 337.03 296.99C335.053 297.137 333.067 297.087 331.1 296.84C329.138 296.576 327.208 296.114 325.34 295.46C323.9 294.96 323.04 294.56 323.01 294.62C322.98 294.68 323.2 294.78 323.58 294.98C324.115 295.265 324.666 295.519 325.23 295.74C327.1 296.485 329.055 296.995 331.05 297.26C333.042 297.51 335.058 297.51 337.05 297.26C337.653 297.197 338.251 297.093 338.84 296.95C339.27 296.87 339.5 296.8 339.49 296.77Z" fill="#263238"/>
<path d="M369.78 298C369.78 297.88 359.92 300.68 347.84 304.25C335.76 307.82 326 310.81 326 310.92C326 311.03 335.86 308.24 347.94 304.67C360.02 301.1 369.81 298.13 369.78 298Z" fill="#263238"/>
<g opacity="0.3">
<path opacity="0.3" d="M324 295.1C324.552 296.559 325.499 297.836 326.735 298.788C327.971 299.74 329.448 300.329 331 300.49C332.573 300.658 334.162 300.394 335.597 299.726C337.031 299.058 338.256 298.012 339.14 296.7C334.039 297.459 328.829 296.908 324 295.1" fill="black"/>
</g>
<g opacity="0.3">
<path opacity="0.3" d="M328.67 310.06L328.92 310.16C335.12 311.27 340.92 310.16 346.86 308.05C352.8 305.94 358.34 302.89 363.86 299.8L328.67 310.06Z" fill="black"/>
</g>
<path d="M365.57 309.37C365.704 309.962 365.704 310.578 365.57 311.17C365.324 312.612 364.781 313.986 363.975 315.207C363.17 316.427 362.119 317.467 360.89 318.26C360.404 318.622 359.844 318.871 359.25 318.99C359.704 318.626 360.182 318.292 360.68 317.99C361.792 317.155 362.759 316.141 363.54 314.99C364.309 313.817 364.874 312.522 365.21 311.16C365.288 310.556 365.408 309.957 365.57 309.37V309.37Z" fill="#263238"/>
<path d="M369.16 313.65C369.018 314.177 368.755 314.664 368.39 315.07C367.593 316.113 366.592 316.984 365.449 317.63C364.307 318.276 363.045 318.684 361.74 318.83C361.205 318.931 360.653 318.903 360.13 318.75C361.892 318.512 363.602 317.981 365.19 317.18C366.699 316.23 368.04 315.038 369.16 313.65Z" fill="#263238"/>
<path d="M405.28 393.92C404 388.68 394.74 354.79 392.96 349.69L384.62 325.81L384.06 317.92L313.33 320.1C313.33 320.1 303.26 332.5 299.53 346.56C296.32 358.61 294.7 376.9 302.29 424.46C307.29 450.85 313.07 478.93 313.07 478.93H355.44L349.77 381.78L365.49 436.18L379.82 478.91L425.14 478.67L405.28 393.92Z" fill="#455A64"/>
<path d="M309.56 331.62C309.527 331.746 309.487 331.869 309.44 331.99C309.35 332.25 309.22 332.6 309.06 333.04C308.9 333.48 308.67 334.04 308.41 334.76C308.15 335.48 307.86 336.21 307.59 337.11C305.916 342.144 304.681 347.313 303.9 352.56C302.767 360.346 302.325 368.216 302.58 376.08C302.79 384.95 303.67 394.69 304.78 404.89C307 425.28 311 443.46 314 456.57C315.5 463.11 316.72 468.4 317.56 472.1C317.98 473.91 318.3 475.32 318.56 476.32L318.8 477.42C318.833 477.544 318.853 477.672 318.86 477.8C318.808 477.681 318.767 477.557 318.74 477.43L318.46 476.34C318.21 475.34 317.85 473.94 317.4 472.14C316.49 468.49 315.2 463.21 313.67 456.66C310.67 443.56 306.59 425.38 304.33 404.94C303.22 394.74 302.33 384.99 302.16 376.09C301.927 368.2 302.405 360.304 303.59 352.5C304.408 347.243 305.703 342.072 307.46 337.05C307.74 336.15 308.05 335.37 308.33 334.7L309 333L309.43 332C309.454 331.867 309.498 331.739 309.56 331.62Z" fill="#263238"/>
<path d="M322.07 475.26C322.21 475.26 322.45 475.75 322.62 476.42C322.79 477.09 322.79 477.66 322.62 477.69C322.45 477.72 322.24 477.21 322.08 476.54C321.92 475.87 321.93 475.3 322.07 475.26Z" fill="#263238"/>
<path d="M319.77 465.62C320.481 467.133 320.869 468.778 320.91 470.45C320.202 468.935 319.814 467.291 319.77 465.62V465.62Z" fill="#263238"/>
<path d="M317.52 456C317.947 456.72 318.222 457.52 318.33 458.35C318.601 459.147 318.703 459.991 318.63 460.83C318.202 460.107 317.927 459.304 317.82 458.47C317.549 457.677 317.446 456.835 317.52 456V456Z" fill="#263238"/>
<path d="M315.37 446.29C315.788 447.015 316.054 447.818 316.15 448.65C316.416 449.448 316.512 450.293 316.43 451.13C316.01 450.401 315.741 449.595 315.64 448.76C315.381 447.964 315.289 447.123 315.37 446.29V446.29Z" fill="#263238"/>
<path d="M313.36 436.58C313.771 437.313 314.026 438.124 314.11 438.96C314.362 439.761 314.441 440.606 314.34 441.44C313.677 439.906 313.336 438.251 313.34 436.58H313.36Z" fill="#263238"/>
<path d="M311.54 426.84C311.94 427.578 312.178 428.393 312.24 429.23C312.468 430.039 312.533 430.886 312.43 431.72C311.797 430.173 311.494 428.511 311.54 426.84V426.84Z" fill="#263238"/>
<path d="M310 417.06C310.597 418.621 310.856 420.291 310.76 421.96C310.163 420.399 309.904 418.729 310 417.06Z" fill="#263238"/>
<path d="M308.65 407.25C309.201 408.824 309.413 410.498 309.27 412.16C308.915 411.401 308.721 410.577 308.7 409.74C308.514 408.922 308.497 408.075 308.65 407.25V407.25Z" fill="#263238"/>
<path d="M307.61 397.4C308.122 398.986 308.292 400.663 308.11 402.32C307.776 401.553 307.602 400.726 307.6 399.89C307.439 399.068 307.442 398.221 307.61 397.4V397.4Z" fill="#263238"/>
<path d="M306.76 387.53C307.242 389.13 307.375 390.814 307.15 392.47C306.839 391.691 306.686 390.858 306.7 390.02C306.546 389.195 306.566 388.347 306.76 387.53V387.53Z" fill="#263238"/>
<path d="M306.23 377.64C306.653 379.256 306.724 380.944 306.44 382.59C306.158 381.799 306.035 380.959 306.08 380.12C305.96 379.292 306.012 378.448 306.23 377.64V377.64Z" fill="#263238"/>
<path d="M306.2 367.73C306.449 368.532 306.528 369.376 306.43 370.21C306.512 371.045 306.413 371.887 306.14 372.68C305.898 371.88 305.82 371.04 305.91 370.21C305.841 369.372 305.939 368.529 306.2 367.73V367.73Z" fill="#263238"/>
<path d="M306.84 357.85C307.034 358.667 307.054 359.515 306.9 360.34C306.908 361.177 306.748 362.006 306.43 362.78C306.236 361.963 306.219 361.114 306.38 360.29C306.364 359.454 306.52 358.623 306.84 357.85V357.85Z" fill="#263238"/>
<path d="M308.34 348.06C308.449 348.89 308.388 349.734 308.16 350.54C308.099 351.376 307.864 352.19 307.47 352.93C307.361 352.1 307.422 351.256 307.65 350.45C307.713 349.614 307.947 348.801 308.34 348.06V348.06Z" fill="#263238"/>
<path d="M310.83 338.47C310.711 340.136 310.241 341.759 309.45 343.23C309.428 342.392 309.577 341.558 309.89 340.78C310.038 339.953 310.358 339.166 310.83 338.47Z" fill="#263238"/>
<path d="M313.41 331.52C313.54 331.57 313.41 332.13 313.18 332.77C312.95 333.41 312.61 333.88 312.47 333.83C312.33 333.78 312.47 333.22 312.7 332.58C312.93 331.94 313.28 331.46 313.41 331.52Z" fill="#263238"/>
<path d="M354.37 387.05C354.24 387.12 353.53 386.25 352.78 385.1C352.253 384.438 351.865 383.676 351.64 382.86C351.75 382.77 352.46 383.65 353.22 384.81C353.749 385.472 354.141 386.234 354.37 387.05Z" fill="#263238"/>
<path d="M358.66 396.07C358.111 395.427 357.693 394.683 357.43 393.88C357.023 393.139 356.771 392.322 356.69 391.48C357.239 392.121 357.654 392.866 357.91 393.67C358.325 394.409 358.58 395.227 358.66 396.07V396.07Z" fill="#263238"/>
<path d="M361.89 405.53C361.398 404.842 361.058 404.059 360.89 403.23C360.551 402.454 360.377 401.617 360.38 400.77C360.866 401.461 361.206 402.243 361.38 403.07C361.717 403.846 361.891 404.684 361.89 405.53Z" fill="#263238"/>
<path d="M364.71 415.13C363.916 413.644 363.439 412.01 363.31 410.33C363.786 411.032 364.11 411.825 364.26 412.66C364.568 413.447 364.721 414.285 364.71 415.13Z" fill="#263238"/>
<path d="M367.49 424.74C367.021 424.035 366.698 423.242 366.54 422.41C366.226 421.622 366.077 420.778 366.1 419.93C366.568 420.635 366.888 421.428 367.04 422.26C367.36 423.047 367.513 423.891 367.49 424.74V424.74Z" fill="#263238"/>
<path d="M370.28 434.34C369.804 433.638 369.48 432.845 369.33 432.01C369.022 431.224 368.869 430.385 368.88 429.54C369.356 430.242 369.68 431.035 369.83 431.87C370.138 432.657 370.291 433.495 370.28 434.34V434.34Z" fill="#263238"/>
<path d="M373.06 444C372.591 443.295 372.268 442.502 372.11 441.67C371.796 440.882 371.647 440.038 371.67 439.19C372.139 439.895 372.462 440.688 372.62 441.52C372.934 442.308 373.083 443.152 373.06 444V444Z" fill="#263238"/>
<path d="M375.85 453.55C375.356 452.853 375.015 452.058 374.85 451.22C374.542 450.434 374.389 449.595 374.4 448.75C374.876 449.452 375.2 450.245 375.35 451.08C375.675 451.863 375.845 452.702 375.85 453.55V453.55Z" fill="#263238"/>
<path d="M378.63 463.15C377.842 461.663 377.369 460.029 377.24 458.35C378.037 459.834 378.51 461.47 378.63 463.15V463.15Z" fill="#263238"/>
<path d="M381.42 472.76C380.944 472.058 380.62 471.265 380.47 470.43C380.16 469.657 380.001 468.833 380 468C380.493 468.694 380.833 469.485 381 470.32C381.298 471.098 381.441 471.927 381.42 472.76V472.76Z" fill="#263238"/>
<path d="M383.34 479.38C383.2 479.38 382.97 479.04 382.82 478.54C382.67 478.04 382.67 477.6 382.82 477.54C382.97 477.48 383.19 477.87 383.33 478.38C383.47 478.89 383.47 479.34 383.34 479.38Z" fill="#263238"/>
<path d="M356.9 319.25C356.946 319.44 356.97 319.635 356.97 319.83C356.97 320.27 356.97 320.83 357.06 321.5C357.13 322.95 357.2 325.04 357.22 327.64C357.29 332.82 357.16 339.99 356.61 347.88C356 357 354.86 365.1 354 370.19V370.32H353.87L349.3 370.42H348.1C347.961 370.439 347.819 370.439 347.68 370.42C347.817 370.381 347.958 370.361 348.1 370.36L349.31 370.27L353.87 370.02L353.71 370.16C354.42 365.06 355.45 356.99 356.09 347.87C356.64 339.99 356.83 332.87 356.85 327.66C356.85 325.12 356.85 323.04 356.85 321.52V319.85C356.841 319.649 356.858 319.447 356.9 319.25V319.25Z" fill="#263238"/>
<path d="M348.53 322.33C348.53 322.33 348.39 322.51 348.19 322.82C347.908 323.266 347.759 323.783 347.76 324.31C347.756 324.685 347.831 325.056 347.979 325.401C348.127 325.745 348.345 326.055 348.62 326.31C348.991 326.569 349.426 326.722 349.878 326.754C350.329 326.785 350.781 326.693 351.184 326.488C351.588 326.282 351.928 325.971 352.169 325.588C352.409 325.204 352.541 324.763 352.55 324.31C352.471 323.669 352.171 323.075 351.702 322.63C351.233 322.185 350.625 321.916 349.98 321.87C349.61 321.87 349.39 321.87 349.38 321.87C349.37 321.87 349.57 321.73 349.98 321.68C350.568 321.645 351.151 321.803 351.64 322.13C352.017 322.365 352.337 322.68 352.578 323.054C352.818 323.427 352.973 323.85 353.03 324.29C353.034 324.84 352.884 325.379 352.597 325.848C352.311 326.317 351.899 326.697 351.408 326.944C350.918 327.192 350.367 327.297 349.82 327.249C349.273 327.2 348.75 327 348.31 326.67C347.988 326.363 347.739 325.989 347.58 325.574C347.421 325.158 347.356 324.713 347.39 324.27C347.424 323.683 347.644 323.122 348.02 322.67C348.3 322.39 348.52 322.31 348.53 322.33Z" fill="#263238"/>
<path d="M334.38 321.9C334.394 322.29 334.354 322.681 334.26 323.06C334.065 324.107 333.777 325.134 333.4 326.13C332.167 329.441 330.088 332.372 327.37 334.63C324.653 336.887 321.391 338.394 317.91 339C316.865 339.197 315.803 339.294 314.74 339.29C314.351 339.316 313.961 339.289 313.58 339.21C313.58 339.11 315.25 339.21 317.84 338.64C321.223 337.952 324.383 336.438 327.039 334.233C329.694 332.027 331.763 329.199 333.06 326C334.06 323.54 334.28 321.88 334.38 321.9Z" fill="#263238"/>
<path d="M389.67 340.78C389.299 340.689 388.943 340.547 388.61 340.36C387.69 339.884 386.808 339.339 385.97 338.73C383.278 336.645 380.856 334.233 378.76 331.55C376.523 328.992 374.464 326.282 372.6 323.44C372.056 322.563 371.566 321.655 371.13 320.72C370.951 320.386 370.816 320.029 370.73 319.66C370.81 319.66 371.47 321.09 372.91 323.24C374.851 326.015 376.937 328.685 379.16 331.24C381.23 333.889 383.577 336.309 386.16 338.46C388.23 340 389.71 340.7 389.67 340.78Z" fill="#263238"/>
<path d="M347.42 451.59C347.09 451.646 346.755 451.667 346.42 451.65C345.511 451.647 344.604 451.597 343.7 451.5C340.705 451.203 337.758 450.531 334.93 449.5C332.104 448.469 329.417 447.092 326.93 445.4C326.175 444.889 325.447 444.338 324.75 443.75C324.26 443.33 324.01 443.09 324.03 443.06C324.05 443.03 325.2 443.87 327.13 445.06C332.175 448.242 337.841 450.308 343.75 451.12C346 451.45 347.42 451.5 347.42 451.59Z" fill="#263238"/>
<path d="M404.67 444.84C404.26 445.822 403.757 446.763 403.17 447.65C402.17 449.34 400.7 451.65 398.94 454.05C397.18 456.45 395.46 458.58 394.16 460.05C393.503 460.88 392.766 461.644 391.96 462.33C392.538 461.444 393.18 460.602 393.88 459.81C395.1 458.28 396.77 456.16 398.52 453.74C400.27 451.32 401.78 449.09 402.86 447.45C403.399 446.537 404.004 445.665 404.67 444.84V444.84Z" fill="#263238"/>
<path d="M368.1 251.72C367.8 248.04 372.01 243.72 373.21 240.22C375.63 233.17 375.38 230.11 374.57 216.22L362.27 213.6C361.89 218.23 362.56 216.42 362.12 221.43C361.807 226.47 360.303 231.364 357.73 235.71C355.81 238.76 353.12 241.58 352.73 245.16C352.2 250.33 356.73 254.79 357.04 259.98C357.44 267.19 349.64 273.14 350.59 280.29C350.643 281.088 350.885 281.862 351.295 282.549C351.705 283.235 352.272 283.815 352.95 284.24C354.017 284.687 355.178 284.862 356.33 284.75L363.91 284.65C364.727 284.742 365.549 284.52 366.21 284.03C367.15 283.11 366.65 281.56 366.46 280.25C365.61 274.63 371.63 270.01 371.78 264.32C371.92 259.92 368.47 256.12 368.1 251.72Z" fill="#263238"/>
<path d="M360.18 269.22C360.18 269.22 381.38 316.42 393.7 317.87C399.91 318.6 403.7 315.2 405.03 308.76C406.36 302.32 401.92 260.11 401.92 260.11L380.59 266L382.21 274.18L369.44 261.5L360.18 269.22Z" fill="#FFBE9D"/>
<path d="M379.42 231.59C379.42 231.59 391.35 232.73 395.79 242.51C400.23 252.29 406.39 263.31 406.39 263.31L380.15 269.22C380.15 269.22 376.48 249.48 376.2 242.51C375.89 234.88 375.1 231.37 379.42 231.59Z" fill="#558EB4"/>
<path d="M400.39 292.17C400.3 292.051 400.2 291.941 400.09 291.84L399.19 290.95L395.84 287.69C393.01 284.94 389.12 281.13 384.84 276.89C380.56 272.65 376.79 268.82 374 266L370.71 262.69L369.81 261.8C369.6 261.6 369.48 261.49 369.47 261.51C369.543 261.636 369.634 261.75 369.74 261.85L370.59 262.85C371.33 263.67 372.42 264.85 373.78 266.26C376.5 269.12 380.31 273.02 384.59 277.26C388.87 281.5 392.78 285.26 395.66 287.98C397.1 289.33 398.28 290.41 399.1 291.14L400.1 291.97C400.19 292.046 400.287 292.113 400.39 292.17V292.17Z" fill="#EB996E"/>
<path d="M341.44 232.56L349.73 235.79C349.73 235.79 354.29 235.79 354.88 237.3L356.06 240.24C356.06 240.24 358.85 240.95 359.44 242.51C360.03 244.07 364.88 254.66 364.88 254.66L369.44 261.5L360.18 269.22C359.07 267.787 357.783 266.5 356.35 265.39C354.44 264.07 346.5 257.39 346.35 255.59C346.2 253.79 341.91 243.59 341.86 242.51C341.81 241.43 341.7 239.07 342.78 239.66C343.86 240.25 345.32 243.19 345.32 243.19L344.32 239.19C343.592 238.676 342.973 238.022 342.499 237.267C342.025 236.511 341.706 235.669 341.56 234.79L341.44 232.56Z" fill="#FFBE9D"/>
<path d="M358.86 256.51C358.614 256.079 358.33 255.67 358.01 255.29L355.57 252.12L355.52 252.06H355.44H352.28H352.16L352.1 252.17C351.791 252.842 351.267 253.391 350.61 253.73C350.237 253.841 349.849 253.892 349.46 253.88C349.047 253.905 348.633 253.905 348.22 253.88L348.38 254.18L348.94 253.05L350.94 248.99L350.76 249.1L356.35 249.05H356.28L359.37 250.49C359.747 250.68 360.138 250.84 360.54 250.97C360.196 250.728 359.831 250.518 359.45 250.34L356.45 248.77H350.86H350.74L350.68 248.88L348.68 252.88L348.12 254.01L347.98 254.28H348.28C348.716 254.315 349.154 254.315 349.59 254.28H350.23C350.457 254.269 350.681 254.219 350.89 254.13C351.638 253.747 352.231 253.119 352.57 252.35L352.4 252.46H355.56L355.43 252.4L357.98 255.49C358.248 255.851 358.542 256.192 358.86 256.51V256.51Z" fill="#EB996E"/>
<path d="M356.06 243.84C355.607 243.773 355.148 243.743 354.69 243.75L350.98 243.68H350.34L350.91 243.99C351.783 244.424 352.596 244.969 353.33 245.61C353.51 245.79 353.64 246 353.57 246.13C353.438 246.335 353.251 246.498 353.03 246.6C352.525 246.877 351.987 247.092 351.43 247.24H351.49C350.386 247.138 349.318 246.797 348.36 246.24C347.98 245.946 347.674 245.566 347.467 245.132C347.26 244.698 347.159 244.221 347.17 243.74C347.09 242.802 347.127 241.859 347.28 240.93L347.1 241.09L353.56 240.58L355.4 240.4C355.624 240.396 355.847 240.359 356.06 240.29C355.837 240.266 355.613 240.266 355.39 240.29L353.55 240.36L347.08 240.71H346.92V240.86C346.748 241.82 346.697 242.798 346.77 243.77C346.811 244.297 346.926 244.815 347.11 245.31C347.3 245.854 347.675 246.314 348.17 246.61C349.188 247.216 350.33 247.585 351.51 247.69H351.57C352.156 247.525 352.72 247.29 353.25 246.99C353.548 246.85 353.791 246.614 353.94 246.32C353.985 246.233 354.008 246.137 354.008 246.04C354.008 245.943 353.985 245.847 353.94 245.76C353.863 245.628 353.769 245.507 353.66 245.4C352.89 244.738 352.032 244.186 351.11 243.76L351.04 244.06L354.75 243.99C355.19 243.974 355.628 243.924 356.06 243.84Z" fill="#EB996E"/>
<path d="M369.44 261.5L369.38 261.37L369.16 261.02L368.3 259.67L365 254.59C364.11 252.59 363.06 250.21 361.88 247.52C361.28 246.187 360.65 244.767 359.99 243.26C359.81 242.88 359.67 242.54 359.46 242.11C359.227 241.715 358.914 241.375 358.54 241.11C357.798 240.606 356.976 240.231 356.11 240L356.24 240.11L355.47 238.18L355.08 237.18C354.895 236.812 354.593 236.516 354.22 236.34C353.529 236.022 352.794 235.809 352.04 235.71C351.281 235.597 350.517 235.531 349.75 235.51H349.82L341.52 232.27L341.22 232.15V232.48C341.22 233.25 341.28 234.02 341.34 234.86C341.474 235.7 341.773 236.506 342.22 237.23C342.746 238.046 343.425 238.753 344.22 239.31L344.12 239.18C344.47 240.53 344.81 241.86 345.12 243.18L345.51 243.03C345.177 242.378 344.81 241.744 344.41 241.13C344.03 240.489 343.535 239.922 342.95 239.46C342.853 239.389 342.742 239.341 342.624 239.321C342.506 239.3 342.385 239.306 342.27 239.34C342.165 239.389 342.071 239.46 341.995 239.548C341.919 239.636 341.863 239.739 341.83 239.85C341.716 240.206 341.652 240.576 341.64 240.95C341.64 241.303 341.64 241.653 341.64 242C341.64 242.18 341.64 242.34 341.64 242.53C341.67 242.71 341.714 242.887 341.77 243.06C342.62 245.68 343.63 248.06 344.48 250.42C344.91 251.59 345.33 252.72 345.7 253.83C345.885 254.362 346.032 254.907 346.14 255.46C346.273 256.035 346.548 256.568 346.94 257.01C348.256 258.562 349.694 260.007 351.24 261.33C352.63 262.56 353.92 263.63 355.07 264.53C355.65 264.98 356.22 265.37 356.71 265.74C357.16 266.083 357.587 266.454 357.99 266.85C358.72 267.56 359.25 268.15 359.6 268.55L360 269.01L360.15 269.16C360.116 269.096 360.076 269.036 360.03 268.98C359.94 268.85 359.81 268.7 359.66 268.5C359.173 267.885 358.653 267.297 358.1 266.74C357.695 266.333 357.268 265.949 356.82 265.59C356.32 265.2 355.82 264.82 355.21 264.36C354.07 263.44 352.8 262.36 351.43 261.13C349.914 259.797 348.5 258.353 347.2 256.81C346.855 256.413 346.608 255.94 346.48 255.43C346.371 254.85 346.221 254.278 346.03 253.72C345.67 252.6 345.26 251.46 344.83 250.29C344 248 343 245.58 342.19 243C342.137 242.851 342.1 242.697 342.08 242.54C342.07 242.374 342.07 242.207 342.08 242.04C342.08 241.7 342.08 241.36 342.08 241.04C342.08 240.42 342.25 239.46 342.76 239.88C343.294 240.311 343.745 240.837 344.09 241.43C344.483 242.028 344.841 242.649 345.16 243.29L346 245L345.52 243.15C345.19 241.86 344.85 240.53 344.52 239.15V239.08L344.44 239.02C343.715 238.496 343.097 237.837 342.62 237.08C342.203 236.409 341.924 235.661 341.8 234.88C341.75 234.11 341.72 233.3 341.69 232.54L341.4 232.74L349.7 235.97H349.77C351.24 235.947 352.7 236.208 354.07 236.74C354.36 236.87 354.598 237.091 354.75 237.37C354.88 237.71 355.02 238.04 355.15 238.37L355.92 240.29V240.38H356.01C356.831 240.582 357.611 240.92 358.32 241.38C358.651 241.605 358.933 241.894 359.15 242.23C359.31 242.55 359.49 242.97 359.65 243.33L361.58 247.58C362.79 250.26 363.87 252.63 364.77 254.63L368.18 259.63C368.57 260.19 368.88 260.63 369.1 260.95L369.34 261.28L369.44 261.5Z" fill="#EB996E"/>
<path d="M382 274C381.85 271.821 381.566 269.654 381.15 267.51C380.865 265.342 380.444 263.195 379.89 261.08C380.027 263.263 380.307 265.434 380.73 267.58C381.015 269.745 381.439 271.89 382 274V274Z" fill="#263238"/>
<path d="M322.54 231.87L325.13 264.52C325.147 264.8 325.218 265.074 325.341 265.326C325.463 265.578 325.635 265.803 325.845 265.989C326.055 266.175 326.299 266.318 326.564 266.409C326.83 266.5 327.11 266.538 327.39 266.52L345.59 265.34C345.875 265.322 346.153 265.248 346.409 265.121C346.665 264.994 346.892 264.818 347.079 264.601C347.265 264.385 347.406 264.134 347.494 263.862C347.582 263.591 347.615 263.304 347.59 263.02L344.59 230.4C344.542 229.845 344.278 229.332 343.855 228.969C343.433 228.607 342.885 228.424 342.33 228.46L324.52 229.62C323.961 229.661 323.441 229.92 323.07 230.341C322.7 230.761 322.51 231.31 322.54 231.87Z" fill="#263238"/>
<path d="M296.5 273.44C296.5 273.44 291.07 310.17 291.28 315.1C291.49 320.03 297.07 330.98 304.58 332.05C312.09 333.12 319.17 326.26 319.39 317.25C319.61 308.24 320.72 279.73 320.72 279.73L315.11 276.64L296.5 273.44Z" fill="#FFBE9D"/>
<path d="M309.88 275.6C309.798 275.718 309.731 275.846 309.68 275.98C309.55 276.28 309.4 276.64 309.2 277.08C308.8 278.08 308.2 279.43 307.41 281.13C305.87 284.54 303.55 289.13 301.16 294.35C299.09 298.76 297.365 303.324 296 308C295.73 308.9 295.56 309.73 295.38 310.45C295.2 311.17 295.08 311.81 294.99 312.32C294.9 312.83 294.84 313.19 294.79 313.51C294.74 313.83 294.73 313.93 294.79 313.93C294.843 313.801 294.883 313.667 294.91 313.53C294.99 313.21 295.08 312.83 295.19 312.36C295.3 311.89 295.44 311.22 295.65 310.51C295.86 309.8 296.04 308.97 296.33 308.08C297.785 303.438 299.556 298.901 301.63 294.5C304.02 289.32 306.29 284.67 307.77 281.23C308.51 279.51 309.08 278.1 309.44 277.12L309.84 275.98C309.866 275.855 309.88 275.728 309.88 275.6V275.6Z" fill="#EB996E"/>
<path d="M327.45 243.09C327.45 243.09 321.82 246.55 320.16 247.45C318.5 248.35 318.71 255.06 318.71 255.06L309.25 277.06L320.66 281.15C320.66 281.15 324.72 273.45 325.89 272.48C326.702 271.853 327.63 271.391 328.62 271.12C328.62 271.12 329.2 273.26 330.96 272.29C332.346 271.371 333.592 270.256 334.66 268.98C334.66 268.98 336.21 269.98 336.8 268.78C337.39 267.58 338.36 265.08 338.36 265.08C338.36 265.08 335.04 260.8 333.68 260.8C332.32 260.8 325.31 261.19 325.31 261.19C325.96 260.541 326.766 260.069 327.65 259.82C329.59 259.04 341.19 255.63 341.73 255.42C342.55 255.11 343.47 252.98 340.94 252.78C338.41 252.58 324.14 255.13 324.14 255.13C324.14 255.13 323.36 251.45 323.95 250.67C324.54 249.89 329.59 246.59 327.45 243.09Z" fill="#FFBE9D"/>
<path d="M334.67 268.81C334.774 268.28 334.757 267.733 334.62 267.21C334.514 266.606 334.216 266.051 333.77 265.63C333.163 265.186 332.421 264.964 331.67 265C330.392 264.916 329.109 264.963 327.84 265.14C327.306 265.169 326.782 265.29 326.29 265.5C326.29 265.63 328.7 265.23 331.65 265.42C332.308 265.389 332.959 265.568 333.51 265.93C333.911 266.289 334.197 266.759 334.33 267.28C334.415 267.796 334.529 268.307 334.67 268.81Z" fill="#EB996E"/>
<path d="M332.41 269.51C332.34 269.42 331.41 270.02 330.22 270.51C329.457 270.767 328.709 271.067 327.98 271.41C328.816 271.47 329.653 271.289 330.39 270.89C331.183 270.635 331.884 270.155 332.41 269.51V269.51Z" fill="#EB996E"/>
<path d="M324.79 255.06C324.029 255.177 323.324 255.53 322.774 256.068C322.223 256.606 321.855 257.302 321.72 258.06C321.83 258.06 322.22 257.2 323.08 256.39C323.94 255.58 324.83 255.18 324.79 255.06Z" fill="#EB996E"/>
</svg>
