<svg width="24" height="24" viewBox="0 0 24 24" fill="none" xmlns="http://www.w3.org/2000/svg">
<path d="M17.5981 15.4774H16.486L16.0918 15.0975C17.7811 13.1278 18.654 10.4405 18.1753 7.58436C17.5137 3.67303 14.2476 0.549592 10.3058 0.0712279C4.35092 -0.660388 -0.660776 4.34837 0.0712697 10.2998C0.549915 14.2393 3.67519 17.5034 7.58881 18.1647C10.4466 18.643 13.1355 17.7707 15.1064 16.0824L15.4865 16.4763V17.5878L21.4695 23.5674C22.0467 24.1442 22.9899 24.1442 23.5671 23.5674C24.1443 22.9905 24.1443 22.0478 23.5671 21.471L17.5981 15.4774ZM9.15145 15.4774C5.64608 15.4774 2.81644 12.6494 2.81644 9.14608C2.81644 5.64277 5.64608 2.81479 9.15145 2.81479C12.6568 2.81479 15.4865 5.64277 15.4865 9.14608C15.4865 12.6494 12.6568 15.4774 9.15145 15.4774Z" fill="#397BA7"/>
</svg>
